<svg width="214" height="103" viewBox="0 0 214 103" fill="none" xmlns="http://www.w3.org/2000/svg">
<path opacity="0.8" d="M20.0111 91.658C20.6411 91.658 21.2571 91.644 21.4811 91.588C21.4391 91.448 21.4111 91.182 21.3831 90.986C21.0891 91.042 20.3891 91.056 19.9831 91.056H15.9931C15.3771 91.056 15.2091 90.874 15.2091 90.342V88.816H20.9911V88.214H15.2091V86.422H14.5371V90.328C14.5371 91.322 14.8871 91.658 16.0071 91.658H20.0111ZM13.5011 92.428C12.9131 92.624 12.3111 92.806 11.7371 92.988V89.936H13.4731V89.278H11.7371V86.352H11.0791V89.278H8.9511V89.936H11.0791V93.212C10.1831 93.478 9.3571 93.73 8.7271 93.912L8.9651 94.57C9.5811 94.374 10.3091 94.136 11.0791 93.898V98.126C11.0791 98.336 10.9951 98.392 10.8131 98.392C10.6451 98.406 10.0431 98.406 9.3571 98.392C9.4551 98.574 9.5671 98.854 9.6091 99.022C10.5051 99.022 11.0091 99.008 11.3171 98.896C11.6111 98.784 11.7371 98.588 11.7371 98.112V93.674L13.5991 93.072L13.5011 92.428ZM20.2911 93.66V95.368H15.1391V93.66H20.2911ZM15.1391 97.748V95.956H20.2911V97.748H15.1391ZM14.4951 99.022H15.1391V98.35H20.2911V98.952H20.9491V93.058H14.4951V99.022ZM33.4231 90.328H28.1451V89.572H33.4231V90.328ZM33.4231 91.56H28.1451V90.79H33.4231V91.56ZM33.4231 92.806H28.1451V92.022H33.4231V92.806ZM27.5151 89.096V93.282H34.0811V89.096H30.5531C30.7071 88.844 30.8471 88.55 30.9731 88.256H35.1871V87.696H32.7231C32.9751 87.346 33.2411 86.954 33.4931 86.562L32.8491 86.366C32.6671 86.744 32.3171 87.304 32.0371 87.696H29.3631L29.6991 87.556C29.5871 87.206 29.2371 86.688 28.9151 86.352L28.3691 86.562C28.6491 86.898 28.9571 87.346 29.0831 87.696H26.5771V88.256H30.3151C30.2031 88.536 30.0631 88.83 29.9371 89.096H27.5151ZM24.9531 87.724C24.8131 87.36 24.5191 86.786 24.3091 86.338L23.7491 86.506C23.9451 86.968 24.2111 87.57 24.3651 87.948L24.9531 87.724ZM25.3731 96.726C26.1711 97.188 27.1091 97.902 27.5291 98.42L28.0191 97.958C27.5711 97.44 26.6191 96.754 25.8211 96.32L25.3731 96.726ZM32.5131 94.668H31.8691V95.578H23.1191V96.152H31.8691V98.126C31.8691 98.322 31.8131 98.378 31.5611 98.378C31.3371 98.392 30.5391 98.406 29.5311 98.378C29.6291 98.56 29.7271 98.784 29.7691 98.966C30.9731 98.966 31.6731 98.966 32.0511 98.854C32.4291 98.742 32.5131 98.56 32.5131 98.126V96.152H35.3131V95.578H32.5131V94.668ZM25.8631 90.16L25.7651 90.202H24.5611C24.9531 89.572 25.4011 88.788 25.7931 88.102H23.0071V88.676H24.8131C24.4211 89.404 23.9451 90.188 23.5671 90.762H25.4571C25.1631 91.56 24.7151 92.428 24.2111 93.002C23.8331 93.268 23.4411 93.674 23.0491 94.122L23.4691 94.64C24.0151 93.898 24.5611 93.268 24.9251 93.268C25.2051 93.268 25.6111 93.618 26.1151 93.926C27.0251 94.43 28.2851 94.514 29.9091 94.514C31.3511 94.514 34.0811 94.444 35.4111 94.36C35.4251 94.192 35.5231 93.87 35.6071 93.702C34.1231 93.842 31.8271 93.94 29.9231 93.94C28.3691 93.94 27.1511 93.884 26.2971 93.422C25.7231 93.086 25.4291 92.806 25.1071 92.736C25.5691 92.05 25.9751 91.14 26.2551 90.328L25.8631 90.16ZM42.6631 91.224V88.998H46.3591C45.5891 89.796 44.7351 90.538 43.8251 91.224H42.6631ZM49.4531 91.868V91.224H44.8891C46.3451 90.034 47.6751 88.676 48.7811 87.206L48.1791 86.87C47.6611 87.584 47.0591 88.256 46.4291 88.914V88.368H42.6911V86.338H42.0331V88.368H38.2531V88.998H42.0331V91.224H37.0631V91.868H42.9431C41.0811 93.17 39.0091 94.248 36.8531 95.074C37.0071 95.214 37.2311 95.494 37.3431 95.648C38.5611 95.144 39.7651 94.57 40.9131 93.912V97.426C40.9131 98.476 41.3891 98.7 43.0691 98.7H47.4371C48.9771 98.7 49.2431 98.238 49.3971 96.306C49.1871 96.264 48.9211 96.166 48.7391 96.04C48.6271 97.748 48.4591 98.07 47.4371 98.07H43.0131C41.8231 98.07 41.5991 97.944 41.5991 97.412V95.13H48.0251V94.5H41.5991V93.52C42.4531 93.002 43.2651 92.456 44.0631 91.868H49.4531ZM55.0251 94.248V97.048H52.0991V94.248H55.0251ZM54.8851 89.068V91.49H52.0991V89.068H54.8851ZM52.0991 92.106H55.5291V88.452H53.2751C53.5551 87.864 53.8351 87.122 54.0731 86.492L53.3591 86.324C53.2051 86.94 52.8971 87.822 52.6311 88.452H51.4551V98.63H52.0991V97.65H55.6411V93.632H52.0991V92.106ZM63.5511 87.752V87.122H56.1731V87.752H59.5051V89.754H56.7331V96.964H57.3631V90.384H59.5051V98.994H60.1491V90.384H62.4591V96.082C62.4591 96.208 62.4171 96.264 62.2631 96.264C62.1091 96.278 61.6191 96.278 60.9891 96.264C61.0731 96.446 61.1851 96.712 61.2131 96.866C61.9971 96.866 62.4591 96.866 62.7391 96.768C63.0471 96.656 63.1031 96.446 63.1031 96.082V89.754H60.1491V87.752H63.5511ZM71.2511 90.16C71.7131 90.16 72.1471 89.824 72.1471 89.264C72.1471 88.69 71.7131 88.368 71.2511 88.368C70.7891 88.368 70.3551 88.69 70.3551 89.264C70.3551 89.824 70.7891 90.16 71.2511 90.16ZM71.2511 97.104C71.7131 97.104 72.1471 96.782 72.1471 96.222C72.1471 95.648 71.7131 95.326 71.2511 95.326C70.7891 95.326 70.3551 95.648 70.3551 96.222C70.3551 96.782 70.7891 97.104 71.2511 97.104ZM82.0031 91.798C81.4151 91.322 80.2391 90.692 79.2871 90.3L78.9371 90.818C79.8891 91.21 81.0511 91.868 81.6251 92.372L82.0031 91.798ZM79.8051 98.84C80.6731 97.58 81.7651 95.746 82.5491 94.262L82.0731 93.814C81.2191 95.382 80.0571 97.3 79.2591 98.378L79.8051 98.84ZM79.5531 86.996C80.5471 87.402 81.7651 88.074 82.3531 88.578L82.7311 88.004C82.1291 87.514 80.9251 86.856 79.9171 86.478L79.5531 86.996ZM87.5751 97.79V93.058H91.1031V92.414H87.5751V88.158H91.3131V87.514H83.4871V88.158H86.9031V92.414H83.7391V93.058H86.9031V97.79H82.8991V98.434H91.4811V97.79H87.5751ZM94.0011 88.312H104.515V89.964H105.187V87.71H100.049C99.8531 87.29 99.5451 86.702 99.2511 86.268L98.5791 86.464C98.8311 86.828 99.0831 87.318 99.2651 87.71H93.3431V89.964H94.0011V88.312ZM103.787 94.584C103.171 95.06 102.121 95.746 101.281 96.194C100.693 95.648 100.217 95.004 99.8671 94.262H105.131V93.66H95.1911C95.2051 93.352 95.2051 93.058 95.2051 92.792V92.316H103.255V91.728H95.2051V90.426H104.095V89.81H94.5331V92.778C94.5331 94.584 94.3371 96.95 92.8251 98.686C92.9931 98.756 93.2591 98.952 93.3711 99.092C94.5611 97.72 94.9951 95.9 95.1491 94.262H96.6051V97.454C96.6051 98.028 96.1711 98.308 95.9331 98.42C96.0451 98.588 96.2131 98.882 96.2551 99.064C96.5071 98.896 96.9271 98.784 100.763 97.86C100.749 97.72 100.749 97.468 100.763 97.3L97.2771 98.042V94.262H99.2091C100.245 96.656 102.373 98.224 105.271 98.84C105.369 98.672 105.537 98.406 105.691 98.266C104.109 97.986 102.751 97.384 101.687 96.558C102.527 96.138 103.549 95.55 104.305 94.976L103.787 94.584ZM119.383 91.63V91H112.103C112.355 90.51 112.593 89.992 112.789 89.474L112.285 89.334C112.803 89.18 113.293 88.998 113.783 88.802C115.323 89.376 116.709 89.978 117.675 90.496L118.151 89.964C117.241 89.502 115.967 88.984 114.595 88.466C115.785 87.934 116.863 87.36 117.745 86.688L117.199 86.338C116.289 87.024 115.113 87.64 113.783 88.172C112.229 87.612 110.563 87.08 109.093 86.674L108.645 87.108C109.989 87.472 111.501 87.962 112.957 88.494C111.305 89.082 109.499 89.558 107.791 89.88C107.931 90.006 108.155 90.286 108.253 90.454C109.485 90.174 110.787 89.824 112.075 89.404C111.865 89.95 111.613 90.482 111.333 91H107.119V91.63H110.955C109.947 93.198 108.547 94.598 106.853 95.55C106.993 95.676 107.175 95.9 107.287 96.054C108.113 95.578 108.883 95.004 109.555 94.36V98.154H110.227V94.164H113.447V99.022H114.105V94.164H117.619V97.202C117.619 97.384 117.563 97.44 117.325 97.454C117.115 97.468 116.387 97.468 115.435 97.44C115.533 97.622 115.645 97.846 115.687 98.042C116.807 98.042 117.479 98.042 117.829 97.93C118.179 97.804 118.277 97.622 118.277 97.202V93.548H114.105V92.036H113.447V93.548H110.339C110.857 92.946 111.333 92.302 111.739 91.63H119.383ZM139.59 91.63V91H132.31C132.562 90.51 132.8 89.992 132.996 89.474L132.492 89.334C133.01 89.18 133.5 88.998 133.99 88.802C135.53 89.376 136.916 89.978 137.882 90.496L138.358 89.964C137.448 89.502 136.174 88.984 134.802 88.466C135.992 87.934 137.07 87.36 137.952 86.688L137.406 86.338C136.496 87.024 135.32 87.64 133.99 88.172C132.436 87.612 130.77 87.08 129.3 86.674L128.852 87.108C130.196 87.472 131.708 87.962 133.164 88.494C131.512 89.082 129.706 89.558 127.998 89.88C128.138 90.006 128.362 90.286 128.46 90.454C129.692 90.174 130.994 89.824 132.282 89.404C132.072 89.95 131.82 90.482 131.54 91H127.326V91.63H131.162C130.154 93.198 128.754 94.598 127.06 95.55C127.2 95.676 127.382 95.9 127.494 96.054C128.32 95.578 129.09 95.004 129.762 94.36V98.154H130.434V94.164H133.654V99.022H134.312V94.164H137.826V97.202C137.826 97.384 137.77 97.44 137.532 97.454C137.322 97.468 136.594 97.468 135.642 97.44C135.74 97.622 135.852 97.846 135.894 98.042C137.014 98.042 137.686 98.042 138.036 97.93C138.386 97.804 138.484 97.622 138.484 97.202V93.548H134.312V92.036H133.654V93.548H130.546C131.064 92.946 131.54 92.302 131.946 91.63H139.59ZM153.59 91.63V91H146.31C146.562 90.51 146.8 89.992 146.996 89.474L146.492 89.334C147.01 89.18 147.5 88.998 147.99 88.802C149.53 89.376 150.916 89.978 151.882 90.496L152.358 89.964C151.448 89.502 150.174 88.984 148.802 88.466C149.992 87.934 151.07 87.36 151.952 86.688L151.406 86.338C150.496 87.024 149.32 87.64 147.99 88.172C146.436 87.612 144.77 87.08 143.3 86.674L142.852 87.108C144.196 87.472 145.708 87.962 147.164 88.494C145.512 89.082 143.706 89.558 141.998 89.88C142.138 90.006 142.362 90.286 142.46 90.454C143.692 90.174 144.994 89.824 146.282 89.404C146.072 89.95 145.82 90.482 145.54 91H141.326V91.63H145.162C144.154 93.198 142.754 94.598 141.06 95.55C141.2 95.676 141.382 95.9 141.494 96.054C142.32 95.578 143.09 95.004 143.762 94.36V98.154H144.434V94.164H147.654V99.022H148.312V94.164H151.826V97.202C151.826 97.384 151.77 97.44 151.532 97.454C151.322 97.468 150.594 97.468 149.642 97.44C149.74 97.622 149.852 97.846 149.894 98.042C151.014 98.042 151.686 98.042 152.036 97.93C152.386 97.804 152.484 97.622 152.484 97.202V93.548H148.312V92.036H147.654V93.548H144.546C145.064 92.946 145.54 92.302 145.946 91.63H153.59Z" fill="white"/>
<path d="M9.8531 56.5538L13.2931 49.3858L12.4291 49.0978L8.8771 56.5538L12.4291 64.0098L13.2931 63.7218L9.8531 56.5538ZM12.3811 56.5538L15.8211 49.3858L14.9571 49.0978L11.4051 56.5538L14.9571 64.0098L15.8211 63.7218L12.3811 56.5538ZM24.2472 49.3058C23.3352 51.7378 21.8632 54.1218 20.2952 55.6578C20.5192 55.9298 20.8392 56.5378 20.9672 56.8258C21.5112 56.2338 22.0712 55.5778 22.5832 54.8418V63.8178H23.7192V53.0658C24.3432 51.9778 24.9032 50.8258 25.3672 49.6418L24.2472 49.3058ZM27.1592 56.0578C26.7272 57.9458 25.9752 59.8498 24.9672 61.0658C25.2552 61.2258 25.7672 61.5298 25.9912 61.7218C26.9672 60.3938 27.8152 58.3778 28.3272 56.2818L27.1592 56.0578ZM33.9272 53.4178C33.7992 54.2338 33.6552 55.0818 33.5592 55.6578L34.5512 55.8498C34.7592 55.0018 35.0472 53.6258 35.2552 52.4578L34.4392 52.2658L34.2472 52.3138H27.7672C28.0872 51.4338 28.3752 50.5058 28.6152 49.5778L27.4472 49.3218C26.9192 51.6578 25.9912 53.9458 24.8232 55.4178C25.0792 55.5938 25.5752 55.9938 25.7672 56.1698C26.3432 55.4178 26.8712 54.4738 27.3192 53.4178H29.7512V62.4098C29.7512 62.6178 29.6872 62.6818 29.4792 62.6818C29.2712 62.6818 28.5832 62.6978 27.8312 62.6658C27.9912 63.0018 28.1832 63.5298 28.2472 63.8658C29.2552 63.8658 29.9272 63.8338 30.3592 63.6258C30.7752 63.4338 30.9192 63.0818 30.9192 62.4098V53.4178H33.9272ZM32.0872 56.2818C32.9352 57.9618 33.7352 60.2018 33.9912 61.6578L35.1272 61.2738C34.8552 59.8178 34.0392 57.6258 33.1272 55.9298L32.0872 56.2818ZM39.6072 51.6578V58.4738H38.1672V51.6578H39.6072ZM40.5512 50.5058H37.2232V61.1778H38.1672V59.6258H40.5512V50.5058ZM44.3432 49.8018L44.1832 49.8338H41.4952V63.8498H42.4552V50.8898H43.8312C43.6072 52.0738 43.2712 53.4658 42.9032 54.8738C43.7992 56.3778 44.1512 57.3538 44.1512 58.2658C44.1512 58.7938 44.0712 59.3538 43.8632 59.5298C43.7672 59.6258 43.6232 59.6578 43.4792 59.6578C43.2872 59.6578 43.0152 59.6578 42.7432 59.6418C42.8872 59.9138 42.9832 60.3138 42.9992 60.5858C43.3032 60.6018 43.6232 60.6018 43.8632 60.5538C44.1192 60.5378 44.3752 60.4418 44.5512 60.2818C44.9352 59.9618 45.1272 59.1618 45.1272 58.3138C45.1272 57.3218 44.7112 56.2338 43.8312 54.7458C44.2952 53.1138 44.7112 51.4978 45.0472 50.1698L44.3432 49.8018ZM47.6712 54.0258V58.5378H46.4072V54.0258H47.6712ZM48.5352 59.6258V52.9378H45.5752V60.7298H46.4072V59.6258H48.5352ZM51.2872 49.9938H45.3032V51.1298H49.5112V62.2658C49.5112 62.5058 49.4472 62.5858 49.1912 62.5858C48.9672 62.6018 48.1512 62.6178 47.2872 62.5858C47.4312 62.8898 47.6232 63.4178 47.6552 63.7378C48.7592 63.7218 49.4952 63.7058 49.9272 63.5138C50.3592 63.3058 50.5032 62.9378 50.5032 62.2818V51.1298H51.2872V49.9938ZM56.2472 49.3058C55.3352 51.7378 53.8632 54.1218 52.2952 55.6578C52.5192 55.9298 52.8392 56.5378 52.9672 56.8258C53.5112 56.2338 54.0712 55.5778 54.5832 54.8418V63.8178H55.7192V53.0658C56.3432 51.9778 56.9032 50.8258 57.3672 49.6418L56.2472 49.3058ZM59.1592 56.0578C58.7272 57.9458 57.9752 59.8498 56.9672 61.0658C57.2552 61.2258 57.7672 61.5298 57.9912 61.7218C58.9672 60.3938 59.8152 58.3778 60.3272 56.2818L59.1592 56.0578ZM65.9272 53.4178C65.7992 54.2338 65.6552 55.0818 65.5592 55.6578L66.5512 55.8498C66.7592 55.0018 67.0472 53.6258 67.2552 52.4578L66.4392 52.2658L66.2472 52.3138H59.7672C60.0872 51.4338 60.3752 50.5058 60.6152 49.5778L59.4472 49.3218C58.9192 51.6578 57.9912 53.9458 56.8232 55.4178C57.0792 55.5938 57.5752 55.9938 57.7672 56.1698C58.3432 55.4178 58.8712 54.4738 59.3192 53.4178H61.7512V62.4098C61.7512 62.6178 61.6872 62.6818 61.4792 62.6818C61.2712 62.6818 60.5832 62.6978 59.8312 62.6658C59.9912 63.0018 60.1832 63.5298 60.2472 63.8658C61.2552 63.8658 61.9272 63.8338 62.3592 63.6258C62.7752 63.4338 62.9192 63.0818 62.9192 62.4098V53.4178H65.9272ZM64.0872 56.2818C64.9352 57.9618 65.7352 60.2018 65.9912 61.6578L67.1272 61.2738C66.8552 59.8178 66.0392 57.6258 65.1272 55.9298L64.0872 56.2818ZM71.6072 51.6578V58.4738H70.1672V51.6578H71.6072ZM72.5512 50.5058H69.2232V61.1778H70.1672V59.6258H72.5512V50.5058ZM76.3432 49.8018L76.1832 49.8338H73.4952V63.8498H74.4552V50.8898H75.8312C75.6072 52.0738 75.2712 53.4658 74.9032 54.8738C75.7992 56.3778 76.1512 57.3538 76.1512 58.2658C76.1512 58.7938 76.0712 59.3538 75.8632 59.5298C75.7672 59.6258 75.6232 59.6578 75.4792 59.6578C75.2872 59.6578 75.0152 59.6578 74.7432 59.6418C74.8872 59.9138 74.9832 60.3138 74.9992 60.5858C75.3032 60.6018 75.6232 60.6018 75.8632 60.5538C76.1192 60.5378 76.3752 60.4418 76.5512 60.2818C76.9352 59.9618 77.1272 59.1618 77.1272 58.3138C77.1272 57.3218 76.7112 56.2338 75.8312 54.7458C76.2952 53.1138 76.7112 51.4978 77.0472 50.1698L76.3432 49.8018ZM79.6712 54.0258V58.5378H78.4072V54.0258H79.6712ZM80.5352 59.6258V52.9378H77.5752V60.7298H78.4072V59.6258H80.5352ZM83.2872 49.9938H77.3032V51.1298H81.5112V62.2658C81.5112 62.5058 81.4472 62.5858 81.1912 62.5858C80.9672 62.6018 80.1512 62.6178 79.2872 62.5858C79.4312 62.8898 79.6232 63.4178 79.6552 63.7378C80.7592 63.7218 81.4952 63.7058 81.9272 63.5138C82.3592 63.3058 82.5032 62.9378 82.5032 62.2818V51.1298H83.2872V49.9938ZM91.5213 64.0098L95.0733 56.5538L91.5213 49.0978L90.6573 49.3858L94.0973 56.5538L90.6573 63.7218L91.5213 64.0098ZM88.9933 64.0098L92.5453 56.5538L88.9933 49.0978L88.1293 49.3858L91.5693 56.5538L88.1293 63.7218L88.9933 64.0098ZM109.521 59.4338C108.801 60.5058 107.745 61.7058 106.801 62.5058C107.089 62.6818 107.569 63.0018 107.809 63.1778C108.705 62.3138 109.809 60.9698 110.625 59.8178L109.521 59.4338ZM109.473 56.2178H116.113V57.7058H109.473V56.2178ZM109.473 53.8338H116.113V55.3218H109.473V53.8338ZM117.313 58.6498V52.8898H112.705C112.929 52.4898 113.169 52.0578 113.409 51.6258L112.033 51.4178C111.889 51.8338 111.665 52.4098 111.425 52.8898H108.305V58.6498H112.209V62.5378C112.209 62.7298 112.145 62.7938 111.889 62.8098C111.649 62.8098 110.833 62.8098 109.905 62.7938C110.049 63.0978 110.225 63.5298 110.273 63.8498C111.489 63.8498 112.273 63.8498 112.753 63.6578C113.233 63.4818 113.361 63.1778 113.361 62.5538V58.6498H117.313ZM114.705 59.9618C115.665 61.0018 116.929 62.4098 117.521 63.2738L118.513 62.6338C117.873 61.8178 116.593 60.4578 115.649 59.4658L114.705 59.9618ZM118.577 50.1378H105.697V54.6498C105.697 57.0818 105.553 60.5058 104.161 62.9378C104.465 63.0498 104.961 63.3378 105.185 63.5298C106.657 60.9858 106.865 57.2098 106.865 54.6498V51.2258H118.577V50.1378ZM132.497 52.3458H127.489V50.8578H132.497V52.3458ZM132.497 54.7778H127.489V53.2578H132.497V54.7778ZM133.681 49.8978H126.337V55.7378H133.681V49.8978ZM123.841 51.8658V58.5378H121.969V51.8658H123.841ZM124.945 50.7618H120.865V61.1618H121.969V59.6418H124.945V50.7618ZM127.009 62.1858V60.4898H133.041V62.1858H127.009ZM133.041 57.8818V59.4818H127.009V57.8818H133.041ZM125.841 56.8578V63.8498H127.009V63.2258H133.041V63.7698H134.241V56.8578H125.841ZM135.729 65.4978H136.801L141.585 49.9458H140.529L135.729 65.4978ZM145.483 56.4738H146.539V54.5698C147.307 55.1778 148.123 55.8658 148.587 56.3298L149.195 55.6898C148.651 55.1298 147.595 54.2818 146.715 53.6578H149.019V52.6818H146.539V50.9218C147.387 50.7618 148.171 50.5858 148.795 50.3618L148.091 49.4978C146.875 49.9458 144.619 50.3138 142.763 50.5218C142.891 50.7458 143.035 51.1298 143.067 51.3698C143.835 51.3058 144.667 51.2098 145.483 51.0978V52.6818H142.619V53.6578H145.003C144.331 54.6338 143.323 55.5458 142.347 56.0098C142.555 56.2178 142.795 56.5858 142.907 56.8258C143.835 56.2818 144.795 55.3698 145.483 54.4418V56.4738ZM147.339 58.6338C147.211 59.3378 146.923 60.1218 146.187 60.8738C145.579 60.6018 144.955 60.3298 144.363 60.0898C144.603 59.7058 144.843 59.2418 145.099 58.7778L147.339 58.6338ZM148.987 62.4578C148.507 62.1058 147.835 61.7058 147.083 61.3218C147.899 60.4418 148.219 59.4658 148.315 58.5858L149.147 58.5378L149.163 57.6578L148.363 57.7058V56.9538H147.403V57.6738V57.7378L145.547 57.8338C145.707 57.5138 145.851 57.1618 145.979 56.8418L145.035 56.6658C144.891 57.0498 144.699 57.4818 144.507 57.8978C143.771 57.9298 143.099 57.9618 142.523 57.9778L142.635 58.9218L144.027 58.8418C143.707 59.4498 143.355 60.0418 143.051 60.4898C143.819 60.7778 144.651 61.1298 145.435 61.5298C144.699 62.0418 143.723 62.5218 142.379 62.9538C142.571 63.1458 142.843 63.4818 142.955 63.7058C144.475 63.1938 145.563 62.6178 146.363 61.9938C147.131 62.4098 147.819 62.8418 148.299 63.1938L148.987 62.4578ZM150.603 54.5858H152.427V56.2818H150.603V54.5858ZM150.603 51.9778H152.427V53.6578H150.603V51.9778ZM155.387 53.6578H153.387V51.9778H155.387V53.6578ZM155.387 56.2818H153.387V54.5858H155.387V56.2818ZM154.395 62.6018C153.947 62.6018 153.867 62.5378 153.867 62.1698V60.4258C153.947 60.6498 154.027 60.9378 154.075 61.0818C154.251 60.9698 154.571 60.9058 156.315 60.6338C156.395 60.8738 156.459 61.1138 156.491 61.3218L157.099 61.0818C156.971 60.4738 156.619 59.5618 156.235 58.8738L155.659 59.0978C155.835 59.3858 155.979 59.7378 156.107 60.0738L154.715 60.2658C155.035 59.6578 155.403 58.8418 155.643 58.0098L154.891 57.7858C154.747 58.7138 154.331 59.6738 154.219 59.9298C154.107 60.1538 154.011 60.3138 153.867 60.3458V57.2578H156.427V51.0018H152.923C153.115 50.5378 153.307 49.9778 153.499 49.4498L152.251 49.2418C152.155 49.7538 151.963 50.4418 151.771 51.0018H149.611V57.2578H151.227V57.6418C151.227 59.1618 150.923 61.4978 148.731 63.2578C148.987 63.4018 149.339 63.7058 149.531 63.8978C151.819 61.9938 152.219 59.3698 152.219 57.6578V57.2578H152.875V62.1698C152.875 63.2578 153.163 63.5298 154.267 63.5298H156.043C156.907 63.5298 157.195 63.1458 157.307 61.7698C157.019 61.6898 156.619 61.5458 156.411 61.3858C156.363 62.4418 156.299 62.6018 155.947 62.6018H154.395ZM164.011 53.2738C164.011 55.0178 163.867 57.1938 162.571 59.2578C161.867 58.6818 161.147 58.1058 160.459 57.5938C160.779 56.3938 161.115 54.9378 161.403 53.4498L164.011 53.2738ZM165.179 51.3698H164.011V52.1538L161.627 52.2818C161.787 51.2898 161.947 50.2978 162.059 49.3858L160.827 49.3058C160.747 50.2338 160.587 51.2898 160.427 52.3458L158.411 52.4418L158.555 53.6258L160.203 53.5138C159.867 55.1938 159.499 56.7938 159.131 57.9458C160.011 58.6018 161.003 59.4018 161.899 60.2018C161.099 61.1938 159.979 62.1378 158.443 62.9698C158.731 63.1778 159.099 63.5778 159.275 63.8658C160.827 63.0178 161.963 62.0418 162.811 61.0178C163.531 61.7058 164.171 62.3618 164.619 62.8898L165.499 61.9618C165.003 61.4178 164.299 60.7458 163.515 60.0418C165.003 57.7218 165.179 55.2418 165.179 53.2898V53.2098L165.851 53.1618L165.867 52.0578L165.179 52.0898V51.3698ZM167.595 61.1298V52.1058H171.051V61.1298H167.595ZM166.459 50.9698V63.4498H167.595V62.2658H171.051V63.2258H172.219V50.9698H166.459ZM184.539 52.6178H185.691V51.3698H188.811V50.3298H185.691V49.2578H184.539V50.3298H182.219V51.3698H184.539V52.6178ZM175.227 53.1618V55.9138H176.315V54.1218H187.275V55.9138H188.395V53.1618H182.571C182.395 52.7298 182.123 52.2018 181.883 51.7698L180.715 52.0738C180.891 52.3938 181.083 52.7938 181.227 53.1618H175.227ZM186.411 55.0178H177.227V55.8338H186.411V55.0178ZM178.507 59.4018H185.083V60.5698H178.507V59.4018ZM178.507 57.5298H185.083V58.6498H178.507V57.5298ZM186.251 61.3378V56.7458H177.371V61.3378H186.251ZM178.107 52.6178H179.259V51.3698H181.307V50.3458H179.259V49.2578H178.107V50.3458H174.731V51.3698H178.107V52.6178ZM174.795 62.3138V63.3378H188.891V62.3138H174.795Z" fill="#00E0B8"/>
<path d="M210.273 33.2754L8.46057 33.2754V34.0521L210.273 34.0521V33.2754Z" fill="white"/>
<path d="M213.328 30.5435H200.238V36.6521H213.328V30.5435Z" fill="#00E0B8"/>
<path d="M15.6551 12.7C15.4391 12.484 15.1271 12.256 14.7911 12.04C15.0551 11.788 15.2831 11.536 15.4871 11.272L14.8631 11.068C14.6951 11.296 14.4791 11.512 14.2631 11.704C13.9511 11.536 13.6391 11.356 13.3391 11.224L12.8951 11.62C13.1711 11.752 13.4711 11.908 13.7591 12.088C13.3991 12.34 13.0151 12.568 12.6191 12.748C12.7751 12.868 13.0271 13.096 13.1111 13.216C13.5071 13 13.9151 12.748 14.3111 12.436C14.6591 12.688 14.9711 12.916 15.1751 13.132L15.6551 12.7ZM15.6191 10.552C15.4031 10.384 15.1151 10.192 14.7911 9.988C15.0431 9.748 15.2591 9.508 15.4511 9.256L14.8271 9.088C14.6711 9.28 14.4791 9.484 14.2631 9.676C13.9511 9.508 13.6511 9.352 13.3631 9.232L12.9311 9.628C13.1951 9.748 13.4951 9.892 13.7711 10.06C13.4351 10.288 13.0751 10.504 12.7031 10.672C12.8591 10.78 13.1111 10.996 13.2071 11.104C13.5791 10.912 13.9511 10.66 14.3231 10.384C14.6471 10.588 14.9591 10.816 15.1511 10.996L15.6191 10.552ZM10.0391 13.912H18.4751V15.4H19.3511V13.228H18.4151C18.5111 12.16 18.6191 10.612 18.6791 9.424H15.9071V10.036H17.8151L17.7791 10.684H15.9671V11.296H17.7431L17.6831 11.944H15.8951V12.556H17.6351C17.6111 12.796 17.5871 13.012 17.5631 13.228H10.9871L10.9391 12.556H12.6071V11.944H10.9031L10.8551 11.296H12.5591V10.684H10.8191L10.7711 10.096C11.3951 9.976 12.1031 9.82 12.6311 9.628L12.2231 9.076C11.6351 9.256 10.6031 9.544 9.9071 9.664L10.1471 13.228H9.1871V15.4H10.0391V13.912ZM19.5911 16.828H14.7911V16.612C15.7391 16.228 16.7591 15.7 17.5031 15.124L16.9631 14.68L16.7831 14.728H11.1431V15.4H15.8351C15.2591 15.748 14.5631 16.084 13.9271 16.312V16.828H8.9231V17.584H13.9271V18.94C13.9271 19.108 13.8791 19.144 13.6751 19.156C13.4951 19.156 12.8231 19.156 12.0791 19.132C12.1991 19.36 12.3431 19.66 12.3911 19.888C13.3391 19.888 13.9391 19.9 14.3231 19.768C14.6951 19.636 14.7911 19.432 14.7911 18.964V17.584H19.5911V16.828ZM29.1191 11.392H23.4431V10.144H29.1191V11.392ZM30.0431 9.424H22.5551V12.112H30.0431V9.424ZM22.9391 16.408H29.5991V17.272H22.9391V16.408ZM22.9391 14.932H29.5991V15.772H22.9391V14.932ZM22.9391 13.456H29.5991V14.296H22.9391V13.456ZM30.5111 17.932V12.796H22.0511V17.932H24.2831C23.5271 18.424 21.9911 18.976 20.7551 19.264C20.9711 19.444 21.2591 19.744 21.4151 19.924C22.6391 19.612 24.1871 19.036 25.1471 18.448L24.3551 17.932H30.5111ZM27.2231 18.532C28.4831 18.904 30.0911 19.516 30.9911 19.936L31.7591 19.288C30.8231 18.904 29.2271 18.316 27.9911 17.956L27.2231 18.532ZM35.0667 21.148H35.8707L39.4587 9.484H38.6667L35.0667 21.148Z" fill="#00E0B8"/>
<path d="M48.5851 13.512C49.2411 13.112 49.8331 12.632 50.3771 12.152C51.1931 12.536 52.0891 13.048 52.8411 13.512H48.5851ZM50.5691 6.28V7.24H51.5771V7.288C51.5771 8.056 51.4811 9.096 50.6491 9.96C50.3931 9.288 49.8331 8.424 49.2731 7.752L48.5211 8.136C48.7611 8.44 49.0011 8.824 49.2251 9.192L47.3851 9.928V7.448C48.3931 7.144 49.4811 6.76 50.3131 6.328L49.4651 5.608C48.7451 6.056 47.4811 6.552 46.3611 6.872V9.704C46.3611 10.248 46.0731 10.472 45.8811 10.568C46.0251 10.824 46.2331 11.272 46.3291 11.512V11.544C46.5851 11.32 47.0011 11.096 49.6571 9.976C49.7531 10.184 49.8491 10.392 49.9131 10.568L50.1851 10.424C50.4091 10.568 50.6811 10.792 50.8411 10.968L50.4891 10.824C49.4011 12.088 47.4331 13.272 45.6571 13.944C45.8971 14.168 46.1531 14.504 46.3131 14.76C46.9371 14.488 47.5771 14.136 48.2011 13.768V14.344H49.9451V15.368H46.6331V16.232H49.9451V18.664C48.4251 18.76 47.0651 18.856 46.0091 18.904L46.1851 19.864C48.3931 19.72 51.7051 19.512 54.8251 19.256L54.8411 18.344L52.9051 18.472C53.1451 17.944 53.4011 17.32 53.6251 16.728L52.6651 16.456C52.4891 17.048 52.1851 17.912 51.9291 18.536L51.0011 18.6V16.232H54.2491V15.368H51.0011V14.344H52.9211V13.56C53.4011 13.864 53.8171 14.136 54.1211 14.392L54.7771 13.656C53.9451 12.968 52.3611 12.104 51.0171 11.512C51.1131 11.4 51.2091 11.288 51.2891 11.176L50.9051 11C52.3131 9.928 52.4731 8.456 52.4731 7.336V7.24H53.9451C53.8331 9.288 53.7211 10.056 53.5771 10.28C53.4811 10.408 53.3851 10.424 53.2091 10.424C53.0651 10.424 52.7291 10.424 52.3291 10.376C52.4571 10.632 52.5531 11.032 52.5691 11.336C52.9851 11.368 53.4171 11.352 53.6571 11.32C53.9771 11.288 54.1851 11.192 54.3771 10.952C54.6811 10.584 54.8091 9.528 54.9371 6.728C54.9531 6.568 54.9531 6.28 54.9531 6.28H50.5691ZM47.3211 16.776C47.6571 17.368 47.9611 18.152 48.0731 18.664L49.0011 18.36C48.8731 17.88 48.5371 17.112 48.1851 16.536L47.3211 16.776ZM56.7931 7.416H55.6891V16.104H56.7931V7.416ZM58.5211 5.912V18.728C58.5211 18.984 58.4091 19.064 58.1531 19.08C57.9131 19.08 57.0811 19.08 56.1531 19.064C56.3131 19.4 56.4731 19.896 56.5211 20.232C57.8011 20.232 58.5531 20.2 59.0171 20.008C59.4651 19.8 59.6571 19.464 59.6571 18.728V5.912H58.5211ZM72.2011 10.456H65.8491V7.432H72.2011V10.456ZM73.4011 6.296H64.6971V11.592H73.4011V6.296ZM66.8571 14.424V18.216H63.5131V14.424H66.8571ZM62.3771 20.232H63.5131V19.368H66.8571V20.088H68.0251V13.272H62.3771V20.232ZM70.9211 18.216V14.424H74.5531V18.216H70.9211ZM69.7691 13.272V20.232H70.9211V19.368H74.5531V20.12H75.7211V13.272H69.7691ZM82.0731 10.136C82.0411 11.656 81.8491 13.48 81.0651 15.256C80.4891 14.808 79.8971 14.344 79.3371 13.928C79.6411 12.872 79.9611 11.576 80.2491 10.232L82.0731 10.136ZM84.1691 9.992V8.968L83.1771 9.016V7.864H82.0891V9.08L80.4891 9.16C80.7131 7.976 80.9211 6.808 81.0651 5.752L79.9611 5.672C79.8331 6.76 79.6251 7.992 79.3851 9.224C78.7451 9.256 78.1371 9.288 77.6251 9.304L77.7531 10.392L79.1611 10.312C78.8091 11.832 78.4411 13.272 78.0731 14.312C78.8571 14.888 79.7211 15.576 80.5531 16.264C79.9131 17.368 78.9851 18.456 77.6891 19.416C77.9451 19.592 78.3291 19.944 78.5051 20.184C79.8011 19.208 80.7291 18.12 81.4331 17.016C82.1051 17.608 82.6971 18.2 83.1291 18.68L83.8651 17.752C83.4171 17.24 82.7291 16.632 81.9611 15.992C82.9211 13.944 83.1291 11.832 83.1771 10.056L84.1691 9.992ZM91.3691 11.336L91.1451 11.4H89.4971L89.9131 10.872C89.5291 10.552 89.0011 10.184 88.4091 9.768C89.6251 8.984 90.9211 7.864 91.8331 6.84L91.0331 6.216L90.7611 6.296H84.2491V7.384H89.7371C89.0971 8.024 88.2811 8.68 87.5131 9.192C86.9851 8.84 86.4411 8.536 85.9771 8.248L85.3051 9.016C86.4251 9.688 87.8651 10.664 88.7771 11.4H83.5451V12.488H87.1451V18.76C87.1451 18.984 87.0651 19.032 86.8251 19.032C86.6011 19.048 85.7851 19.064 84.9051 19.032C85.0811 19.352 85.2731 19.88 85.3371 20.216C86.4731 20.232 87.2251 20.216 87.7051 20.008C88.1851 19.816 88.3291 19.464 88.3291 18.776V12.488H90.6811C90.3291 13.528 89.8971 14.584 89.5131 15.304L90.4411 15.688C91.0331 14.664 91.6571 13.048 92.1531 11.608L91.3691 11.336Z" fill="white"/>
</svg>
