<svg width="337" height="376" viewBox="0 0 337 376" fill="none" xmlns="http://www.w3.org/2000/svg">
<rect x="26.5" y="53.5" width="310" height="322" rx="19.5" stroke="#00E0B8"/>
<path d="M80.808 114.872L81.551 114.77C81.522 114.559 81.4046 114.37 81.2281 114.251C81.0516 114.131 80.8328 114.093 80.6261 114.144L80.808 114.872ZM78.6 115.424H77.85C77.85 115.655 77.9564 115.873 78.1384 116.015C78.3205 116.157 78.5578 116.208 78.7819 116.152L78.6 115.424ZM78.6 111.872V111.122C78.1858 111.122 77.85 111.458 77.85 111.872H78.6ZM80.952 111.872V112.622C81.3662 112.622 81.702 112.286 81.702 111.872H80.952ZM80.952 109.232H81.702C81.702 108.818 81.3662 108.482 80.952 108.482V109.232ZM78.6 109.232H77.85C77.85 109.646 78.1858 109.982 78.6 109.982V109.232ZM78.6 104.672H79.35C79.35 104.258 79.0142 103.922 78.6 103.922V104.672ZM75.768 104.672V103.922C75.3538 103.922 75.018 104.258 75.018 104.672H75.768ZM75.768 109.232V109.982C76.1822 109.982 76.518 109.646 76.518 109.232H75.768ZM73.008 109.232V108.482C72.5938 108.482 72.258 108.818 72.258 109.232H73.008ZM73.008 111.872H72.258C72.258 112.286 72.5938 112.622 73.008 112.622V111.872ZM75.768 111.872H76.518C76.518 111.458 76.1822 111.122 75.768 111.122V111.872ZM75.768 116.12L75.9499 116.848C76.2838 116.764 76.518 116.464 76.518 116.12H75.768ZM72.696 116.816L72.5566 116.079C72.3508 116.118 72.1707 116.241 72.0598 116.419C71.9489 116.597 71.9173 116.812 71.9727 117.014L72.696 116.816ZM73.44 119.528L72.7167 119.726C72.8244 120.119 73.2252 120.354 73.6201 120.256L73.44 119.528ZM75.768 118.952H76.518C76.518 118.721 76.4119 118.504 76.2303 118.361C76.0487 118.219 75.8117 118.169 75.5879 118.224L75.768 118.952ZM73.08 124.352L73.0992 123.602C72.8412 123.596 72.5979 123.722 72.4552 123.937C72.3124 124.152 72.2902 124.425 72.3965 124.661L73.08 124.352ZM73.896 126.944L73.1562 127.067C73.2165 127.429 73.5294 127.694 73.896 127.694L73.896 126.944ZM77.52 126.44L77.8792 127.098L77.8859 127.095L77.52 126.44ZM78.6 118.184L78.4181 117.456C78.0842 117.54 77.85 117.84 77.85 118.184H78.6ZM81.168 117.488L81.374 118.209C81.733 118.107 81.9619 117.756 81.911 117.386L81.168 117.488ZM90.84 116.168L91.5262 116.471C91.6285 116.239 91.6067 115.971 91.4683 115.758C91.3299 115.546 91.0935 115.418 90.84 115.418V116.168ZM87.84 120.416L87.3044 120.941C87.5924 121.235 88.0633 121.242 88.3598 120.957L87.84 120.416ZM85.008 116.168V115.418C84.7564 115.418 84.5215 115.544 84.3826 115.754C84.2437 115.964 84.2193 116.229 84.3176 116.461L85.008 116.168ZM92.64 113.48L92.931 112.789C92.7841 112.727 92.6213 112.713 92.4663 112.75L92.64 113.48ZM92.136 113.6V114.35C92.1945 114.35 92.2528 114.343 92.3097 114.33L92.136 113.6ZM89.256 113.6H88.506C88.506 114.014 88.8418 114.35 89.256 114.35V113.6ZM89.256 110.72V109.97C88.8418 109.97 88.506 110.306 88.506 110.72H89.256ZM94.632 110.72V111.47C95.0462 111.47 95.382 111.134 95.382 110.72H94.632ZM94.632 108.08H95.382C95.382 107.666 95.0462 107.33 94.632 107.33V108.08ZM89.256 108.08H88.506C88.506 108.494 88.8418 108.83 89.256 108.83V108.08ZM89.256 104.648H90.006C90.006 104.234 89.6702 103.898 89.256 103.898V104.648ZM86.424 104.648V103.898C86.0098 103.898 85.674 104.234 85.674 104.648H86.424ZM86.424 108.08V108.83C86.8382 108.83 87.174 108.494 87.174 108.08H86.424ZM81.264 108.08V107.33C80.8498 107.33 80.514 107.666 80.514 108.08H81.264ZM81.264 110.72H80.514C80.514 111.134 80.8498 111.47 81.264 111.47V110.72ZM86.424 110.72H87.174C87.174 110.306 86.8382 109.97 86.424 109.97V110.72ZM86.424 113.6V114.35C86.8382 114.35 87.174 114.014 87.174 113.6H86.424ZM81.696 113.6V112.85C81.2818 112.85 80.946 113.186 80.946 113.6H81.696ZM81.696 116.168H80.946C80.946 116.582 81.2818 116.918 81.696 116.918V116.168ZM82.944 116.168L83.1595 116.886C83.516 116.779 83.7401 116.427 83.6861 116.059C83.632 115.691 83.3161 115.418 82.944 115.418V116.168ZM82.224 116.384L82.0085 115.666C81.8078 115.726 81.6414 115.867 81.5497 116.056C81.458 116.244 81.4492 116.462 81.5256 116.657L82.224 116.384ZM85.632 122.096L86.0376 122.727C86.2214 122.609 86.3446 122.416 86.3748 122.2C86.405 121.983 86.3393 121.764 86.1949 121.6L85.632 122.096ZM79.896 124.448L79.7219 123.718C79.4685 123.779 79.2646 123.967 79.1834 124.214C79.1022 124.462 79.1552 124.734 79.3235 124.932L79.896 124.448ZM81.432 127.04L80.7372 127.322C80.8826 127.68 81.2765 127.869 81.6468 127.759L81.432 127.04ZM87.744 124.088L88.2166 123.506C87.9577 123.296 87.5912 123.282 87.3171 123.471L87.744 124.088ZM93.72 127.112L93.5052 127.831C93.844 127.932 94.2076 127.783 94.3776 127.473L93.72 127.112ZM95.544 124.64L96.0634 125.181C96.2606 124.992 96.3391 124.71 96.2685 124.446C96.1979 124.182 95.9893 123.977 95.724 123.912L95.544 124.64ZM90 122.216L89.4697 121.686C89.3134 121.842 89.234 122.059 89.2527 122.279C89.2714 122.5 89.3863 122.701 89.5667 122.828L90 122.216ZM94.464 114.248L95.1875 114.446C95.2866 114.083 95.1017 113.703 94.755 113.557L94.464 114.248ZM80.6261 114.144L78.4181 114.696L78.7819 116.152L80.9899 115.6L80.6261 114.144ZM79.35 115.424V111.872H77.85V115.424H79.35ZM78.6 112.622H80.952V111.122H78.6V112.622ZM81.702 111.872V109.232H80.202V111.872H81.702ZM80.952 108.482H78.6V109.982H80.952V108.482ZM79.35 109.232V104.672H77.85V109.232H79.35ZM78.6 103.922H75.768V105.422H78.6V103.922ZM75.018 104.672V109.232H76.518V104.672H75.018ZM75.768 108.482H73.008V109.982H75.768V108.482ZM72.258 109.232V111.872H73.758V109.232H72.258ZM73.008 112.622H75.768V111.122H73.008V112.622ZM75.018 111.872V116.12H76.518V111.872H75.018ZM75.5861 115.392C74.439 115.679 73.4234 115.915 72.5566 116.079L72.8354 117.553C73.7446 117.381 74.793 117.137 75.9499 116.848L75.5861 115.392ZM71.9727 117.014L72.7167 119.726L74.1633 119.33L73.4193 116.618L71.9727 117.014ZM73.6201 120.256L75.9481 119.68L75.5879 118.224L73.2599 118.8L73.6201 120.256ZM75.018 118.952V123.896H76.518V118.952H75.018ZM75.018 123.896C75.018 123.96 75.013 123.969 75.0175 123.95C75.0234 123.926 75.0472 123.846 75.1231 123.763C75.2018 123.678 75.2876 123.642 75.3309 123.63C75.3643 123.621 75.3675 123.626 75.312 123.626V125.126C75.5283 125.126 75.9304 125.101 76.2269 124.779C76.5064 124.475 76.518 124.088 76.518 123.896H75.018ZM75.312 123.626C74.9999 123.626 74.0246 123.626 73.0992 123.602L73.0608 125.102C74.0074 125.126 75.0001 125.126 75.312 125.126V123.626ZM72.3965 124.661C72.7108 125.357 73.0487 126.422 73.1562 127.067L74.6358 126.821C74.5033 126.026 74.1212 124.835 73.7635 124.043L72.3965 124.661ZM73.896 127.694C74.7397 127.694 75.486 127.676 76.1308 127.599C76.7758 127.521 77.3666 127.378 77.8791 127.098L77.1609 125.782C76.8814 125.934 76.5002 126.043 75.9512 126.109C75.402 126.176 74.7323 126.194 73.896 126.194V127.694ZM77.8859 127.095C78.4178 126.797 78.8152 126.397 79.0572 125.822C79.284 125.283 79.35 124.647 79.35 123.92H77.85C77.85 124.585 77.784 124.981 77.6748 125.24C77.5808 125.463 77.4382 125.627 77.1541 125.785L77.8859 127.095ZM79.35 123.92V118.184H77.85V123.92H79.35ZM78.7819 118.912C79.6578 118.693 80.5311 118.45 81.374 118.209L80.962 116.767C80.1249 117.006 79.2702 117.243 78.4181 117.456L78.7819 118.912ZM81.911 117.386L81.551 114.77L80.065 114.974L80.425 117.59L81.911 117.386ZM90.1538 115.865C89.4766 117.4 88.5041 118.737 87.3202 119.875L88.3598 120.957C89.6719 119.695 90.7634 118.2 91.5262 116.471L90.1538 115.865ZM88.3756 119.891C87.2415 118.734 86.3339 117.373 85.6984 115.875L84.3176 116.461C85.0261 118.131 86.0385 119.65 87.3044 120.941L88.3756 119.891ZM85.008 116.918H90.84V115.418H85.008V116.918ZM92.4663 112.75L91.9623 112.87L92.3097 114.33L92.8137 114.21L92.4663 112.75ZM92.136 112.85H89.256V114.35H92.136V112.85ZM90.006 113.6V110.72H88.506V113.6H90.006ZM89.256 111.47H94.632V109.97H89.256V111.47ZM95.382 110.72V108.08H93.882V110.72H95.382ZM94.632 107.33H89.256V108.83H94.632V107.33ZM90.006 108.08V104.648H88.506V108.08H90.006ZM89.256 103.898H86.424V105.398H89.256V103.898ZM85.674 104.648V108.08H87.174V104.648H85.674ZM86.424 107.33H81.264V108.83H86.424V107.33ZM80.514 108.08V110.72H82.014V108.08H80.514ZM81.264 111.47H86.424V109.97H81.264V111.47ZM85.674 110.72V113.6H87.174V110.72H85.674ZM86.424 112.85H81.696V114.35H86.424V112.85ZM80.946 113.6V116.168H82.446V113.6H80.946ZM81.696 116.918H82.944V115.418H81.696V116.918ZM82.7285 115.45L82.0085 115.666L82.4395 117.102L83.1595 116.886L82.7285 115.45ZM81.5256 116.657C82.4177 118.937 83.5889 120.911 85.0691 122.592L86.1949 121.6C84.8431 120.065 83.7583 118.247 82.9224 116.111L81.5256 116.657ZM85.2264 121.465C83.6312 122.491 81.7693 123.23 79.7219 123.718L80.0701 125.178C82.2467 124.658 84.2728 123.861 86.0376 122.727L85.2264 121.465ZM79.3235 124.932C79.7927 125.487 80.4502 126.616 80.7372 127.322L82.1269 126.758C81.7898 125.928 81.0553 124.657 80.4685 123.964L79.3235 124.932ZM81.6468 127.759C84.037 127.044 86.2234 126.053 88.1709 124.705L87.3171 123.471C85.5206 124.715 83.483 125.644 81.2172 126.321L81.6468 127.759ZM87.2714 124.67C89.0187 126.088 91.1038 127.113 93.5052 127.831L93.9348 126.393C91.6802 125.719 89.7813 124.776 88.2166 123.506L87.2714 124.67ZM94.3776 127.473C94.7616 126.772 95.5346 125.689 96.0634 125.181L95.0246 124.099C94.3534 124.743 93.4944 125.964 93.0624 126.751L94.3776 127.473ZM95.724 123.912C93.6595 123.402 91.902 122.643 90.4333 121.604L89.5667 122.828C91.218 123.997 93.1565 124.822 95.364 125.368L95.724 123.912ZM90.5303 122.746C92.646 120.631 94.244 117.897 95.1875 114.446L93.7405 114.05C92.86 117.271 91.386 119.769 89.4697 121.686L90.5303 122.746ZM94.755 113.557L92.931 112.789L92.349 114.171L94.173 114.939L94.755 113.557ZM104.424 107.336L105.037 107.768C105.269 107.438 105.199 106.984 104.879 106.739L104.424 107.336ZM99.864 104.912L100.141 104.215C99.8242 104.089 99.463 104.193 99.2607 104.466L99.864 104.912ZM98.304 107.024L97.7007 106.578C97.5662 106.761 97.5211 106.994 97.5782 107.213C97.6352 107.432 97.7882 107.614 97.9945 107.707L98.304 107.024ZM102.768 109.688L102.282 110.259C102.443 110.396 102.653 110.459 102.863 110.432C103.072 110.405 103.26 110.292 103.381 110.12L102.768 109.688ZM102.96 113.672L103.584 114.088C103.803 113.759 103.73 113.317 103.417 113.077L102.96 113.672ZM98.4 111.32L98.6707 110.621C98.3502 110.497 97.9864 110.606 97.7878 110.887L98.4 111.32ZM96.888 113.456L96.2758 113.023C96.1456 113.207 96.105 113.44 96.1654 113.657C96.2258 113.874 96.3808 114.053 96.5874 114.143L96.888 113.456ZM101.376 116.048L100.892 116.621C101.055 116.759 101.269 116.821 101.481 116.791C101.693 116.761 101.881 116.642 102 116.464L101.376 116.048ZM100.152 126.824L99.6863 127.412C99.8549 127.545 100.073 127.6 100.284 127.562C100.496 127.524 100.681 127.397 100.793 127.214L100.152 126.824ZM104.376 119.264L105.044 119.605C105.198 119.303 105.131 118.937 104.881 118.709L104.376 119.264ZM102.264 117.344L102.769 116.789C102.595 116.632 102.359 116.564 102.129 116.606C101.899 116.648 101.702 116.796 101.596 117.004L102.264 117.344ZM97.728 124.904L97.1166 124.47C96.8855 124.795 96.9495 125.244 97.2623 125.492L97.728 124.904ZM119.016 125.792L119.354 126.462C119.683 126.295 119.843 125.914 119.73 125.563L119.016 125.792ZM115.056 118.976L115.654 118.523C115.436 118.236 115.046 118.144 114.723 118.304L115.056 118.976ZM112.728 120.128L112.395 119.456C112.196 119.554 112.051 119.736 111.999 119.952C111.947 120.168 111.993 120.396 112.126 120.575L112.728 120.128ZM114.336 122.6L114.412 123.346C114.666 123.32 114.889 123.167 115.005 122.94C115.12 122.713 115.112 122.442 114.984 122.222L114.336 122.6ZM108.696 123.176L108.066 122.77C107.909 123.012 107.906 123.322 108.057 123.568C108.207 123.814 108.485 123.951 108.772 123.922L108.696 123.176ZM112.032 117.008V116.258C111.734 116.258 111.465 116.434 111.345 116.706L112.032 117.008ZM118.56 117.008V117.758C118.974 117.758 119.31 117.422 119.31 117.008H118.56ZM118.56 114.32H119.31C119.31 113.906 118.974 113.57 118.56 113.57V114.32ZM112.776 114.32H112.026C112.026 114.734 112.362 115.07 112.776 115.07V114.32ZM112.776 110.936V110.186C112.362 110.186 112.026 110.522 112.026 110.936H112.776ZM117.672 110.936V111.686C118.086 111.686 118.422 111.35 118.422 110.936H117.672ZM117.672 108.224H118.422C118.422 107.81 118.086 107.474 117.672 107.474V108.224ZM112.776 108.224H112.026C112.026 108.638 112.362 108.974 112.776 108.974V108.224ZM112.776 104.648H113.526C113.526 104.234 113.19 103.898 112.776 103.898V104.648ZM109.872 104.648V103.898C109.458 103.898 109.122 104.234 109.122 104.648H109.872ZM109.872 108.224V108.974C110.286 108.974 110.622 108.638 110.622 108.224H109.872ZM105.144 108.224V107.474C104.73 107.474 104.394 107.81 104.394 108.224H105.144ZM105.144 110.936H104.394C104.394 111.35 104.73 111.686 105.144 111.686V110.936ZM109.872 110.936H110.622C110.622 110.522 110.286 110.186 109.872 110.186V110.936ZM109.872 114.32V115.07C110.286 115.07 110.622 114.734 110.622 114.32H109.872ZM104.184 114.32V113.57C103.77 113.57 103.434 113.906 103.434 114.32H104.184ZM104.184 117.008H103.434C103.434 117.422 103.77 117.758 104.184 117.758V117.008ZM108.696 117.008L109.391 117.289C109.485 117.058 109.457 116.795 109.318 116.589C109.178 116.382 108.945 116.258 108.696 116.258V117.008ZM106.152 122.144L105.528 121.728C105.525 121.732 105.523 121.736 105.52 121.74L106.152 122.144ZM104.592 123.68L104.374 122.962C104.168 123.025 104 123.172 103.91 123.367C103.821 123.562 103.819 123.786 103.906 123.983L104.592 123.68ZM105.6 126.536L104.876 126.731C104.935 126.95 105.09 127.13 105.297 127.222C105.504 127.314 105.742 127.307 105.943 127.203L105.6 126.536ZM115.608 124.976L116.274 124.632C116.131 124.354 115.829 124.194 115.519 124.231L115.608 124.976ZM116.448 127.088L115.724 127.283C115.782 127.501 115.936 127.681 116.142 127.773C116.348 127.865 116.584 127.859 116.786 127.758L116.448 127.088ZM104.879 106.739C103.795 105.914 101.686 104.828 100.141 104.215L99.5874 105.609C101.066 106.196 103.037 107.222 103.969 107.933L104.879 106.739ZM99.2607 104.466L97.7007 106.578L98.9073 107.47L100.467 105.358L99.2607 104.466ZM97.9945 107.707C99.4968 108.388 101.396 109.506 102.282 110.259L103.254 109.117C102.22 108.238 100.183 107.052 98.6135 106.341L97.9945 107.707ZM103.381 110.12L105.037 107.768L103.811 106.904L102.155 109.256L103.381 110.12ZM103.417 113.077C102.298 112.219 100.178 111.204 98.6707 110.621L98.1293 112.019C99.5984 112.588 101.558 113.541 102.503 114.267L103.417 113.077ZM97.7878 110.887L96.2758 113.023L97.5002 113.889L99.0122 111.753L97.7878 110.887ZM96.5874 114.143C98.0964 114.803 100.036 115.897 100.892 116.621L101.86 115.475C100.844 114.615 98.7516 113.453 97.1886 112.769L96.5874 114.143ZM102 116.464L103.584 114.088L102.336 113.256L100.752 115.632L102 116.464ZM100.793 127.214C102.218 124.871 103.763 122.118 105.044 119.605L103.708 118.923C102.445 121.402 100.918 124.121 99.5112 126.434L100.793 127.214ZM104.881 118.709L102.769 116.789L101.759 117.899L103.871 119.819L104.881 118.709ZM101.596 117.004C100.196 119.755 98.3913 122.676 97.1166 124.47L98.3394 125.338C99.6567 123.484 101.5 120.501 102.932 117.684L101.596 117.004ZM97.2623 125.492L99.6863 127.412L100.618 126.236L98.1937 124.316L97.2623 125.492ZM119.73 125.563C119.065 123.492 117.248 120.625 115.654 118.523L114.458 119.429C116.032 121.503 117.719 124.204 118.302 126.021L119.73 125.563ZM114.723 118.304L112.395 119.456L113.061 120.8L115.389 119.648L114.723 118.304ZM112.126 120.575C112.657 121.29 113.193 122.13 113.688 122.978L114.984 122.222C114.471 121.342 113.903 120.454 113.33 119.681L112.126 120.575ZM114.26 121.854L108.62 122.43L108.772 123.922L114.412 123.346L114.26 121.854ZM109.326 123.582C110.521 121.73 111.741 119.535 112.719 117.31L111.345 116.706C110.403 118.849 109.223 120.974 108.066 122.77L109.326 123.582ZM112.032 117.758H118.56V116.258H112.032V117.758ZM119.31 117.008V114.32H117.81V117.008H119.31ZM118.56 113.57H112.776V115.07H118.56V113.57ZM113.526 114.32V110.936H112.026V114.32H113.526ZM112.776 111.686H117.672V110.186H112.776V111.686ZM118.422 110.936V108.224H116.922V110.936H118.422ZM117.672 107.474H112.776V108.974H117.672V107.474ZM113.526 108.224V104.648H112.026V108.224H113.526ZM112.776 103.898H109.872V105.398H112.776V103.898ZM109.122 104.648V108.224H110.622V104.648H109.122ZM109.872 107.474H105.144V108.974H109.872V107.474ZM104.394 108.224V110.936H105.894V108.224H104.394ZM105.144 111.686H109.872V110.186H105.144V111.686ZM109.122 110.936V114.32H110.622V110.936H109.122ZM109.872 113.57H104.184V115.07H109.872V113.57ZM103.434 114.32V117.008H104.934V114.32H103.434ZM104.184 117.758H108.696V116.258H104.184V117.758ZM108.001 116.727C107.054 119.07 105.924 121.134 105.528 121.728L106.776 122.56C107.244 121.858 108.418 119.698 109.391 117.289L108.001 116.727ZM105.52 121.74C104.967 122.606 104.638 122.882 104.374 122.962L104.81 124.398C105.65 124.142 106.233 123.41 106.784 122.548L105.52 121.74ZM103.906 123.983C104.249 124.76 104.717 126.14 104.876 126.731L106.324 126.341C106.147 125.684 105.655 124.232 105.278 123.377L103.906 123.983ZM105.943 127.203C106.222 127.059 106.619 126.922 108.02 126.704C109.408 126.488 111.697 126.201 115.697 125.721L115.519 124.231C111.527 124.711 109.208 125 107.788 125.222C106.381 125.442 105.77 125.605 105.257 125.869L105.943 127.203ZM114.942 125.32C115.304 126.022 115.571 126.717 115.724 127.283L117.172 126.893C116.989 126.211 116.68 125.418 116.274 124.632L114.942 125.32ZM116.786 127.758L119.354 126.462L118.678 125.122L116.11 126.418L116.786 127.758ZM124.368 108.824V108.074C123.954 108.074 123.618 108.41 123.618 108.824H124.368ZM139.56 108.824H140.31C140.31 108.41 139.974 108.074 139.56 108.074V108.824ZM139.56 110.792H138.81C138.81 111.206 139.146 111.542 139.56 111.542V110.792ZM142.224 110.792V111.542C142.638 111.542 142.974 111.206 142.974 110.792H142.224ZM142.224 106.616H142.974C142.974 106.202 142.638 105.866 142.224 105.866V106.616ZM133.464 106.616L132.763 106.882C132.873 107.173 133.152 107.366 133.464 107.366V106.616ZM132.36 104.48L132.995 104.08C132.818 103.8 132.478 103.668 132.159 103.758L132.36 104.48ZM129.864 105.176L129.663 104.454C129.441 104.515 129.261 104.675 129.172 104.887C129.083 105.099 129.097 105.339 129.208 105.54L129.864 105.176ZM130.56 106.616V107.366C130.807 107.366 131.038 107.245 131.178 107.042C131.318 106.838 131.349 106.58 131.261 106.349L130.56 106.616ZM121.8 106.616V105.866C121.386 105.866 121.05 106.202 121.05 106.616H121.8ZM121.8 110.792H121.05C121.05 111.206 121.386 111.542 121.8 111.542V110.792ZM124.368 110.792V111.542C124.782 111.542 125.118 111.206 125.118 110.792H124.368ZM127.008 121.616V120.866C126.594 120.866 126.258 121.202 126.258 121.616H127.008ZM136.992 121.616H137.742C137.742 121.202 137.406 120.866 136.992 120.866V121.616ZM136.992 122.384V123.134C137.406 123.134 137.742 122.798 137.742 122.384H136.992ZM127.008 122.384H126.258C126.258 122.798 126.594 123.134 127.008 123.134V122.384ZM127.008 119.528V118.778C126.594 118.778 126.258 119.114 126.258 119.528H127.008ZM136.992 119.528H137.742C137.742 119.114 137.406 118.778 136.992 118.778V119.528ZM136.992 120.272V121.022C137.406 121.022 137.742 120.686 137.742 120.272H136.992ZM127.008 120.272H126.258C126.258 120.686 126.594 121.022 127.008 121.022V120.272ZM127.008 117.464V116.714C126.594 116.714 126.258 117.05 126.258 117.464H127.008ZM136.992 117.464H137.742C137.742 117.05 137.406 116.714 136.992 116.714V117.464ZM136.992 118.16V118.91C137.406 118.91 137.742 118.574 137.742 118.16H136.992ZM127.008 118.16H126.258C126.258 118.574 126.594 118.91 127.008 118.91V118.16ZM139.896 123.8V124.55C140.31 124.55 140.646 124.214 140.646 123.8H139.896ZM139.896 116.024H140.646C140.646 115.61 140.31 115.274 139.896 115.274V116.024ZM124.248 116.024V115.274C123.834 115.274 123.498 115.61 123.498 116.024H124.248ZM124.248 123.8H123.498C123.498 124.214 123.834 124.55 124.248 124.55V123.8ZM127.68 123.8L127.943 124.502C128.283 124.375 128.483 124.023 128.418 123.666C128.353 123.309 128.043 123.05 127.68 123.05V123.8ZM121.368 125.288L121.267 124.545C120.987 124.583 120.753 124.774 120.66 125.04C120.567 125.306 120.631 125.602 120.825 125.806L121.368 125.288ZM122.88 127.232L122.239 127.622C122.396 127.879 122.691 128.018 122.989 127.974L122.88 127.232ZM131.04 124.856L131.382 125.524C131.613 125.405 131.767 125.175 131.788 124.916C131.808 124.657 131.693 124.405 131.484 124.251L131.04 124.856ZM129.6 123.8V123.05C129.276 123.05 128.988 123.258 128.887 123.567C128.786 123.875 128.895 124.213 129.156 124.405L129.6 123.8ZM133.992 123.8L134.546 124.305C134.746 124.086 134.798 123.769 134.678 123.497C134.558 123.225 134.289 123.05 133.992 123.05V123.8ZM133.008 124.88L132.454 124.375C132.277 124.569 132.214 124.842 132.289 125.093C132.364 125.345 132.565 125.539 132.819 125.606L133.008 124.88ZM140.304 127.208L140.041 127.91C140.303 128.009 140.598 127.953 140.806 127.765L140.304 127.208ZM142.248 125.456L142.75 126.013C142.949 125.834 143.038 125.561 142.981 125.299C142.925 125.037 142.733 124.824 142.478 124.742L142.248 125.456ZM136.608 123.8V123.05C136.232 123.05 135.915 123.328 135.865 123.7C135.815 124.073 136.048 124.425 136.411 124.524L136.608 123.8ZM132.888 113.912L132.144 113.819C132.117 114.032 132.183 114.247 132.326 114.408C132.468 114.57 132.673 114.662 132.888 114.662V113.912ZM132.984 113.144V112.394C132.606 112.394 132.287 112.676 132.24 113.051L132.984 113.144ZM136.056 113.144L136.803 113.214C136.822 113.004 136.753 112.795 136.611 112.639C136.468 112.483 136.267 112.394 136.056 112.394V113.144ZM135.984 113.912V114.662C136.371 114.662 136.695 114.367 136.731 113.982L135.984 113.912ZM127.488 113.144V112.394C127.11 112.394 126.791 112.676 126.744 113.051L127.488 113.144ZM130.656 113.144L131.4 113.237C131.427 113.024 131.361 112.809 131.218 112.648C131.076 112.486 130.871 112.394 130.656 112.394V113.144ZM130.56 113.912V114.662C130.938 114.662 131.257 114.38 131.304 114.005L130.56 113.912ZM127.392 113.912L126.648 113.819C126.621 114.032 126.687 114.247 126.83 114.408C126.972 114.57 127.177 114.662 127.392 114.662V113.912ZM130.872 111.032L131.618 111.109C131.64 110.898 131.571 110.687 131.429 110.53C131.287 110.372 131.084 110.282 130.872 110.282V111.032ZM130.8 111.728V112.478C131.184 112.478 131.506 112.187 131.546 111.805L130.8 111.728ZM127.656 111.728L126.913 111.626C126.883 111.84 126.948 112.057 127.091 112.221C127.233 112.384 127.439 112.478 127.656 112.478V111.728ZM127.752 111.032V110.282C127.377 110.282 127.06 110.558 127.009 110.93L127.752 111.032ZM136.176 111.728V112.478C136.57 112.478 136.897 112.173 136.924 111.78L136.176 111.728ZM133.152 111.728L132.404 111.676C132.389 111.884 132.462 112.088 132.604 112.24C132.746 112.392 132.944 112.478 133.152 112.478V111.728ZM133.2 111.032V110.282C132.806 110.282 132.479 110.587 132.452 110.98L133.2 111.032ZM136.224 111.032L136.972 111.084C136.987 110.876 136.914 110.672 136.772 110.52C136.63 110.368 136.432 110.282 136.224 110.282V111.032ZM138.84 111.416L138.093 111.347C138.074 111.557 138.144 111.766 138.286 111.921C138.428 112.077 138.629 112.166 138.84 112.166V111.416ZM139.008 109.592L139.755 109.661C139.774 109.451 139.704 109.242 139.562 109.087C139.42 108.931 139.219 108.842 139.008 108.842V109.592ZM125.424 109.592V108.842C125.048 108.842 124.73 109.121 124.68 109.494L125.424 109.592ZM125.184 111.416V112.166C125.56 112.166 125.878 111.887 125.928 111.514L125.184 111.416ZM121.128 111.416V110.666C120.714 110.666 120.378 111.002 120.378 111.416H121.128ZM121.128 113.456H120.378C120.378 113.87 120.714 114.206 121.128 114.206V113.456ZM124.896 113.456L125.64 113.551C125.667 113.338 125.601 113.122 125.459 112.961C125.317 112.799 125.112 112.706 124.896 112.706V113.456ZM124.656 115.328L123.912 115.233C123.885 115.446 123.951 115.662 124.093 115.823C124.235 115.985 124.44 116.078 124.656 116.078V115.328ZM138.456 115.328V116.078C138.841 116.078 139.163 115.787 139.202 115.405L138.456 115.328ZM138.648 113.456V112.706C138.263 112.706 137.941 112.997 137.902 113.379L138.648 113.456ZM142.992 113.456V114.206C143.406 114.206 143.742 113.87 143.742 113.456H142.992ZM142.992 111.416H143.742C143.742 111.002 143.406 110.666 142.992 110.666V111.416ZM124.368 109.574H139.56V108.074H124.368V109.574ZM138.81 108.824V110.792H140.31V108.824H138.81ZM139.56 111.542H142.224V110.042H139.56V111.542ZM142.974 110.792V106.616H141.474V110.792H142.974ZM142.224 105.866H133.464V107.366H142.224V105.866ZM134.165 106.35C133.877 105.59 133.417 104.751 132.995 104.08L131.725 104.88C132.119 105.505 132.523 106.25 132.763 106.882L134.165 106.35ZM132.159 103.758L129.663 104.454L130.065 105.898L132.561 105.202L132.159 103.758ZM129.208 105.54C129.444 105.965 129.687 106.431 129.859 106.883L131.261 106.349C131.049 105.793 130.764 105.251 130.52 104.812L129.208 105.54ZM130.56 105.866H121.8V107.366H130.56V105.866ZM121.05 106.616V110.792H122.55V106.616H121.05ZM121.8 111.542H124.368V110.042H121.8V111.542ZM125.118 110.792V108.824H123.618V110.792H125.118ZM127.008 122.366H136.992V120.866H127.008V122.366ZM136.242 121.616V122.384H137.742V121.616H136.242ZM136.992 121.634H127.008V123.134H136.992V121.634ZM127.758 122.384V121.616H126.258V122.384H127.758ZM127.008 120.278H136.992V118.778H127.008V120.278ZM136.242 119.528V120.272H137.742V119.528H136.242ZM136.992 119.522H127.008V121.022H136.992V119.522ZM127.758 120.272V119.528H126.258V120.272H127.758ZM127.008 118.214H136.992V116.714H127.008V118.214ZM136.242 117.464V118.16H137.742V117.464H136.242ZM136.992 117.41H127.008V118.91H136.992V117.41ZM127.758 118.16V117.464H126.258V118.16H127.758ZM140.646 123.8V116.024H139.146V123.8H140.646ZM139.896 115.274H124.248V116.774H139.896V115.274ZM123.498 116.024V123.8H124.998V116.024H123.498ZM124.248 124.55H127.68V123.05H124.248V124.55ZM127.417 123.098C125.757 123.72 123.344 124.262 121.267 124.545L121.469 126.031C123.616 125.738 126.147 125.176 127.943 124.502L127.417 123.098ZM120.825 125.806C121.297 126.3 121.935 127.121 122.239 127.622L123.521 126.842C123.153 126.239 122.447 125.332 121.911 124.77L120.825 125.806ZM122.989 127.974C125.822 127.559 129.269 126.605 131.382 125.524L130.698 124.188C128.779 125.171 125.506 126.089 122.771 126.49L122.989 127.974ZM131.484 124.251L130.044 123.195L129.156 124.405L130.596 125.461L131.484 124.251ZM129.6 124.55H133.992V123.05H129.6V124.55ZM133.438 123.295L132.454 124.375L133.562 125.385L134.546 124.305L133.438 123.295ZM132.819 125.606C135.547 126.317 138.329 127.268 140.041 127.91L140.567 126.506C138.823 125.852 135.989 124.883 133.197 124.154L132.819 125.606ZM140.806 127.765L142.75 126.013L141.746 124.899L139.802 126.651L140.806 127.765ZM142.478 124.742C141.049 124.282 138.925 123.655 136.805 123.076L136.411 124.524C138.515 125.097 140.615 125.718 142.018 126.17L142.478 124.742ZM136.608 124.55H139.896V123.05H136.608V124.55ZM133.632 114.005L133.728 113.237L132.24 113.051L132.144 113.819L133.632 114.005ZM132.984 113.894H136.056V112.394H132.984V113.894ZM135.309 113.074L135.237 113.842L136.731 113.982L136.803 113.214L135.309 113.074ZM135.984 113.162H132.888V114.662H135.984V113.162ZM127.488 113.894H130.656V112.394H127.488V113.894ZM129.912 113.051L129.816 113.819L131.304 114.005L131.4 113.237L129.912 113.051ZM130.56 113.162H127.392V114.662H130.56V113.162ZM128.136 114.005L128.232 113.237L126.744 113.051L126.648 113.819L128.136 114.005ZM130.126 110.955L130.054 111.651L131.546 111.805L131.618 111.109L130.126 110.955ZM130.8 110.978H127.656V112.478H130.8V110.978ZM128.399 111.83L128.495 111.134L127.009 110.93L126.913 111.626L128.399 111.83ZM127.752 111.782H130.872V110.282H127.752V111.782ZM136.176 110.978H133.152V112.478H136.176V110.978ZM133.9 111.78L133.948 111.084L132.452 110.98L132.404 111.676L133.9 111.78ZM133.2 111.782H136.224V110.282H133.2V111.782ZM135.476 110.98L135.428 111.676L136.924 111.78L136.972 111.084L135.476 110.98ZM139.587 111.485L139.755 109.661L138.261 109.523L138.093 111.347L139.587 111.485ZM139.008 108.842H125.424V110.342H139.008V108.842ZM124.68 109.494L124.44 111.318L125.928 111.514L126.168 109.69L124.68 109.494ZM125.184 110.666H121.128V112.166H125.184V110.666ZM120.378 111.416V113.456H121.878V111.416H120.378ZM121.128 114.206H124.896V112.706H121.128V114.206ZM124.152 113.361L123.912 115.233L125.4 115.423L125.64 113.551L124.152 113.361ZM124.656 116.078H138.456V114.578H124.656V116.078ZM139.202 115.405L139.394 113.533L137.902 113.379L137.71 115.251L139.202 115.405ZM138.648 114.206H142.992V112.706H138.648V114.206ZM143.742 113.456V111.416H142.242V113.456H143.742ZM142.992 110.666H138.84V112.166H142.992V110.666ZM167.016 109.04L167.376 109.698C167.691 109.525 167.84 109.154 167.73 108.812L167.016 109.04ZM164.64 105.008L165.24 104.558C165.02 104.264 164.619 104.173 164.293 104.343L164.64 105.008ZM162.48 106.136L162.133 105.471C161.94 105.572 161.801 105.751 161.75 105.962C161.7 106.174 161.744 106.396 161.87 106.573L162.48 106.136ZM164.736 110.288L164.028 110.534C164.1 110.743 164.261 110.909 164.466 110.988C164.672 111.067 164.903 111.052 165.096 110.946L164.736 110.288ZM154.992 108.632V109.382C155.406 109.382 155.742 109.046 155.742 108.632H154.992ZM153.72 108.632H152.97C152.97 109.046 153.306 109.382 153.72 109.382V108.632ZM153.72 107.072V106.322C153.306 106.322 152.97 106.658 152.97 107.072H153.72ZM154.992 107.072H155.742C155.742 106.658 155.406 106.322 154.992 106.322V107.072ZM157.128 105.296H157.878C157.878 104.882 157.542 104.546 157.128 104.546V105.296ZM151.704 105.296V104.546C151.29 104.546 150.954 104.882 150.954 105.296H151.704ZM151.704 110.432H150.954C150.954 110.846 151.29 111.182 151.704 111.182V110.432ZM157.128 110.432V111.182C157.542 111.182 157.878 110.846 157.878 110.432H157.128ZM148.728 108.632V109.382C149.142 109.382 149.478 109.046 149.478 108.632H148.728ZM147.48 108.632H146.73C146.73 109.046 147.066 109.382 147.48 109.382V108.632ZM147.48 107.072V106.322C147.066 106.322 146.73 106.658 146.73 107.072H147.48ZM148.728 107.072H149.478C149.478 106.658 149.142 106.322 148.728 106.322V107.072ZM150.816 105.296H151.566C151.566 104.882 151.23 104.546 150.816 104.546V105.296ZM145.44 105.296V104.546C145.026 104.546 144.69 104.882 144.69 105.296H145.44ZM145.44 110.432H144.69C144.69 110.846 145.026 111.182 145.44 111.182V110.432ZM150.816 110.432V111.182C151.23 111.182 151.566 110.846 151.566 110.432H150.816ZM148.032 116.648V115.898C147.618 115.898 147.282 116.234 147.282 116.648H148.032ZM150.024 116.648H150.774C150.774 116.234 150.438 115.898 150.024 115.898V116.648ZM150.024 117.944V118.694C150.438 118.694 150.774 118.358 150.774 117.944H150.024ZM148.032 117.944H147.282C147.282 118.358 147.618 118.694 148.032 118.694V117.944ZM148.032 113.432V112.682C147.618 112.682 147.282 113.018 147.282 113.432H148.032ZM150.024 113.432H150.774C150.774 113.018 150.438 112.682 150.024 112.682V113.432ZM150.024 114.68V115.43C150.438 115.43 150.774 115.094 150.774 114.68H150.024ZM148.032 114.68H147.282C147.282 115.094 147.618 115.43 148.032 115.43V114.68ZM154.464 114.68V115.43C154.878 115.43 155.214 115.094 155.214 114.68H154.464ZM152.424 114.68H151.674C151.674 115.094 152.01 115.43 152.424 115.43V114.68ZM152.424 113.432V112.682C152.01 112.682 151.674 113.018 151.674 113.432H152.424ZM154.464 113.432H155.214C155.214 113.018 154.878 112.682 154.464 112.682V113.432ZM154.464 117.944V118.694C154.878 118.694 155.214 118.358 155.214 117.944H154.464ZM152.424 117.944H151.674C151.674 118.358 152.01 118.694 152.424 118.694V117.944ZM152.424 116.648V115.898C152.01 115.898 151.674 116.234 151.674 116.648H152.424ZM154.464 116.648H155.214C155.214 116.234 154.878 115.898 154.464 115.898V116.648ZM157.536 123.728V124.478C157.95 124.478 158.286 124.142 158.286 123.728H157.536ZM157.536 121.232H158.286C158.286 120.818 157.95 120.482 157.536 120.482V121.232ZM152.568 121.232H151.818C151.818 121.646 152.154 121.982 152.568 121.982V121.232ZM152.568 120.032V119.282C152.154 119.282 151.818 119.618 151.818 120.032H152.568ZM156.936 120.032V120.782C157.35 120.782 157.686 120.446 157.686 120.032H156.936ZM156.936 111.344H157.686C157.686 110.93 157.35 110.594 156.936 110.594V111.344ZM145.68 111.344V110.594C145.266 110.594 144.93 110.93 144.93 111.344H145.68ZM145.68 120.032H144.93C144.93 120.446 145.266 120.782 145.68 120.782V120.032ZM149.856 120.032H150.606C150.606 119.618 150.27 119.282 149.856 119.282V120.032ZM149.856 121.232V121.982C150.27 121.982 150.606 121.646 150.606 121.232H149.856ZM144.744 121.232V120.482C144.33 120.482 143.994 120.818 143.994 121.232H144.744ZM144.744 123.728H143.994C143.994 124.142 144.33 124.478 144.744 124.478V123.728ZM149.856 123.728H150.606C150.606 123.314 150.27 122.978 149.856 122.978V123.728ZM149.856 127.088H149.106C149.106 127.502 149.442 127.838 149.856 127.838V127.088ZM152.568 127.088V127.838C152.982 127.838 153.318 127.502 153.318 127.088H152.568ZM152.568 123.728V122.978C152.154 122.978 151.818 123.314 151.818 123.728H152.568ZM164.544 113.792L164.908 113.136C164.711 113.027 164.475 113.012 164.265 113.096C164.056 113.18 163.895 113.353 163.828 113.569L164.544 113.792ZM162.648 118.088L161.906 118.198C161.953 118.513 162.194 118.765 162.507 118.825C162.82 118.885 163.137 118.74 163.297 118.464L162.648 118.088ZM162.144 113.744L162.051 113C161.65 113.05 161.36 113.409 161.397 113.812L162.144 113.744ZM167.328 113.096L167.421 113.84C167.828 113.789 168.118 113.421 168.073 113.014L167.328 113.096ZM167.04 110.48L167.785 110.398C167.764 110.199 167.663 110.017 167.506 109.892C167.349 109.768 167.148 109.711 166.949 109.736L167.04 110.48ZM161.928 111.104L161.179 111.15C161.192 111.356 161.289 111.548 161.448 111.68C161.607 111.813 161.814 111.874 162.019 111.848L161.928 111.104ZM161.712 104.816L162.462 104.808C162.457 104.397 162.123 104.066 161.712 104.066V104.816ZM159 104.816V104.066C158.798 104.066 158.605 104.147 158.464 104.291C158.323 104.435 158.246 104.63 158.25 104.831L159 104.816ZM159.264 111.416L159.358 112.16C159.75 112.111 160.036 111.766 160.013 111.372L159.264 111.416ZM157.176 111.68L157.082 110.936C156.676 110.987 156.386 111.355 156.43 111.761L157.176 111.68ZM157.464 114.32L156.718 114.401C156.74 114.601 156.841 114.783 156.998 114.907C157.155 115.032 157.355 115.089 157.554 115.065L157.464 114.32ZM159.456 114.08L160.203 114.014C160.185 113.812 160.086 113.625 159.928 113.497C159.771 113.37 159.568 113.311 159.366 113.335L159.456 114.08ZM160.488 121.112L161.051 121.607C161.211 121.425 161.274 121.177 161.218 120.941L160.488 121.112ZM155.664 124.856L155.347 124.176C155.105 124.289 154.941 124.522 154.917 124.788C154.893 125.054 155.012 125.313 155.23 125.468L155.664 124.856ZM157.728 126.848L157.125 127.294C157.35 127.598 157.767 127.687 158.096 127.501L157.728 126.848ZM161.376 123.992L162.068 123.702C161.97 123.469 161.761 123.301 161.513 123.255C161.264 123.208 161.009 123.291 160.835 123.473L161.376 123.992ZM164.736 127.112L164.699 127.861C164.705 127.861 164.712 127.862 164.719 127.862L164.736 127.112ZM167.592 122.024L168.334 122.131C168.378 121.828 168.233 121.528 167.968 121.375L167.592 122.024ZM165.528 120.416L166.134 119.973C165.947 119.718 165.619 119.607 165.315 119.697C165.011 119.787 164.797 120.058 164.779 120.374L165.528 120.416ZM164.76 123.704L164.689 124.451C164.713 124.453 164.736 124.454 164.76 124.454V123.704ZM163.392 121.544L162.781 121.109C162.646 121.299 162.607 121.54 162.674 121.762L163.392 121.544ZM166.704 114.992L167.418 115.222C167.528 114.882 167.381 114.51 167.068 114.336L166.704 114.992ZM167.73 108.812C167.328 107.551 166.175 105.805 165.24 104.558L164.04 105.458C164.977 106.707 165.984 108.273 166.302 109.268L167.73 108.812ZM164.293 104.343L162.133 105.471L162.827 106.801L164.987 105.673L164.293 104.343ZM161.87 106.573C162.752 107.803 163.673 109.515 164.028 110.534L165.444 110.042C165.031 108.853 164.032 107.013 163.09 105.699L161.87 106.573ZM165.096 110.946L167.376 109.698L166.656 108.382L164.376 109.63L165.096 110.946ZM154.992 107.882H153.72V109.382H154.992V107.882ZM154.47 108.632V107.072H152.97V108.632H154.47ZM153.72 107.822H154.992V106.322H153.72V107.822ZM154.242 107.072V108.632H155.742V107.072H154.242ZM157.128 104.546H151.704V106.046H157.128V104.546ZM150.954 105.296V110.432H152.454V105.296H150.954ZM151.704 111.182H157.128V109.682H151.704V111.182ZM157.878 110.432V105.296H156.378V110.432H157.878ZM148.728 107.882H147.48V109.382H148.728V107.882ZM148.23 108.632V107.072H146.73V108.632H148.23ZM147.48 107.822H148.728V106.322H147.48V107.822ZM147.978 107.072V108.632H149.478V107.072H147.978ZM150.816 104.546H145.44V106.046H150.816V104.546ZM144.69 105.296V110.432H146.19V105.296H144.69ZM145.44 111.182H150.816V109.682H145.44V111.182ZM151.566 110.432V105.296H150.066V110.432H151.566ZM148.032 117.398H150.024V115.898H148.032V117.398ZM149.274 116.648V117.944H150.774V116.648H149.274ZM150.024 117.194H148.032V118.694H150.024V117.194ZM148.782 117.944V116.648H147.282V117.944H148.782ZM148.032 114.182H150.024V112.682H148.032V114.182ZM149.274 113.432V114.68H150.774V113.432H149.274ZM150.024 113.93H148.032V115.43H150.024V113.93ZM148.782 114.68V113.432H147.282V114.68H148.782ZM154.464 113.93H152.424V115.43H154.464V113.93ZM153.174 114.68V113.432H151.674V114.68H153.174ZM152.424 114.182H154.464V112.682H152.424V114.182ZM153.714 113.432V114.68H155.214V113.432H153.714ZM154.464 117.194H152.424V118.694H154.464V117.194ZM153.174 117.944V116.648H151.674V117.944H153.174ZM152.424 117.398H154.464V115.898H152.424V117.398ZM153.714 116.648V117.944H155.214V116.648H153.714ZM158.286 123.728V121.232H156.786V123.728H158.286ZM157.536 120.482H152.568V121.982H157.536V120.482ZM153.318 121.232V120.032H151.818V121.232H153.318ZM152.568 120.782H156.936V119.282H152.568V120.782ZM157.686 120.032V111.344H156.186V120.032H157.686ZM156.936 110.594H145.68V112.094H156.936V110.594ZM144.93 111.344V120.032H146.43V111.344H144.93ZM145.68 120.782H149.856V119.282H145.68V120.782ZM149.106 120.032V121.232H150.606V120.032H149.106ZM149.856 120.482H144.744V121.982H149.856V120.482ZM143.994 121.232V123.728H145.494V121.232H143.994ZM144.744 124.478H149.856V122.978H144.744V124.478ZM149.106 123.728V127.088H150.606V123.728H149.106ZM149.856 127.838H152.568V126.338H149.856V127.838ZM153.318 127.088V123.728H151.818V127.088H153.318ZM152.568 124.478H157.536V122.978H152.568V124.478ZM163.828 113.569C163.389 114.977 162.764 116.39 161.999 117.712L163.297 118.464C164.116 117.05 164.787 115.535 165.26 114.015L163.828 113.569ZM163.39 117.978C163.2 116.699 163.034 115.25 162.891 113.676L161.397 113.812C161.542 115.406 161.712 116.885 161.906 118.198L163.39 117.978ZM162.237 114.488L167.421 113.84L167.235 112.352L162.051 113L162.237 114.488ZM168.073 113.014L167.785 110.398L166.295 110.562L166.583 113.178L168.073 113.014ZM166.949 109.736L161.837 110.36L162.019 111.848L167.131 111.224L166.949 109.736ZM162.677 111.058C162.557 109.105 162.486 106.981 162.462 104.808L160.962 104.824C160.986 107.019 161.059 109.167 161.179 111.15L162.677 111.058ZM161.712 104.066H159V105.566H161.712V104.066ZM158.25 104.831C158.298 107.194 158.395 109.412 158.515 111.46L160.013 111.372C159.893 109.34 159.798 107.142 159.75 104.801L158.25 104.831ZM159.17 110.672L157.082 110.936L157.27 112.424L159.358 112.16L159.17 110.672ZM156.43 111.761L156.718 114.401L158.21 114.239L157.922 111.599L156.43 111.761ZM157.554 115.065L159.546 114.825L159.366 113.335L157.374 113.575L157.554 115.065ZM158.709 114.146C158.951 116.877 159.291 119.292 159.758 121.283L161.218 120.941C160.773 119.044 160.441 116.707 160.203 114.014L158.709 114.146ZM159.925 120.617C158.586 122.141 157.034 123.389 155.347 124.176L155.981 125.536C157.894 124.643 159.606 123.251 161.051 121.607L159.925 120.617ZM155.23 125.468C155.915 125.954 156.696 126.715 157.125 127.294L158.331 126.402C157.8 125.685 156.901 124.814 156.098 124.244L155.23 125.468ZM158.096 127.501C159.484 126.719 160.766 125.713 161.917 124.511L160.835 123.473C159.778 124.575 158.612 125.489 157.36 126.195L158.096 127.501ZM160.684 124.282C161.538 126.315 162.819 127.767 164.699 127.861L164.773 126.363C163.773 126.313 162.846 125.557 162.068 123.702L160.684 124.282ZM164.719 127.862C165.524 127.881 166.314 127.498 166.947 126.564C167.551 125.672 168.028 124.262 168.334 122.131L166.85 121.917C166.556 123.962 166.121 125.108 165.705 125.722C165.318 126.294 164.98 126.367 164.753 126.362L164.719 127.862ZM167.968 121.375C167.755 121.252 167.375 121.019 167 120.747C166.607 120.463 166.288 120.184 166.134 119.973L164.922 120.859C165.224 121.272 165.709 121.665 166.12 121.963C166.549 122.273 166.973 122.532 167.216 122.673L167.968 121.375ZM164.779 120.374C164.72 121.442 164.627 122.212 164.513 122.699C164.454 122.949 164.402 123.074 164.376 123.119C164.334 123.192 164.44 122.954 164.76 122.954V124.454C165.272 124.454 165.555 124.075 165.674 123.869C165.81 123.635 165.903 123.343 165.973 123.041C166.117 122.424 166.216 121.55 166.277 120.458L164.779 120.374ZM164.831 122.957C164.944 122.968 164.874 123.031 164.677 122.713C164.499 122.429 164.306 121.973 164.11 121.326L162.674 121.762C162.886 122.459 163.125 123.059 163.403 123.507C163.662 123.921 164.072 124.392 164.689 124.451L164.831 122.957ZM164.003 121.979C165.461 119.927 166.649 117.603 167.418 115.222L165.99 114.762C165.271 116.989 164.155 119.177 162.781 121.109L164.003 121.979ZM167.068 114.336L164.908 113.136L164.18 114.448L166.34 115.648L167.068 114.336Z" fill="#00E0B8"/>
<path d="M191.594 107.281L184.406 105.562L187 82.5H212.562V89.7812H194.406L193.281 99.875C193.885 99.5208 194.802 99.1458 196.031 98.75C197.26 98.3333 198.635 98.125 200.156 98.125C202.365 98.125 204.323 98.4688 206.031 99.1562C207.74 99.8438 209.188 100.844 210.375 102.156C211.583 103.469 212.5 105.073 213.125 106.969C213.75 108.865 214.062 111.01 214.062 113.406C214.062 115.427 213.75 117.354 213.125 119.188C212.5 121 211.552 122.625 210.281 124.062C209.01 125.479 207.417 126.594 205.5 127.406C203.583 128.219 201.312 128.625 198.688 128.625C196.729 128.625 194.833 128.333 193 127.75C191.188 127.167 189.552 126.302 188.094 125.156C186.656 124.01 185.5 122.625 184.625 121C183.771 119.354 183.323 117.479 183.281 115.375H192.219C192.344 116.667 192.677 117.781 193.219 118.719C193.781 119.635 194.521 120.344 195.438 120.844C196.354 121.344 197.427 121.594 198.656 121.594C199.802 121.594 200.781 121.375 201.594 120.938C202.406 120.5 203.062 119.896 203.562 119.125C204.062 118.333 204.427 117.417 204.656 116.375C204.906 115.312 205.031 114.167 205.031 112.938C205.031 111.708 204.885 110.594 204.594 109.594C204.302 108.594 203.854 107.729 203.25 107C202.646 106.271 201.875 105.708 200.938 105.312C200.021 104.917 198.948 104.719 197.719 104.719C196.052 104.719 194.76 104.979 193.844 105.5C192.948 106.021 192.198 106.615 191.594 107.281ZM250.5 101.25V109.125C250.5 112.542 250.135 115.49 249.406 117.969C248.677 120.427 247.625 122.448 246.25 124.031C244.896 125.594 243.281 126.75 241.406 127.5C239.531 128.25 237.448 128.625 235.156 128.625C233.323 128.625 231.615 128.396 230.031 127.938C228.448 127.458 227.021 126.719 225.75 125.719C224.5 124.719 223.417 123.458 222.5 121.938C221.604 120.396 220.917 118.562 220.438 116.438C219.958 114.312 219.719 111.875 219.719 109.125V101.25C219.719 97.8333 220.083 94.9062 220.812 92.4688C221.562 90.0104 222.615 88 223.969 86.4375C225.344 84.875 226.969 83.7292 228.844 83C230.719 82.25 232.802 81.875 235.094 81.875C236.927 81.875 238.625 82.1146 240.188 82.5938C241.771 83.0521 243.198 83.7708 244.469 84.75C245.74 85.7292 246.823 86.9896 247.719 88.5312C248.615 90.0521 249.302 91.875 249.781 94C250.26 96.1042 250.5 98.5208 250.5 101.25ZM241.469 110.312V100.031C241.469 98.3854 241.375 96.9479 241.188 95.7188C241.021 94.4896 240.76 93.4479 240.406 92.5938C240.052 91.7188 239.615 91.0104 239.094 90.4688C238.573 89.9271 237.979 89.5312 237.312 89.2812C236.646 89.0312 235.906 88.9062 235.094 88.9062C234.073 88.9062 233.167 89.1042 232.375 89.5C231.604 89.8958 230.948 90.5312 230.406 91.4062C229.865 92.2604 229.448 93.4062 229.156 94.8438C228.885 96.2604 228.75 97.9896 228.75 100.031V110.312C228.75 111.958 228.833 113.406 229 114.656C229.188 115.906 229.458 116.979 229.812 117.875C230.188 118.75 230.625 119.469 231.125 120.031C231.646 120.573 232.24 120.969 232.906 121.219C233.594 121.469 234.344 121.594 235.156 121.594C236.156 121.594 237.042 121.396 237.812 121C238.604 120.583 239.271 119.938 239.812 119.062C240.375 118.167 240.792 117 241.062 115.562C241.333 114.125 241.469 112.375 241.469 110.312ZM256.5 93.6562V91.25C256.5 89.5208 256.875 87.9479 257.625 86.5312C258.375 85.1146 259.479 83.9792 260.938 83.125C262.396 82.2708 264.188 81.8438 266.312 81.8438C268.5 81.8438 270.323 82.2708 271.781 83.125C273.26 83.9792 274.365 85.1146 275.094 86.5312C275.844 87.9479 276.219 89.5208 276.219 91.25V93.6562C276.219 95.3438 275.844 96.8958 275.094 98.3125C274.365 99.7292 273.271 100.865 271.812 101.719C270.354 102.573 268.552 103 266.406 103C264.24 103 262.417 102.573 260.938 101.719C259.479 100.865 258.375 99.7292 257.625 98.3125C256.875 96.8958 256.5 95.3438 256.5 93.6562ZM262.469 91.25V93.6562C262.469 94.3854 262.604 95.0833 262.875 95.75C263.167 96.3958 263.604 96.9271 264.188 97.3438C264.792 97.7396 265.521 97.9375 266.375 97.9375C267.271 97.9375 268 97.7396 268.562 97.3438C269.125 96.9271 269.542 96.3958 269.812 95.75C270.083 95.0833 270.219 94.3854 270.219 93.6562V91.25C270.219 90.4792 270.073 89.7708 269.781 89.125C269.51 88.4583 269.083 87.9271 268.5 87.5312C267.938 87.1146 267.208 86.9062 266.312 86.9062C265.479 86.9062 264.771 87.1146 264.188 87.5312C263.604 87.9271 263.167 88.4583 262.875 89.125C262.604 89.7708 262.469 90.4792 262.469 91.25ZM278.25 119.25V116.844C278.25 115.135 278.625 113.573 279.375 112.156C280.146 110.74 281.26 109.604 282.719 108.75C284.198 107.896 286.01 107.469 288.156 107.469C290.323 107.469 292.135 107.896 293.594 108.75C295.052 109.604 296.156 110.74 296.906 112.156C297.656 113.573 298.031 115.135 298.031 116.844V119.25C298.031 120.958 297.656 122.521 296.906 123.938C296.177 125.354 295.083 126.49 293.625 127.344C292.167 128.198 290.365 128.625 288.219 128.625C286.052 128.625 284.229 128.198 282.75 127.344C281.271 126.49 280.146 125.354 279.375 123.938C278.625 122.521 278.25 120.958 278.25 119.25ZM284.25 116.844V119.25C284.25 120 284.417 120.708 284.75 121.375C285.083 122.042 285.542 122.573 286.125 122.969C286.729 123.365 287.427 123.562 288.219 123.562C289.219 123.562 290 123.365 290.562 122.969C291.125 122.573 291.51 122.042 291.719 121.375C291.948 120.708 292.062 120 292.062 119.25V116.844C292.062 116.094 291.917 115.396 291.625 114.75C291.333 114.083 290.896 113.552 290.312 113.156C289.75 112.74 289.031 112.531 288.156 112.531C287.281 112.531 286.552 112.74 285.969 113.156C285.406 113.552 284.979 114.083 284.688 114.75C284.396 115.396 284.25 116.094 284.25 116.844ZM290.375 89L268.156 124.562L263.781 122.25L286 86.6875L290.375 89Z" fill="url(#paint0_linear_50_802)"/>
<path d="M110.82 189.28H103.9C103.68 188.66 103.3 187.82 102.86 187.22L101.94 187.46C102.3 187.98 102.62 188.7 102.84 189.28H95.32V190.18H110.82V189.28ZM100.5 193.68C100.32 192.8 99.74 191.42 99.06 190.42L98.18 190.66C98.82 191.66 99.38 193.04 99.56 193.98L100.5 193.68ZM108.12 197.84V200.36H98.04V197.84H108.12ZM98.04 203.82V201.2H108.12V203.82H98.04ZM97.08 205.48H98.04V204.68H108.12V205.42H109.1V196.98H97.08V205.48ZM106.32 194.02C106.88 193.04 107.54 191.74 108.04 190.66L107.04 190.36C106.64 191.44 105.9 193 105.3 194.02H94.18V194.92H111.84V194.02H106.32ZM131.7 197.12C131.52 196.34 131.08 195.16 130.72 194.2L129.98 194.48C130.14 194.88 130.32 195.32 130.48 195.8L127.62 196.14C128.94 194.56 130.28 192.46 131.42 190.38L130.64 189.98C130.34 190.64 129.96 191.3 129.6 191.94L127.22 192.22C128 190.98 128.82 189.32 129.42 187.72L128.58 187.4C128.04 189.14 127.02 191.04 126.74 191.52C126.46 192 126.2 192.34 125.96 192.4C126.04 192.62 126.18 193.06 126.22 193.24C126.46 193.14 126.86 193.04 129.14 192.72C128.4 193.9 127.7 194.88 127.4 195.24C126.92 195.86 126.54 196.3 126.2 196.36C126.32 196.58 126.46 197.02 126.5 197.22C126.78 197.06 127.26 196.96 130.7 196.48C130.82 196.82 130.88 197.14 130.94 197.4L131.7 197.12ZM124.6 192.66H121.4V190.16H124.6V192.66ZM124.6 195.96H121.4V193.44H124.6V195.96ZM125.5 189.36H122.96C123.14 188.8 123.34 188.1 123.56 187.48L122.62 187.28C122.54 187.88 122.34 188.7 122.14 189.36H120.52V196.78H125.5V189.36ZM120 197.02C119.88 196.16 119.56 194.84 119.24 193.82L118.52 194C118.64 194.48 118.76 194.98 118.88 195.5L115.96 195.88C117.32 194.3 118.66 192.22 119.78 190.14L119.02 189.74C118.7 190.44 118.32 191.12 117.9 191.78L115.82 192C116.6 190.84 117.36 189.28 117.96 187.76L117.14 187.44C116.64 189.08 115.64 190.88 115.34 191.34C115.06 191.78 114.82 192.12 114.58 192.16C114.68 192.38 114.8 192.82 114.84 193C115.06 192.9 115.46 192.8 117.46 192.54C116.72 193.68 116.02 194.62 115.76 194.98C115.26 195.6 114.88 196.04 114.56 196.12C114.68 196.34 114.82 196.76 114.82 196.94C115.12 196.8 115.6 196.68 119.04 196.2C119.12 196.56 119.18 196.94 119.22 197.24L120 197.02ZM120.44 200.24C119 201.84 116.2 203.28 113.84 203.94C114.08 204.12 114.36 204.48 114.52 204.74C116.86 203.96 119.72 202.36 121.26 200.62L120.44 200.24ZM124.9 200.82C127.12 201.98 129.84 203.68 131.2 204.86L131.78 204.06C130.4 202.94 127.66 201.26 125.46 200.14L124.9 200.82ZM123.44 198.68V197.32H122.48V198.68H114.14V199.54H122.48V205.46H123.44V199.54H131.84V198.68H123.44ZM139.98 200.28C139.2 200.56 138.38 200.82 137.62 201.06V195.52H139.8V194.62H137.62V189.74H140.04V188.82H134.06V189.74H136.7V194.62H134.26V195.52H136.7V201.38C135.62 201.72 134.64 202.04 133.86 202.28L134.12 203.26C135.8 202.68 138.02 201.92 140.14 201.2L139.98 200.28ZM142.08 193.06H145.72V196.14H142.08V193.06ZM142.08 189.18H145.72V192.2H142.08V189.18ZM150.3 192.2H146.58V189.18H150.3V192.2ZM150.3 196.14H146.58V193.06H150.3V196.14ZM146.62 203.88V200.66H151.56V199.76H146.62V197.02H151.22V188.32H141.18V197.02H145.66V199.76H140.86V200.66H145.66V203.88H139.24V204.78H152.22V203.88H146.62ZM158.04 189.8C157.72 189.1 157.04 188.08 156.44 187.28L155.68 187.68C156.26 188.46 156.94 189.56 157.22 190.28L158.04 189.8ZM159.8 190.78H153.98V191.64H159.8V190.78ZM159.28 193.34H154.64V194.16H159.28V193.34ZM154.64 196.76H159.28V195.92H154.64V196.76ZM158.58 199.38V203.34H155.38V199.38H158.58ZM159.46 198.52H154.52V205.2H155.38V204.2H159.46V198.52ZM167.86 199.8V196.7H170.22V199.8H167.86ZM164.76 199.8V196.7H167.08V199.8H164.76ZM161.7 199.8V196.7H163.96V199.8H161.7ZM171.08 195.84H160.84V205.58H161.7V200.68H163.96V205.1H164.76V200.68H167.08V205.1H167.86V200.68H170.22V204.36C170.22 204.52 170.18 204.58 170.02 204.58C169.84 204.6 169.36 204.6 168.74 204.58C168.86 204.82 168.96 205.18 169 205.42C169.8 205.42 170.34 205.42 170.66 205.24C171 205.1 171.08 204.84 171.08 204.34V195.84ZM165.82 187.28C164.48 189.78 161.78 192.44 159.36 193.7C159.58 193.92 159.84 194.3 159.98 194.58C162.02 193.38 164.26 191.26 165.76 189.1C166.66 190.48 167.88 191.82 169.22 192.86H162.42V193.74H169.38V193C170.06 193.52 170.8 193.96 171.48 194.28C171.66 194.02 171.98 193.6 172.22 193.38C169.98 192.52 167.54 190.4 166.26 188.38C166.38 188.18 166.5 188 166.6 187.8L165.82 187.28ZM180.24 196.28C179.44 196.52 178.6 196.78 177.8 197.02V192.44H180.16V191.52H177.8V187.34H176.86V191.52H174.12V192.44H176.86V197.3C175.74 197.64 174.7 197.94 173.88 198.16L174.2 199.1C175 198.86 175.9 198.56 176.86 198.28V204.16C176.86 204.46 176.74 204.56 176.46 204.56C176.22 204.58 175.34 204.58 174.3 204.56C174.42 204.82 174.58 205.2 174.62 205.44C175.98 205.46 176.74 205.44 177.18 205.28C177.6 205.1 177.8 204.84 177.8 204.14V197.98C178.64 197.7 179.5 197.42 180.36 197.16L180.24 196.28ZM189.58 195.86C188.78 197.96 187.46 199.72 185.9 201.12C184.44 199.66 183.32 197.88 182.58 195.86H189.58ZM190.2 194.9L190 194.94H186.38V191.58H191.36V190.66H186.38V187.34H185.42V190.66H180.48V191.58H185.42V194.94H180.9V195.86H181.62C182.44 198.14 183.62 200.12 185.16 201.7C183.4 203.1 181.36 204.06 179.34 204.6C179.5 204.82 179.76 205.2 179.86 205.48C181.94 204.84 184.02 203.82 185.86 202.36C187.4 203.78 189.26 204.84 191.42 205.48C191.58 205.22 191.82 204.86 192.06 204.66C189.92 204.08 188.08 203.08 186.56 201.76C188.42 200.08 189.94 197.9 190.8 195.2L190.2 194.9ZM198.14 195.06C197.36 194.42 195.76 193.5 194.5 192.98L193.96 193.66C195.24 194.26 196.82 195.2 197.62 195.86L198.14 195.06ZM195.42 205.18C196.58 203.36 198.04 200.74 199.1 198.64L198.4 198.02C197.28 200.26 195.7 202.98 194.6 204.52L195.42 205.18ZM194.96 188.24C196.32 188.82 197.94 189.78 198.78 190.5L199.32 189.66C198.48 189 196.84 188.1 195.5 187.56L194.96 188.24ZM211.64 196.96V196.04H206.14V191.96H210.8V191.04H206.14V187.34H205.18V191.04H200.72V191.96H205.18V196.04H199.8V196.96H204.72C203.6 199.36 202.02 201.7 201.52 202.34C200.98 203.08 200.58 203.58 200.24 203.66C200.36 203.92 200.52 204.4 200.56 204.64C201.02 204.42 201.76 204.3 209.64 203.32C210.1 204.12 210.48 204.84 210.7 205.44L211.52 205C210.92 203.46 209.36 201.08 207.92 199.3L207.16 199.66C207.84 200.52 208.58 201.54 209.18 202.54L201.8 203.4C203.24 201.64 204.66 199.32 205.84 196.96H211.64Z" fill="white"/>
<path d="M111.44 253.68H106.68C106.56 253.02 106.26 252.04 105.98 251.24L105.1 251.38C105.36 252.1 105.62 253 105.74 253.68H100.56V254.56H111.44V253.68ZM104.1 258.62C103.92 257.62 103.4 256.08 102.8 254.94L102.02 255.18C102.6 256.34 103.1 257.88 103.24 258.88L104.1 258.62ZM97.48 257.2H99.94V256.28H97.48V251.54H96.58V256.28H94V257.2H96.58V264.7C95.56 265.06 94.62 265.4 93.88 265.66L94.18 266.64C95.88 265.96 98.08 265.1 100.18 264.24L100.02 263.36C99.16 263.7 98.3 264.02 97.48 264.34V257.2ZM109.46 263.16V267.6H102.56V263.16H109.46ZM101.66 269.46H102.56V268.48H109.46V269.4H110.38V262.26H101.66V269.46ZM108.28 259.32C108.82 258.1 109.42 256.46 109.88 255.12L108.98 254.84C108.6 256.14 107.94 258.06 107.36 259.32H99.82V260.22H112.04V259.32H108.28ZM126.98 261.94V263.08H118.9V261.94H126.98ZM118.9 265V263.78H126.98V265H118.9ZM118.9 268.06V265.72H127.94V261.22H117.9V267.48C117.9 268.22 117.5 268.46 117.24 268.58C117.4 268.8 117.6 269.22 117.68 269.46C117.98 269.24 118.5 269.08 122.56 267.9C122.54 267.72 122.48 267.34 122.48 267.1L118.9 268.06ZM120.1 259.44V260.12H125.84V259.44H120.1ZM130.06 265.1C129.06 265.68 127.42 266.48 126.12 267C125 266.6 123.88 266.22 122.86 265.9L122.44 266.52C125.04 267.38 128.44 268.7 130.24 269.5L130.64 268.74C129.74 268.34 128.44 267.86 127.06 267.34C128.28 266.88 129.66 266.26 130.68 265.66L130.06 265.1ZM131.82 258.38V257.6H123.46V256.3H129.4V255.56H123.46V254.36H130.56V253.58H126.5C126.92 253.02 127.4 252.3 127.78 251.64L126.82 251.3C126.52 251.96 125.92 252.96 125.46 253.58H120.6C120.26 253 119.58 252.06 119 251.34L118.16 251.68C118.58 252.24 119.1 253 119.48 253.58H115.44V254.36H122.5V255.56H116.58V256.3H122.5V257.6H114.2V258.38H119.42C118.04 260.04 115.9 261.42 113.78 262.32C114 262.5 114.36 262.84 114.48 263.02C116.7 261.96 119.06 260.34 120.54 258.38H125.6C126.92 260.26 129.3 261.94 131.54 262.72C131.68 262.5 131.96 262.16 132.18 261.98C130.08 261.34 127.92 259.96 126.6 258.38H131.82ZM151.94 261.74H141.48V262.62H151.94V261.74ZM145 263.38C145.86 264.24 146.82 265.54 147.22 266.42L147.96 266C147.58 265.18 146.62 263.94 145.68 263.08L145 263.38ZM147.6 259.54H145.64V256.6H147.6V259.54ZM148.32 256.6H150.34V259.54H148.32V256.6ZM144.92 259.54H143.04V256.6H144.92V259.54ZM141.74 253.26V254.1H145.86C145.76 254.72 145.64 255.28 145.54 255.8H142.24V260.34H151.18V255.8H146.36C146.48 255.28 146.58 254.72 146.68 254.1H151.66V253.26H146.82C146.94 252.64 147.04 252 147.12 251.44L146.28 251.36C146.2 251.94 146.12 252.6 146 253.26H141.74ZM137.22 265.48H138.9V264.72H137.22V262.88C137.94 262.8 138.64 262.72 139.22 262.6L138.68 261.92C137.64 262.12 135.84 262.32 134.34 262.42C134.44 262.62 134.56 262.88 134.6 263.06C135.16 263.06 135.8 263.02 136.4 262.96V264.72H134.6V265.48H136.4V267.38C135.52 267.5 134.72 267.6 134.04 267.7L134.2 268.52C135.62 268.3 137.42 268.02 139.24 267.74L139.22 266.96C138.52 267.06 137.86 267.16 137.22 267.26V265.48ZM139.7 254.94H136.28V253.1H139.7V254.94ZM136.28 258.26H139.7V260C138.5 260.1 137.34 260.2 136.28 260.28V258.26ZM139.7 257.5H136.28V255.7H139.7V257.5ZM141.88 253.1V252.26H134V253.1H135.38V260.32L133.96 260.42L134.08 261.28C135.62 261.16 137.64 261 139.7 260.8V269.48H140.6V253.1H141.88ZM141.66 268.52C142.4 267.52 142.98 265.96 143.4 264.8L142.66 264.5C142.32 265.62 141.68 267.18 140.96 268.08L141.66 268.52ZM145.78 268.3C145.04 268.3 144.94 268.22 144.94 267.84V264.6H144.06V267.84C144.06 268.88 144.42 269.12 145.72 269.12H148.46C149.56 269.12 149.84 268.68 149.92 266.68C149.68 266.62 149.34 266.5 149.12 266.32C149.06 268.1 148.96 268.3 148.36 268.3H145.78ZM149.08 264.4C150.12 265.54 151.08 267.12 151.42 268.22L152.2 267.84C151.82 266.78 150.86 265.2 149.78 264.08L149.08 264.4ZM162.5 255.84C162.52 255.36 162.52 254.92 162.52 254.46V251.4H161.54V254.46C161.54 254.92 161.54 255.36 161.52 255.84H154.78V256.8H161.46C161.2 260.7 159.94 265.24 154.2 268.8C154.44 268.96 154.78 269.3 154.94 269.54C160.86 265.82 162.18 260.96 162.46 256.8H169.98C169.54 264.5 169.08 267.42 168.32 268.16C168.08 268.4 167.82 268.44 167.4 268.44C166.9 268.44 165.58 268.44 164.14 268.3C164.34 268.58 164.44 268.98 164.48 269.26C165.72 269.36 167 269.4 167.66 269.36C168.36 269.32 168.76 269.2 169.18 268.74C170.06 267.78 170.48 264.84 170.98 256.4C170.98 256.26 171 255.84 171 255.84H162.5ZM178.58 253.8C178.26 253.1 177.6 252.08 176.98 251.28L176.26 251.68C176.82 252.46 177.48 253.56 177.76 254.28L178.58 253.8ZM181.04 254.78H173.96V255.64H181.04V254.78ZM180.36 258.16V257.34H174.74V258.16H180.36ZM180.36 259.92H174.74V260.76H180.36V259.92ZM179.62 263.38V267.34H175.62V263.38H179.62ZM180.5 268.2V262.52H174.76V269.2H175.62V268.2H180.5ZM183.12 258.74C183.12 262.42 182.88 266.02 180.5 269C180.76 269.12 181.12 269.38 181.3 269.56C183.76 266.44 184.04 262.66 184.04 258.74V251.76H183.12V258.74ZM186.7 267.44H187.6V252.5H186.7V267.44ZM190.42 251.58V269.48H191.36V251.58H190.42ZM200.96 263.12C200.8 262.08 200.28 260.24 199.76 258.86L198.98 259.02C199.22 259.68 199.46 260.44 199.66 261.18L195.66 261.74C197.32 259.86 198.98 257.4 200.4 254.94L199.52 254.46C199.06 255.36 198.52 256.28 197.96 257.14L195.38 257.4C196.6 255.82 197.78 253.76 198.76 251.72L197.86 251.32C196.98 253.52 195.46 255.88 195 256.5C194.58 257.08 194.2 257.54 193.9 257.6C194.02 257.84 194.16 258.32 194.2 258.54C194.48 258.42 194.92 258.32 197.4 258.02C196.56 259.3 195.8 260.3 195.44 260.7C194.86 261.42 194.38 261.96 194.04 262.02C194.12 262.28 194.28 262.76 194.34 262.98C194.7 262.8 195.24 262.66 199.84 261.98C199.98 262.5 200.08 262.98 200.14 263.36L200.96 263.12ZM194.9 263.98C194.66 265.68 194.3 267.58 193.82 268.88C194.06 268.96 194.46 269.1 194.62 269.18C195.04 267.92 195.46 265.92 195.74 264.12L194.9 263.98ZM196.96 264.02C197.2 265.46 197.44 267.34 197.5 268.58L198.3 268.44C198.22 267.18 197.98 265.32 197.74 263.9L196.96 264.02ZM198.84 263.66C199.28 264.86 199.72 266.4 199.92 267.42L200.68 267.2C200.5 266.18 200.02 264.66 199.58 263.46L198.84 263.66ZM208.54 261.2C208.96 260.38 209.5 259.16 209.92 258.14L209.18 257.86C208.92 258.76 208.36 260.12 207.92 260.94L208.54 261.2ZM203.56 258.16C204.06 259.06 204.5 260.28 204.66 261.1L205.36 260.88C205.18 260.08 204.7 258.9 204.22 257.98L203.56 258.16ZM202.62 257.26H206.1V261.78H202.62V257.26ZM210.4 261.78H206.94V257.26H210.4V261.78ZM211.26 262.62V256.42H206.98V254.48H211.92V253.6H206.98V251.36H206.06V253.6H201.16V254.48H206.06V256.42H201.78V262.62H205.4C204.38 264.64 202.6 266.68 200.94 267.68C201.16 267.88 201.4 268.18 201.54 268.42C203.24 267.26 205.02 265.14 206.06 263.1V269.48H206.98V262.92C208.12 264.92 209.94 267.08 211.42 268.22C211.6 268 211.86 267.68 212.1 267.5C210.62 266.52 208.76 264.5 207.66 262.62H211.26Z" fill="white"/>
<path d="M98.04 324.82H100.62V323.96H98.04V321.32H99.98V320.46H95.04C96 319.5 96.92 318.32 97.66 317.08C98.8 318.16 100.1 319.5 100.8 320.32L101.36 319.66C100.66 318.84 99.26 317.46 98.08 316.38C98.2 316.14 98.32 315.92 98.44 315.68L97.6 315.42C96.74 317.28 95.32 319.08 93.82 320.28C93.98 320.48 94.26 320.92 94.34 321.12C94.56 320.92 94.78 320.72 95 320.5V321.32H97.18V323.96H94.02V324.82H97.18V331.2C95.9 331.44 94.76 331.66 93.86 331.82L94.12 332.7C95.94 332.34 98.48 331.82 100.86 331.32L100.8 330.5C99.86 330.7 98.94 330.88 98.04 331.06V324.82ZM94.38 326.22C94.7 327.42 95.02 329.04 95.14 330.1L95.96 329.88C95.82 328.86 95.48 327.26 95.14 326.06L94.38 326.22ZM99.7 329.88C100.04 328.88 100.36 327.3 100.7 326.08L99.9 325.8C99.74 326.92 99.38 328.62 99.08 329.64L99.7 329.88ZM103.82 320.26C104 319.58 104.22 318.78 104.44 317.98H109.18C109.06 318.62 108.9 319.44 108.72 320.26H103.82ZM110.62 325.06C110 326.02 108.94 327.3 108.1 328.22C107.76 327.98 107.44 327.74 107.12 327.52V323.86H112.04V322.96H109.06C109.5 321.1 109.96 318.78 110.24 317.2L109.58 317.08L109.42 317.14H104.66C104.78 316.56 104.94 315.96 105.06 315.44L104.12 315.32C103.74 317.14 103.1 319.62 102.6 321.1H108.58C108.44 321.76 108.3 322.38 108.16 322.96H101.08V323.86H106.22V327.64C104.4 329.1 102.46 330.54 101.2 331.42L101.8 332.14C103.08 331.16 104.68 329.9 106.22 328.62V332.32C106.22 332.54 106.16 332.6 105.92 332.62C105.68 332.62 104.94 332.64 104.02 332.6C104.16 332.88 104.3 333.22 104.34 333.48C105.46 333.48 106.18 333.46 106.6 333.32C107 333.16 107.12 332.9 107.12 332.3V328.48C108.78 329.66 110.6 331.14 111.58 332.14L112.14 331.44C111.38 330.68 110.06 329.64 108.72 328.66C109.58 327.8 110.6 326.6 111.4 325.56L110.62 325.06ZM104.98 327.54C104.52 326.84 103.48 325.76 102.62 324.98L101.92 325.42C102.8 326.24 103.8 327.36 104.3 328.08L104.98 327.54ZM130.82 317.28H123.9C123.68 316.66 123.3 315.82 122.86 315.22L121.94 315.46C122.3 315.98 122.62 316.7 122.84 317.28H115.32V318.18H130.82V317.28ZM120.5 321.68C120.32 320.8 119.74 319.42 119.06 318.42L118.18 318.66C118.82 319.66 119.38 321.04 119.56 321.98L120.5 321.68ZM128.12 325.84V328.36H118.04V325.84H128.12ZM118.04 331.82V329.2H128.12V331.82H118.04ZM117.08 333.48H118.04V332.68H128.12V333.42H129.1V324.98H117.08V333.48ZM126.32 322.02C126.88 321.04 127.54 319.74 128.04 318.66L127.04 318.36C126.64 319.44 125.9 321 125.3 322.02H114.18V322.92H131.84V322.02H126.32ZM135.48 318.12H150.54V320.56H151.5V317.22H143.92C143.68 316.66 143.22 315.8 142.8 315.18L141.9 315.46C142.22 315.98 142.6 316.66 142.84 317.22H134.54V320.56H135.48V318.12ZM149.96 325.42C149.14 324.4 147.46 322.84 146.04 321.74L145.32 322.24C145.94 322.74 146.62 323.32 147.28 323.92L138.44 324.58C139.78 323.62 141.12 322.4 142.38 321.08H149.72V320.2H136.48V321.08H141.06C139.82 322.46 138.34 323.68 137.86 324C137.32 324.42 136.88 324.7 136.5 324.74C136.64 325 136.76 325.48 136.82 325.7C137.36 325.5 138.18 325.44 148.02 324.66C148.5 325.12 148.94 325.6 149.22 325.98L149.96 325.42ZM143.48 331.98V328.76H149.98V327.88H143.48V325.42H142.52V327.88H136.04V328.76H142.52V331.98H134.22V332.88H151.86V331.98H143.48ZM155.66 318H170.38V320.18H171.3V317.16H163.82C163.52 316.56 163 315.76 162.48 315.2L161.66 315.52C162.08 316 162.48 316.62 162.78 317.16H154.76V320.18H155.66V318ZM160.64 330.92C159.38 331.62 156.7 332.36 154.6 332.74C154.78 332.94 155.04 333.26 155.16 333.46C157.28 333.08 159.92 332.3 161.54 331.44L160.64 330.92ZM168.4 326.36H157.74V325.28H168.4V326.36ZM168.4 328.16H157.74V327.06H168.4V328.16ZM168.4 329.98H157.74V328.86H168.4V329.98ZM169.36 324.58H156.8V330.68H169.36V324.58ZM164.54 331.54C166.88 332.16 169.24 332.94 170.72 333.48L171.32 332.8C169.78 332.24 167.36 331.52 165.02 330.92L164.54 331.54ZM167.8 322.88H163.28C163.32 322.5 163.36 322.1 163.4 321.66H167.88V321.72H167.9L167.8 322.88ZM158.18 321.66H162.58C162.54 322.1 162.48 322.5 162.44 322.88H158.02L158.18 321.66ZM162.72 319.84C162.7 320.2 162.68 320.58 162.64 320.96H158.24L158.38 319.84H162.72ZM167.96 320.92H167.88V320.96H163.48C163.5 320.58 163.54 320.2 163.56 319.84H168.04L167.96 320.92ZM168.86 320.92L169 319.14H157.62L157.38 320.92H154.06V321.72H157.28L157.02 323.58H168.64L168.8 321.72H172V320.92H168.86ZM191.68 319.02C191.22 318.08 190.1 316.7 189.06 315.72L188.32 316.16C189.36 317.16 190.44 318.6 190.9 319.54L191.68 319.02ZM182.82 319.06H180.44V316.78H182.82V319.06ZM183.64 316.02H179.62V319.84H183.64V316.02ZM177.72 319.06H175.44V316.78H177.72V319.06ZM178.56 316.02H174.64V319.84H178.56V316.02ZM175.64 324.72H178.62V326.78H175.64V324.72ZM175.64 321.9H178.62V323.92H175.64V321.9ZM182.56 323.92H179.5V321.9H182.56V323.92ZM182.56 326.78H179.5V324.72H182.56V326.78ZM184.16 330.16V329.28H179.54V327.6H183.46V321.08H174.76V327.6H178.58V329.28H173.92V330.16H178.58V333.48H179.54V330.16H184.16ZM190.52 322.7C189.96 324.44 189.12 326.14 188.06 327.68C187.7 326.06 187.4 324.1 187.18 321.92L192.18 321.3L192.04 320.42L187.1 321.04C186.94 319.28 186.84 317.42 186.78 315.48H185.86C185.94 317.46 186.04 319.36 186.2 321.14L183.7 321.46L183.84 322.34L186.28 322.04C186.52 324.56 186.86 326.82 187.32 328.66C185.96 330.34 184.34 331.74 182.56 332.58C182.82 332.76 183.1 333.06 183.28 333.3C184.88 332.46 186.34 331.22 187.62 329.72C188.34 332.04 189.34 333.48 190.72 333.54C191.5 333.56 192.12 332.6 192.44 329.64C192.26 329.54 191.88 329.36 191.68 329.18C191.5 331.26 191.2 332.44 190.72 332.42C189.76 332.38 188.96 331.02 188.34 328.8C189.62 327.08 190.64 325.12 191.3 323.12L190.52 322.7Z" fill="white"/>
<line x1="90" y1="225.5" x2="294" y2="225.5" stroke="#00E0B8" stroke-dasharray="2 2"/>
<line x1="90" y1="292.5" x2="294" y2="292.5" stroke="#00E0B8" stroke-dasharray="2 2"/>
<path d="M78 193.768C79.3333 194.538 79.3333 196.462 78 197.232L68.25 202.861C66.9167 203.631 65.25 202.669 65.25 201.129L65.25 189.871C65.25 188.331 66.9167 187.369 68.25 188.139L78 193.768Z" fill="#00E0B8"/>
<path d="M78 257.768C79.3333 258.538 79.3333 260.462 78 261.232L68.25 266.861C66.9167 267.631 65.25 266.669 65.25 265.129L65.25 253.871C65.25 252.331 66.9167 251.369 68.25 252.139L78 257.768Z" fill="#00E0B8"/>
<path d="M78 321.768C79.3333 322.538 79.3333 324.462 78 325.232L68.25 330.861C66.9167 331.631 65.25 330.669 65.25 329.129L65.25 317.871C65.25 316.331 66.9167 315.369 68.25 316.139L78 321.768Z" fill="#00E0B8"/>
<line x1="26" y1="150.5" x2="337" y2="150.5" stroke="#00E0B8"/>
<path d="M75.8705 33.3593C66.5264 22.7478 69.0463 11.3978 69.0463 11.3978L63.4736 9.65116L37.9844 90.9769C35.2153 87.4278 31.1629 84.7041 26.5496 83.2915C16.5015 80.1422 6.49108 83.5603 4.18221 90.9269C1.87334 98.2936 8.13959 106.822 18.1876 109.971C28.2357 113.12 38.1864 109.692 40.4903 102.341L55.5858 54.1775C59.8624 57.6904 63.8888 61.4205 67.6382 65.3429C74.2223 72.2885 71.6827 82.5311 67.5359 87.8043C63.389 93.0774 56.7256 94.9778 59.4055 96.6589C62.0854 98.3399 67.2418 95.8979 73.3277 89.4201C79.4136 82.9424 78.1886 70.1325 78.1886 70.1325C91.1495 58.4042 85.205 43.9677 75.8705 33.3593ZM75.8123 64.7745C75.8123 64.7745 71.1081 57.7158 65.4851 49.2418C59.8621 40.7679 62.7402 34.8283 62.7402 34.8283C62.7402 34.8283 71.2926 40.9773 76.1478 47.5544C81.0029 54.1315 75.8123 64.7745 75.8123 64.7745Z" fill="url(#paint1_linear_50_802)"/>
<defs>
<linearGradient id="paint0_linear_50_802" x1="199.341" y1="77.2114" x2="232.205" y2="146.223" gradientUnits="userSpaceOnUse">
<stop stop-color="#FFF176"/>
<stop offset="1" stop-color="#00E0B8"/>
</linearGradient>
<linearGradient id="paint1_linear_50_802" x1="38.6915" y1="17.0503" x2="90.6829" y2="81.5404" gradientUnits="userSpaceOnUse">
<stop stop-color="#FFF176"/>
<stop offset="1" stop-color="#00E0B8"/>
</linearGradient>
</defs>
</svg>
