<svg width="207" height="102" viewBox="0 0 207 102" fill="none" xmlns="http://www.w3.org/2000/svg">
<path opacity="0.8" d="M5.208 42.52V43.36H10.692V42.52H5.208ZM5.22 44.536V45.328H9.384V44.536H5.22ZM5.508 46.396V51.004H6.3V46.396H5.508ZM5.964 46.396V47.176H8.124V49.396H5.964V50.176H8.94V46.396H5.964ZM10.248 42.52V51.748C10.248 51.964 10.176 52.036 9.948 52.036C9.72 52.048 8.916 52.06 8.1 52.024C8.232 52.288 8.364 52.708 8.412 52.96C9.492 52.96 10.188 52.948 10.596 52.792C10.992 52.636 11.124 52.348 11.124 51.76V42.52H10.248ZM1.02 45.556V46.276H4.536V45.556H1.02ZM1.056 42.352V43.072H4.488V42.352H1.056ZM1.02 47.164V47.884H4.536V47.164H1.02ZM0.456 43.924V44.668H4.872V43.924H0.456ZM1.416 48.784V49.528H3.744V51.532H1.416V52.288H4.536V48.784H1.416ZM1.008 48.784V52.84H1.788V48.784H1.008ZM13.74 51.316V52.204H22.284V51.316H13.74ZM13.728 47.812V48.664H22.404V47.812H13.728ZM13.176 44.32V52.972H14.028V45.196H21.984V52.912H22.872V44.32H13.176ZM16.056 42.052V51.904H16.932V42.052H16.056ZM18.96 42.052V51.856H19.848V42.052H18.96ZM26.712 44.224V44.884H29.64V44.224H26.712ZM26.592 51.76V52.444H30.336V51.76H26.592ZM26.052 46.912V47.512H30.06V46.912H26.052ZM25.668 45.544V47.5C25.668 48.88 25.512 50.764 24.396 52.132C24.564 52.24 24.888 52.528 25.008 52.696C26.232 51.208 26.46 49.036 26.46 47.524V45.544H25.668ZM26.112 45.544V46.216H29.628V48.22H26.088V48.892H30.444V45.544H26.112ZM26.268 49.636V52.948H27.048V50.32H29.82V52.864H30.624V49.636H26.268ZM31.428 43.372V50.02H32.292V43.372H31.428ZM34.128 42.148V51.784C34.128 52 34.044 52.072 33.816 52.072C33.6 52.084 32.88 52.096 32.064 52.06C32.196 52.324 32.34 52.732 32.376 52.96C33.456 52.972 34.104 52.948 34.476 52.792C34.848 52.648 35.004 52.384 35.004 51.772V42.148H34.128ZM27.564 42.04C26.976 43.024 25.884 44.248 24.396 45.136C24.576 45.268 24.852 45.556 24.972 45.76C26.556 44.728 27.66 43.468 28.344 42.496V42.232H28.056V42.04H27.564ZM27.732 42.04V42.676H27.912C28.788 43.312 29.88 44.368 30.444 44.992L31.044 44.32C30.432 43.684 29.292 42.712 28.38 42.04H27.732ZM41.844 43.936L41.424 44.8H47.532V43.936H41.844ZM43.344 46.54V47.368H47.256V46.54H43.344ZM43.332 49.18V50.032H47.424V49.18H43.332ZM42.888 44.212V52.96H43.812V44.212H42.888ZM42.3 42.064C41.712 43.828 40.74 45.58 39.648 46.696C39.852 46.84 40.212 47.164 40.344 47.32C41.448 46.084 42.492 44.2 43.176 42.292L42.3 42.064ZM39.42 41.968C38.736 43.792 37.62 45.592 36.42 46.756C36.588 46.972 36.864 47.452 36.948 47.668C38.256 46.324 39.492 44.272 40.284 42.244L39.42 41.968ZM38.136 45.064V52.948H39.048V44.176L39.024 44.164L38.136 45.064ZM54.24 41.44H53.748V53.44H54.24V41.44ZM64.368 43.18V43.972H71.316V43.18H64.368ZM67.356 41.932V52.96H68.232V41.932H67.356ZM68.604 48.604L67.956 48.82C68.604 50.236 69.816 51.64 71.028 52.348C71.16 52.132 71.436 51.808 71.628 51.64C70.44 51.064 69.228 49.84 68.604 48.604ZM65.664 47.332H69.972V48.4H65.664V47.332ZM65.664 45.628H69.972V46.684H65.664V45.628ZM64.86 44.956V49.084H70.812V44.956H64.86ZM66.948 48.616C66.264 49.864 64.92 51.112 63.636 51.7C63.84 51.88 64.116 52.192 64.248 52.408C65.556 51.7 66.924 50.32 67.668 48.868L66.948 48.616ZM60.96 42.448V52.972H61.776V43.264H63.792V42.448H60.96ZM63.516 42.448V42.688C63.264 43.516 62.82 44.944 62.388 46.036C63.252 46.972 63.468 47.788 63.468 48.436C63.468 48.796 63.408 49.12 63.216 49.252C63.12 49.324 62.988 49.36 62.844 49.36C62.652 49.384 62.424 49.372 62.148 49.348C62.28 49.576 62.352 49.924 62.364 50.14C62.64 50.152 62.94 50.152 63.18 50.128C63.42 50.092 63.636 50.02 63.804 49.912C64.14 49.672 64.272 49.168 64.272 48.52C64.272 47.776 64.08 46.936 63.192 45.94C63.6 44.98 64.044 43.744 64.392 42.76L63.816 42.412L63.672 42.448H63.516ZM72.672 46.156V46.924H83.4V46.156H72.672ZM73.272 42.952V43.708H82.968V42.952H73.272ZM77.508 41.932V43.444H78.42V41.932H77.508ZM73.62 46.54V48.148C73.62 49.408 73.464 51.16 72.324 52.444C72.528 52.552 72.9 52.852 73.044 53.02C74.268 51.64 74.52 49.6 74.52 48.16V46.54H73.62ZM74.868 44.224C76.872 44.704 79.332 45.58 80.676 46.204L81.36 45.676C79.956 45.076 77.496 44.224 75.576 43.756L74.868 44.224ZM80.352 43.444C79.116 44.404 76.524 45.244 74.448 45.676C74.568 45.832 74.736 46.12 74.808 46.288C76.98 45.808 79.524 44.908 81.036 43.816L80.352 43.444ZM80.364 46.792C79.248 47.488 77.124 48.004 75.336 48.244C75.516 48.424 75.696 48.7 75.816 48.892C77.688 48.58 79.812 48.004 81.096 47.188L80.364 46.792ZM81.108 48.244C79.92 49.168 77.592 49.828 75.444 50.14C75.624 50.32 75.804 50.608 75.912 50.812C78.168 50.428 80.508 49.708 81.876 48.64L81.108 48.244ZM82.212 49.672C80.796 51.124 77.904 51.928 74.712 52.264C74.88 52.468 75.06 52.804 75.144 53.032C78.48 52.624 81.432 51.736 83.028 50.08L82.212 49.672ZM84.552 49.684V50.428H95.448V49.684H84.552ZM84.792 43.228V43.96H95.16V43.228H84.792ZM86.316 47.164V47.716H93.612V47.164H86.316ZM91.764 48.808V51.964C91.764 52.12 91.716 52.156 91.5 52.18C91.296 52.18 90.648 52.18 89.856 52.156C89.988 52.408 90.12 52.732 90.168 52.972C91.128 52.972 91.752 52.972 92.148 52.84C92.532 52.72 92.64 52.48 92.64 51.976V48.808H91.764ZM86.7 50.932C87.42 51.376 88.272 52.06 88.668 52.54L89.268 51.952C88.848 51.472 87.972 50.824 87.264 50.392L86.7 50.932ZM86.892 42.208C87.252 42.592 87.672 43.132 87.864 43.48L88.632 43.12C88.416 42.772 87.984 42.256 87.624 41.896L86.892 42.208ZM86.58 45.268H93.384V48.34H86.58V45.268ZM85.752 44.68V48.928H94.248V44.68H85.752ZM92.172 41.908C91.98 42.328 91.608 42.952 91.32 43.348L91.992 43.6C92.328 43.24 92.736 42.7 93.096 42.184L92.172 41.908ZM90.564 43.576V45.748C90.564 46.42 90.78 46.564 91.68 46.564C91.86 46.564 93.024 46.564 93.216 46.564C93.756 46.564 93.972 46.456 94.032 46.168C93.828 46.144 93.564 46.072 93.396 45.976C93.372 46.036 93.312 46.048 93.096 46.048C92.88 46.048 91.944 46.048 91.764 46.048C91.416 46.048 91.356 46 91.356 45.76V43.576H90.564ZM88.548 43.564V45.004C88.548 45.568 88.344 46.18 86.796 46.468C86.952 46.6 87.156 46.876 87.24 47.044C88.956 46.6 89.328 45.808 89.328 45.004V43.564H88.548ZM103.301 43.4688H104.396L107.191 50.4238L109.98 43.4688H111.082L107.613 52H106.758L103.301 43.4688ZM102.943 43.4688H103.91L104.068 48.6719V52H102.943V43.4688ZM110.467 43.4688H111.434V52H110.309V48.6719L110.467 43.4688ZM114.434 45.6602V52H113.344V45.6602H114.434ZM113.262 43.9785C113.262 43.8027 113.314 43.6543 113.42 43.5332C113.529 43.4121 113.689 43.3516 113.9 43.3516C114.107 43.3516 114.266 43.4121 114.375 43.5332C114.488 43.6543 114.545 43.8027 114.545 43.9785C114.545 44.1465 114.488 44.291 114.375 44.4121C114.266 44.5293 114.107 44.5879 113.9 44.5879C113.689 44.5879 113.529 44.5293 113.42 44.4121C113.314 44.291 113.262 44.1465 113.262 43.9785ZM117.264 43V52H116.174V43H117.264ZM121.137 45.6602L118.371 48.6191L116.824 50.2246L116.736 49.0703L117.844 47.7461L119.812 45.6602H121.137ZM120.146 52L117.885 48.9766L118.447 48.0098L121.424 52H120.146ZM124.77 52.1172C124.328 52.1172 123.928 52.043 123.568 51.8945C123.213 51.7422 122.906 51.5293 122.648 51.2559C122.395 50.9824 122.199 50.6582 122.062 50.2832C121.926 49.9082 121.857 49.498 121.857 49.0527V48.8066C121.857 48.291 121.934 47.832 122.086 47.4297C122.238 47.0234 122.445 46.6797 122.707 46.3984C122.969 46.1172 123.266 45.9043 123.598 45.7598C123.93 45.6152 124.273 45.543 124.629 45.543C125.082 45.543 125.473 45.6211 125.801 45.7773C126.133 45.9336 126.404 46.1523 126.615 46.4336C126.826 46.7109 126.982 47.0391 127.084 47.418C127.186 47.793 127.236 48.2031 127.236 48.6484V49.1348H122.502V48.25H126.152V48.168C126.137 47.8867 126.078 47.6133 125.977 47.3477C125.879 47.082 125.723 46.8633 125.508 46.6914C125.293 46.5195 125 46.4336 124.629 46.4336C124.383 46.4336 124.156 46.4863 123.949 46.5918C123.742 46.6934 123.564 46.8457 123.416 47.0488C123.268 47.252 123.152 47.5 123.07 47.793C122.988 48.0859 122.947 48.4238 122.947 48.8066V49.0527C122.947 49.3535 122.988 49.6367 123.07 49.9023C123.156 50.1641 123.279 50.3945 123.439 50.5938C123.604 50.793 123.801 50.9492 124.031 51.0625C124.266 51.1758 124.531 51.2324 124.828 51.2324C125.211 51.2324 125.535 51.1543 125.801 50.998C126.066 50.8418 126.299 50.6328 126.498 50.3711L127.154 50.8926C127.018 51.0996 126.844 51.2969 126.633 51.4844C126.422 51.6719 126.162 51.8242 125.854 51.9414C125.549 52.0586 125.188 52.1172 124.77 52.1172ZM7.38 70.076V74.852H7.992V70.076H7.38ZM8.916 70.076V74.852H9.54V70.076H8.916ZM4.692 64.652V65.444H11.304V64.652H4.692ZM6.144 71.936V72.62H10.932V71.936H6.144ZM5.16 66.236V68.876C5.16 70.496 5.04 72.704 3.876 74.288C4.056 74.384 4.404 74.636 4.536 74.792C5.772 73.112 5.976 70.616 5.976 68.888V66.236H5.16ZM5.52 66.236V66.98H10.14V68.276H5.52V69.02H11.004V66.236H5.52ZM5.808 69.836V74.972H6.48V70.544H10.98V69.836H5.808ZM10.5 69.836V74.096C10.5 74.204 10.476 74.228 10.392 74.228C10.296 74.228 10.056 74.228 9.756 74.216C9.852 74.432 9.972 74.744 9.996 74.96C10.452 74.96 10.764 74.936 10.98 74.828C11.208 74.684 11.256 74.468 11.256 74.108V69.836H10.5ZM2.352 63.932C2.052 64.724 1.5 65.9 1.08 66.596L1.68 66.86C2.124 66.188 2.688 65.108 3.12 64.22L2.352 63.932ZM3.624 65.3C3 66.56 1.92 68.348 1.068 69.416L1.608 69.704C2.472 68.672 3.576 66.968 4.368 65.636L3.624 65.3ZM0.432 66.416C1.068 67.016 1.788 67.868 2.088 68.444L2.592 67.784C2.28 67.244 1.548 66.428 0.912 65.84L0.432 66.416ZM3.168 68.012C3.612 68.828 4.02 69.908 4.152 70.58L4.824 70.292C4.704 69.62 4.26 68.564 3.804 67.772L3.168 68.012ZM0.336 69.236L0.432 70.04C1.476 69.968 2.844 69.884 4.2 69.8V69.032C2.76 69.116 1.332 69.188 0.336 69.236ZM3.396 70.928C3.672 71.624 3.9 72.536 3.96 73.136L4.632 72.932C4.572 72.344 4.32 71.432 4.032 70.748L3.396 70.928ZM1.056 70.784C0.924 71.828 0.696 72.908 0.312 73.64C0.492 73.712 0.84 73.868 0.984 73.976C1.356 73.208 1.644 72.044 1.8 70.916L1.056 70.784ZM2.268 69.584V74.96H3.048V69.584H2.268ZM13.74 73.316V74.204H22.284V73.316H13.74ZM13.728 69.812V70.664H22.404V69.812H13.728ZM13.176 66.32V74.972H14.028V67.196H21.984V74.912H22.872V66.32H13.176ZM16.056 64.052V73.904H16.932V64.052H16.056ZM18.96 64.052V73.856H19.848V64.052H18.96ZM30.24 63.44H29.748V75.44H30.24V63.44ZM40.368 65.18V65.972H47.316V65.18H40.368ZM43.356 63.932V74.96H44.232V63.932H43.356ZM44.604 70.604L43.956 70.82C44.604 72.236 45.816 73.64 47.028 74.348C47.16 74.132 47.436 73.808 47.628 73.64C46.44 73.064 45.228 71.84 44.604 70.604ZM41.664 69.332H45.972V70.4H41.664V69.332ZM41.664 67.628H45.972V68.684H41.664V67.628ZM40.86 66.956V71.084H46.812V66.956H40.86ZM42.948 70.616C42.264 71.864 40.92 73.112 39.636 73.7C39.84 73.88 40.116 74.192 40.248 74.408C41.556 73.7 42.924 72.32 43.668 70.868L42.948 70.616ZM36.96 64.448V74.972H37.776V65.264H39.792V64.448H36.96ZM39.516 64.448V64.688C39.264 65.516 38.82 66.944 38.388 68.036C39.252 68.972 39.468 69.788 39.468 70.436C39.468 70.796 39.408 71.12 39.216 71.252C39.12 71.324 38.988 71.36 38.844 71.36C38.652 71.384 38.424 71.372 38.148 71.348C38.28 71.576 38.352 71.924 38.364 72.14C38.64 72.152 38.94 72.152 39.18 72.128C39.42 72.092 39.636 72.02 39.804 71.912C40.14 71.672 40.272 71.168 40.272 70.52C40.272 69.776 40.08 68.936 39.192 67.94C39.6 66.98 40.044 65.744 40.392 64.76L39.816 64.412L39.672 64.448H39.516ZM48.672 68.156V68.924H59.4V68.156H48.672ZM49.272 64.952V65.708H58.968V64.952H49.272ZM53.508 63.932V65.444H54.42V63.932H53.508ZM49.62 68.54V70.148C49.62 71.408 49.464 73.16 48.324 74.444C48.528 74.552 48.9 74.852 49.044 75.02C50.268 73.64 50.52 71.6 50.52 70.16V68.54H49.62ZM50.868 66.224C52.872 66.704 55.332 67.58 56.676 68.204L57.36 67.676C55.956 67.076 53.496 66.224 51.576 65.756L50.868 66.224ZM56.352 65.444C55.116 66.404 52.524 67.244 50.448 67.676C50.568 67.832 50.736 68.12 50.808 68.288C52.98 67.808 55.524 66.908 57.036 65.816L56.352 65.444ZM56.364 68.792C55.248 69.488 53.124 70.004 51.336 70.244C51.516 70.424 51.696 70.7 51.816 70.892C53.688 70.58 55.812 70.004 57.096 69.188L56.364 68.792ZM57.108 70.244C55.92 71.168 53.592 71.828 51.444 72.14C51.624 72.32 51.804 72.608 51.912 72.812C54.168 72.428 56.508 71.708 57.876 70.64L57.108 70.244ZM58.212 71.672C56.796 73.124 53.904 73.928 50.712 74.264C50.88 74.468 51.06 74.804 51.144 75.032C54.48 74.624 57.432 73.736 59.028 72.08L58.212 71.672ZM60.552 71.684V72.428H71.448V71.684H60.552ZM60.792 65.228V65.96H71.16V65.228H60.792ZM62.316 69.164V69.716H69.612V69.164H62.316ZM67.764 70.808V73.964C67.764 74.12 67.716 74.156 67.5 74.18C67.296 74.18 66.648 74.18 65.856 74.156C65.988 74.408 66.12 74.732 66.168 74.972C67.128 74.972 67.752 74.972 68.148 74.84C68.532 74.72 68.64 74.48 68.64 73.976V70.808H67.764ZM62.7 72.932C63.42 73.376 64.272 74.06 64.668 74.54L65.268 73.952C64.848 73.472 63.972 72.824 63.264 72.392L62.7 72.932ZM62.892 64.208C63.252 64.592 63.672 65.132 63.864 65.48L64.632 65.12C64.416 64.772 63.984 64.256 63.624 63.896L62.892 64.208ZM62.58 67.268H69.384V70.34H62.58V67.268ZM61.752 66.68V70.928H70.248V66.68H61.752ZM68.172 63.908C67.98 64.328 67.608 64.952 67.32 65.348L67.992 65.6C68.328 65.24 68.736 64.7 69.096 64.184L68.172 63.908ZM66.564 65.576V67.748C66.564 68.42 66.78 68.564 67.68 68.564C67.86 68.564 69.024 68.564 69.216 68.564C69.756 68.564 69.972 68.456 70.032 68.168C69.828 68.144 69.564 68.072 69.396 67.976C69.372 68.036 69.312 68.048 69.096 68.048C68.88 68.048 67.944 68.048 67.764 68.048C67.416 68.048 67.356 68 67.356 67.76V65.576H66.564ZM64.548 65.564V67.004C64.548 67.568 64.344 68.18 62.796 68.468C62.952 68.6 63.156 68.876 63.24 69.044C64.956 68.6 65.328 67.808 65.328 67.004V65.564H64.548ZM79.3008 65.4688H80.3965L83.1914 72.4238L85.9805 65.4688H87.082L83.6133 74H82.7578L79.3008 65.4688ZM78.9434 65.4688H79.9102L80.0684 70.6719V74H78.9434V65.4688ZM86.4668 65.4688H87.4336V74H86.3086V70.6719L86.4668 65.4688ZM90.4336 67.6602V74H89.3438V67.6602H90.4336ZM89.2617 65.9785C89.2617 65.8027 89.3145 65.6543 89.4199 65.5332C89.5293 65.4121 89.6895 65.3516 89.9004 65.3516C90.1074 65.3516 90.2656 65.4121 90.375 65.5332C90.4883 65.6543 90.5449 65.8027 90.5449 65.9785C90.5449 66.1465 90.4883 66.291 90.375 66.4121C90.2656 66.5293 90.1074 66.5879 89.9004 66.5879C89.6895 66.5879 89.5293 66.5293 89.4199 66.4121C89.3145 66.291 89.2617 66.1465 89.2617 65.9785ZM93.2637 65V74H92.1738V65H93.2637ZM97.1367 67.6602L94.3711 70.6191L92.8242 72.2246L92.7363 71.0703L93.8438 69.7461L95.8125 67.6602H97.1367ZM96.1465 74L93.8848 70.9766L94.4473 70.0098L97.4238 74H96.1465ZM100.77 74.1172C100.328 74.1172 99.9277 74.043 99.5684 73.8945C99.2129 73.7422 98.9062 73.5293 98.6484 73.2559C98.3945 72.9824 98.1992 72.6582 98.0625 72.2832C97.9258 71.9082 97.8574 71.498 97.8574 71.0527V70.8066C97.8574 70.291 97.9336 69.832 98.0859 69.4297C98.2383 69.0234 98.4453 68.6797 98.707 68.3984C98.9688 68.1172 99.2656 67.9043 99.5977 67.7598C99.9297 67.6152 100.273 67.543 100.629 67.543C101.082 67.543 101.473 67.6211 101.801 67.7773C102.133 67.9336 102.404 68.1523 102.615 68.4336C102.826 68.7109 102.982 69.0391 103.084 69.418C103.186 69.793 103.236 70.2031 103.236 70.6484V71.1348H98.502V70.25H102.152V70.168C102.137 69.8867 102.078 69.6133 101.977 69.3477C101.879 69.082 101.723 68.8633 101.508 68.6914C101.293 68.5195 101 68.4336 100.629 68.4336C100.383 68.4336 100.156 68.4863 99.9492 68.5918C99.7422 68.6934 99.5645 68.8457 99.416 69.0488C99.2676 69.252 99.1523 69.5 99.0703 69.793C98.9883 70.0859 98.9473 70.4238 98.9473 70.8066V71.0527C98.9473 71.3535 98.9883 71.6367 99.0703 71.9023C99.1562 72.1641 99.2793 72.3945 99.4395 72.5938C99.6035 72.793 99.8008 72.9492 100.031 73.0625C100.266 73.1758 100.531 73.2324 100.828 73.2324C101.211 73.2324 101.535 73.1543 101.801 72.998C102.066 72.8418 102.299 72.6328 102.498 72.3711L103.154 72.8926C103.018 73.0996 102.844 73.2969 102.633 73.4844C102.422 73.6719 102.162 73.8242 101.854 73.9414C101.549 74.0586 101.188 74.1172 100.77 74.1172Z" fill="white"/>
<path d="M202.929 25.1299L0 25.1299L0 26.0199L202.929 26.0199V25.1299Z" fill="white"/>
<path d="M207 22L190 22V29H207V22Z" fill="#00E0B8"/>
<path d="M9.324 6.886H10.346V6.032H13.174V5.206H10.346V4.282H9.324V5.206H7.28V6.032H9.324V6.886ZM3.696 6.886H4.718V6.032H6.692V5.206H4.718V4.282H3.696V5.206H0.896V6.032H3.696V6.886ZM3.78 14.124C3.206 14.964 2.17 15.748 1.162 16.266C1.414 16.42 1.82 16.756 2.002 16.938C2.996 16.35 4.116 15.412 4.802 14.446L3.78 14.124ZM9.184 14.6C10.206 15.286 11.438 16.28 12.054 16.924L12.88 16.322C12.236 15.678 10.976 14.712 9.968 14.068L9.184 14.6ZM9.94 8.776V9.784H7.042V8.776H9.94ZM7.504 13.144V12.122H12.768V11.282H3.738V8.776H6.062V10.47H10.962V8.776H13.188V7.936H10.962V6.9H9.94V7.936H7.042V6.802H6.062V7.936H3.738V6.914H2.716V7.936H0.826V8.776H2.716V12.122H6.482V13.144H0.784V13.984H6.482V17.064H7.504V13.984H13.272V13.144H7.504ZM17.808 14.04C17.836 13.69 17.85 13.34 17.85 13.032H24.248V14.04H17.808ZM24.248 11.282V12.29H17.85V11.282H24.248ZM25.284 10.484H16.828V13.018C16.828 14.096 16.744 15.482 15.988 16.504C16.212 16.63 16.618 17.036 16.758 17.26C17.29 16.574 17.584 15.678 17.71 14.796H24.248V15.93C24.248 16.14 24.178 16.196 23.94 16.21C23.73 16.21 22.876 16.21 22.022 16.196C22.162 16.448 22.316 16.784 22.372 17.05C23.52 17.05 24.276 17.05 24.71 16.896C25.144 16.756 25.284 16.504 25.284 15.93V10.484ZM21.49 8.79V7.768H25.788V6.97H21.49V6.046H26.376V5.22H21.49V4.282H20.454V5.22H15.778V6.046H20.454V6.97H16.254V7.768H20.454V8.79H14.882V9.616H27.118V8.79H21.49ZM36.274 10.68L39.284 4.408L38.528 4.156L35.42 10.68L38.528 17.204L39.284 16.952L36.274 10.68ZM38.486 10.68L41.496 4.408L40.74 4.156L37.632 10.68L40.74 17.204L41.496 16.952L38.486 10.68ZM48.804 5.598H52.668V6.732H50.12V9.07H48.804V5.598ZM50.932 9.07V7.46H52.668V9.07H50.932ZM47.726 9.896H53.746V14.082C53.746 14.222 53.69 14.278 53.522 14.292C53.382 14.292 52.864 14.292 52.276 14.278C52.388 14.516 52.514 14.866 52.556 15.118C53.396 15.118 53.928 15.118 54.264 14.964C54.614 14.81 54.698 14.572 54.698 14.082V9.07H53.62V4.786H47.88V9.07H46.802V15.118H47.726V9.896ZM51.716 13.032H49.714V11.548H51.716V13.032ZM52.528 10.806H48.902V14.306H49.714V13.76H52.528V10.806ZM45.08 6.62C44.912 6.004 44.59 5.094 44.352 4.366L43.428 4.632C43.666 5.36 43.974 6.326 44.142 6.928L45.08 6.62ZM45.556 10.778L45.374 10.82H44.408C44.786 9.854 45.22 8.678 45.57 7.67H42.7V8.608H44.254C43.876 9.714 43.442 10.904 43.05 11.73H44.884C44.66 12.738 44.31 13.844 43.876 14.642C43.456 14.922 42.98 15.496 42.476 16.196L43.19 17.134C43.61 16.252 44.072 15.37 44.394 15.37C44.702 15.37 45.22 15.846 45.78 16.182C46.816 16.798 48.048 16.952 49.882 16.952C51.534 16.952 54.194 16.868 55.23 16.798C55.258 16.49 55.412 16 55.552 15.72C53.984 15.874 51.716 16.014 49.924 16.014C48.258 16.014 46.998 15.916 46.004 15.314C45.486 15.006 45.15 14.74 44.884 14.586C45.36 13.564 45.766 12.206 46.032 10.974L45.556 10.778ZM59.472 17.204L62.58 10.68L59.472 4.156L58.716 4.408L61.726 10.68L58.716 16.952L59.472 17.204ZM57.26 17.204L60.368 10.68L57.26 4.156L56.504 4.408L59.514 10.68L56.504 16.952L57.26 17.204Z" fill="#00E0B8"/>
</svg>
