<svg width="228" height="103" viewBox="0 0 228 103" fill="none" xmlns="http://www.w3.org/2000/svg">
<path opacity="0.8" d="M20.4839 91.658C21.1139 91.658 21.7299 91.644 21.9539 91.588C21.9119 91.448 21.8839 91.182 21.8559 90.986C21.5619 91.042 20.8619 91.056 20.4559 91.056H16.4659C15.8499 91.056 15.6819 90.874 15.6819 90.342V88.816H21.4639V88.214H15.6819V86.422H15.0099V90.328C15.0099 91.322 15.3599 91.658 16.4799 91.658H20.4839ZM13.9739 92.428C13.3859 92.624 12.7839 92.806 12.2099 92.988V89.936H13.9459V89.278H12.2099V86.352H11.5519V89.278H9.42388V89.936H11.5519V93.212C10.6559 93.478 9.82988 93.73 9.19988 93.912L9.43788 94.57C10.0539 94.374 10.7819 94.136 11.5519 93.898V98.126C11.5519 98.336 11.4679 98.392 11.2859 98.392C11.1179 98.406 10.5159 98.406 9.82988 98.392C9.92788 98.574 10.0399 98.854 10.0819 99.022C10.9779 99.022 11.4819 99.008 11.7899 98.896C12.0839 98.784 12.2099 98.588 12.2099 98.112V93.674L14.0719 93.072L13.9739 92.428ZM20.7639 93.66V95.368H15.6119V93.66H20.7639ZM15.6119 97.748V95.956H20.7639V97.748H15.6119ZM14.9679 99.022H15.6119V98.35H20.7639V98.952H21.4219V93.058H14.9679V99.022ZM33.8959 90.328H28.6179V89.572H33.8959V90.328ZM33.8959 91.56H28.6179V90.79H33.8959V91.56ZM33.8959 92.806H28.6179V92.022H33.8959V92.806ZM27.9879 89.096V93.282H34.5539V89.096H31.0259C31.1799 88.844 31.3199 88.55 31.4459 88.256H35.6599V87.696H33.1959C33.4479 87.346 33.7139 86.954 33.9659 86.562L33.3219 86.366C33.1399 86.744 32.7899 87.304 32.5099 87.696H29.8359L30.1719 87.556C30.0599 87.206 29.7099 86.688 29.3879 86.352L28.8419 86.562C29.1219 86.898 29.4299 87.346 29.5559 87.696H27.0499V88.256H30.7879C30.6759 88.536 30.5359 88.83 30.4099 89.096H27.9879ZM25.4259 87.724C25.2859 87.36 24.9919 86.786 24.7819 86.338L24.2219 86.506C24.4179 86.968 24.6839 87.57 24.8379 87.948L25.4259 87.724ZM25.8459 96.726C26.6439 97.188 27.5819 97.902 28.0019 98.42L28.4919 97.958C28.0439 97.44 27.0919 96.754 26.2939 96.32L25.8459 96.726ZM32.9859 94.668H32.3419V95.578H23.5919V96.152H32.3419V98.126C32.3419 98.322 32.2859 98.378 32.0339 98.378C31.8099 98.392 31.0119 98.406 30.0039 98.378C30.1019 98.56 30.1999 98.784 30.2419 98.966C31.4459 98.966 32.1459 98.966 32.5239 98.854C32.9019 98.742 32.9859 98.56 32.9859 98.126V96.152H35.7859V95.578H32.9859V94.668ZM26.3359 90.16L26.2379 90.202H25.0339C25.4259 89.572 25.8739 88.788 26.2659 88.102H23.4799V88.676H25.2859C24.8939 89.404 24.4179 90.188 24.0399 90.762H25.9299C25.6359 91.56 25.1879 92.428 24.6839 93.002C24.3059 93.268 23.9139 93.674 23.5219 94.122L23.9419 94.64C24.4879 93.898 25.0339 93.268 25.3979 93.268C25.6779 93.268 26.0839 93.618 26.5879 93.926C27.4979 94.43 28.7579 94.514 30.3819 94.514C31.8239 94.514 34.5539 94.444 35.8839 94.36C35.8979 94.192 35.9959 93.87 36.0799 93.702C34.5959 93.842 32.2999 93.94 30.3959 93.94C28.8419 93.94 27.6239 93.884 26.7699 93.422C26.1959 93.086 25.9019 92.806 25.5799 92.736C26.0419 92.05 26.4479 91.14 26.7279 90.328L26.3359 90.16ZM43.1359 91.224V88.998H46.8319C46.0619 89.796 45.2079 90.538 44.2979 91.224H43.1359ZM49.9259 91.868V91.224H45.3619C46.8179 90.034 48.1479 88.676 49.2539 87.206L48.6519 86.87C48.1339 87.584 47.5319 88.256 46.9019 88.914V88.368H43.1639V86.338H42.5059V88.368H38.7259V88.998H42.5059V91.224H37.5359V91.868H43.4159C41.5539 93.17 39.4819 94.248 37.3259 95.074C37.4799 95.214 37.7039 95.494 37.8159 95.648C39.0339 95.144 40.2379 94.57 41.3859 93.912V97.426C41.3859 98.476 41.8619 98.7 43.5419 98.7H47.9099C49.4499 98.7 49.7159 98.238 49.8699 96.306C49.6599 96.264 49.3939 96.166 49.2119 96.04C49.0999 97.748 48.9319 98.07 47.9099 98.07H43.4859C42.2959 98.07 42.0719 97.944 42.0719 97.412V95.13H48.4979V94.5H42.0719V93.52C42.9259 93.002 43.7379 92.456 44.5359 91.868H49.9259ZM55.4979 94.248V97.048H52.5719V94.248H55.4979ZM55.3579 89.068V91.49H52.5719V89.068H55.3579ZM52.5719 92.106H56.0019V88.452H53.7479C54.0279 87.864 54.3079 87.122 54.5459 86.492L53.8319 86.324C53.6779 86.94 53.3699 87.822 53.1039 88.452H51.9279V98.63H52.5719V97.65H56.1139V93.632H52.5719V92.106ZM64.0239 87.752V87.122H56.6459V87.752H59.9779V89.754H57.2059V96.964H57.8359V90.384H59.9779V98.994H60.6219V90.384H62.9319V96.082C62.9319 96.208 62.8899 96.264 62.7359 96.264C62.5819 96.278 62.0919 96.278 61.4619 96.264C61.5459 96.446 61.6579 96.712 61.6859 96.866C62.4699 96.866 62.9319 96.866 63.2119 96.768C63.5199 96.656 63.5759 96.446 63.5759 96.082V89.754H60.6219V87.752H64.0239ZM71.7239 90.16C72.1859 90.16 72.6199 89.824 72.6199 89.264C72.6199 88.69 72.1859 88.368 71.7239 88.368C71.2619 88.368 70.8279 88.69 70.8279 89.264C70.8279 89.824 71.2619 90.16 71.7239 90.16ZM71.7239 97.104C72.1859 97.104 72.6199 96.782 72.6199 96.222C72.6199 95.648 72.1859 95.326 71.7239 95.326C71.2619 95.326 70.8279 95.648 70.8279 96.222C70.8279 96.782 71.2619 97.104 71.7239 97.104ZM82.4759 91.798C81.8879 91.322 80.7119 90.692 79.7599 90.3L79.4099 90.818C80.3619 91.21 81.5239 91.868 82.0979 92.372L82.4759 91.798ZM80.2779 98.84C81.1459 97.58 82.2379 95.746 83.0219 94.262L82.5459 93.814C81.6919 95.382 80.5299 97.3 79.7319 98.378L80.2779 98.84ZM80.0259 86.996C81.0199 87.402 82.2379 88.074 82.8259 88.578L83.2039 88.004C82.6019 87.514 81.3979 86.856 80.3899 86.478L80.0259 86.996ZM88.0479 97.79V93.058H91.5759V92.414H88.0479V88.158H91.7859V87.514H83.9599V88.158H87.3759V92.414H84.2119V93.058H87.3759V97.79H83.3719V98.434H91.9539V97.79H88.0479ZM94.4739 88.312H104.988V89.964H105.66V87.71H100.522C100.326 87.29 100.018 86.702 99.7239 86.268L99.0519 86.464C99.3039 86.828 99.5559 87.318 99.7379 87.71H93.8159V89.964H94.4739V88.312ZM104.26 94.584C103.644 95.06 102.594 95.746 101.754 96.194C101.166 95.648 100.69 95.004 100.34 94.262H105.604V93.66H95.6639C95.6779 93.352 95.6779 93.058 95.6779 92.792V92.316H103.728V91.728H95.6779V90.426H104.568V89.81H95.0059V92.778C95.0059 94.584 94.8099 96.95 93.2979 98.686C93.4659 98.756 93.7319 98.952 93.8439 99.092C95.0339 97.72 95.4679 95.9 95.6219 94.262H97.0779V97.454C97.0779 98.028 96.6439 98.308 96.4059 98.42C96.5179 98.588 96.6859 98.882 96.7279 99.064C96.9799 98.896 97.3999 98.784 101.236 97.86C101.222 97.72 101.222 97.468 101.236 97.3L97.7499 98.042V94.262H99.6819C100.718 96.656 102.846 98.224 105.744 98.84C105.842 98.672 106.01 98.406 106.164 98.266C104.582 97.986 103.224 97.384 102.16 96.558C103 96.138 104.022 95.55 104.778 94.976L104.26 94.584ZM119.856 91.63V91H112.576C112.828 90.51 113.066 89.992 113.262 89.474L112.758 89.334C113.276 89.18 113.766 88.998 114.256 88.802C115.796 89.376 117.182 89.978 118.148 90.496L118.624 89.964C117.714 89.502 116.44 88.984 115.068 88.466C116.258 87.934 117.336 87.36 118.218 86.688L117.672 86.338C116.762 87.024 115.586 87.64 114.256 88.172C112.702 87.612 111.036 87.08 109.566 86.674L109.118 87.108C110.462 87.472 111.974 87.962 113.43 88.494C111.778 89.082 109.972 89.558 108.264 89.88C108.404 90.006 108.628 90.286 108.726 90.454C109.958 90.174 111.26 89.824 112.548 89.404C112.338 89.95 112.086 90.482 111.806 91H107.592V91.63H111.428C110.42 93.198 109.02 94.598 107.326 95.55C107.466 95.676 107.648 95.9 107.76 96.054C108.586 95.578 109.356 95.004 110.028 94.36V98.154H110.7V94.164H113.92V99.022H114.578V94.164H118.092V97.202C118.092 97.384 118.036 97.44 117.798 97.454C117.588 97.468 116.86 97.468 115.908 97.44C116.006 97.622 116.118 97.846 116.16 98.042C117.28 98.042 117.952 98.042 118.302 97.93C118.652 97.804 118.75 97.622 118.75 97.202V93.548H114.578V92.036H113.92V93.548H110.812C111.33 92.946 111.806 92.302 112.212 91.63H119.856ZM140.063 91.63V91H132.783C133.035 90.51 133.273 89.992 133.469 89.474L132.965 89.334C133.483 89.18 133.973 88.998 134.463 88.802C136.003 89.376 137.389 89.978 138.355 90.496L138.831 89.964C137.921 89.502 136.647 88.984 135.275 88.466C136.465 87.934 137.543 87.36 138.425 86.688L137.879 86.338C136.969 87.024 135.793 87.64 134.463 88.172C132.909 87.612 131.243 87.08 129.773 86.674L129.325 87.108C130.669 87.472 132.181 87.962 133.637 88.494C131.985 89.082 130.179 89.558 128.471 89.88C128.611 90.006 128.835 90.286 128.933 90.454C130.165 90.174 131.467 89.824 132.755 89.404C132.545 89.95 132.293 90.482 132.013 91H127.799V91.63H131.635C130.627 93.198 129.227 94.598 127.533 95.55C127.673 95.676 127.855 95.9 127.967 96.054C128.793 95.578 129.563 95.004 130.235 94.36V98.154H130.907V94.164H134.127V99.022H134.785V94.164H138.299V97.202C138.299 97.384 138.243 97.44 138.005 97.454C137.795 97.468 137.067 97.468 136.115 97.44C136.213 97.622 136.325 97.846 136.367 98.042C137.487 98.042 138.159 98.042 138.509 97.93C138.859 97.804 138.957 97.622 138.957 97.202V93.548H134.785V92.036H134.127V93.548H131.019C131.537 92.946 132.013 92.302 132.419 91.63H140.063ZM154.063 91.63V91H146.783C147.035 90.51 147.273 89.992 147.469 89.474L146.965 89.334C147.483 89.18 147.973 88.998 148.463 88.802C150.003 89.376 151.389 89.978 152.355 90.496L152.831 89.964C151.921 89.502 150.647 88.984 149.275 88.466C150.465 87.934 151.543 87.36 152.425 86.688L151.879 86.338C150.969 87.024 149.793 87.64 148.463 88.172C146.909 87.612 145.243 87.08 143.773 86.674L143.325 87.108C144.669 87.472 146.181 87.962 147.637 88.494C145.985 89.082 144.179 89.558 142.471 89.88C142.611 90.006 142.835 90.286 142.933 90.454C144.165 90.174 145.467 89.824 146.755 89.404C146.545 89.95 146.293 90.482 146.013 91H141.799V91.63H145.635C144.627 93.198 143.227 94.598 141.533 95.55C141.673 95.676 141.855 95.9 141.967 96.054C142.793 95.578 143.563 95.004 144.235 94.36V98.154H144.907V94.164H148.127V99.022H148.785V94.164H152.299V97.202C152.299 97.384 152.243 97.44 152.005 97.454C151.795 97.468 151.067 97.468 150.115 97.44C150.213 97.622 150.325 97.846 150.367 98.042C151.487 98.042 152.159 98.042 152.509 97.93C152.859 97.804 152.957 97.622 152.957 97.202V93.548H148.785V92.036H148.127V93.548H145.019C145.537 92.946 146.013 92.302 146.419 91.63H154.063Z" fill="white"/>
<path d="M10.3259 56.5538L13.7659 49.3858L12.9019 49.0978L9.34987 56.5538L12.9019 64.0098L13.7659 63.7218L10.3259 56.5538ZM12.8539 56.5538L16.2939 49.3858L15.4299 49.0978L11.8779 56.5538L15.4299 64.0098L16.2939 63.7218L12.8539 56.5538ZM32.4 56.9698H25.728V55.3538H32.4V56.9698ZM25.68 59.6738C25.712 59.2578 25.728 58.8738 25.728 58.4898V58.0098H32.4V59.6738H25.68ZM35.44 52.4258V51.3058H27.28C27.52 50.7298 27.728 50.1218 27.904 49.5298L26.72 49.2418C26.528 49.9298 26.288 50.6178 26.016 51.3058H21.52V52.4258H25.504C24.512 54.4898 23.072 56.3778 21.2 57.6418C21.424 57.8818 21.792 58.3138 21.952 58.5698C22.928 57.8818 23.792 57.0338 24.544 56.1218V58.4578C24.544 59.9778 24.4 61.7378 23.072 63.0178C23.328 63.1938 23.76 63.6898 23.904 63.9458C24.848 63.0658 25.328 61.8658 25.536 60.6978H32.4V62.3618C32.4 62.6018 32.304 62.6818 32.032 62.6978C31.744 62.6978 30.784 62.7138 29.712 62.6658C29.888 63.0018 30.064 63.4818 30.112 63.8338C31.472 63.8338 32.368 63.8178 32.896 63.6258C33.408 63.4338 33.568 63.0818 33.568 62.3618V54.2818H25.824C26.176 53.6898 26.496 53.0498 26.8 52.4258H35.44ZM37.216 55.7538V57.0498H51.744V55.7538H37.216ZM59.216 58.0098C58.896 57.6418 57.536 56.2338 57.04 55.8178V54.8418H59.04V53.7218H57.04V51.0178C57.792 50.8418 58.496 50.6178 59.072 50.3778L58.256 49.4818C57.072 50.0098 54.976 50.4738 53.184 50.7618C53.328 51.0338 53.488 51.4178 53.552 51.6898C54.288 51.5778 55.104 51.4498 55.888 51.2898V53.7218H53.28V54.8418H55.728C55.088 56.6658 53.984 58.7298 52.976 59.8498C53.168 60.1378 53.456 60.6018 53.568 60.9378C54.384 59.9618 55.232 58.3618 55.888 56.7458V63.8178H57.04V56.9698C57.584 57.6258 58.24 58.5058 58.496 58.9538L59.216 58.0098ZM60.448 58.2978V57.0178H62.688V58.2978H60.448ZM60.448 54.9858H62.688V56.2338H60.448V54.9858ZM66.128 54.9858V56.2338H63.824V54.9858H66.128ZM66.128 58.2978H63.824V57.0178H66.128V58.2978ZM63.824 62.5378V61.2898H67.28V60.3298H63.824V59.1938H67.2V54.0898H63.824V53.0178H67.52V52.0418H63.824V50.8738C65.2 50.7458 66.48 50.5698 67.488 50.3458L66.768 49.4498C64.976 49.8498 61.664 50.1218 59.008 50.2338C59.12 50.4578 59.264 50.8738 59.28 51.1298C60.352 51.0978 61.536 51.0498 62.688 50.9698V52.0418H58.72V53.0178H62.688V54.0898H59.392V59.1938H62.688V60.3298H59.216V61.2898H62.688V62.5378H58.304V63.5298H67.824V62.5378H63.824ZM78.72 56.3938H83.472V55.3538H78.72V53.9458H82.704V52.9218H78.72V51.5778H83.264V50.5378H78.72V49.1458H77.52V58.0418H78.72V56.3938ZM78.592 60.5698C78.096 59.8818 77.088 58.7458 76.336 57.9298L75.392 58.4258C76.144 59.2898 77.12 60.4898 77.616 61.1938L78.592 60.5698ZM69.36 56.3778C70.544 56.2498 72.064 56.1058 73.6 55.9458C73.104 56.6178 72.288 57.2098 70.944 57.6738C71.184 57.8658 71.6 58.2818 71.776 58.5058C75.056 57.3218 75.536 55.3698 75.536 53.2258V49.2418H74.368V50.5538H69.696V51.5938H74.368V52.9058H70.176V53.9298H74.336C74.304 54.2978 74.24 54.6338 74.128 54.9698C72.304 55.1138 70.496 55.2578 69.264 55.3538L69.36 56.3778ZM70.368 63.0338C71.056 62.0098 71.76 60.4258 72.256 59.3218L71.232 58.8898C70.8 59.9778 70.064 61.4978 69.296 62.5058L70.368 63.0338ZM75.408 62.4578C74.48 62.4578 74.32 62.3618 74.32 61.9138V58.5858H73.152V61.9298C73.152 63.1778 73.6 63.5298 75.344 63.5298H78.592C80.032 63.5298 80.416 63.0338 80.576 61.0178C80.24 60.9378 79.76 60.7778 79.488 60.5698C79.408 62.2018 79.28 62.4578 78.512 62.4578H75.408ZM80.048 58.9378C80.96 60.1858 82.064 61.8978 82.576 62.9058L83.696 62.4098C83.152 61.4178 82 59.7538 81.104 58.5378L80.048 58.9378ZM92.224 54.7458H97.168V55.7058H92.224V54.7458ZM92.224 53.1298H97.168V54.0578H92.224V53.1298ZM91.136 56.4578H98.32V52.3778H91.232C91.392 52.1058 91.568 51.8338 91.728 51.5458H99.44V50.6178H92.224C92.4 50.2658 92.56 49.8978 92.704 49.5298L91.632 49.2418C91.056 50.7458 90.128 52.2818 89.088 53.3058C89.36 53.4658 89.792 53.8018 90 53.9938C90.384 53.5778 90.768 53.0658 91.136 52.5058V56.4578ZM88.72 49.3058C87.808 51.7378 86.336 54.1218 84.768 55.6578C84.992 55.9138 85.312 56.5378 85.44 56.8098C86 56.2338 86.544 55.5778 87.056 54.8418V63.8178H88.176V53.0978C88.816 51.9938 89.376 50.8258 89.824 49.6418L88.72 49.3058ZM99.84 58.1538V57.2258H89.12V58.1538H91.792C91.04 59.1778 89.952 60.1058 88.848 60.7618C89.056 60.9218 89.456 61.3058 89.6 61.4818C90.224 61.0658 90.864 60.5538 91.456 59.9618H93.024C92.24 61.1938 91.088 62.2658 89.872 62.9858C90.096 63.1458 90.48 63.5138 90.624 63.6738C91.952 62.7938 93.296 61.4658 94.16 59.9618H95.808C95.2 61.3378 94.224 62.5058 93.072 63.3058C93.296 63.4658 93.696 63.7858 93.872 63.9618C95.088 63.0018 96.208 61.5938 96.88 59.9618H98.224C98 61.7698 97.76 62.5698 97.504 62.8258C97.392 62.9378 97.248 62.9538 97.024 62.9538C96.8 62.9538 96.288 62.9538 95.712 62.8898C95.856 63.1458 95.968 63.5458 95.968 63.8338C96.576 63.8658 97.152 63.8658 97.456 63.8338C97.84 63.8178 98.096 63.7378 98.336 63.4978C98.768 63.0658 99.056 62.0738 99.312 59.5618C99.344 59.4018 99.36 59.0978 99.36 59.0978H92.256C92.512 58.7938 92.752 58.4738 92.96 58.1538H99.84ZM104.88 56.9538C104.928 56.2498 104.944 55.5298 104.944 54.8098V54.3778H112.16V49.2738H110.96V53.2098H104.944V49.4338H103.76V54.8098C103.76 57.7058 103.536 60.7138 101.52 63.0338C101.792 63.2258 102.224 63.6418 102.416 63.9138C103.92 62.2338 104.544 60.2178 104.784 58.1378H111.504V63.8658H112.72V56.9538H104.88ZM126.16 50.8738H128.384V53.8498C128.384 54.9378 128.592 55.3538 129.648 55.3538H130.848C131.168 55.3538 131.472 55.3538 131.664 55.2898C131.616 55.0338 131.6 54.6338 131.568 54.3618C131.392 54.4098 131.04 54.4258 130.832 54.4258H129.76C129.536 54.4258 129.488 54.2978 129.488 53.8818V49.8338H125.056V51.7538C125.056 52.9218 124.8 54.3298 123.248 55.3858C123.472 55.5458 123.904 55.9298 124.064 56.1378C125.792 54.9858 126.16 53.2098 126.16 51.7858V50.8738ZM123.376 59.1938C122.064 59.3858 120.72 59.5778 119.536 59.7538V57.4338H123.104V56.3778H119.536V54.1858H123.12V53.1298H119.536V51.3858C120.928 51.0338 122.432 50.5538 123.568 50.0578L122.608 49.1618C121.616 49.6738 119.904 50.2818 118.416 50.6658V50.6818L118.384 50.6658V59.9298C117.904 59.9938 117.44 60.0578 117.056 60.1058L117.232 61.2258L118.384 61.0338V63.6258H119.536V60.8578C120.768 60.6658 122.096 60.4258 123.424 60.2178L123.376 59.1938ZM129.184 57.4978C128.784 58.6658 128.16 59.6418 127.392 60.4258C126.544 59.5938 125.904 58.6178 125.456 57.4978H129.184ZM129.856 56.4258L129.648 56.4738H123.936V57.4978H125.056L124.464 57.6578C124.96 59.0018 125.664 60.1698 126.576 61.1458C125.504 61.9778 124.192 62.5698 122.768 62.9058C122.992 63.1458 123.264 63.6098 123.376 63.9298C124.88 63.4818 126.256 62.8578 127.408 61.9138C128.432 62.7778 129.648 63.4178 131.024 63.8338C131.184 63.4978 131.504 63.0498 131.76 62.8098C130.416 62.4898 129.232 61.9138 128.24 61.1618C129.312 60.0578 130.128 58.6018 130.592 56.6978L129.856 56.4258ZM139.994 64.0098L143.546 56.5538L139.994 49.0978L139.13 49.3858L142.57 56.5538L139.13 63.7218L139.994 64.0098ZM137.466 64.0098L141.018 56.5538L137.466 49.0978L136.602 49.3858L140.042 56.5538L136.602 63.7218L137.466 64.0098ZM157.994 59.4338C157.274 60.5058 156.218 61.7058 155.274 62.5058C155.562 62.6818 156.042 63.0018 156.282 63.1778C157.178 62.3138 158.282 60.9698 159.098 59.8178L157.994 59.4338ZM157.946 56.2178H164.586V57.7058H157.946V56.2178ZM157.946 53.8338H164.586V55.3218H157.946V53.8338ZM165.786 58.6498V52.8898H161.178C161.402 52.4898 161.642 52.0578 161.882 51.6258L160.506 51.4178C160.362 51.8338 160.138 52.4098 159.898 52.8898H156.778V58.6498H160.682V62.5378C160.682 62.7298 160.618 62.7938 160.362 62.8098C160.122 62.8098 159.306 62.8098 158.378 62.7938C158.522 63.0978 158.698 63.5298 158.746 63.8498C159.962 63.8498 160.746 63.8498 161.226 63.6578C161.706 63.4818 161.834 63.1778 161.834 62.5538V58.6498H165.786ZM163.178 59.9618C164.138 61.0018 165.402 62.4098 165.994 63.2738L166.986 62.6338C166.346 61.8178 165.066 60.4578 164.122 59.4658L163.178 59.9618ZM167.05 50.1378H154.17V54.6498C154.17 57.0818 154.026 60.5058 152.634 62.9378C152.938 63.0498 153.434 63.3378 153.658 63.5298C155.13 60.9858 155.338 57.2098 155.338 54.6498V51.2258H167.05V50.1378ZM180.97 52.3458H175.962V50.8578H180.97V52.3458ZM180.97 54.7778H175.962V53.2578H180.97V54.7778ZM182.154 49.8978H174.81V55.7378H182.154V49.8978ZM172.314 51.8658V58.5378H170.442V51.8658H172.314ZM173.418 50.7618H169.338V61.1618H170.442V59.6418H173.418V50.7618ZM175.482 62.1858V60.4898H181.514V62.1858H175.482ZM181.514 57.8818V59.4818H175.482V57.8818H181.514ZM174.314 56.8578V63.8498H175.482V63.2258H181.514V63.7698H182.714V56.8578H174.314ZM184.202 65.4978H185.274L190.058 49.9458H189.002L184.202 65.4978ZM192.629 57.8658L193.205 56.0738C193.621 54.7458 194.005 53.4818 194.373 52.1058H194.437C194.821 53.4658 195.189 54.7458 195.621 56.0738L196.181 57.8658H192.629ZM197.669 62.6338H199.237L195.253 50.9058H193.605L189.621 62.6338H191.125L192.261 59.0498H196.549L197.669 62.6338ZM200.028 58.7138H204.124V57.5938H200.028V58.7138ZM206.439 62.6338H213.047V61.3698H207.927V50.9058H206.439V62.6338ZM214.982 62.6338H216.438V53.9458H214.982V62.6338ZM215.718 52.1538C216.294 52.1538 216.726 51.7538 216.726 51.2098C216.726 50.6178 216.294 50.2658 215.718 50.2658C215.142 50.2658 214.71 50.6178 214.71 51.2098C214.71 51.7538 215.142 52.1538 215.718 52.1538ZM219.389 62.6338H220.845V56.3298C221.725 55.4498 222.333 55.0018 223.229 55.0018C224.381 55.0018 224.877 55.6898 224.877 57.3218V62.6338H226.333V57.1298C226.333 54.9058 225.501 53.7218 223.677 53.7218C222.493 53.7218 221.597 54.3778 220.765 55.1938H220.717L220.589 53.9458H219.389V62.6338Z" fill="#00E0B8"/>
<path d="M210.746 33.2754L8.93335 33.2754V34.0521L210.746 34.0521V33.2754Z" fill="white"/>
<path d="M213.8 30.5435H200.71V36.6521H213.8V30.5435Z" fill="#00E0B8"/>
<path d="M16.1279 12.7C15.9119 12.484 15.5999 12.256 15.2639 12.04C15.5279 11.788 15.7559 11.536 15.9599 11.272L15.3359 11.068C15.1679 11.296 14.9519 11.512 14.7359 11.704C14.4239 11.536 14.1119 11.356 13.8119 11.224L13.3679 11.62C13.6439 11.752 13.9439 11.908 14.2319 12.088C13.8719 12.34 13.4879 12.568 13.0919 12.748C13.2479 12.868 13.4999 13.096 13.5839 13.216C13.9799 13 14.3879 12.748 14.7839 12.436C15.1319 12.688 15.4439 12.916 15.6479 13.132L16.1279 12.7ZM16.0919 10.552C15.8759 10.384 15.5879 10.192 15.2639 9.988C15.5159 9.748 15.7319 9.508 15.9239 9.256L15.2999 9.088C15.1439 9.28 14.9519 9.484 14.7359 9.676C14.4239 9.508 14.1239 9.352 13.8359 9.232L13.4039 9.628C13.6679 9.748 13.9679 9.892 14.2439 10.06C13.9079 10.288 13.5479 10.504 13.1759 10.672C13.3319 10.78 13.5839 10.996 13.6799 11.104C14.0519 10.912 14.4239 10.66 14.7959 10.384C15.1199 10.588 15.4319 10.816 15.6239 10.996L16.0919 10.552ZM10.5119 13.912H18.9479V15.4H19.8239V13.228H18.8879C18.9839 12.16 19.0919 10.612 19.1519 9.424H16.3799V10.036H18.2879L18.2519 10.684H16.4399V11.296H18.2159L18.1559 11.944H16.3679V12.556H18.1079C18.0839 12.796 18.0599 13.012 18.0359 13.228H11.4599L11.4119 12.556H13.0799V11.944H11.3759L11.3279 11.296H13.0319V10.684H11.2919L11.2439 10.096C11.8679 9.976 12.5759 9.82 13.1039 9.628L12.6959 9.076C12.1079 9.256 11.0759 9.544 10.3799 9.664L10.6199 13.228H9.65988V15.4H10.5119V13.912ZM20.0639 16.828H15.2639V16.612C16.2119 16.228 17.2319 15.7 17.9759 15.124L17.4359 14.68L17.2559 14.728H11.6159V15.4H16.3079C15.7319 15.748 15.0359 16.084 14.3999 16.312V16.828H9.39588V17.584H14.3999V18.94C14.3999 19.108 14.3519 19.144 14.1479 19.156C13.9679 19.156 13.2959 19.156 12.5519 19.132C12.6719 19.36 12.8159 19.66 12.8639 19.888C13.8119 19.888 14.4119 19.9 14.7959 19.768C15.1679 19.636 15.2639 19.432 15.2639 18.964V17.584H20.0639V16.828ZM29.5919 11.392H23.9159V10.144H29.5919V11.392ZM30.5159 9.424H23.0279V12.112H30.5159V9.424ZM23.4119 16.408H30.0719V17.272H23.4119V16.408ZM23.4119 14.932H30.0719V15.772H23.4119V14.932ZM23.4119 13.456H30.0719V14.296H23.4119V13.456ZM30.9839 17.932V12.796H22.5239V17.932H24.7559C23.9999 18.424 22.4639 18.976 21.2279 19.264C21.4439 19.444 21.7319 19.744 21.8879 19.924C23.1119 19.612 24.6599 19.036 25.6199 18.448L24.8279 17.932H30.9839ZM27.6959 18.532C28.9559 18.904 30.5639 19.516 31.4639 19.936L32.2319 19.288C31.2959 18.904 29.6999 18.316 28.4639 17.956L27.6959 18.532ZM35.5395 21.148H36.3435L39.9315 9.484H39.1395L35.5395 21.148Z" fill="#00E0B8"/>
<path d="M48.6431 11.608H51.5871V17.064C50.5471 17.24 49.5551 17.4 48.6431 17.544V11.608ZM52.6911 16.888V11.608H54.2431V10.488H48.6431V7.8C50.4191 7.608 52.3711 7.304 53.7791 6.92L53.1391 5.88C51.7631 6.296 49.4591 6.68 47.5231 6.904V17.72L46.2271 17.912L46.4351 19.128C48.5631 18.76 51.6831 18.232 54.6111 17.704L54.5471 16.568L52.6911 16.888ZM60.0351 6.408L59.8271 6.472H55.1711V20.232H56.2751V7.592H59.2671C58.7071 8.84 57.9391 10.52 57.2191 11.864C58.9631 13.272 59.5071 14.424 59.5231 15.432C59.5231 15.992 59.3791 16.472 58.9951 16.664C58.7711 16.776 58.4831 16.84 58.1631 16.84C57.7631 16.888 57.1711 16.872 56.5631 16.808C56.7551 17.144 56.8991 17.64 56.9151 17.96C57.4911 17.992 58.1631 18.008 58.6591 17.96C59.1071 17.896 59.5071 17.784 59.7951 17.608C60.4191 17.224 60.6751 16.472 60.6591 15.528C60.6591 14.408 60.2111 13.192 58.4511 11.688C59.2671 10.2 60.1631 8.44 60.8671 6.984L60.0351 6.408ZM71.8111 8.712H72.9791V7.576H76.5151V6.6H72.9791V5.624H71.8111V6.6H69.8431V7.576H71.8111V8.712ZM66.1151 8.712H67.2831V7.592H69.2511V6.6H67.2831V5.624H66.1151V6.6H62.5791V7.592H66.1151V8.712ZM65.3791 18.04C65.4911 17.688 65.6031 17.288 65.6991 16.904H69.4111V18.04H65.3791ZM65.7951 13.32H73.4431V14.376H65.7951V13.32ZM70.5791 16.904H75.9231V16.056H70.5791V15.144H74.6111V12.568H64.6751V15.144H69.4111V16.056H63.1071V16.904H64.6111C64.4191 17.608 64.2111 18.328 64.0191 18.872H69.4111V20.2H70.5791V18.872H76.5311V18.04H70.5791V16.904ZM73.2191 9.88V10.952H68.7871C68.8831 10.632 69.0111 10.264 69.1391 9.88H73.2191ZM74.3391 10.952V9.048H69.3951C69.4751 8.792 69.5391 8.568 69.6031 8.328L68.4671 8.184C68.3871 8.456 68.3071 8.744 68.2271 9.048H64.4671V9.88H67.9871C67.8751 10.248 67.7471 10.632 67.6351 10.952H62.5951V11.816H76.5791V10.952H74.3391ZM85.6511 9.16H82.5951V7.944H85.1551V7.032H82.5951V5.624H81.6031V9.16H80.3391V6.536H79.3951V9.16H78.2751V10.12H85.6511V9.16ZM80.6911 10.472C80.5791 11.56 80.3231 12.488 79.7151 13.128C79.8751 13.24 80.1151 13.512 80.2111 13.64C80.4991 13.32 80.7391 12.92 80.9151 12.488C81.0911 12.76 81.2831 13.016 81.3951 13.224L81.8751 12.744C81.7311 12.488 81.4431 12.088 81.1551 11.752C81.2511 11.368 81.3151 10.952 81.3631 10.552L80.6911 10.472ZM84.2111 13.064C84.0031 12.712 83.5871 12.184 83.1871 11.736C83.2991 11.368 83.3791 10.968 83.4271 10.568L82.7551 10.472C82.6271 11.56 82.3231 12.456 81.6671 13.08C81.8431 13.192 82.0831 13.448 82.1791 13.576C82.4991 13.272 82.7551 12.872 82.9471 12.424C83.2511 12.824 83.5711 13.256 83.7471 13.56L84.2111 13.064ZM81.9231 17.352C81.7631 17.096 81.4431 16.68 81.1231 16.328C81.2351 15.944 81.2991 15.544 81.3471 15.128L80.6751 15.032C80.5631 16.136 80.3071 17.096 79.6991 17.736C79.8591 17.848 80.0991 18.104 80.1951 18.232C80.4831 17.912 80.7231 17.512 80.9151 17.064C81.1071 17.336 81.2991 17.624 81.4271 17.848L81.9231 17.352ZM84.2591 17.704C84.0351 17.352 83.6031 16.792 83.2031 16.344C83.3151 15.96 83.3951 15.56 83.4431 15.128L82.7871 15.048C82.6431 16.152 82.3391 17.08 81.6991 17.704C81.8431 17.832 82.0991 18.072 82.1951 18.2C82.5151 17.896 82.7711 17.496 82.9631 17.048C83.2671 17.448 83.5871 17.912 83.7791 18.2L84.2591 17.704ZM79.6991 18.36V14.76H84.2911V18.36H79.6991ZM84.2911 13.848H79.6991V10.664H78.8191V19.272H84.2911V19.864H85.1871V10.664H84.2911V13.848ZM91.7471 13.016L91.5711 13.08H86.1951V14.12H91.0431C90.4351 15.208 89.5551 16.44 88.8351 17.288C88.3871 16.824 87.9391 16.376 87.5551 16.008L86.8351 16.68C87.9231 17.752 89.3791 19.32 90.0831 20.248L90.8511 19.464C90.4991 19.064 90.0351 18.536 89.5231 18.008C90.4831 16.856 91.7791 15.128 92.4671 13.608L91.7471 13.016ZM88.7551 5.64C88.0991 7.576 86.8351 9.8 85.3631 11.24C85.5551 11.432 85.9391 11.848 86.1151 12.056C86.5471 11.608 86.9631 11.08 87.3471 10.536V11.512H90.8511V10.472H87.3951C88.0031 9.608 88.5631 8.648 89.0111 7.672C89.9071 9.32 91.1391 10.984 92.1951 11.928C92.3711 11.656 92.6911 11.24 92.9151 11.016C91.7151 10.104 90.3071 8.328 89.4591 6.68C89.5391 6.44 89.6351 6.216 89.7151 5.992L88.7551 5.64Z" fill="white"/>
</svg>
