<svg width="207" height="102" viewBox="0 0 207 102" fill="none" xmlns="http://www.w3.org/2000/svg">
<path opacity="0.8" d="M5.844 43.936L5.424 44.8H11.532V43.936H5.844ZM7.344 46.54V47.368H11.256V46.54H7.344ZM7.332 49.18V50.032H11.424V49.18H7.332ZM6.888 44.212V52.96H7.812V44.212H6.888ZM6.3 42.064C5.712 43.828 4.74 45.58 3.648 46.696C3.852 46.84 4.212 47.164 4.344 47.32C5.448 46.084 6.492 44.2 7.176 42.292L6.3 42.064ZM3.42 41.968C2.736 43.792 1.62 45.592 0.42 46.756C0.588 46.972 0.864 47.452 0.948 47.668C2.256 46.324 3.492 44.272 4.284 42.244L3.42 41.968ZM2.136 45.064V52.948H3.048V44.176L3.024 44.164L2.136 45.064ZM17.208 42.52V43.36H22.692V42.52H17.208ZM17.22 44.536V45.328H21.384V44.536H17.22ZM17.508 46.396V51.004H18.3V46.396H17.508ZM17.964 46.396V47.176H20.124V49.396H17.964V50.176H20.94V46.396H17.964ZM22.248 42.52V51.748C22.248 51.964 22.176 52.036 21.948 52.036C21.72 52.048 20.916 52.06 20.1 52.024C20.232 52.288 20.364 52.708 20.412 52.96C21.492 52.96 22.188 52.948 22.596 52.792C22.992 52.636 23.124 52.348 23.124 51.76V42.52H22.248ZM13.02 45.556V46.276H16.536V45.556H13.02ZM13.056 42.352V43.072H16.488V42.352H13.056ZM13.02 47.164V47.884H16.536V47.164H13.02ZM12.456 43.924V44.668H16.872V43.924H12.456ZM13.416 48.784V49.528H15.744V51.532H13.416V52.288H16.536V48.784H13.416ZM13.008 48.784V52.84H13.788V48.784H13.008ZM29.844 43.936L29.424 44.8H35.532V43.936H29.844ZM31.344 46.54V47.368H35.256V46.54H31.344ZM31.332 49.18V50.032H35.424V49.18H31.332ZM30.888 44.212V52.96H31.812V44.212H30.888ZM30.3 42.064C29.712 43.828 28.74 45.58 27.648 46.696C27.852 46.84 28.212 47.164 28.344 47.32C29.448 46.084 30.492 44.2 31.176 42.292L30.3 42.064ZM27.42 41.968C26.736 43.792 25.62 45.592 24.42 46.756C24.588 46.972 24.864 47.452 24.948 47.668C26.256 46.324 27.492 44.272 28.284 42.244L27.42 41.968ZM26.136 45.064V52.948H27.048V44.176L27.024 44.164L26.136 45.064ZM37.74 51.316V52.204H46.284V51.316H37.74ZM37.728 47.812V48.664H46.404V47.812H37.728ZM37.176 44.32V52.972H38.028V45.196H45.984V52.912H46.872V44.32H37.176ZM40.056 42.052V51.904H40.932V42.052H40.056ZM42.96 42.052V51.856H43.848V42.052H42.96ZM54.24 41.44H53.748V53.44H54.24V41.44ZM64.368 43.18V43.972H71.316V43.18H64.368ZM67.356 41.932V52.96H68.232V41.932H67.356ZM68.604 48.604L67.956 48.82C68.604 50.236 69.816 51.64 71.028 52.348C71.16 52.132 71.436 51.808 71.628 51.64C70.44 51.064 69.228 49.84 68.604 48.604ZM65.664 47.332H69.972V48.4H65.664V47.332ZM65.664 45.628H69.972V46.684H65.664V45.628ZM64.86 44.956V49.084H70.812V44.956H64.86ZM66.948 48.616C66.264 49.864 64.92 51.112 63.636 51.7C63.84 51.88 64.116 52.192 64.248 52.408C65.556 51.7 66.924 50.32 67.668 48.868L66.948 48.616ZM60.96 42.448V52.972H61.776V43.264H63.792V42.448H60.96ZM63.516 42.448V42.688C63.264 43.516 62.82 44.944 62.388 46.036C63.252 46.972 63.468 47.788 63.468 48.436C63.468 48.796 63.408 49.12 63.216 49.252C63.12 49.324 62.988 49.36 62.844 49.36C62.652 49.384 62.424 49.372 62.148 49.348C62.28 49.576 62.352 49.924 62.364 50.14C62.64 50.152 62.94 50.152 63.18 50.128C63.42 50.092 63.636 50.02 63.804 49.912C64.14 49.672 64.272 49.168 64.272 48.52C64.272 47.776 64.08 46.936 63.192 45.94C63.6 44.98 64.044 43.744 64.392 42.76L63.816 42.412L63.672 42.448H63.516ZM72.672 46.156V46.924H83.4V46.156H72.672ZM73.272 42.952V43.708H82.968V42.952H73.272ZM77.508 41.932V43.444H78.42V41.932H77.508ZM73.62 46.54V48.148C73.62 49.408 73.464 51.16 72.324 52.444C72.528 52.552 72.9 52.852 73.044 53.02C74.268 51.64 74.52 49.6 74.52 48.16V46.54H73.62ZM74.868 44.224C76.872 44.704 79.332 45.58 80.676 46.204L81.36 45.676C79.956 45.076 77.496 44.224 75.576 43.756L74.868 44.224ZM80.352 43.444C79.116 44.404 76.524 45.244 74.448 45.676C74.568 45.832 74.736 46.12 74.808 46.288C76.98 45.808 79.524 44.908 81.036 43.816L80.352 43.444ZM80.364 46.792C79.248 47.488 77.124 48.004 75.336 48.244C75.516 48.424 75.696 48.7 75.816 48.892C77.688 48.58 79.812 48.004 81.096 47.188L80.364 46.792ZM81.108 48.244C79.92 49.168 77.592 49.828 75.444 50.14C75.624 50.32 75.804 50.608 75.912 50.812C78.168 50.428 80.508 49.708 81.876 48.64L81.108 48.244ZM82.212 49.672C80.796 51.124 77.904 51.928 74.712 52.264C74.88 52.468 75.06 52.804 75.144 53.032C78.48 52.624 81.432 51.736 83.028 50.08L82.212 49.672ZM84.552 49.684V50.428H95.448V49.684H84.552ZM84.792 43.228V43.96H95.16V43.228H84.792ZM86.316 47.164V47.716H93.612V47.164H86.316ZM91.764 48.808V51.964C91.764 52.12 91.716 52.156 91.5 52.18C91.296 52.18 90.648 52.18 89.856 52.156C89.988 52.408 90.12 52.732 90.168 52.972C91.128 52.972 91.752 52.972 92.148 52.84C92.532 52.72 92.64 52.48 92.64 51.976V48.808H91.764ZM86.7 50.932C87.42 51.376 88.272 52.06 88.668 52.54L89.268 51.952C88.848 51.472 87.972 50.824 87.264 50.392L86.7 50.932ZM86.892 42.208C87.252 42.592 87.672 43.132 87.864 43.48L88.632 43.12C88.416 42.772 87.984 42.256 87.624 41.896L86.892 42.208ZM86.58 45.268H93.384V48.34H86.58V45.268ZM85.752 44.68V48.928H94.248V44.68H85.752ZM92.172 41.908C91.98 42.328 91.608 42.952 91.32 43.348L91.992 43.6C92.328 43.24 92.736 42.7 93.096 42.184L92.172 41.908ZM90.564 43.576V45.748C90.564 46.42 90.78 46.564 91.68 46.564C91.86 46.564 93.024 46.564 93.216 46.564C93.756 46.564 93.972 46.456 94.032 46.168C93.828 46.144 93.564 46.072 93.396 45.976C93.372 46.036 93.312 46.048 93.096 46.048C92.88 46.048 91.944 46.048 91.764 46.048C91.416 46.048 91.356 46 91.356 45.76V43.576H90.564ZM88.548 43.564V45.004C88.548 45.568 88.344 46.18 86.796 46.468C86.952 46.6 87.156 46.876 87.24 47.044C88.956 46.6 89.328 45.808 89.328 45.004V43.564H88.548ZM103.301 43.4688H104.396L107.191 50.4238L109.98 43.4688H111.082L107.613 52H106.758L103.301 43.4688ZM102.943 43.4688H103.91L104.068 48.6719V52H102.943V43.4688ZM110.467 43.4688H111.434V52H110.309V48.6719L110.467 43.4688ZM114.434 45.6602V52H113.344V45.6602H114.434ZM113.262 43.9785C113.262 43.8027 113.314 43.6543 113.42 43.5332C113.529 43.4121 113.689 43.3516 113.9 43.3516C114.107 43.3516 114.266 43.4121 114.375 43.5332C114.488 43.6543 114.545 43.8027 114.545 43.9785C114.545 44.1465 114.488 44.291 114.375 44.4121C114.266 44.5293 114.107 44.5879 113.9 44.5879C113.689 44.5879 113.529 44.5293 113.42 44.4121C113.314 44.291 113.262 44.1465 113.262 43.9785ZM117.264 43V52H116.174V43H117.264ZM121.137 45.6602L118.371 48.6191L116.824 50.2246L116.736 49.0703L117.844 47.7461L119.812 45.6602H121.137ZM120.146 52L117.885 48.9766L118.447 48.0098L121.424 52H120.146ZM124.77 52.1172C124.328 52.1172 123.928 52.043 123.568 51.8945C123.213 51.7422 122.906 51.5293 122.648 51.2559C122.395 50.9824 122.199 50.6582 122.062 50.2832C121.926 49.9082 121.857 49.498 121.857 49.0527V48.8066C121.857 48.291 121.934 47.832 122.086 47.4297C122.238 47.0234 122.445 46.6797 122.707 46.3984C122.969 46.1172 123.266 45.9043 123.598 45.7598C123.93 45.6152 124.273 45.543 124.629 45.543C125.082 45.543 125.473 45.6211 125.801 45.7773C126.133 45.9336 126.404 46.1523 126.615 46.4336C126.826 46.7109 126.982 47.0391 127.084 47.418C127.186 47.793 127.236 48.2031 127.236 48.6484V49.1348H122.502V48.25H126.152V48.168C126.137 47.8867 126.078 47.6133 125.977 47.3477C125.879 47.082 125.723 46.8633 125.508 46.6914C125.293 46.5195 125 46.4336 124.629 46.4336C124.383 46.4336 124.156 46.4863 123.949 46.5918C123.742 46.6934 123.564 46.8457 123.416 47.0488C123.268 47.252 123.152 47.5 123.07 47.793C122.988 48.0859 122.947 48.4238 122.947 48.8066V49.0527C122.947 49.3535 122.988 49.6367 123.07 49.9023C123.156 50.1641 123.279 50.3945 123.439 50.5938C123.604 50.793 123.801 50.9492 124.031 51.0625C124.266 51.1758 124.531 51.2324 124.828 51.2324C125.211 51.2324 125.535 51.1543 125.801 50.998C126.066 50.8418 126.299 50.6328 126.498 50.3711L127.154 50.8926C127.018 51.0996 126.844 51.2969 126.633 51.4844C126.422 51.6719 126.162 51.8242 125.854 51.9414C125.549 52.0586 125.188 52.1172 124.77 52.1172Z" fill="white"/>
<path d="M202.929 25.1299L0 25.1299L0 26.0199L202.929 26.0199V25.1299Z" fill="white"/>
<path d="M207 22L190 22V29H207V22Z" fill="#00E0B8"/>
<path d="M8.89 6.998H9.856V6.2H13.202V5.276H9.856V4.296H8.89V5.276H7.476V6.2H8.89V6.998ZM4.06 6.984H5.026V6.186H6.538V5.262H5.026V4.296H4.06V5.262H0.938V6.186H4.06V6.984ZM4.746 8.482C4.536 8.818 4.312 9.154 4.088 9.42H2.352C2.618 9.112 2.856 8.804 3.052 8.482H4.746ZM5.838 11.268H4.48V10.162H5.838V11.268ZM5.838 13.06H4.48V11.94H5.838V13.06ZM2.422 11.268V10.162H3.696V11.268H2.422ZM3.696 11.94V13.06H2.422V11.94H3.696ZM1.568 13.816H6.734V9.42H5.082C5.418 9 5.74 8.538 6.006 8.09L5.446 7.67L5.264 7.726H3.528C3.668 7.474 3.794 7.236 3.906 6.998L2.954 6.83C2.52 7.824 1.694 9.042 0.532 9.966C0.756 10.106 1.05 10.4 1.204 10.582C1.316 10.47 1.442 10.372 1.568 10.26V13.816ZM1.204 17.05C1.764 16.42 2.128 15.412 2.38 14.558L1.638 14.264C1.414 15.076 1.008 16.07 0.476 16.644L1.204 17.05ZM2.744 14.502C2.898 15.23 3.01 16.168 2.982 16.77L3.738 16.672C3.738 16.07 3.626 15.146 3.458 14.432L2.744 14.502ZM4.032 14.46C4.326 15.146 4.578 16.042 4.648 16.63L5.39 16.448C5.292 15.888 5.012 14.992 4.732 14.334L4.032 14.46ZM5.418 14.362C5.81 15.006 6.23 15.888 6.398 16.448L7.098 16.21C6.93 15.65 6.482 14.796 6.076 14.166L5.418 14.362ZM13.076 11.198V10.274H10.612V8.398C11.41 8.202 12.166 7.964 12.782 7.726L11.998 7.026C10.892 7.53 8.848 7.992 7.098 8.3C7.196 8.496 7.336 8.818 7.378 9.028C8.106 8.916 8.862 8.776 9.618 8.622V10.274H7.056V11.198H9.31C8.708 12.71 7.742 14.208 6.734 14.964C6.958 15.146 7.266 15.482 7.42 15.72C8.232 14.978 9.016 13.774 9.618 12.472V17.078H10.612V12.332C11.228 13.634 12.04 14.908 12.768 15.65C12.936 15.426 13.23 15.104 13.454 14.95C12.544 14.152 11.55 12.64 10.906 11.198H13.076ZM18.06 6.032C17.85 5.542 17.402 4.814 16.996 4.24L16.198 4.646C16.562 5.22 17.024 6.004 17.234 6.508L18.06 6.032ZM18.438 13.046V15.356H16.1V13.046H18.438ZM19.362 12.178H15.19V16.882H16.1V16.224H19.362V12.178ZM15.19 11.142H19.25V10.316H15.19V11.142ZM19.25 8.496H15.19V9.322H19.25V8.496ZM14.616 7.516H19.726V6.662H14.616V7.516ZM20.636 13.242C21.224 13.886 21.938 14.796 22.26 15.356L23.072 14.866C22.75 14.32 22.008 13.438 21.42 12.822L20.636 13.242ZM25.704 9.952H24.682V11.324H19.796V12.276H24.682V15.846C24.682 16.028 24.612 16.07 24.416 16.084C24.234 16.084 23.604 16.084 22.918 16.07C23.044 16.35 23.198 16.742 23.254 17.036C24.178 17.036 24.794 17.022 25.186 16.854C25.578 16.7 25.704 16.434 25.704 15.86V12.276H27.37V11.324H25.704V9.952ZM24.038 5.948V4.296H23.016V5.948H19.796V6.914H23.016V8.706H20.244V9.644H26.936V8.706H24.038V6.914H27.412V5.948H24.038ZM41.104 5.57H28.896V6.634H34.818V15.37C34.818 15.692 34.692 15.79 34.356 15.804C33.978 15.818 32.718 15.818 31.416 15.776C31.626 16.084 31.836 16.616 31.92 16.952C33.53 16.952 34.566 16.938 35.168 16.742C35.756 16.56 35.994 16.21 35.994 15.384V6.634H41.104V5.57ZM50.274 10.68L53.284 4.408L52.528 4.156L49.42 10.68L52.528 17.204L53.284 16.952L50.274 10.68ZM52.486 10.68L55.496 4.408L54.74 4.156L51.632 10.68L54.74 17.204L55.496 16.952L52.486 10.68ZM60.76 6.088V8.734H58.142V6.088H60.76ZM58.142 12.472V9.686H60.76V12.472H58.142ZM61.726 13.438V5.15H57.162V14.726H58.142V13.438H61.726ZM63.938 11.66C64.008 11.03 64.022 10.414 64.022 9.84V9.21H67.928V11.66H63.938ZM67.928 5.864V8.258H64.022V5.864H67.928ZM68.936 4.884H63.014V9.84C63.014 12.01 62.776 14.642 60.424 16.448C60.634 16.588 61.026 16.938 61.194 17.162C62.776 15.944 63.49 14.278 63.798 12.612H67.928V15.692C67.928 15.944 67.83 16.028 67.564 16.042C67.34 16.042 66.458 16.056 65.548 16.028C65.716 16.294 65.884 16.756 65.94 17.036C67.13 17.036 67.9 17.008 68.348 16.854C68.796 16.672 68.936 16.35 68.936 15.692V4.884ZM73.57 14.978V11.072H80.514V14.978H73.57ZM80.514 6.27V10.05H73.57V6.27H80.514ZM72.52 5.248V16.91H73.57V16H80.514V16.854H81.606V5.248H72.52ZM92.246 6.494C91.966 5.92 91.294 4.94 90.734 4.226L89.838 4.688C90.37 5.416 91.014 6.438 91.294 7.04L92.246 6.494ZM95.34 6.984L95.116 7.054H85.456V8.062H94.346C92.792 10.176 90.02 12.682 87.472 14.152C87.416 14.138 87.36 14.124 87.29 14.124C86.576 14.124 85.666 14.88 84.742 15.888L85.512 16.84C86.17 15.916 86.828 15.104 87.276 15.104C87.584 15.104 88.018 15.552 88.592 15.916C89.516 16.504 90.664 16.672 92.344 16.672C93.688 16.672 96.082 16.588 97.118 16.518C97.132 16.21 97.3 15.664 97.426 15.398C96.082 15.538 94.01 15.65 92.386 15.65C90.818 15.65 89.684 15.552 88.802 14.992C88.662 14.908 88.55 14.824 88.438 14.74C91.294 12.976 94.402 10.078 96.124 7.516L95.34 6.984ZM108.64 13.914V12.682H109.97V13.914H108.64ZM106.666 13.914V12.682H107.926V13.914H106.666ZM104.72 13.914V12.682H105.952V13.914H104.72ZM110.824 11.87H103.908V17.064H104.72V14.698H105.952V16.952H106.666V14.698H107.926V16.952H108.64V14.698H109.97V16.084C109.97 16.21 109.942 16.238 109.816 16.252C109.704 16.266 109.396 16.266 108.976 16.252C109.088 16.476 109.214 16.826 109.27 17.078C109.816 17.078 110.236 17.064 110.488 16.91C110.768 16.756 110.824 16.532 110.824 16.084V11.87ZM105.28 8.09H109.34V7.264H105.28V8.09ZM109.284 9.476H110.166V10.652H109.284V9.476ZM108.724 11.324H110.726V8.804H108.724V11.324ZM106.89 9.476H107.758V10.652H106.89V9.476ZM108.318 11.324V8.804H106.344V11.324H108.318ZM104.524 9.476H105.322V10.652H104.524V9.476ZM103.964 11.324H105.896V8.804H103.964V11.324ZM107.086 4.366C106.414 5.318 105.098 6.326 103.306 6.97C102.844 6.438 102.116 5.738 101.374 5.164C101.472 4.968 101.542 4.758 101.626 4.576L100.926 4.212C100.366 5.57 99.414 6.858 98.476 7.684C98.602 7.936 98.812 8.496 98.868 8.734C99.064 8.538 99.26 8.342 99.456 8.104V8.734H100.59V10.246H98.812V11.156H100.59V15.202C99.862 15.384 99.176 15.552 98.658 15.65L98.868 16.588C99.988 16.294 101.542 15.874 103.012 15.468L102.956 14.628L101.36 15.02V11.156H102.97V10.246H101.36V8.734H102.578V7.824H99.694C100.142 7.264 100.576 6.606 100.968 5.934C101.682 6.536 102.424 7.264 102.886 7.824L103.306 6.984C103.474 7.166 103.67 7.502 103.782 7.74C105.252 7.138 106.4 6.34 107.268 5.444C108.178 6.354 109.676 7.25 110.852 7.67C110.978 7.432 111.244 7.054 111.426 6.858C110.166 6.48 108.612 5.682 107.772 4.856C107.842 4.772 107.898 4.688 107.968 4.604L107.086 4.366ZM102.214 14.516C102.424 13.872 102.662 12.85 102.886 11.982L102.2 11.73C102.088 12.486 101.836 13.592 101.654 14.278L102.214 14.516ZM99.022 12.08C99.218 12.906 99.414 13.97 99.47 14.67L100.114 14.446C100.044 13.76 99.848 12.71 99.638 11.884L99.022 12.08ZM115.472 17.204L118.58 10.68L115.472 4.156L114.716 4.408L117.726 10.68L114.716 16.952L115.472 17.204ZM113.26 17.204L116.368 10.68L113.26 4.156L112.504 4.408L115.514 10.68L112.504 16.952L113.26 17.204Z" fill="#00E0B8"/>
</svg>
