<svg width="337" height="376" viewBox="0 0 337 376" fill="none" xmlns="http://www.w3.org/2000/svg">
<rect x="26.5" y="53.5" width="310" height="322" rx="19.5" stroke="#00E0B8"/>
<path d="M80.016 111.536L80.7567 111.654C80.7911 111.437 80.7289 111.216 80.5864 111.049C80.4439 110.882 80.2355 110.786 80.016 110.786V111.536ZM79.248 115.664L78.5167 115.498C78.4263 115.896 78.6704 116.293 79.0661 116.392L79.248 115.664ZM81.552 116.24L81.3701 116.968C81.762 117.066 82.1611 116.836 82.2728 116.447L81.552 116.24ZM83.04 109.376L83.7804 109.496C83.843 109.108 83.5967 108.739 83.2154 108.647L83.04 109.376ZM81.144 108.92L81.3194 108.191C81.2215 108.167 81.12 108.164 81.0207 108.18L81.144 108.92ZM80.712 108.992V109.742C80.7533 109.742 80.7946 109.739 80.8353 109.732L80.712 108.992ZM75.96 108.992L75.2285 108.826C75.1782 109.049 75.2317 109.282 75.374 109.46C75.5164 109.638 75.732 109.742 75.96 109.742V108.992ZM76.656 105.032L77.4002 105.125C77.4514 104.716 77.1622 104.342 76.753 104.288L76.656 105.032ZM73.896 104.672L73.993 103.928C73.7931 103.902 73.5912 103.958 73.4327 104.082C73.2742 104.207 73.1725 104.39 73.1505 104.59L73.896 104.672ZM71.088 114.224L70.4755 113.791C70.3526 113.965 70.3094 114.183 70.3568 114.391C70.4042 114.598 70.5376 114.776 70.7238 114.88L71.088 114.224ZM73.416 115.856L72.9143 116.413C73.0762 116.559 73.2934 116.627 73.5095 116.6C73.7256 116.573 73.9192 116.453 74.04 116.272L73.416 115.856ZM75.312 111.536V110.786C74.9819 110.786 74.6906 111.002 74.5945 111.318L75.312 111.536ZM63.552 115.976V115.226C63.1378 115.226 62.802 115.562 62.802 115.976H63.552ZM65.256 115.976H66.006C66.006 115.562 65.6702 115.226 65.256 115.226V115.976ZM65.256 117.368V118.118C65.6702 118.118 66.006 117.782 66.006 117.368H65.256ZM63.552 117.368H62.802C62.802 117.782 63.1378 118.118 63.552 118.118V117.368ZM63.552 112.712V111.962C63.1378 111.962 62.802 112.298 62.802 112.712H63.552ZM65.256 112.712H66.006C66.006 112.298 65.6702 111.962 65.256 111.962V112.712ZM65.256 114.104V114.854C65.6702 114.854 66.006 114.518 66.006 114.104H65.256ZM63.552 114.104H62.802C62.802 114.518 63.1378 114.854 63.552 114.854V114.104ZM68.88 114.104V114.854C69.2942 114.854 69.63 114.518 69.63 114.104H68.88ZM67.2 114.104H66.45C66.45 114.518 66.7858 114.854 67.2 114.854V114.104ZM67.2 112.712V111.962C66.7858 111.962 66.45 112.298 66.45 112.712H67.2ZM68.88 112.712H69.63C69.63 112.298 69.2942 111.962 68.88 111.962V112.712ZM68.88 117.368V118.118C69.2942 118.118 69.63 117.782 69.63 117.368H68.88ZM67.2 117.368H66.45C66.45 117.782 66.7858 118.118 67.2 118.118V117.368ZM67.2 115.976V115.226C66.7858 115.226 66.45 115.562 66.45 115.976H67.2ZM68.88 115.976H69.63C69.63 115.562 69.2942 115.226 68.88 115.226V115.976ZM71.544 123.272V124.022C71.9582 124.022 72.294 123.686 72.294 123.272H71.544ZM71.544 120.776H72.294C72.294 120.362 71.9582 120.026 71.544 120.026V120.776ZM67.392 120.776H66.642C66.642 121.19 66.9778 121.526 67.392 121.526V120.776ZM67.392 119.384V118.634C66.9778 118.634 66.642 118.97 66.642 119.384H67.392ZM70.944 119.384V120.134C71.3582 120.134 71.694 119.798 71.694 119.384H70.944ZM70.944 110.72H71.694C71.694 110.306 71.3582 109.97 70.944 109.97V110.72ZM67.416 110.72H66.666C66.666 111.134 67.0018 111.47 67.416 111.47V110.72ZM67.416 109.448V108.698C67.0018 108.698 66.666 109.034 66.666 109.448H67.416ZM71.376 109.448V110.198C71.7902 110.198 72.126 109.862 72.126 109.448H71.376ZM71.376 106.928H72.126C72.126 106.514 71.7902 106.178 71.376 106.178V106.928ZM67.416 106.928H66.666C66.666 107.342 67.0018 107.678 67.416 107.678V106.928ZM67.416 104.672H68.166C68.166 104.258 67.8302 103.922 67.416 103.922V104.672ZM65.064 104.672V103.922C64.6498 103.922 64.314 104.258 64.314 104.672H65.064ZM65.064 106.928V107.678C65.4782 107.678 65.814 107.342 65.814 106.928H65.064ZM61.128 106.928V106.178C60.7138 106.178 60.378 106.514 60.378 106.928H61.128ZM61.128 109.448H60.378C60.378 109.862 60.7138 110.198 61.128 110.198V109.448ZM65.064 109.448H65.814C65.814 109.034 65.4782 108.698 65.064 108.698V109.448ZM65.064 110.72V111.47C65.4782 111.47 65.814 111.134 65.814 110.72H65.064ZM61.584 110.72V109.97C61.1698 109.97 60.834 110.306 60.834 110.72H61.584ZM61.584 119.384H60.834C60.834 119.798 61.1698 120.134 61.584 120.134V119.384ZM65.04 119.384H65.79C65.79 118.97 65.4542 118.634 65.04 118.634V119.384ZM65.04 120.776V121.526C65.4542 121.526 65.79 121.19 65.79 120.776H65.04ZM60.912 120.776V120.026C60.4978 120.026 60.162 120.362 60.162 120.776H60.912ZM60.912 123.272H60.162C60.162 123.686 60.4978 124.022 60.912 124.022V123.272ZM65.04 123.272H65.79C65.79 122.858 65.4542 122.522 65.04 122.522V123.272ZM65.04 127.064H64.29C64.29 127.478 64.6258 127.814 65.04 127.814V127.064ZM67.392 127.064V127.814C67.8062 127.814 68.142 127.478 68.142 127.064H67.392ZM67.392 123.272V122.522C66.9778 122.522 66.642 122.858 66.642 123.272H67.392ZM78.264 116.048L77.5146 116.019C77.5123 116.079 77.5171 116.139 77.5291 116.198L78.264 116.048ZM78.312 113.144H79.062C79.062 112.73 78.7262 112.394 78.312 112.394V113.144ZM75.48 113.144V112.394C75.0658 112.394 74.73 112.73 74.73 113.144H75.48ZM70.128 124.928L69.7162 124.301C69.5033 124.441 69.3759 124.679 69.378 124.934C69.3802 125.189 69.5115 125.425 69.7267 125.562L70.128 124.928ZM72.288 126.992L71.6714 127.419C71.9071 127.759 72.3744 127.844 72.7149 127.609L72.288 126.992ZM77.112 121.112L77.814 120.848C77.7053 120.559 77.4307 120.366 77.122 120.362C76.8134 120.358 76.5337 120.543 76.4173 120.829L77.112 121.112ZM81.648 127.04L81.2697 127.688C81.4473 127.791 81.6597 127.818 81.8573 127.76C82.0548 127.703 82.2201 127.567 82.3145 127.384L81.648 127.04ZM83.544 124.616L84.0409 125.178C84.2276 125.013 84.32 124.766 84.2877 124.519C84.2553 124.271 84.1023 124.057 83.8794 123.945L83.544 124.616ZM79.2753 111.418C79.0367 112.922 78.7516 114.464 78.5167 115.498L79.9794 115.83C80.2244 114.752 80.5153 113.174 80.7567 111.654L79.2753 111.418ZM79.0661 116.392L81.3701 116.968L81.7339 115.512L79.4299 114.936L79.0661 116.392ZM82.2728 116.447C82.7866 114.661 83.3926 111.895 83.7804 109.496L82.2996 109.256C81.9194 111.609 81.3254 114.315 80.8312 116.033L82.2728 116.447ZM83.2154 108.647L81.3194 108.191L80.9686 109.649L82.8646 110.105L83.2154 108.647ZM81.0207 108.18L80.5887 108.252L80.8353 109.732L81.2673 109.66L81.0207 108.18ZM80.712 108.242H75.96V109.742H80.712V108.242ZM76.6915 109.158C76.9847 107.863 77.229 106.495 77.4002 105.125L75.9118 104.939C75.747 106.257 75.5114 107.577 75.2285 108.826L76.6915 109.158ZM76.753 104.288L73.993 103.928L73.799 105.416L76.559 105.776L76.753 104.288ZM73.1505 104.59C72.7441 108.295 71.9171 111.751 70.4755 113.791L71.7005 114.657C73.3789 112.281 74.2319 108.489 74.6415 104.754L73.1505 104.59ZM70.7238 114.88C71.3304 115.217 72.4826 116.025 72.9143 116.413L73.9177 115.299C73.3894 114.823 72.1416 113.951 71.4522 113.568L70.7238 114.88ZM74.04 116.272C74.8655 115.034 75.5153 113.444 76.0295 111.754L74.5945 111.318C74.1007 112.94 73.5025 114.374 72.792 115.44L74.04 116.272ZM75.312 112.286H80.016V110.786H75.312V112.286ZM63.552 116.726H65.256V115.226H63.552V116.726ZM64.506 115.976V117.368H66.006V115.976H64.506ZM65.256 116.618H63.552V118.118H65.256V116.618ZM64.302 117.368V115.976H62.802V117.368H64.302ZM63.552 113.462H65.256V111.962H63.552V113.462ZM64.506 112.712V114.104H66.006V112.712H64.506ZM65.256 113.354H63.552V114.854H65.256V113.354ZM64.302 114.104V112.712H62.802V114.104H64.302ZM68.88 113.354H67.2V114.854H68.88V113.354ZM67.95 114.104V112.712H66.45V114.104H67.95ZM67.2 113.462H68.88V111.962H67.2V113.462ZM68.13 112.712V114.104H69.63V112.712H68.13ZM68.88 116.618H67.2V118.118H68.88V116.618ZM67.95 117.368V115.976H66.45V117.368H67.95ZM67.2 116.726H68.88V115.226H67.2V116.726ZM68.13 115.976V117.368H69.63V115.976H68.13ZM72.294 123.272V120.776H70.794V123.272H72.294ZM71.544 120.026H67.392V121.526H71.544V120.026ZM68.142 120.776V119.384H66.642V120.776H68.142ZM67.392 120.134H70.944V118.634H67.392V120.134ZM71.694 119.384V110.72H70.194V119.384H71.694ZM70.944 109.97H67.416V111.47H70.944V109.97ZM68.166 110.72V109.448H66.666V110.72H68.166ZM67.416 110.198H71.376V108.698H67.416V110.198ZM72.126 109.448V106.928H70.626V109.448H72.126ZM71.376 106.178H67.416V107.678H71.376V106.178ZM68.166 106.928V104.672H66.666V106.928H68.166ZM67.416 103.922H65.064V105.422H67.416V103.922ZM64.314 104.672V106.928H65.814V104.672H64.314ZM65.064 106.178H61.128V107.678H65.064V106.178ZM60.378 106.928V109.448H61.878V106.928H60.378ZM61.128 110.198H65.064V108.698H61.128V110.198ZM64.314 109.448V110.72H65.814V109.448H64.314ZM65.064 109.97H61.584V111.47H65.064V109.97ZM60.834 110.72V119.384H62.334V110.72H60.834ZM61.584 120.134H65.04V118.634H61.584V120.134ZM64.29 119.384V120.776H65.79V119.384H64.29ZM65.04 120.026H60.912V121.526H65.04V120.026ZM60.162 120.776V123.272H61.662V120.776H60.162ZM60.912 124.022H65.04V122.522H60.912V124.022ZM64.29 123.272V127.064H65.79V123.272H64.29ZM65.04 127.814H67.392V126.314H65.04V127.814ZM68.142 127.064V123.272H66.642V127.064H68.142ZM67.392 124.022H71.544V122.522H67.392V124.022ZM79.0135 116.077C79.0372 115.459 79.062 114.866 79.062 114.32H77.562C77.562 114.83 77.5388 115.389 77.5146 116.019L79.0135 116.077ZM79.062 114.32V113.144H77.562V114.32H79.062ZM78.312 112.394H75.48V113.894H78.312V112.394ZM74.73 113.144V114.248H76.23V113.144H74.73ZM74.73 114.248C74.73 117.042 74.292 121.295 69.7162 124.301L70.5398 125.555C75.756 122.129 76.23 117.214 76.23 114.248H74.73ZM69.7267 125.562C70.3608 125.963 71.2959 126.877 71.6714 127.419L72.9047 126.565C72.4161 125.859 71.3352 124.805 70.5293 124.294L69.7267 125.562ZM72.7149 127.609C75.3358 125.794 76.9141 123.588 77.8067 121.395L76.4173 120.829C75.6299 122.764 74.2323 124.734 71.8611 126.375L72.7149 127.609ZM76.41 121.376C77.43 124.088 78.9341 126.323 81.2697 127.688L82.0264 126.392C80.09 125.261 78.762 123.368 77.814 120.848L76.41 121.376ZM82.3145 127.384C82.6544 126.725 83.4839 125.67 84.0409 125.178L83.0471 124.054C82.3561 124.666 81.4096 125.867 80.9815 126.696L82.3145 127.384ZM83.8794 123.945C81.27 122.64 79.7538 119.602 78.9989 115.898L77.5291 116.198C78.3102 120.03 79.962 123.664 83.2086 125.287L83.8794 123.945ZM91.104 121.688V122.438C91.5182 122.438 91.854 122.102 91.854 121.688H91.104ZM88.896 121.688H88.146C88.146 122.102 88.4818 122.438 88.896 122.438V121.688ZM88.896 115.664V114.914C88.4818 114.914 88.146 115.25 88.146 115.664H88.896ZM91.104 115.664H91.854C91.854 115.25 91.5182 114.914 91.104 114.914V115.664ZM93.48 124.184V124.934C93.8942 124.934 94.23 124.598 94.23 124.184H93.48ZM93.48 113.168H94.23C94.23 112.754 93.8942 112.418 93.48 112.418V113.168ZM89.088 113.168L88.3776 112.928C88.3001 113.156 88.3377 113.409 88.4786 113.605C88.6194 113.802 88.8463 113.918 89.088 113.918V113.168ZM90.36 108.32V107.57C90.0041 107.57 89.6972 107.82 89.6254 108.169L90.36 108.32ZM93.504 108.32V109.07C93.9182 109.07 94.254 108.734 94.254 108.32H93.504ZM93.504 105.728H94.254C94.254 105.314 93.9182 104.978 93.504 104.978V105.728ZM84.936 105.728V104.978C84.5218 104.978 84.186 105.314 84.186 105.728H84.936ZM84.936 108.32H84.186C84.186 108.734 84.5218 109.07 84.936 109.07V108.32ZM87.696 108.32L88.4319 108.465C88.4752 108.245 88.4178 108.017 88.2753 107.844C88.1329 107.67 87.9203 107.57 87.696 107.57V108.32ZM84.6 116.408L83.9991 115.959C83.8351 116.179 83.8039 116.47 83.9179 116.72L84.6 116.408ZM85.608 119.888L84.8665 120C84.9109 120.294 85.1244 120.534 85.4109 120.612C85.6973 120.69 86.0029 120.591 86.1901 120.361L85.608 119.888ZM86.496 118.688H87.246C87.246 118.358 87.0297 118.066 86.7133 117.97C86.397 117.874 86.0553 117.997 85.872 118.272L86.496 118.688ZM86.496 125.96H85.746C85.746 126.374 86.0818 126.71 86.496 126.71V125.96ZM88.896 125.96V126.71C89.3102 126.71 89.646 126.374 89.646 125.96H88.896ZM88.896 124.184V123.434C88.4818 123.434 88.146 123.77 88.146 124.184H88.896ZM96.912 116.912H96.162C96.162 117.326 96.4978 117.662 96.912 117.662V116.912ZM96.912 115.4V114.65C96.4978 114.65 96.162 114.986 96.162 115.4H96.912ZM99 115.4H99.75C99.75 114.986 99.4142 114.65 99 114.65V115.4ZM99 116.912V117.662C99.4142 117.662 99.75 117.326 99.75 116.912H99ZM96.912 111.92V111.17C96.4978 111.17 96.162 111.506 96.162 111.92H96.912ZM99 111.92H99.75C99.75 111.506 99.4142 111.17 99 111.17V111.92ZM99 113.408V114.158C99.4142 114.158 99.75 113.822 99.75 113.408H99ZM96.912 113.408H96.162C96.162 113.822 96.4978 114.158 96.912 114.158V113.408ZM103.872 111.92H104.622C104.622 111.506 104.286 111.17 103.872 111.17V111.92ZM103.872 113.408V114.158C104.286 114.158 104.622 113.822 104.622 113.408H103.872ZM101.712 113.408H100.962C100.962 113.822 101.298 114.158 101.712 114.158V113.408ZM101.712 111.92V111.17C101.298 111.17 100.962 111.506 100.962 111.92H101.712ZM103.872 116.912V117.662C104.286 117.662 104.622 117.326 104.622 116.912H103.872ZM101.712 116.912H100.962C100.962 117.326 101.298 117.662 101.712 117.662V116.912ZM101.712 115.4V114.65C101.298 114.65 100.962 114.986 100.962 115.4H101.712ZM103.872 115.4H104.622C104.622 114.986 104.286 114.65 103.872 114.65V115.4ZM106.512 119.048V119.798C106.926 119.798 107.262 119.462 107.262 119.048H106.512ZM106.512 109.784H107.262C107.262 109.37 106.926 109.034 106.512 109.034V109.784ZM101.712 109.784H100.962C100.962 110.198 101.298 110.534 101.712 110.534V109.784ZM101.712 108.2V107.45C101.298 107.45 100.962 107.786 100.962 108.2H101.712ZM107.016 108.2V108.95C107.43 108.95 107.766 108.614 107.766 108.2H107.016ZM107.016 105.632H107.766C107.766 105.218 107.43 104.882 107.016 104.882V105.632ZM94.032 105.632V104.882C93.6178 104.882 93.282 105.218 93.282 105.632H94.032ZM94.032 108.2H93.282C93.282 108.614 93.6178 108.95 94.032 108.95V108.2ZM99 108.2H99.75C99.75 107.786 99.4142 107.45 99 107.45V108.2ZM99 109.784V110.534C99.4142 110.534 99.75 110.198 99.75 109.784H99ZM94.392 109.784V109.034C93.9778 109.034 93.642 109.37 93.642 109.784H94.392ZM94.392 119.048H93.642C93.642 119.462 93.9778 119.798 94.392 119.798V119.048ZM98.88 119.048L99.6233 119.148C99.6522 118.934 99.5872 118.717 99.4447 118.554C99.3023 118.391 99.0964 118.298 98.88 118.298V119.048ZM98.064 121.568L97.5337 122.098C97.6987 122.263 97.931 122.342 98.1623 122.312C98.3937 122.281 98.5976 122.144 98.714 121.942L98.064 121.568ZM96.552 119.528L97.2143 119.176C97.0557 118.878 96.7169 118.722 96.387 118.796L96.552 119.528ZM94.104 120.08L93.939 119.348C93.7141 119.399 93.5251 119.55 93.4263 119.759C93.3275 119.967 93.3301 120.209 93.4332 120.415L94.104 120.08ZM96.432 123.392L96.8711 124C97.0493 123.871 97.1621 123.671 97.1796 123.452C97.1972 123.233 97.1177 123.017 96.9623 122.862L96.432 123.392ZM92.832 124.904L92.6634 124.173C92.3947 124.235 92.1817 124.44 92.1087 124.706C92.0358 124.972 92.1147 125.256 92.3142 125.447L92.832 124.904ZM94.536 127.112L93.8929 127.498C94.0737 127.799 94.4397 127.935 94.7732 127.824L94.536 127.112ZM98.496 125L98.8734 124.352C98.6014 124.194 98.2595 124.222 98.0173 124.423L98.496 125ZM105.768 127.16L105.678 127.905C106.007 127.944 106.322 127.764 106.455 127.461L105.768 127.16ZM107.4 124.664L107.93 125.194C108.139 124.986 108.206 124.675 108.102 124.4C107.998 124.124 107.743 123.935 107.449 123.916L107.4 124.664ZM100.224 123.008L99.5866 122.613C99.4751 122.793 99.4448 123.011 99.5029 123.214C99.5611 123.418 99.7024 123.587 99.8921 123.681L100.224 123.008ZM101.568 119.048V118.298C101.193 118.298 100.875 118.575 100.825 118.947L101.568 119.048ZM91.104 120.938H88.896V122.438H91.104V120.938ZM89.646 121.688V115.664H88.146V121.688H89.646ZM88.896 116.414H91.104V114.914H88.896V116.414ZM90.354 115.664V121.688H91.854V115.664H90.354ZM94.23 124.184V113.168H92.73V124.184H94.23ZM93.48 112.418H89.088V113.918H93.48V112.418ZM89.7984 113.408C90.3398 111.809 90.755 110.121 91.0946 108.471L89.6254 108.169C89.293 109.783 88.8923 111.407 88.3776 112.928L89.7984 113.408ZM90.36 109.07H93.504V107.57H90.36V109.07ZM94.254 108.32V105.728H92.754V108.32H94.254ZM93.504 104.978H84.936V106.478H93.504V104.978ZM84.186 105.728V108.32H85.686V105.728H84.186ZM84.936 109.07H87.696V107.57H84.936V109.07ZM86.9601 108.175C86.3435 111.305 85.3865 114.102 83.9991 115.959L85.2009 116.857C86.7895 114.73 87.8005 111.671 88.4319 108.465L86.9601 108.175ZM83.9179 116.72C84.2677 117.485 84.7548 119.264 84.8665 120L86.3495 119.776C86.2212 118.928 85.7003 117.011 85.2821 116.096L83.9179 116.72ZM86.1901 120.361C86.5147 119.961 86.8171 119.558 87.12 119.104L85.872 118.272C85.5989 118.682 85.3253 119.047 85.0259 119.415L86.1901 120.361ZM85.746 118.688V125.96H87.246V118.688H85.746ZM86.496 126.71H88.896V125.21H86.496V126.71ZM89.646 125.96V124.184H88.146V125.96H89.646ZM88.896 124.934H93.48V123.434H88.896V124.934ZM97.662 116.912V115.4H96.162V116.912H97.662ZM96.912 116.15H99V114.65H96.912V116.15ZM98.25 115.4V116.768H99.75V115.4H98.25ZM98.25 116.768V116.912H99.75V116.768H98.25ZM99 116.162H96.912V117.662H99V116.162ZM96.912 112.67H99V111.17H96.912V112.67ZM98.25 111.92V113.408H99.75V111.92H98.25ZM99 112.658H96.912V114.158H99V112.658ZM97.662 113.408V111.92H96.162V113.408H97.662ZM103.122 111.92V113.408H104.622V111.92H103.122ZM103.872 112.658H101.712V114.158H103.872V112.658ZM102.462 113.408V111.92H100.962V113.408H102.462ZM101.712 112.67H103.872V111.17H101.712V112.67ZM103.872 116.162H101.712V117.662H103.872V116.162ZM102.462 116.912V116.792H100.962V116.912H102.462ZM102.462 116.792V115.4H100.962V116.792H102.462ZM101.712 116.15H103.872V114.65H101.712V116.15ZM103.122 115.4V116.912H104.622V115.4H103.122ZM107.262 119.048V109.784H105.762V119.048H107.262ZM106.512 109.034H101.712V110.534H106.512V109.034ZM102.462 109.784V108.2H100.962V109.784H102.462ZM101.712 108.95H107.016V107.45H101.712V108.95ZM107.766 108.2V105.632H106.266V108.2H107.766ZM107.016 104.882H94.032V106.382H107.016V104.882ZM93.282 105.632V108.2H94.782V105.632H93.282ZM94.032 108.95H99V107.45H94.032V108.95ZM98.25 108.2V109.784H99.75V108.2H98.25ZM99 109.034H94.392V110.534H99V109.034ZM93.642 109.784V119.048H95.142V109.784H93.642ZM94.392 119.798H98.88V118.298H94.392V119.798ZM98.1368 118.948C98.0263 119.765 97.8101 120.506 97.414 121.194L98.714 121.942C99.2299 121.046 99.4937 120.107 99.6233 119.148L98.1368 118.948ZM98.5943 121.038C98.0452 120.489 97.5863 119.876 97.2143 119.176L95.8897 119.88C96.3337 120.716 96.8828 121.447 97.5337 122.098L98.5943 121.038ZM96.387 118.796L93.939 119.348L94.269 120.812L96.717 120.26L96.387 118.796ZM93.4332 120.415C94.1111 121.771 94.9237 122.944 95.9017 123.922L96.9623 122.862C96.1163 122.016 95.3929 120.981 94.7748 119.745L93.4332 120.415ZM95.9929 122.784C95.2275 123.337 94.1495 123.83 92.6634 124.173L93.0007 125.635C94.6345 125.258 95.9085 124.695 96.8711 124L95.9929 122.784ZM92.3142 125.447C92.7775 125.889 93.5538 126.933 93.8929 127.498L95.1791 126.726C94.7982 126.091 93.9425 124.927 93.3499 124.361L92.3142 125.447ZM94.7732 127.824C96.5062 127.246 97.9107 126.46 98.9748 125.577L98.0173 124.423C97.1133 125.172 95.8778 125.874 94.2988 126.4L94.7732 127.824ZM98.1186 125.648C100.132 126.821 102.641 127.537 105.678 127.905L105.858 126.415C102.943 126.063 100.652 125.387 98.8734 124.352L98.1186 125.648ZM106.455 127.461C106.765 126.752 107.438 125.687 107.93 125.194L106.87 124.134C106.21 124.793 105.443 126.032 105.081 126.859L106.455 127.461ZM107.449 123.916C104.557 123.728 102.287 123.19 100.556 122.335L99.8921 123.681C101.857 124.65 104.339 125.216 107.351 125.412L107.449 123.916ZM100.861 123.403C101.674 122.092 102.109 120.641 102.311 119.149L100.825 118.947C100.643 120.287 100.262 121.524 99.5866 122.613L100.861 123.403ZM101.568 119.798H106.512V118.298H101.568V119.798ZM128.376 109.376V110.126C128.79 110.126 129.126 109.79 129.126 109.376H128.376ZM127.104 109.376H126.354C126.354 109.79 126.69 110.126 127.104 110.126V109.376ZM127.104 108.272V107.522C126.69 107.522 126.354 107.858 126.354 108.272H127.104ZM128.376 108.272H129.126C129.126 107.858 128.79 107.522 128.376 107.522V108.272ZM128.376 112.232V112.982C128.79 112.982 129.126 112.646 129.126 112.232H128.376ZM127.104 112.232H126.354C126.354 112.646 126.69 112.982 127.104 112.982V112.232ZM127.104 111.104V110.354C126.69 110.354 126.354 110.69 126.354 111.104H127.104ZM128.376 111.104H129.126C129.126 110.69 128.79 110.354 128.376 110.354V111.104ZM121.272 111.104V110.354C120.858 110.354 120.522 110.69 120.522 111.104H121.272ZM122.496 111.104H123.246C123.246 110.69 122.91 110.354 122.496 110.354V111.104ZM122.496 112.232V112.982C122.91 112.982 123.246 112.646 123.246 112.232H122.496ZM121.272 112.232H120.522C120.522 112.646 120.858 112.982 121.272 112.982V112.232ZM121.272 108.272V107.522C120.858 107.522 120.522 107.858 120.522 108.272H121.272ZM122.496 108.272H123.246C123.246 107.858 122.91 107.522 122.496 107.522V108.272ZM122.496 109.376V110.126C122.91 110.126 123.246 109.79 123.246 109.376H122.496ZM121.272 109.376H120.522C120.522 109.79 120.858 110.126 121.272 110.126V109.376ZM125.376 111.104H126.126C126.126 110.69 125.79 110.354 125.376 110.354V111.104ZM125.376 112.232V112.982C125.79 112.982 126.126 112.646 126.126 112.232H125.376ZM124.224 112.232H123.474C123.474 112.646 123.81 112.982 124.224 112.982V112.232ZM124.224 111.104V110.354C123.81 110.354 123.474 110.69 123.474 111.104H124.224ZM124.224 109.376H123.474C123.474 109.79 123.81 110.126 124.224 110.126V109.376ZM124.224 108.272V107.522C123.81 107.522 123.474 107.858 123.474 108.272H124.224ZM125.376 108.272H126.126C126.126 107.858 125.79 107.522 125.376 107.522V108.272ZM125.376 109.376V110.126C125.79 110.126 126.126 109.79 126.126 109.376H125.376ZM130.584 106.4H131.334C131.334 105.986 130.998 105.65 130.584 105.65V106.4ZM127.488 106.4H126.738C126.738 106.814 127.074 107.15 127.488 107.15V106.4ZM127.488 104.696H128.238C128.238 104.282 127.902 103.946 127.488 103.946V104.696ZM125.256 104.696V103.946C124.842 103.946 124.506 104.282 124.506 104.696H125.256ZM125.256 106.4V107.15C125.67 107.15 126.006 106.814 126.006 106.4H125.256ZM124.2 106.4H123.45C123.45 106.814 123.786 107.15 124.2 107.15V106.4ZM124.2 104.696H124.95C124.95 104.282 124.614 103.946 124.2 103.946V104.696ZM121.992 104.696V103.946C121.578 103.946 121.242 104.282 121.242 104.696H121.992ZM121.992 106.4V107.15C122.406 107.15 122.742 106.814 122.742 106.4H121.992ZM119.16 106.4V105.65C118.746 105.65 118.41 105.986 118.41 106.4H119.16ZM119.16 114.104H118.41C118.41 114.518 118.746 114.854 119.16 114.854V114.104ZM130.584 114.104V114.854C130.998 114.854 131.334 114.518 131.334 114.104H130.584ZM131.04 114.92H131.79C131.79 114.506 131.454 114.17 131.04 114.17V114.92ZM118.8 114.92V114.17C118.386 114.17 118.05 114.506 118.05 114.92H118.8ZM118.8 116.96H118.05C118.05 117.374 118.386 117.71 118.8 117.71V116.96ZM131.04 116.96V117.71C131.454 117.71 131.79 117.374 131.79 116.96H131.04ZM112.488 118.976L112.941 118.378C112.714 118.206 112.41 118.178 112.154 118.304C111.899 118.431 111.738 118.691 111.738 118.976H112.488ZM114.336 120.56L113.806 121.09C113.951 121.235 114.149 121.315 114.354 121.31C114.559 121.305 114.753 121.216 114.891 121.065L114.336 120.56ZM115.296 119.504H116.046C116.046 119.194 115.855 118.916 115.566 118.804C115.277 118.693 114.949 118.77 114.741 118.999L115.296 119.504ZM115.296 120.56L115.625 121.234C115.883 121.108 116.046 120.846 116.046 120.56H115.296ZM112.416 121.904L111.667 121.859C111.652 122.116 111.77 122.364 111.98 122.514C112.19 122.664 112.463 122.696 112.702 122.598L112.416 121.904ZM112.128 107.432V106.682C111.714 106.682 111.378 107.018 111.378 107.432H112.128ZM115.392 107.432H116.142C116.142 107.018 115.806 106.682 115.392 106.682V107.432ZM115.392 108.416V109.166C115.806 109.166 116.142 108.83 116.142 108.416H115.392ZM113.064 108.416V107.666C112.65 107.666 112.314 108.002 112.314 108.416H113.064ZM113.064 112.256V113.006C113.478 113.006 113.814 112.67 113.814 112.256H113.064ZM112.128 112.256H111.378C111.378 112.67 111.714 113.006 112.128 113.006V112.256ZM114.504 112.256H113.754C113.754 112.67 114.09 113.006 114.504 113.006V112.256ZM114.504 110.024V109.274C114.09 109.274 113.754 109.61 113.754 110.024H114.504ZM115.392 110.024H116.142C116.142 109.61 115.806 109.274 115.392 109.274V110.024ZM115.392 112.256V113.006C115.806 113.006 116.142 112.67 116.142 112.256H115.392ZM116.568 115.136V115.886C116.982 115.886 117.318 115.55 117.318 115.136H116.568ZM111.072 115.136H110.322C110.322 115.55 110.658 115.886 111.072 115.886V115.136ZM111.072 114.176V113.426C110.658 113.426 110.322 113.762 110.322 114.176H111.072ZM116.568 114.176H117.318C117.318 113.762 116.982 113.426 116.568 113.426V114.176ZM112.488 116.984V116.234C112.074 116.234 111.738 116.57 111.738 116.984H112.488ZM115.296 116.984H116.046C116.046 116.57 115.71 116.234 115.296 116.234V116.984ZM115.296 118.976L114.806 119.544C115.028 119.735 115.341 119.78 115.608 119.658C115.875 119.536 116.046 119.269 116.046 118.976H115.296ZM113.304 117.536L113.715 116.909C113.418 116.714 113.025 116.754 112.774 117.006L113.304 117.536ZM112.488 118.352H111.738C111.738 118.655 111.921 118.929 112.201 119.045C112.481 119.161 112.804 119.097 113.018 118.882L112.488 118.352ZM118.728 115.952V116.702C119.142 116.702 119.478 116.366 119.478 115.952H118.728ZM118.728 112.256H119.478C119.478 111.842 119.142 111.506 118.728 111.506V112.256ZM117.72 112.256H116.97C116.97 112.67 117.306 113.006 117.72 113.006V112.256ZM117.72 105.416H118.47C118.47 105.002 118.134 104.666 117.72 104.666V105.416ZM109.92 105.416V104.666C109.506 104.666 109.17 105.002 109.17 105.416H109.92ZM109.92 112.256V113.006C110.334 113.006 110.67 112.67 110.67 112.256H109.92ZM108.984 112.256V111.506C108.57 111.506 108.234 111.842 108.234 112.256H108.984ZM108.984 115.976H108.234C108.234 116.39 108.57 116.726 108.984 116.726V115.976ZM110.184 115.976H110.934C110.934 115.562 110.598 115.226 110.184 115.226V115.976ZM108.912 125.792L108.284 125.382C108.164 125.565 108.131 125.791 108.192 126.001C108.253 126.211 108.403 126.384 108.602 126.475L108.912 125.792ZM110.904 127.16L110.374 127.69C110.532 127.849 110.753 127.928 110.976 127.907C111.199 127.885 111.401 127.765 111.526 127.579L110.904 127.16ZM112.344 122.552L113.024 122.236C112.883 121.932 112.557 121.758 112.225 121.811C111.894 121.864 111.638 122.131 111.599 122.464L112.344 122.552ZM112.968 123.896L112.288 124.212C112.377 124.404 112.544 124.55 112.746 124.612C112.949 124.675 113.169 124.649 113.351 124.541L112.968 123.896ZM115.296 122.408H116.046C116.046 122.131 115.894 121.877 115.65 121.747C115.406 121.616 115.11 121.631 114.88 121.784L115.296 122.408ZM113.376 124.88L113.403 124.13C113.138 124.121 112.888 124.252 112.745 124.474C112.602 124.697 112.587 124.979 112.705 125.215L113.376 124.88ZM114.024 126.968L113.279 127.057C113.325 127.434 113.644 127.718 114.024 127.718V126.968ZM116.808 126.584L116.454 125.923C116.447 125.927 116.44 125.93 116.433 125.934L116.808 126.584ZM117.648 115.952V115.202C117.234 115.202 116.898 115.538 116.898 115.952H117.648ZM126.552 122.432L127.273 122.638C127.338 122.412 127.292 122.168 127.151 121.98C127.009 121.792 126.787 121.682 126.552 121.682V122.432ZM125.76 124.64V125.39C126.067 125.39 126.342 125.203 126.456 124.919L125.76 124.64ZM123.816 124.64L123.102 124.87C123.202 125.18 123.49 125.39 123.816 125.39V124.64ZM123 122.432V121.682C122.751 121.682 122.518 121.805 122.379 122.012C122.239 122.218 122.211 122.479 122.304 122.711L123 122.432ZM122.208 119.48V118.73C121.794 118.73 121.458 119.066 121.458 119.48H122.208ZM127.416 119.48H128.166C128.166 119.066 127.83 118.73 127.416 118.73V119.48ZM127.416 120.728V121.478C127.83 121.478 128.166 121.142 128.166 120.728H127.416ZM122.208 120.728H121.458C121.458 121.142 121.794 121.478 122.208 121.478V120.728ZM128.112 124.64L127.479 124.237C127.332 124.468 127.323 124.761 127.455 125.001C127.586 125.241 127.838 125.39 128.112 125.39V124.64ZM129.168 122.936L129.8 123.34C129.928 123.139 129.954 122.889 129.868 122.666C129.782 122.444 129.596 122.275 129.365 122.212L129.168 122.936ZM127.32 122.432V121.682C126.944 121.682 126.627 121.96 126.577 122.332C126.527 122.705 126.76 123.057 127.123 123.156L127.32 122.432ZM130.056 122.432V123.182C130.47 123.182 130.806 122.846 130.806 122.432H130.056ZM130.056 117.752H130.806C130.806 117.338 130.47 117.002 130.056 117.002V117.752ZM119.712 117.752V117.002C119.298 117.002 118.962 117.338 118.962 117.752H119.712ZM119.712 122.432H118.962C118.962 122.846 119.298 123.182 119.712 123.182V122.432ZM122.256 122.432L122.473 123.15C122.829 123.043 123.052 122.691 122.998 122.323C122.944 121.955 122.628 121.682 122.256 121.682V122.432ZM120.744 122.888L120.527 122.17C120.325 122.231 120.158 122.375 120.067 122.565C119.976 122.756 119.97 122.976 120.05 123.172L120.744 122.888ZM121.392 124.64V125.39C121.631 125.39 121.857 125.276 121.998 125.082C122.139 124.889 122.179 124.64 122.106 124.411L121.392 124.64ZM118.56 124.64V123.89C118.146 123.89 117.81 124.226 117.81 124.64H118.56ZM118.56 126.704H117.81C117.81 127.118 118.146 127.454 118.56 127.454V126.704ZM131.232 126.704V127.454C131.646 127.454 131.982 127.118 131.982 126.704H131.232ZM131.232 124.64H131.982C131.982 124.226 131.646 123.89 131.232 123.89V124.64ZM128.376 108.626H127.104V110.126H128.376V108.626ZM127.854 109.376V108.272H126.354V109.376H127.854ZM127.104 109.022H128.376V107.522H127.104V109.022ZM127.626 108.272V109.376H129.126V108.272H127.626ZM128.376 111.482H127.104V112.982H128.376V111.482ZM127.854 112.232V111.104H126.354V112.232H127.854ZM127.104 111.854H128.376V110.354H127.104V111.854ZM127.626 111.104V112.232H129.126V111.104H127.626ZM121.272 111.854H122.496V110.354H121.272V111.854ZM121.746 111.104V112.232H123.246V111.104H121.746ZM122.496 111.482H121.272V112.982H122.496V111.482ZM122.022 112.232V111.104H120.522V112.232H122.022ZM121.272 109.022H122.496V107.522H121.272V109.022ZM121.746 108.272V109.376H123.246V108.272H121.746ZM122.496 108.626H121.272V110.126H122.496V108.626ZM122.022 109.376V108.272H120.522V109.376H122.022ZM124.626 111.104V112.232H126.126V111.104H124.626ZM125.376 111.482H124.224V112.982H125.376V111.482ZM124.974 112.232V111.104H123.474V112.232H124.974ZM124.224 111.854H125.376V110.354H124.224V111.854ZM124.974 109.376V108.272H123.474V109.376H124.974ZM124.224 109.022H125.376V107.522H124.224V109.022ZM124.626 108.272V109.376H126.126V108.272H124.626ZM125.376 108.626H124.224V110.126H125.376V108.626ZM130.584 105.65H127.488V107.15H130.584V105.65ZM128.238 106.4V104.696H126.738V106.4H128.238ZM127.488 103.946H125.256V105.446H127.488V103.946ZM124.506 104.696V106.4H126.006V104.696H124.506ZM125.256 105.65H124.2V107.15H125.256V105.65ZM124.95 106.4V104.696H123.45V106.4H124.95ZM124.2 103.946H121.992V105.446H124.2V103.946ZM121.242 104.696V106.4H122.742V104.696H121.242ZM121.992 105.65H119.16V107.15H121.992V105.65ZM118.41 106.4V114.104H119.91V106.4H118.41ZM119.16 114.854H130.584V113.354H119.16V114.854ZM131.334 114.104V106.4H129.834V114.104H131.334ZM131.04 114.17H118.8V115.67H131.04V114.17ZM118.05 114.92V116.96H119.55V114.92H118.05ZM118.8 117.71H131.04V116.21H118.8V117.71ZM131.79 116.96V114.92H130.29V116.96H131.79ZM112.035 119.574C112.709 120.085 113.426 120.711 113.806 121.09L114.866 120.03C114.43 119.593 113.659 118.923 112.941 118.378L112.035 119.574ZM114.891 121.065L115.851 120.009L114.741 118.999L113.781 120.055L114.891 121.065ZM114.546 119.504V120.56H116.046V119.504H114.546ZM114.967 119.886C113.88 120.418 112.919 120.886 112.13 121.21L112.702 122.598C113.545 122.25 114.552 121.758 115.625 121.234L114.967 119.886ZM113.165 121.949C113.213 121.145 113.238 120.41 113.238 119.696H111.738C111.738 120.374 111.715 121.079 111.667 121.859L113.165 121.949ZM113.238 119.696V118.976H111.738V119.696H113.238ZM112.128 108.182H115.392V106.682H112.128V108.182ZM114.642 107.432V108.416H116.142V107.432H114.642ZM115.392 107.666H113.064V109.166H115.392V107.666ZM112.314 108.416V112.256H113.814V108.416H112.314ZM113.064 111.506H112.128V113.006H113.064V111.506ZM112.878 112.256V107.432H111.378V112.256H112.878ZM115.254 112.256V110.024H113.754V112.256H115.254ZM114.504 110.774H115.392V109.274H114.504V110.774ZM114.642 110.024V112.256H116.142V110.024H114.642ZM115.392 111.506H114.504V113.006H115.392V111.506ZM116.568 114.386H111.072V115.886H116.568V114.386ZM111.822 115.136V114.176H110.322V115.136H111.822ZM111.072 114.926H116.568V113.426H111.072V114.926ZM115.818 114.176V115.136H117.318V114.176H115.818ZM112.488 117.734H115.296V116.234H112.488V117.734ZM114.546 116.984V118.976H116.046V116.984H114.546ZM115.786 118.408C115.217 117.917 114.412 117.365 113.715 116.909L112.893 118.163C113.588 118.619 114.319 119.123 114.806 119.544L115.786 118.408ZM112.774 117.006L111.958 117.822L113.018 118.882L113.834 118.066L112.774 117.006ZM113.238 118.352V116.984H111.738V118.352H113.238ZM119.478 115.952V112.256H117.978V115.952H119.478ZM118.728 111.506H117.72V113.006H118.728V111.506ZM118.47 112.256V105.416H116.97V112.256H118.47ZM117.72 104.666H109.92V106.166H117.72V104.666ZM109.17 105.416V112.256H110.67V105.416H109.17ZM109.92 111.506H108.984V113.006H109.92V111.506ZM108.234 112.256V115.976H109.734V112.256H108.234ZM108.984 116.726H110.184V115.226H108.984V116.726ZM109.434 115.976V119.648H110.934V115.976H109.434ZM109.434 119.648C109.434 121.565 109.322 123.793 108.284 125.382L109.54 126.202C110.854 124.191 110.934 121.523 110.934 119.648H109.434ZM108.602 126.475C108.806 126.568 109.159 126.778 109.529 127.032C109.901 127.286 110.22 127.537 110.374 127.69L111.434 126.63C111.18 126.375 110.767 126.062 110.377 125.794C109.985 125.526 109.546 125.256 109.222 125.109L108.602 126.475ZM111.526 127.579C112.468 126.18 112.893 124.307 113.089 122.64L111.599 122.464C111.411 124.061 111.02 125.644 110.282 126.741L111.526 127.579ZM111.664 122.868L112.288 124.212L113.648 123.58L113.024 122.236L111.664 122.868ZM113.351 124.541C114.137 124.074 114.919 123.561 115.712 123.032L114.88 121.784C114.089 122.311 113.335 122.806 112.585 123.251L113.351 124.541ZM114.546 122.408V124.592H116.046V122.408H114.546ZM114.546 124.592C114.546 124.653 114.528 124.481 114.684 124.315C114.85 124.139 115.034 124.154 114.984 124.154V125.654C115.174 125.654 115.514 125.621 115.776 125.343C116.028 125.075 116.046 124.747 116.046 124.592H114.546ZM114.984 124.154C114.768 124.154 114.06 124.154 113.403 124.13L113.349 125.63C114.036 125.654 114.768 125.654 114.984 125.654V124.154ZM112.705 125.215C112.96 125.724 113.219 126.554 113.279 127.057L114.769 126.879C114.685 126.182 114.368 125.188 114.047 124.545L112.705 125.215ZM114.024 127.718C114.655 127.718 115.235 127.713 115.742 127.656C116.251 127.6 116.744 127.487 117.183 127.234L116.433 125.934C116.248 126.041 115.985 126.12 115.576 126.166C115.165 126.211 114.665 126.218 114.024 126.218V127.718ZM117.162 127.245C117.643 126.987 117.981 126.623 118.177 126.128C118.357 125.674 118.398 125.154 118.398 124.616H116.898C116.898 125.11 116.855 125.394 116.783 125.576C116.727 125.717 116.645 125.821 116.454 125.923L117.162 127.245ZM118.398 124.616V115.952H116.898V124.616H118.398ZM117.648 116.702H118.728V115.202H117.648V116.702ZM125.831 122.226C125.65 122.858 125.351 123.642 125.064 124.361L126.456 124.919C126.745 124.198 127.07 123.35 127.273 122.638L125.831 122.226ZM125.76 123.89H123.816V125.39H125.76V123.89ZM124.53 124.41C124.306 123.713 123.986 122.877 123.696 122.153L122.304 122.711C122.59 123.427 122.894 124.223 123.102 124.87L124.53 124.41ZM123 123.182H126.552V121.682H123V123.182ZM122.208 120.23H127.416V118.73H122.208V120.23ZM126.666 119.48V120.728H128.166V119.48H126.666ZM127.416 119.978H122.208V121.478H127.416V119.978ZM122.958 120.728V119.48H121.458V120.728H122.958ZM128.745 125.043C128.917 124.771 129.089 124.489 129.262 124.206C129.436 123.921 129.612 123.633 129.8 123.34L128.536 122.532C128.34 122.839 128.156 123.139 127.982 123.424C127.807 123.711 127.643 123.981 127.479 124.237L128.745 125.043ZM129.365 122.212L127.517 121.708L127.123 123.156L128.971 123.66L129.365 122.212ZM127.32 123.182H130.056V121.682H127.32V123.182ZM130.806 122.432V117.752H129.306V122.432H130.806ZM130.056 117.002H119.712V118.502H130.056V117.002ZM118.962 117.752V122.432H120.462V117.752H118.962ZM119.712 123.182H122.256V121.682H119.712V123.182ZM122.039 121.714L120.527 122.17L120.961 123.606L122.473 123.15L122.039 121.714ZM120.05 123.172C120.262 123.691 120.494 124.295 120.678 124.869L122.106 124.411C121.906 123.785 121.658 123.141 121.438 122.604L120.05 123.172ZM121.392 123.89H118.56V125.39H121.392V123.89ZM117.81 124.64V126.704H119.31V124.64H117.81ZM118.56 127.454H131.232V125.954H118.56V127.454ZM131.982 126.704V124.64H130.482V126.704H131.982ZM131.232 123.89H128.112V125.39H131.232V123.89ZM151.104 112.616H151.854C151.854 112.202 151.518 111.866 151.104 111.866V112.616ZM151.104 114.728V115.478C151.518 115.478 151.854 115.142 151.854 114.728H151.104ZM148.416 114.728H147.666C147.666 115.142 148.002 115.478 148.416 115.478V114.728ZM148.416 112.616V111.866C148.002 111.866 147.666 112.202 147.666 112.616H148.416ZM143.016 112.616V111.866C142.602 111.866 142.266 112.202 142.266 112.616H143.016ZM145.632 112.616H146.382C146.382 112.202 146.046 111.866 145.632 111.866V112.616ZM145.632 114.728V115.478C146.046 115.478 146.382 115.142 146.382 114.728H145.632ZM143.016 114.728H142.266C142.266 115.142 142.602 115.478 143.016 115.478V114.728ZM145.632 110.432V111.182C146.046 111.182 146.382 110.846 146.382 110.432H145.632ZM140.376 110.432V109.682C139.962 109.682 139.626 110.018 139.626 110.432H140.376ZM140.376 116.888H139.626C139.626 117.302 139.962 117.638 140.376 117.638V116.888ZM144.384 116.888L144.969 117.358C145.149 117.133 145.185 116.824 145.06 116.564C144.936 116.304 144.673 116.138 144.384 116.138V116.888ZM139.128 120.704L138.855 120.005C138.611 120.101 138.434 120.316 138.389 120.575C138.344 120.833 138.437 121.096 138.634 121.268L139.128 120.704ZM140.928 122.864L140.283 123.246C140.482 123.582 140.905 123.709 141.256 123.539L140.928 122.864ZM145.632 118.928H146.382C146.382 118.61 146.182 118.327 145.882 118.221C145.583 118.115 145.249 118.209 145.049 118.456L145.632 118.928ZM145.632 123.248H144.882C144.882 123.662 145.218 123.998 145.632 123.998V123.248ZM148.416 123.248V123.998C148.83 123.998 149.166 123.662 149.166 123.248H148.416ZM148.416 119.048L148.828 118.421C148.598 118.27 148.303 118.257 148.06 118.388C147.817 118.519 147.666 118.772 147.666 119.048H148.416ZM152.88 122.504L152.33 123.014C152.474 123.169 152.675 123.256 152.886 123.254C153.096 123.252 153.296 123.162 153.437 123.006L152.88 122.504ZM154.632 120.56L155.189 121.062C155.465 120.756 155.442 120.286 155.139 120.008L154.632 120.56ZM149.4 116.888V116.138C149.062 116.138 148.766 116.364 148.677 116.69C148.587 117.016 148.727 117.361 149.018 117.533L149.4 116.888ZM153.888 116.888V117.638C154.302 117.638 154.638 117.302 154.638 116.888H153.888ZM153.888 110.432H154.638C154.638 110.018 154.302 109.682 153.888 109.682V110.432ZM148.416 110.432H147.666C147.666 110.846 148.002 111.182 148.416 111.182V110.432ZM148.416 109.136V108.386C148.002 108.386 147.666 108.722 147.666 109.136H148.416ZM154.68 109.136V109.886C155.094 109.886 155.43 109.55 155.43 109.136H154.68ZM154.68 106.76H155.43C155.43 106.346 155.094 106.01 154.68 106.01V106.76ZM148.416 106.76H147.666C147.666 107.174 148.002 107.51 148.416 107.51V106.76ZM148.416 104.72H149.166C149.166 104.306 148.83 103.97 148.416 103.97V104.72ZM145.632 104.72V103.97C145.218 103.97 144.882 104.306 144.882 104.72H145.632ZM145.632 106.76V107.51C146.046 107.51 146.382 107.174 146.382 106.76H145.632ZM139.704 106.76V106.01C139.29 106.01 138.954 106.346 138.954 106.76H139.704ZM139.704 109.136H138.954C138.954 109.55 139.29 109.886 139.704 109.886V109.136ZM145.632 109.136H146.382C146.382 108.722 146.046 108.386 145.632 108.386V109.136ZM138.264 108.512L138.563 109.2C138.746 109.12 138.89 108.971 138.963 108.785C139.035 108.599 139.031 108.392 138.95 108.209L138.264 108.512ZM136.416 104.552L137.101 104.247C136.941 103.886 136.527 103.712 136.156 103.848L136.416 104.552ZM133.944 105.464L133.684 104.76C133.494 104.831 133.34 104.975 133.258 105.161C133.176 105.347 133.173 105.559 133.249 105.747L133.944 105.464ZM135.72 109.616L135.017 109.876C135.088 110.069 135.236 110.225 135.425 110.306C135.615 110.387 135.829 110.386 136.019 110.304L135.72 109.616ZM138.144 115.472L138.435 114.781C138.304 114.726 138.16 114.709 138.021 114.732L138.144 115.472ZM137.712 115.544V116.294C137.753 116.294 137.795 116.291 137.835 116.284L137.712 115.544ZM137.064 115.544L136.366 115.271C136.275 115.502 136.305 115.762 136.445 115.967C136.584 116.172 136.816 116.294 137.064 116.294V115.544ZM138.984 110.264L139.695 110.504C139.772 110.275 139.734 110.023 139.593 109.827C139.452 109.63 139.226 109.514 138.984 109.514V110.264ZM132.96 110.264V109.514C132.546 109.514 132.21 109.85 132.21 110.264H132.96ZM132.96 112.808H132.21C132.21 113.222 132.546 113.558 132.96 113.558V112.808ZM135.36 112.808L136.069 113.053C136.148 112.824 136.112 112.571 135.971 112.373C135.83 112.175 135.603 112.058 135.36 112.058V112.808ZM133.392 118.016L132.706 117.714C132.603 117.945 132.625 118.213 132.764 118.426C132.902 118.638 133.139 118.766 133.392 118.766V118.016ZM136.752 118.016L137.474 118.219C137.538 117.993 137.492 117.75 137.35 117.563C137.208 117.376 136.987 117.266 136.752 117.266V118.016ZM134.736 122.336L135.128 122.975C135.21 122.925 135.282 122.86 135.339 122.782L134.736 122.336ZM132.456 124.352L131.888 123.863C131.665 124.121 131.645 124.496 131.838 124.777L132.456 124.352ZM134.352 127.112L133.734 127.537C133.885 127.757 134.143 127.88 134.409 127.86C134.676 127.839 134.912 127.678 135.028 127.437L134.352 127.112ZM138.768 125.504L139.128 124.846L139.116 124.84L138.768 125.504ZM154.728 126.44L154.783 127.188C155.158 127.161 155.455 126.86 155.477 126.484L154.728 126.44ZM155.568 123.416L156.258 123.709C156.365 123.459 156.327 123.171 156.161 122.956C155.994 122.742 155.725 122.634 155.456 122.674L155.568 123.416ZM139.152 122.984L139.521 122.331L139.152 122.984ZM137.808 122.192L137.148 121.835C136.957 122.188 137.078 122.629 137.422 122.835L137.808 122.192ZM139.8 116.168L140.538 116.301C140.6 115.955 140.414 115.613 140.091 115.477L139.8 116.168ZM150.354 112.616V114.728H151.854V112.616H150.354ZM151.104 113.978H148.416V115.478H151.104V113.978ZM149.166 114.728V112.616H147.666V114.728H149.166ZM148.416 113.366H151.104V111.866H148.416V113.366ZM143.016 113.366H145.632V111.866H143.016V113.366ZM144.882 112.616V114.728H146.382V112.616H144.882ZM145.632 113.978H143.016V115.478H145.632V113.978ZM143.766 114.728V112.616H142.266V114.728H143.766ZM145.632 109.682H140.376V111.182H145.632V109.682ZM139.626 110.432V116.888H141.126V110.432H139.626ZM140.376 117.638H144.384V116.138H140.376V117.638ZM143.799 116.418C142.613 117.896 140.706 119.283 138.855 120.005L139.401 121.403C141.486 120.589 143.611 119.048 144.969 117.358L143.799 116.418ZM138.634 121.268C139.151 121.721 139.94 122.668 140.283 123.246L141.573 122.482C141.148 121.764 140.257 120.695 139.622 120.14L138.634 121.268ZM141.256 123.539C143.11 122.637 144.848 121.09 146.215 119.4L145.049 118.456C143.776 120.03 142.202 121.411 140.6 122.189L141.256 123.539ZM144.882 118.928V123.248H146.382V118.928H144.882ZM145.632 123.998H148.416V122.498H145.632V123.998ZM149.166 123.248V119.048H147.666V123.248H149.166ZM148.004 119.675C149.758 120.828 151.463 122.08 152.33 123.014L153.43 121.994C152.425 120.912 150.578 119.572 148.828 118.421L148.004 119.675ZM153.437 123.006L155.189 121.062L154.075 120.058L152.323 122.002L153.437 123.006ZM155.139 120.008C153.906 118.875 151.741 117.403 149.782 116.243L149.018 117.533C150.947 118.677 153.006 120.085 154.125 121.112L155.139 120.008ZM149.4 117.638H153.888V116.138H149.4V117.638ZM154.638 116.888V110.432H153.138V116.888H154.638ZM153.888 109.682H148.416V111.182H153.888V109.682ZM149.166 110.432V109.136H147.666V110.432H149.166ZM148.416 109.886H154.68V108.386H148.416V109.886ZM155.43 109.136V106.76H153.93V109.136H155.43ZM154.68 106.01H148.416V107.51H154.68V106.01ZM149.166 106.76V104.72H147.666V106.76H149.166ZM148.416 103.97H145.632V105.47H148.416V103.97ZM144.882 104.72V106.76H146.382V104.72H144.882ZM145.632 106.01H139.704V107.51H145.632V106.01ZM138.954 106.76V109.136H140.454V106.76H138.954ZM139.704 109.886H145.632V108.386H139.704V109.886ZM144.882 109.136V110.432H146.382V109.136H144.882ZM138.95 108.209C138.717 107.681 138.393 107.003 138.062 106.308C137.728 105.608 137.385 104.885 137.101 104.247L135.731 104.857C136.023 105.515 136.376 106.256 136.708 106.954C137.043 107.657 137.355 108.311 137.578 108.815L138.95 108.209ZM136.156 103.848L133.684 104.76L134.204 106.168L136.676 105.256L136.156 103.848ZM133.249 105.747C133.519 106.408 133.867 107.185 134.191 107.916C134.52 108.658 134.822 109.35 135.017 109.876L136.424 109.356C136.21 108.778 135.888 108.042 135.563 107.308C135.233 106.563 134.897 105.816 134.639 105.181L133.249 105.747ZM136.019 110.304L138.563 109.2L137.965 107.824L135.421 108.928L136.019 110.304ZM138.021 114.732L137.589 114.804L137.835 116.284L138.267 116.212L138.021 114.732ZM137.712 114.794H137.064V116.294H137.712V114.794ZM137.762 115.817C138.415 114.149 139.115 112.218 139.695 110.504L138.274 110.024C137.701 111.718 137.009 113.627 136.366 115.271L137.762 115.817ZM138.984 109.514H132.96V111.014H138.984V109.514ZM132.21 110.264V112.808H133.71V110.264H132.21ZM132.96 113.558H135.36V112.058H132.96V113.558ZM134.651 112.563C134.003 114.434 133.316 116.328 132.706 117.714L134.078 118.318C134.716 116.872 135.421 114.926 136.069 113.053L134.651 112.563ZM133.392 118.766H136.752V117.266H133.392V118.766ZM136.03 117.813C135.615 119.288 134.953 120.782 134.133 121.89L135.339 122.782C136.295 121.49 137.025 119.816 137.474 118.219L136.03 117.813ZM134.344 121.697C133.519 122.202 132.67 122.955 131.888 123.863L133.024 124.841C133.73 124.021 134.465 123.382 135.128 122.975L134.344 121.697ZM131.838 124.777L133.734 127.537L134.97 126.687L133.074 123.927L131.838 124.777ZM135.028 127.437C135.332 126.806 135.698 126.128 136.043 125.619C136.218 125.362 136.37 125.175 136.489 125.06C136.645 124.909 136.618 125.006 136.44 125.006V123.506C135.986 123.506 135.638 123.798 135.448 123.98C135.222 124.198 135.003 124.482 134.803 124.777C134.398 125.372 133.996 126.122 133.676 126.787L135.028 127.437ZM136.44 125.006C136.393 125.006 136.414 124.994 136.547 125.056C136.666 125.112 136.816 125.199 137.01 125.319C137.374 125.545 137.883 125.887 138.42 126.168L139.116 124.84C138.645 124.593 138.23 124.311 137.802 124.045C137.6 123.919 137.387 123.793 137.182 123.697C136.991 123.608 136.727 123.506 136.44 123.506V125.006ZM138.408 126.162C140.335 127.218 142.538 127.478 145.704 127.478V125.978C142.582 125.978 140.705 125.71 139.128 124.846L138.408 126.162ZM145.704 127.478C148.526 127.478 152.793 127.334 154.783 127.188L154.673 125.692C152.727 125.834 148.498 125.978 145.704 125.978V127.478ZM155.477 126.484C155.496 126.163 155.602 125.671 155.76 125.129C155.915 124.599 156.103 124.075 156.258 123.709L154.878 123.123C154.697 123.549 154.489 124.129 154.32 124.709C154.154 125.277 154.008 125.901 153.979 126.396L155.477 126.484ZM155.456 122.674C152.792 123.075 148.487 123.314 145.824 123.314V124.814C148.537 124.814 152.92 124.573 155.68 124.158L155.456 122.674ZM145.824 123.314C143.063 123.314 140.981 123.156 139.521 122.331L138.783 123.637C140.635 124.684 143.113 124.814 145.824 124.814V123.314ZM139.521 122.331C138.98 122.025 138.559 121.768 138.194 121.549L137.422 122.835C137.777 123.048 138.22 123.319 138.783 123.637L139.521 122.331ZM138.468 122.549C139.476 120.684 140.145 118.491 140.538 116.301L139.062 116.035C138.688 118.117 138.06 120.148 137.148 121.835L138.468 122.549ZM140.091 115.477L138.435 114.781L137.853 116.163L139.509 116.859L140.091 115.477ZM170.808 107.648L171.303 108.212C171.466 108.068 171.559 107.861 171.558 107.644C171.557 107.426 171.461 107.22 171.296 107.079L170.808 107.648ZM169.56 106.688L169.06 106.129C168.889 106.282 168.798 106.504 168.811 106.733C168.825 106.961 168.942 107.171 169.13 107.302L169.56 106.688ZM170.76 105.368L171.364 105.813C171.509 105.616 171.549 105.361 171.471 105.129C171.393 104.897 171.207 104.718 170.972 104.649L170.76 105.368ZM168.888 104.816L169.1 104.097C168.794 104.006 168.463 104.12 168.278 104.38L168.888 104.816ZM168.024 105.776L167.652 106.427C167.946 106.595 168.315 106.545 168.554 106.306L168.024 105.776ZM166.56 105.008L166.881 104.33C166.612 104.203 166.293 104.246 166.068 104.442L166.56 105.008ZM165.288 106.112L164.796 105.546C164.607 105.71 164.513 105.957 164.544 106.206C164.575 106.454 164.729 106.671 164.953 106.783L165.288 106.112ZM166.584 106.832L166.982 107.468C167.205 107.329 167.338 107.082 167.334 106.819C167.329 106.556 167.187 106.315 166.96 106.183L166.584 106.832ZM164.76 107.768L164.491 107.068C164.231 107.168 164.047 107.404 164.015 107.681C163.983 107.958 164.106 108.23 164.336 108.387L164.76 107.768ZM166.248 109.04L165.718 109.57C165.943 109.796 166.286 109.854 166.573 109.716L166.248 109.04ZM168.192 107.84L168.642 107.24C168.377 107.041 168.012 107.04 167.746 107.237L168.192 107.84ZM169.44 108.848L168.91 109.378C169.189 109.658 169.637 109.672 169.935 109.412L169.44 108.848ZM161.952 112.424V111.674C161.746 111.674 161.548 111.759 161.407 111.909C161.265 112.059 161.191 112.261 161.203 112.467L161.952 112.424ZM164.808 112.424V113.174C165.222 113.174 165.558 112.838 165.558 112.424H164.808ZM164.808 112.16L165.32 111.612C165.101 111.408 164.783 111.353 164.509 111.472C164.235 111.591 164.058 111.861 164.058 112.16H164.808ZM165.888 113.264V114.014C166.18 114.014 166.446 113.844 166.568 113.58C166.691 113.315 166.649 113.002 166.461 112.78L165.888 113.264ZM162 113.264L161.251 113.307C161.274 113.704 161.602 114.014 162 114.014V113.264ZM160.272 115.328V114.578C159.858 114.578 159.522 114.914 159.522 115.328H160.272ZM175.68 115.328H176.43C176.43 114.914 176.094 114.578 175.68 114.578V115.328ZM175.68 118.184H174.93C174.93 118.598 175.266 118.934 175.68 118.934V118.184ZM178.512 118.184V118.934C178.926 118.934 179.262 118.598 179.262 118.184H178.512ZM178.512 113.264H179.262C179.262 112.85 178.926 112.514 178.512 112.514V113.264ZM176.736 113.264L175.989 113.192C175.969 113.402 176.039 113.612 176.181 113.768C176.323 113.925 176.525 114.014 176.736 114.014V113.264ZM177.24 105.464L177.989 105.5C177.999 105.295 177.924 105.095 177.783 104.946C177.641 104.798 177.445 104.714 177.24 104.714V105.464ZM171.216 105.464V104.714C170.802 104.714 170.466 105.05 170.466 105.464H171.216ZM171.216 107.264H170.466C170.466 107.678 170.802 108.014 171.216 108.014V107.264ZM174.456 107.264L175.205 107.309C175.217 107.103 175.144 106.901 175.002 106.75C174.86 106.599 174.663 106.514 174.456 106.514V107.264ZM174.408 108.056V108.806C174.805 108.806 175.133 108.497 175.157 108.101L174.408 108.056ZM171.36 108.056V107.306C170.946 107.306 170.61 107.642 170.61 108.056H171.36ZM171.36 109.832H170.61C170.61 110.246 170.946 110.582 171.36 110.582V109.832ZM174.288 109.832L175.037 109.876C175.049 109.67 174.975 109.468 174.834 109.317C174.692 109.167 174.495 109.082 174.288 109.082V109.832ZM174.24 110.648V111.398C174.637 111.398 174.965 111.088 174.989 110.692L174.24 110.648ZM171.24 110.648V109.898C170.826 109.898 170.49 110.234 170.49 110.648H171.24ZM171.24 112.424H170.49C170.49 112.838 170.826 113.174 171.24 113.174V112.424ZM174.072 112.424L174.817 112.509C174.841 112.297 174.774 112.084 174.632 111.925C174.489 111.765 174.286 111.674 174.072 111.674V112.424ZM173.976 113.264V114.014C174.357 114.014 174.678 113.728 174.721 113.349L173.976 113.264ZM166.2 113.264L165.836 112.608C165.537 112.774 165.388 113.121 165.474 113.452C165.56 113.783 165.858 114.014 166.2 114.014V113.264ZM168.144 112.016L168.606 111.425C168.341 111.217 167.969 111.213 167.698 111.413L168.144 112.016ZM169.536 113.192L169.006 113.722C169.286 114.002 169.735 114.016 170.032 113.755L169.536 113.192ZM170.952 111.944L171.448 112.507C171.603 112.37 171.695 112.175 171.702 111.968C171.708 111.761 171.629 111.56 171.482 111.414L170.952 111.944ZM169.512 110.84L168.995 110.296C168.83 110.453 168.745 110.677 168.765 110.904C168.784 111.132 168.906 111.338 169.096 111.464L169.512 110.84ZM170.784 109.4L171.394 109.836C171.535 109.638 171.572 109.385 171.493 109.156C171.414 108.926 171.229 108.749 170.996 108.681L170.784 109.4ZM168.912 108.848L169.124 108.129C168.83 108.042 168.512 108.143 168.322 108.385L168.912 108.848ZM167.952 109.856L167.58 110.507C167.865 110.67 168.223 110.629 168.464 110.404L167.952 109.856ZM166.464 109.04L166.799 108.369C166.53 108.234 166.206 108.274 165.977 108.47L166.464 109.04ZM165.144 110.168L164.657 109.598C164.47 109.757 164.373 109.998 164.398 110.243C164.422 110.487 164.565 110.704 164.78 110.824L165.144 110.168ZM166.488 110.96L166.891 111.593C167.107 111.455 167.238 111.216 167.238 110.959C167.238 110.702 167.106 110.463 166.889 110.326L166.488 110.96ZM164.808 111.872H164.058C164.058 112.132 164.193 112.373 164.414 112.51C164.635 112.647 164.911 112.659 165.143 112.543L164.808 111.872ZM164.808 110.648H165.558C165.558 110.234 165.222 109.898 164.808 109.898V110.648ZM161.856 110.648L161.107 110.692C161.131 111.088 161.459 111.398 161.856 111.398V110.648ZM161.808 109.832V109.082C161.601 109.082 161.404 109.167 161.262 109.317C161.121 109.468 161.047 109.67 161.059 109.876L161.808 109.832ZM164.76 109.832V110.582C165.174 110.582 165.51 110.246 165.51 109.832H164.76ZM164.76 108.056H165.51C165.51 107.642 165.174 107.306 164.76 107.306V108.056ZM161.712 108.056L160.964 108.108C160.991 108.501 161.318 108.806 161.712 108.806V108.056ZM161.664 107.36L161.508 106.626C161.143 106.704 160.89 107.039 160.916 107.412L161.664 107.36ZM164.928 106.448L165.197 107.148C165.412 107.065 165.577 106.888 165.645 106.668C165.713 106.448 165.675 106.209 165.544 106.02L164.928 106.448ZM163.776 104.792L164.392 104.364C164.198 104.085 163.842 103.972 163.523 104.086L163.776 104.792ZM158.928 106.136L158.805 105.396C158.426 105.459 158.156 105.798 158.179 106.181L158.928 106.136ZM159.36 113.264V114.014C159.567 114.014 159.764 113.929 159.906 113.778C160.048 113.627 160.121 113.425 160.109 113.219L159.36 113.264ZM157.56 113.264V112.514C157.146 112.514 156.81 112.85 156.81 113.264H157.56ZM157.56 118.184H156.81C156.81 118.598 157.146 118.934 157.56 118.934V118.184ZM160.272 118.184V118.934C160.686 118.934 161.022 118.598 161.022 118.184H160.272ZM178.824 120.44H179.574C179.574 120.026 179.238 119.69 178.824 119.69V120.44ZM169.848 120.44L169.513 119.769C169.201 119.925 169.038 120.274 169.118 120.612C169.198 120.951 169.5 121.19 169.848 121.19V120.44ZM174.432 117.68L174.873 118.287C175.055 118.154 175.169 117.946 175.181 117.721C175.193 117.496 175.104 117.277 174.937 117.125L174.432 117.68ZM172.824 116.216L173.329 115.661C173.145 115.494 172.891 115.429 172.649 115.487L172.824 116.216ZM172.224 116.36V117.11C172.283 117.11 172.342 117.103 172.399 117.089L172.224 116.36ZM161.784 116.36V115.61C161.37 115.61 161.034 115.946 161.034 116.36H161.784ZM161.784 118.352H161.034C161.034 118.766 161.37 119.102 161.784 119.102V118.352ZM169.488 118.352L169.879 118.992C170.166 118.817 170.301 118.472 170.21 118.149C170.119 117.825 169.824 117.602 169.488 117.602V118.352ZM166.848 119.744L166.576 119.045C166.288 119.157 166.098 119.435 166.098 119.744H166.848ZM166.848 120.44V121.19C167.262 121.19 167.598 120.854 167.598 120.44H166.848ZM157.128 120.44V119.69C156.714 119.69 156.378 120.026 156.378 120.44H157.128ZM157.128 122.696H156.378C156.378 123.11 156.714 123.446 157.128 123.446V122.696ZM166.848 122.696H167.598C167.598 122.282 167.262 121.946 166.848 121.946V122.696ZM166.344 124.688V123.938C166.327 123.938 166.311 123.939 166.294 123.94L166.344 124.688ZM163.416 124.664L163.448 123.915C163.183 123.903 162.931 124.033 162.787 124.256C162.642 124.479 162.626 124.762 162.745 124.999L163.416 124.664ZM164.28 127.064L163.539 127.18C163.596 127.545 163.91 127.814 164.28 127.814V127.064ZM168.384 126.704L168.626 127.414C168.637 127.41 168.647 127.407 168.657 127.403L168.384 126.704ZM169.656 122.696V121.946C169.242 121.946 168.906 122.282 168.906 122.696H169.656ZM178.824 122.696V123.446C179.238 123.446 179.574 123.11 179.574 122.696H178.824ZM171.296 107.079C170.94 106.773 170.488 106.422 169.99 106.074L169.13 107.302C169.592 107.626 170.004 107.947 170.32 108.217L171.296 107.079ZM170.06 107.247C170.556 106.803 170.999 106.309 171.364 105.813L170.156 104.923C169.849 105.339 169.476 105.757 169.06 106.129L170.06 107.247ZM170.972 104.649L169.1 104.097L168.676 105.535L170.548 106.087L170.972 104.649ZM168.278 104.38C168.08 104.656 167.815 104.924 167.494 105.246L168.554 106.306C168.857 106.004 169.216 105.648 169.498 105.252L168.278 104.38ZM168.396 105.125C167.877 104.828 167.356 104.555 166.881 104.33L166.239 105.686C166.676 105.893 167.163 106.148 167.652 106.427L168.396 105.125ZM166.068 104.442L164.796 105.546L165.78 106.678L167.052 105.574L166.068 104.442ZM164.953 106.783C165.359 106.986 165.744 107.212 166.208 107.481L166.96 106.183C166.512 105.924 166.081 105.67 165.623 105.441L164.953 106.783ZM166.187 106.196C165.636 106.54 165.056 106.851 164.491 107.068L165.029 108.468C165.712 108.205 166.38 107.844 166.982 107.468L166.187 106.196ZM164.336 108.387C164.738 108.662 165.397 109.249 165.718 109.57L166.778 108.51C166.427 108.159 165.694 107.498 165.184 107.149L164.336 108.387ZM166.573 109.716C167.274 109.378 167.963 108.943 168.638 108.443L167.746 107.237C167.125 107.697 166.518 108.078 165.923 108.364L166.573 109.716ZM167.742 108.44C168.243 108.816 168.645 109.114 168.91 109.378L169.97 108.318C169.611 107.958 169.101 107.584 168.642 107.24L167.742 108.44ZM169.935 109.412L171.303 108.212L170.313 107.084L168.945 108.284L169.935 109.412ZM161.952 113.174H164.808V111.674H161.952V113.174ZM165.558 112.424V112.16H164.058V112.424H165.558ZM164.296 112.708C164.649 113.037 165.08 113.47 165.315 113.748L166.461 112.78C166.168 112.434 165.687 111.955 165.32 111.612L164.296 112.708ZM165.888 112.514H162V114.014H165.888V112.514ZM162.749 113.221L162.701 112.381L161.203 112.467L161.251 113.307L162.749 113.221ZM160.272 116.078H175.68V114.578H160.272V116.078ZM174.93 115.328V118.184H176.43V115.328H174.93ZM175.68 118.934H178.512V117.434H175.68V118.934ZM179.262 118.184V113.264H177.762V118.184H179.262ZM178.512 112.514H176.736V114.014H178.512V112.514ZM177.483 113.336C177.7 111.084 177.869 108.02 177.989 105.5L176.491 105.428C176.371 107.948 176.204 110.98 175.989 113.192L177.483 113.336ZM177.24 104.714H171.216V106.214H177.24V104.714ZM170.466 105.464V107.264H171.966V105.464H170.466ZM171.216 108.014H174.456V106.514H171.216V108.014ZM173.707 107.219L173.659 108.011L175.157 108.101L175.205 107.309L173.707 107.219ZM174.408 107.306H171.36V108.806H174.408V107.306ZM170.61 108.056V109.832H172.11V108.056H170.61ZM171.36 110.582H174.288V109.082H171.36V110.582ZM173.539 109.788L173.491 110.604L174.989 110.692L175.037 109.876L173.539 109.788ZM174.24 109.898H171.24V111.398H174.24V109.898ZM170.49 110.648V112.424H171.99V110.648H170.49ZM171.24 113.174H174.072V111.674H171.24V113.174ZM173.327 112.339L173.231 113.179L174.721 113.349L174.817 112.509L173.327 112.339ZM173.976 112.514H166.2V114.014H173.976V112.514ZM166.564 113.92C167.237 113.546 167.913 113.12 168.59 112.619L167.698 111.413C167.079 111.872 166.459 112.262 165.836 112.608L166.564 113.92ZM167.682 112.607C168.239 113.043 168.683 113.4 169.006 113.722L170.066 112.662C169.669 112.264 169.153 111.853 168.606 111.425L167.682 112.607ZM170.032 113.755L171.448 112.507L170.456 111.381L169.04 112.629L170.032 113.755ZM171.482 111.414C171.064 110.996 170.503 110.6 169.928 110.216L169.096 111.464C169.673 111.848 170.12 112.172 170.422 112.474L171.482 111.414ZM170.029 111.384C170.535 110.902 171.001 110.387 171.394 109.836L170.174 108.964C169.847 109.421 169.449 109.866 168.995 110.296L170.029 111.384ZM170.996 108.681L169.124 108.129L168.7 109.567L170.572 110.119L170.996 108.681ZM168.322 108.385C168.095 108.674 167.793 108.979 167.44 109.308L168.464 110.404C168.831 110.061 169.201 109.694 169.502 109.311L168.322 108.385ZM168.324 109.205C167.824 108.919 167.301 108.62 166.799 108.369L166.129 109.711C166.587 109.94 167.072 110.217 167.58 110.507L168.324 109.205ZM165.977 108.47L164.657 109.598L165.631 110.738L166.951 109.61L165.977 108.47ZM164.78 110.824C165.204 111.059 165.647 111.316 166.088 111.594L166.889 110.326C166.417 110.028 165.948 109.757 165.508 109.512L164.78 110.824ZM166.085 110.327C165.596 110.639 165.055 110.91 164.473 111.201L165.143 112.543C165.713 112.258 166.324 111.953 166.891 111.593L166.085 110.327ZM165.558 111.872V110.648H164.058V111.872H165.558ZM164.808 109.898H161.856V111.398H164.808V109.898ZM162.605 110.604L162.557 109.788L161.059 109.876L161.107 110.692L162.605 110.604ZM161.808 110.582H164.76V109.082H161.808V110.582ZM165.51 109.832V108.056H164.01V109.832H165.51ZM164.76 107.306H161.712V108.806H164.76V107.306ZM162.46 108.004L162.412 107.308L160.916 107.412L160.964 108.108L162.46 108.004ZM161.82 108.094C162.964 107.85 164.208 107.529 165.197 107.148L164.659 105.748C163.776 106.087 162.62 106.39 161.508 106.626L161.82 108.094ZM165.544 106.02L164.392 104.364L163.16 105.22L164.312 106.876L165.544 106.02ZM163.523 104.086C162.268 104.536 160.181 105.167 158.805 105.396L159.051 106.876C160.555 106.625 162.74 105.96 164.029 105.498L163.523 104.086ZM158.179 106.181L158.611 113.309L160.109 113.219L159.677 106.091L158.179 106.181ZM159.36 112.514H157.56V114.014H159.36V112.514ZM156.81 113.264V118.184H158.31V113.264H156.81ZM157.56 118.934H160.272V117.434H157.56V118.934ZM161.022 118.184V115.328H159.522V118.184H161.022ZM178.824 119.69H169.848V121.19H178.824V119.69ZM170.183 121.111C171.849 120.278 173.516 119.273 174.873 118.287L173.991 117.073C172.708 118.007 171.111 118.97 169.513 119.769L170.183 121.111ZM174.937 117.125L173.329 115.661L172.319 116.771L173.927 118.235L174.937 117.125ZM172.649 115.487L172.049 115.631L172.399 117.089L172.999 116.945L172.649 115.487ZM172.224 115.61H161.784V117.11H172.224V115.61ZM161.034 116.36V118.352H162.534V116.36H161.034ZM161.784 119.102H169.488V117.602H161.784V119.102ZM169.097 117.712C168.234 118.239 167.372 118.736 166.576 119.045L167.12 120.443C168.052 120.08 169.014 119.521 169.879 118.992L169.097 117.712ZM166.098 119.744V120.44H167.598V119.744H166.098ZM166.848 119.69H157.128V121.19H166.848V119.69ZM156.378 120.44V122.696H157.878V120.44H156.378ZM157.128 123.446H166.848V121.946H157.128V123.446ZM166.098 122.696V124.328H167.598V122.696H166.098ZM166.098 124.328C166.098 124.357 166.094 124.317 166.119 124.249C166.15 124.162 166.215 124.067 166.313 123.999C166.356 123.97 166.393 123.953 166.418 123.944C166.442 123.936 166.457 123.933 166.457 123.933C166.458 123.933 166.449 123.935 166.429 123.936C166.408 123.937 166.381 123.938 166.344 123.938V125.438C166.521 125.438 166.874 125.435 167.167 125.233C167.554 124.964 167.598 124.55 167.598 124.328H166.098ZM166.294 123.94C165.976 123.961 164.569 123.962 163.448 123.915L163.384 125.413C164.519 125.462 165.992 125.463 166.394 125.436L166.294 123.94ZM162.745 124.999C163.074 125.658 163.438 126.532 163.539 127.18L165.021 126.948C164.882 126.06 164.43 125.014 164.087 124.329L162.745 124.999ZM164.28 127.814C166.041 127.814 167.5 127.798 168.626 127.414L168.142 125.994C167.3 126.282 166.119 126.314 164.28 126.314V127.814ZM168.657 127.403C169.262 127.167 169.747 126.816 170.05 126.252C170.334 125.722 170.406 125.096 170.406 124.424H168.906C168.906 125.024 168.834 125.346 168.728 125.542C168.641 125.704 168.49 125.857 168.111 126.005L168.657 127.403ZM170.406 124.424V122.696H168.906V124.424H170.406ZM169.656 123.446H178.824V121.946H169.656V123.446ZM179.574 122.696V120.44H178.074V122.696H179.574Z" fill="#00E0B8"/>
<path d="M193.344 101.344H198.156C199.698 101.344 200.969 101.083 201.969 100.562C202.969 100.021 203.708 99.2708 204.188 98.3125C204.688 97.3333 204.938 96.1979 204.938 94.9062C204.938 93.7396 204.708 92.7083 204.25 91.8125C203.813 90.8958 203.135 90.1875 202.219 89.6875C201.302 89.1667 200.146 88.9062 198.75 88.9062C197.646 88.9062 196.625 89.125 195.688 89.5625C194.75 90 194 90.6146 193.438 91.4062C192.875 92.1979 192.594 93.1562 192.594 94.2812H183.563C183.563 91.7812 184.229 89.6042 185.563 87.75C186.917 85.8958 188.729 84.4479 191 83.4062C193.271 82.3646 195.771 81.8438 198.5 81.8438C201.583 81.8438 204.281 82.3438 206.594 83.3438C208.906 84.3229 210.708 85.7708 212 87.6875C213.292 89.6042 213.938 91.9792 213.938 94.8125C213.938 96.25 213.604 97.6458 212.938 99C212.271 100.333 211.313 101.542 210.063 102.625C208.833 103.688 207.333 104.542 205.563 105.188C203.792 105.812 201.802 106.125 199.594 106.125H193.344V101.344ZM193.344 108.188V103.531H199.594C202.073 103.531 204.25 103.812 206.125 104.375C208 104.938 209.573 105.75 210.844 106.812C212.115 107.854 213.073 109.094 213.719 110.531C214.365 111.948 214.688 113.521 214.688 115.25C214.688 117.375 214.281 119.271 213.469 120.938C212.656 122.583 211.51 123.979 210.031 125.125C208.573 126.271 206.865 127.146 204.906 127.75C202.948 128.333 200.813 128.625 198.5 128.625C196.583 128.625 194.698 128.365 192.844 127.844C191.01 127.302 189.344 126.5 187.844 125.438C186.365 124.354 185.177 123 184.281 121.375C183.406 119.729 182.969 117.781 182.969 115.531H192C192 116.698 192.292 117.74 192.875 118.656C193.458 119.573 194.26 120.292 195.281 120.812C196.323 121.333 197.479 121.594 198.75 121.594C200.188 121.594 201.417 121.333 202.438 120.812C203.479 120.271 204.271 119.521 204.813 118.562C205.375 117.583 205.656 116.448 205.656 115.156C205.656 113.49 205.354 112.156 204.75 111.156C204.146 110.135 203.281 109.385 202.156 108.906C201.031 108.427 199.698 108.188 198.156 108.188H193.344ZM229.344 107.281L222.156 105.562L224.75 82.5H250.313V89.7812H232.156L231.031 99.875C231.635 99.5208 232.552 99.1458 233.781 98.75C235.01 98.3333 236.385 98.125 237.906 98.125C240.115 98.125 242.073 98.4688 243.781 99.1562C245.49 99.8438 246.938 100.844 248.125 102.156C249.333 103.469 250.25 105.073 250.875 106.969C251.5 108.865 251.813 111.01 251.813 113.406C251.813 115.427 251.5 117.354 250.875 119.188C250.25 121 249.302 122.625 248.031 124.062C246.76 125.479 245.167 126.594 243.25 127.406C241.333 128.219 239.063 128.625 236.438 128.625C234.479 128.625 232.583 128.333 230.75 127.75C228.938 127.167 227.302 126.302 225.844 125.156C224.406 124.01 223.25 122.625 222.375 121C221.521 119.354 221.073 117.479 221.031 115.375H229.969C230.094 116.667 230.427 117.781 230.969 118.719C231.531 119.635 232.271 120.344 233.188 120.844C234.104 121.344 235.177 121.594 236.406 121.594C237.552 121.594 238.531 121.375 239.344 120.938C240.156 120.5 240.813 119.896 241.313 119.125C241.813 118.333 242.177 117.417 242.406 116.375C242.656 115.312 242.781 114.167 242.781 112.938C242.781 111.708 242.635 110.594 242.344 109.594C242.052 108.594 241.604 107.729 241 107C240.396 106.271 239.625 105.708 238.688 105.312C237.771 104.917 236.698 104.719 235.469 104.719C233.802 104.719 232.51 104.979 231.594 105.5C230.698 106.021 229.948 106.615 229.344 107.281ZM257.5 93.6562V91.25C257.5 89.5208 257.875 87.9479 258.625 86.5312C259.375 85.1146 260.479 83.9792 261.938 83.125C263.396 82.2708 265.188 81.8438 267.313 81.8438C269.5 81.8438 271.323 82.2708 272.781 83.125C274.26 83.9792 275.365 85.1146 276.094 86.5312C276.844 87.9479 277.219 89.5208 277.219 91.25V93.6562C277.219 95.3438 276.844 96.8958 276.094 98.3125C275.365 99.7292 274.271 100.865 272.813 101.719C271.354 102.573 269.552 103 267.406 103C265.24 103 263.417 102.573 261.938 101.719C260.479 100.865 259.375 99.7292 258.625 98.3125C257.875 96.8958 257.5 95.3438 257.5 93.6562ZM263.469 91.25V93.6562C263.469 94.3854 263.604 95.0833 263.875 95.75C264.167 96.3958 264.604 96.9271 265.188 97.3438C265.792 97.7396 266.521 97.9375 267.375 97.9375C268.271 97.9375 269 97.7396 269.563 97.3438C270.125 96.9271 270.542 96.3958 270.813 95.75C271.083 95.0833 271.219 94.3854 271.219 93.6562V91.25C271.219 90.4792 271.073 89.7708 270.781 89.125C270.51 88.4583 270.083 87.9271 269.5 87.5312C268.938 87.1146 268.208 86.9062 267.313 86.9062C266.479 86.9062 265.771 87.1146 265.188 87.5312C264.604 87.9271 264.167 88.4583 263.875 89.125C263.604 89.7708 263.469 90.4792 263.469 91.25ZM279.25 119.25V116.844C279.25 115.135 279.625 113.573 280.375 112.156C281.146 110.74 282.26 109.604 283.719 108.75C285.198 107.896 287.01 107.469 289.156 107.469C291.323 107.469 293.135 107.896 294.594 108.75C296.052 109.604 297.156 110.74 297.906 112.156C298.656 113.573 299.031 115.135 299.031 116.844V119.25C299.031 120.958 298.656 122.521 297.906 123.938C297.177 125.354 296.083 126.49 294.625 127.344C293.167 128.198 291.365 128.625 289.219 128.625C287.052 128.625 285.229 128.198 283.75 127.344C282.271 126.49 281.146 125.354 280.375 123.938C279.625 122.521 279.25 120.958 279.25 119.25ZM285.25 116.844V119.25C285.25 120 285.417 120.708 285.75 121.375C286.083 122.042 286.542 122.573 287.125 122.969C287.729 123.365 288.427 123.562 289.219 123.562C290.219 123.562 291 123.365 291.563 122.969C292.125 122.573 292.51 122.042 292.719 121.375C292.948 120.708 293.063 120 293.063 119.25V116.844C293.063 116.094 292.917 115.396 292.625 114.75C292.333 114.083 291.896 113.552 291.313 113.156C290.75 112.74 290.031 112.531 289.156 112.531C288.281 112.531 287.552 112.74 286.969 113.156C286.406 113.552 285.979 114.083 285.688 114.75C285.396 115.396 285.25 116.094 285.25 116.844ZM291.375 89L269.156 124.562L264.781 122.25L287 86.6875L291.375 89Z" fill="url(#paint0_linear_50_801)"/>
<path d="M103.32 188.96H99.64C99.48 188.48 99.12 187.84 98.8 187.36L97.98 187.62C98.24 188.02 98.5 188.52 98.68 188.96H94.2V189.74H103.32V188.96ZM96.32 191.42H101.5V193.04H96.32V191.42ZM102.38 193.74V190.7H95.46V193.74H102.38ZM95.28 205.38C96.22 204.5 97.04 203.06 97.58 201.82L96.72 201.6C96.2 202.84 95.34 204.22 94.46 205.02L95.28 205.38ZM103.12 197.96L103.14 197.2C101.88 197.28 100.62 197.36 99.42 197.44V196.68C100.58 196.3 101.82 195.74 102.7 195.1L102.1 194.66L101.9 194.72H94.9V195.48H100.66C99.98 195.78 99.22 196.06 98.52 196.26V197.5C96.88 197.6 95.36 197.68 94.2 197.74L94.28 198.56L98.52 198.28V199.78C98.52 200 98.48 200.06 98.2 200.08C97.94 200.1 97.14 200.1 96.04 200.08C96.16 200.32 96.3 200.6 96.34 200.84C97.64 200.84 98.42 200.84 98.88 200.7C99.3 200.56 99.42 200.34 99.42 199.8V198.22L103.12 197.96ZM100.02 202C100.26 203.06 100.42 204.44 100.44 205.28L101.4 205.14C101.38 204.34 101.18 203 100.92 201.94L100.02 202ZM104.2 201.96C104.7 203.02 105.2 204.4 105.4 205.24L106.32 205.04C106.14 204.22 105.6 202.82 105.08 201.78L104.2 201.96ZM108.34 201.8C109.22 202.88 110.2 204.36 110.64 205.28L111.54 204.96C111.08 204.02 110.08 202.56 109.18 201.5L108.34 201.8ZM106.8 190.4V187.34H105.9V190.4H103.52V191.26H105.9V191.5C105.9 192.5 105.84 193.56 105.62 194.62C105.02 194.14 104.4 193.72 103.78 193.34L103.26 193.96C103.96 194.42 104.7 194.94 105.42 195.52C104.86 197.26 103.78 198.98 101.66 200.46C101.88 200.58 102.18 200.86 102.32 201.06C104.44 199.58 105.56 197.9 106.16 196.14C106.9 196.78 107.56 197.44 108 197.98L108.56 197.26C108.08 196.66 107.3 195.94 106.42 195.22C106.72 193.98 106.8 192.72 106.8 191.48V191.26H109.24C109.24 197.64 109.26 200.94 111.06 200.94C111.96 200.94 112.16 200.24 112.26 197.8C112.06 197.68 111.76 197.48 111.56 197.3C111.54 198.84 111.46 200.08 111.14 200.08C110.12 200.08 110.12 196.54 110.16 190.4H106.8ZM115.04 204.42C116.06 203.26 116.82 201.44 117.34 200.02L116.52 199.7C116.04 201.06 115.24 202.86 114.2 203.94L115.04 204.42ZM121.42 204.1C120.2 204.1 120 203.98 120 203.46V199.44H119.06V203.48C119.06 204.72 119.54 205 121.4 205H125.86C127.46 205 127.78 204.46 127.94 202.1C127.64 202.04 127.26 201.9 127.04 201.74C126.94 203.8 126.78 204.1 125.8 204.1H121.42ZM121.96 199.18C122.76 199.98 123.76 201.1 124.26 201.76L124.98 201.24C124.48 200.6 123.48 199.52 122.7 198.74L121.96 199.18ZM128.08 199.94C128.98 201.24 130.1 202.98 130.64 204L131.52 203.58C130.94 202.58 129.8 200.86 128.9 199.6L128.08 199.94ZM126.58 192.8C127.26 192.04 128.1 190.92 128.74 189.92L127.82 189.52C127.36 190.4 126.5 191.7 125.84 192.5L126.42 192.8H123.44V189.1C125.96 188.84 128.34 188.5 130.12 188.1L129.18 187.38C126.16 188.14 120.18 188.62 115.26 188.86C115.38 189.06 115.48 189.4 115.5 189.64C117.74 189.54 120.16 189.38 122.5 189.2V192.8H119.06L119.84 192.4C119.56 191.7 118.82 190.62 118.14 189.86L117.36 190.2C118.04 191.02 118.7 192.08 119.02 192.8H114.24V193.7H121.22C119.4 195.62 116.46 197.34 113.9 198.18C114.12 198.38 114.4 198.74 114.58 198.96C117.26 197.96 120.52 195.92 122.36 193.7H122.5V198.22H123.44V194.14C126.14 195.52 129.24 197.54 130.88 198.9L131.46 198.2C129.92 196.96 127.02 195.08 124.42 193.7H131.8V192.8H126.58ZM150.76 191.94C150.46 193.42 150.08 195.08 149.74 196.12L150.52 196.4C150.98 195.12 151.46 192.98 151.86 191.2L151.24 191L151.06 191.06H145.36C145.64 189.92 145.88 188.72 146.06 187.48L145.1 187.32C144.66 190.48 143.88 193.4 142.5 195.34C142.76 195.46 143.2 195.72 143.38 195.86C144.08 194.78 144.64 193.46 145.1 191.94H150.76ZM135.68 196.04H138.22V198.24H135.68V196.04ZM135.68 193.08H138.22V195.26H135.68V193.08ZM141.4 195.26H139.02V193.08H141.4V195.26ZM141.4 198.24H139.02V196.04H141.4V198.24ZM143.28 201.84V200.96H139.06V199.04H142.22V192.28H139.06V190.54H142.8V189.66H139.06V187.32H138.2V189.66H134.18V190.54H138.2V192.28H134.88V199.04H138.2V200.96H133.96V201.84H138.2V205.44H139.06V201.84H143.28ZM147.42 195.9C147.46 195.36 147.46 194.84 147.46 194.36V193.44H146.52V194.34C146.52 197.26 146.22 201.5 141.36 204.78C141.6 204.92 141.92 205.22 142.08 205.44C145.24 203.28 146.56 200.68 147.08 198.26C147.96 201.48 149.42 204.16 151.64 205.44C151.8 205.2 152.08 204.86 152.32 204.66C149.7 203.3 148.12 199.82 147.42 195.9ZM170.42 191.46H168.48V189.72H170.42V191.46ZM170.42 194.02H168.48V192.22H170.42V194.02ZM163.32 192.22H165.14V194.02H163.32V192.22ZM163.32 189.72H165.14V191.46H163.32V189.72ZM167.72 192.22V194.02H165.9V192.22H167.72ZM165.9 191.46V189.72H167.72V191.46H165.9ZM171.26 188.94H168.54V187.36H167.7V188.94H165.9V187.36H165.06V188.94H162.5V194.8H171.26V188.94ZM171.86 196.04H162.02V196.84H171.86V196.04ZM163.96 198.74H169.86V200.82H163.96V198.74ZM170.78 201.56V197.98H163.08V201.56H170.78ZM160.6 195.96H155.24V199.7C155.24 201.3 155.08 203.38 153.98 204.94C154.2 205.04 154.54 205.34 154.68 205.54C155.88 203.84 156.08 201.46 156.08 199.7V196.74H159.74V200.36C158.38 201.12 157.06 201.82 156.14 202.24L156.6 203C157.54 202.46 158.64 201.82 159.74 201.16V204.24C159.74 204.46 159.66 204.54 159.42 204.54C159.22 204.56 158.46 204.56 157.56 204.54C157.68 204.76 157.82 205.1 157.88 205.3C159.06 205.3 159.72 205.3 160.12 205.16C160.48 205 160.6 204.76 160.6 204.26V195.96ZM159.34 199.46C158.84 198.94 157.86 198.22 156.98 197.64L156.48 198.18C157.28 198.72 158.28 199.56 158.76 200.08L159.34 199.46ZM155.94 188.92H159.8V190.48H157.46V193.56H155.94V188.92ZM159.8 193.56H158.18V191.22H159.8V193.56ZM160.66 188.12H155.1V193.56H154.24V196.28H155.06V194.34H160.7V196.28H161.52V193.56H160.66V188.12ZM168.78 204.2C169.1 203.56 169.48 202.72 169.82 202.02L168.92 201.74C168.7 202.44 168.28 203.48 167.96 204.2H165.84C165.64 203.54 165.26 202.56 164.92 201.82L164.12 202.04C164.42 202.72 164.74 203.56 164.94 204.2H161.76V205H172.04V204.2H168.78ZM188.38 191.6H183.18V189.02H188.38V191.6ZM189.28 188.22H182.3V192.4H189.28V188.22ZM187.24 194.2H190.54V196.96H187.24V194.2ZM186.4 197.76H191.38V193.42H186.4V197.76ZM184.22 196.96H181.02V194.2H184.22V196.96ZM185.06 193.42H180.2V197.76H185.06V193.42ZM179.48 197L179.32 196.12L177.4 196.88V192.42H179.4V191.52H177.4V187.34H176.48V191.52H174.06V192.42H176.48V197.24C175.52 197.62 174.62 197.96 173.92 198.2L174.22 199.12L176.48 198.2V204.24C176.48 204.48 176.42 204.54 176.2 204.54C176.02 204.54 175.4 204.56 174.68 204.54C174.82 204.8 174.94 205.2 175 205.42C175.96 205.42 176.54 205.4 176.9 205.26C177.24 205.08 177.4 204.82 177.4 204.22V197.84L179.48 197ZM183.06 200.9C182.02 202.06 180.5 203.34 179.16 204.22C179.38 204.38 179.74 204.7 179.88 204.86C181.16 203.9 182.74 202.46 183.9 201.22L183.06 200.9ZM191.9 200.32V199.46H186.2V197.84H185.26V199.46H179.78V200.32H185.26V205.5H186.2V200.32H191.9ZM187.46 201.4C188.9 202.38 190.64 203.8 191.5 204.78L192.08 204.12C191.24 203.2 189.5 201.8 188.02 200.82L187.46 201.4ZM199.12 187.42C197.92 190.56 195.98 193.66 193.92 195.64C194.12 195.84 194.42 196.32 194.52 196.52C195.36 195.68 196.16 194.68 196.92 193.6V205.44H197.9V192.06C198.72 190.68 199.44 189.2 200.04 187.7L199.12 187.42ZM212.06 191.66V190.74H203.32C203.78 189.82 204.18 188.84 204.54 187.86L203.64 187.62C202.6 190.58 200.96 193.5 199.14 195.4C199.34 195.54 199.74 195.88 199.9 196.02C200.96 194.84 201.98 193.34 202.88 191.66H204.62V205.46H205.58V200.34H211.94V199.42H205.58V195.92H211.66V195.02H205.58V191.66H212.06Z" fill="white"/>
<path d="M99.98 264.28C99.2 264.56 98.38 264.82 97.62 265.06V259.52H99.8V258.62H97.62V253.74H100.04V252.82H94.06V253.74H96.7V258.62H94.26V259.52H96.7V265.38C95.62 265.72 94.64 266.04 93.86 266.28L94.12 267.26C95.8 266.68 98.02 265.92 100.14 265.2L99.98 264.28ZM102.08 257.06H105.72V260.14H102.08V257.06ZM102.08 253.18H105.72V256.2H102.08V253.18ZM110.3 256.2H106.58V253.18H110.3V256.2ZM110.3 260.14H106.58V257.06H110.3V260.14ZM106.62 267.88V264.66H111.56V263.76H106.62V261.02H111.22V252.32H101.18V261.02H105.66V263.76H100.86V264.66H105.66V267.88H99.24V268.78H112.22V267.88H106.62ZM119.18 263.38V260.62H121.38V263.38H119.18ZM116.18 260.62H118.4V263.38H116.14C116.16 262.78 116.18 262.2 116.18 261.68V260.62ZM119.76 253.9C119.46 254.72 119.04 255.66 118.64 256.36H116C116.42 255.6 116.82 254.78 117.18 253.9H119.76ZM119.18 257.18H121.38V259.82H119.18V257.18ZM116.18 257.18H118.4V259.82H116.18V257.18ZM122.24 256.36H119.56C120.06 255.5 120.58 254.4 120.92 253.42L120.34 253.02L120.18 253.08H117.48C117.66 252.58 117.84 252.06 117.98 251.54L117.04 251.32C116.4 253.82 115.26 256.22 113.8 257.8C114.04 257.92 114.44 258.22 114.6 258.38C114.86 258.08 115.1 257.76 115.34 257.4V261.68C115.34 263.92 115.18 266.9 113.82 269.04C114.04 269.12 114.42 269.34 114.56 269.48C115.5 268 115.92 266.04 116.08 264.2H121.38V268.22C121.38 268.5 121.26 268.58 120.98 268.6C120.7 268.62 119.72 268.62 118.56 268.58C118.68 268.82 118.84 269.2 118.9 269.42C120.38 269.42 121.18 269.42 121.62 269.28C122.08 269.12 122.24 268.8 122.24 268.22V256.36ZM130.62 253.22C130.46 255.96 130.3 257 130.02 257.3C129.9 257.46 129.72 257.48 129.42 257.48C129.14 257.48 128.3 257.46 127.4 257.4C127.52 257.6 127.62 257.96 127.64 258.22C128.48 258.28 129.36 258.3 129.74 258.26C130.24 258.26 130.52 258.14 130.76 257.86C131.18 257.42 131.36 256.18 131.54 252.78C131.56 252.66 131.56 252.34 131.56 252.34H123V253.22H126C125.6 255.28 124.66 257.16 122.38 258.14C122.58 258.28 122.84 258.58 122.98 258.78C125.44 257.66 126.48 255.62 126.94 253.22H130.62ZM132.12 264.44H128.06V261.62H131.78V260.76H128.06V258.56H127.12V260.76H124.92C125.12 260.18 125.3 259.56 125.44 258.94L124.52 258.76C124.16 260.5 123.48 262.2 122.56 263.38C122.8 263.48 123.22 263.7 123.4 263.82C123.84 263.2 124.24 262.46 124.58 261.62H127.12V264.44H122.62V265.34H127.12V269.34H128.06V265.34H132.12V264.44ZM139.62 259.5V266H136.5V259.5H139.62ZM140.48 266.88V258.62H136.42C137 257.04 137.44 255.26 137.78 253.42H140.7V252.52H134.18V253.42H136.84C136.24 256.72 135.28 259.78 133.78 261.78C133.98 262 134.26 262.46 134.36 262.66C134.84 262.04 135.24 261.32 135.62 260.54V268.56H136.5V266.88H140.48ZM142.46 261.96V259.48H145.94V260.44C145.94 260.94 145.94 261.46 145.9 261.96H142.46ZM142.46 256.22H145.94V258.68H142.46V256.22ZM150.56 256.22V258.68H146.86V256.22H150.56ZM150.56 261.96H146.82C146.84 261.46 146.86 260.92 146.86 260.42V259.48H150.56V261.96ZM151.46 262.78V255.4H146.86V253.16H151.88V252.26H141.12V253.16H145.94V255.4H141.56V262.78H145.82C145.66 263.92 145.34 265.02 144.56 266.02C143.7 265.3 143.02 264.44 142.56 263.44L141.74 263.7C142.28 264.88 143.04 265.84 144 266.64C143.14 267.48 141.9 268.2 140.14 268.74C140.34 268.92 140.58 269.28 140.7 269.5C142.52 268.9 143.8 268.1 144.7 267.18C146.48 268.4 148.84 269.14 151.62 269.48C151.74 269.22 151.98 268.86 152.18 268.66C149.36 268.36 147.02 267.68 145.28 266.54C146.16 265.38 146.56 264.1 146.72 262.78H151.46ZM170.42 255.46H168.48V253.72H170.42V255.46ZM170.42 258.02H168.48V256.22H170.42V258.02ZM163.32 256.22H165.14V258.02H163.32V256.22ZM163.32 253.72H165.14V255.46H163.32V253.72ZM167.72 256.22V258.02H165.9V256.22H167.72ZM165.9 255.46V253.72H167.72V255.46H165.9ZM171.26 252.94H168.54V251.36H167.7V252.94H165.9V251.36H165.06V252.94H162.5V258.8H171.26V252.94ZM171.86 260.04H162.02V260.84H171.86V260.04ZM163.96 262.74H169.86V264.82H163.96V262.74ZM170.78 265.56V261.98H163.08V265.56H170.78ZM160.6 259.96H155.24V263.7C155.24 265.3 155.08 267.38 153.98 268.94C154.2 269.04 154.54 269.34 154.68 269.54C155.88 267.84 156.08 265.46 156.08 263.7V260.74H159.74V264.36C158.38 265.12 157.06 265.82 156.14 266.24L156.6 267C157.54 266.46 158.64 265.82 159.74 265.16V268.24C159.74 268.46 159.66 268.54 159.42 268.54C159.22 268.56 158.46 268.56 157.56 268.54C157.68 268.76 157.82 269.1 157.88 269.3C159.06 269.3 159.72 269.3 160.12 269.16C160.48 269 160.6 268.76 160.6 268.26V259.96ZM159.34 263.46C158.84 262.94 157.86 262.22 156.98 261.64L156.48 262.18C157.28 262.72 158.28 263.56 158.76 264.08L159.34 263.46ZM155.94 252.92H159.8V254.48H157.46V257.56H155.94V252.92ZM159.8 257.56H158.18V255.22H159.8V257.56ZM160.66 252.12H155.1V257.56H154.24V260.28H155.06V258.34H160.7V260.28H161.52V257.56H160.66V252.12ZM168.78 268.2C169.1 267.56 169.48 266.72 169.82 266.02L168.92 265.74C168.7 266.44 168.28 267.48 167.96 268.2H165.84C165.64 267.54 165.26 266.56 164.92 265.82L164.12 266.04C164.42 266.72 164.74 267.56 164.94 268.2H161.76V269H172.04V268.2H168.78ZM180.58 264.06C179.62 265.42 178.28 266.92 177.04 268C177.3 268.12 177.68 268.4 177.88 268.54C179.02 267.44 180.42 265.8 181.48 264.38L180.58 264.06ZM179.86 259.78H189.06V262H179.86V259.78ZM179.86 256.8H189.06V258.98H179.86V256.8ZM190.04 262.82V255.96H184.06C184.36 255.36 184.66 254.68 184.96 254.06L183.9 253.84C183.7 254.44 183.38 255.3 183.06 255.96H178.92V262.82H183.96V268.24C183.96 268.48 183.88 268.58 183.54 268.6C183.24 268.62 182.18 268.62 180.84 268.58C180.96 268.84 181.12 269.18 181.18 269.44C182.8 269.44 183.74 269.44 184.26 269.28C184.74 269.12 184.9 268.84 184.9 268.22V262.82H190.04ZM187.02 264.54C188.3 265.82 189.92 267.6 190.74 268.66L191.54 268.1C190.7 267.1 189.06 265.38 187.78 264.14L187.02 264.54ZM191.74 252.6H175.88V258.16C175.88 261.22 175.7 265.48 173.88 268.56C174.12 268.66 174.5 268.92 174.68 269.08C176.56 265.88 176.82 261.32 176.82 258.16V253.5H191.74V252.6ZM199.98 264.28C199.2 264.56 198.38 264.82 197.62 265.06V259.52H199.8V258.62H197.62V253.74H200.04V252.82H194.06V253.74H196.7V258.62H194.26V259.52H196.7V265.38C195.62 265.72 194.64 266.04 193.86 266.28L194.12 267.26C195.8 266.68 198.02 265.92 200.14 265.2L199.98 264.28ZM202.08 257.06H205.72V260.14H202.08V257.06ZM202.08 253.18H205.72V256.2H202.08V253.18ZM210.3 256.2H206.58V253.18H210.3V256.2ZM210.3 260.14H206.58V257.06H210.3V260.14ZM206.62 267.88V264.66H211.56V263.76H206.62V261.02H211.22V252.32H201.18V261.02H205.66V263.76H200.86V264.66H205.66V267.88H199.24V268.78H212.22V267.88H206.62Z" fill="white"/>
<path d="M110.76 319.94C110.46 321.42 110.08 323.08 109.74 324.12L110.52 324.4C110.98 323.12 111.46 320.98 111.86 319.2L111.24 319L111.06 319.06H105.36C105.64 317.92 105.88 316.72 106.06 315.48L105.1 315.32C104.66 318.48 103.88 321.4 102.5 323.34C102.76 323.46 103.2 323.72 103.38 323.86C104.08 322.78 104.64 321.46 105.1 319.94H110.76ZM95.68 324.04H98.22V326.24H95.68V324.04ZM95.68 321.08H98.22V323.26H95.68V321.08ZM101.4 323.26H99.02V321.08H101.4V323.26ZM101.4 326.24H99.02V324.04H101.4V326.24ZM103.28 329.84V328.96H99.06V327.04H102.22V320.28H99.06V318.54H102.8V317.66H99.06V315.32H98.2V317.66H94.18V318.54H98.2V320.28H94.88V327.04H98.2V328.96H93.96V329.84H98.2V333.44H99.06V329.84H103.28ZM107.42 323.9C107.46 323.36 107.46 322.84 107.46 322.36V321.44H106.52V322.34C106.52 325.26 106.22 329.5 101.36 332.78C101.6 332.92 101.92 333.22 102.08 333.44C105.24 331.28 106.56 328.68 107.08 326.26C107.96 329.48 109.42 332.16 111.64 333.44C111.8 333.2 112.08 332.86 112.32 332.66C109.7 331.3 108.12 327.82 107.42 323.9ZM119.62 323.5V330H116.5V323.5H119.62ZM120.48 330.88V322.62H116.42C117 321.04 117.44 319.26 117.78 317.42H120.7V316.52H114.18V317.42H116.84C116.24 320.72 115.28 323.78 113.78 325.78C113.98 326 114.26 326.46 114.36 326.66C114.84 326.04 115.24 325.32 115.62 324.54V332.56H116.5V330.88H120.48ZM122.46 325.96V323.48H125.94V324.44C125.94 324.94 125.94 325.46 125.9 325.96H122.46ZM122.46 320.22H125.94V322.68H122.46V320.22ZM130.56 320.22V322.68H126.86V320.22H130.56ZM130.56 325.96H126.82C126.84 325.46 126.86 324.92 126.86 324.42V323.48H130.56V325.96ZM131.46 326.78V319.4H126.86V317.16H131.88V316.26H121.12V317.16H125.94V319.4H121.56V326.78H125.82C125.66 327.92 125.34 329.02 124.56 330.02C123.7 329.3 123.02 328.44 122.56 327.44L121.74 327.7C122.28 328.88 123.04 329.84 124 330.64C123.14 331.48 121.9 332.2 120.14 332.74C120.34 332.92 120.58 333.28 120.7 333.5C122.52 332.9 123.8 332.1 124.7 331.18C126.48 332.4 128.84 333.14 131.62 333.48C131.74 333.22 131.98 332.86 132.18 332.66C129.36 332.36 127.02 331.68 125.28 330.54C126.16 329.38 126.56 328.1 126.72 326.78H131.46ZM150.42 319.46H148.48V317.72H150.42V319.46ZM150.42 322.02H148.48V320.22H150.42V322.02ZM143.32 320.22H145.14V322.02H143.32V320.22ZM143.32 317.72H145.14V319.46H143.32V317.72ZM147.72 320.22V322.02H145.9V320.22H147.72ZM145.9 319.46V317.72H147.72V319.46H145.9ZM151.26 316.94H148.54V315.36H147.7V316.94H145.9V315.36H145.06V316.94H142.5V322.8H151.26V316.94ZM151.86 324.04H142.02V324.84H151.86V324.04ZM143.96 326.74H149.86V328.82H143.96V326.74ZM150.78 329.56V325.98H143.08V329.56H150.78ZM140.6 323.96H135.24V327.7C135.24 329.3 135.08 331.38 133.98 332.94C134.2 333.04 134.54 333.34 134.68 333.54C135.88 331.84 136.08 329.46 136.08 327.7V324.74H139.74V328.36C138.38 329.12 137.06 329.82 136.14 330.24L136.6 331C137.54 330.46 138.64 329.82 139.74 329.16V332.24C139.74 332.46 139.66 332.54 139.42 332.54C139.22 332.56 138.46 332.56 137.56 332.54C137.68 332.76 137.82 333.1 137.88 333.3C139.06 333.3 139.72 333.3 140.12 333.16C140.48 333 140.6 332.76 140.6 332.26V323.96ZM139.34 327.46C138.84 326.94 137.86 326.22 136.98 325.64L136.48 326.18C137.28 326.72 138.28 327.56 138.76 328.08L139.34 327.46ZM135.94 316.92H139.8V318.48H137.46V321.56H135.94V316.92ZM139.8 321.56H138.18V319.22H139.8V321.56ZM140.66 316.12H135.1V321.56H134.24V324.28H135.06V322.34H140.7V324.28H141.52V321.56H140.66V316.12ZM148.78 332.2C149.1 331.56 149.48 330.72 149.82 330.02L148.92 329.74C148.7 330.44 148.28 331.48 147.96 332.2H145.84C145.64 331.54 145.26 330.56 144.92 329.82L144.12 330.04C144.42 330.72 144.74 331.56 144.94 332.2H141.76V333H152.04V332.2H148.78ZM169.76 318.56C169.32 320.02 168.64 321.24 167.72 322.24C166.74 321.12 166.02 319.86 165.6 318.64L165.66 318.56H169.76ZM171.96 318.56V317.7H166.06C166.38 317.02 166.64 316.28 166.86 315.54L165.96 315.34C165.38 317.44 164.36 319.34 163.04 320.62C163.24 320.78 163.6 321.08 163.74 321.24C164.22 320.76 164.68 320.16 165.1 319.52C165.56 320.62 166.22 321.78 167.14 322.84C166.02 323.88 164.64 324.64 163 325.18C163.16 325.36 163.46 325.74 163.58 325.92C165.18 325.3 166.58 324.5 167.72 323.48C168.72 324.48 169.96 325.38 171.48 325.98C171.6 325.76 171.86 325.4 172.06 325.2C170.56 324.66 169.3 323.84 168.32 322.88C169.38 321.74 170.18 320.32 170.7 318.56H171.96ZM155.72 319.58H158.38V321.34H155.72V319.58ZM161.74 319.58V321.34H159.26V319.58H161.74ZM158.38 325.8H159.26V322.08H162.6V318.84H159.26V317.6H163.24V316.8H159.26V315.34H158.38V316.8H154.22V317.6H158.38V318.84H154.88V322.08H158.14C157.18 323.34 155.42 324.58 153.9 325.16C154.1 325.32 154.38 325.6 154.5 325.82C155.84 325.24 157.36 324.1 158.38 322.92V325.8ZM159.28 322.9C160.32 323.42 161.54 324.2 162.18 324.78L162.66 324.14C162.02 323.56 160.76 322.82 159.72 322.36L159.28 322.9ZM163.46 330H169.58V329.18H163.46V327.28H170.72V326.42H155.44V327.28H162.52V332.02H158.44V328.52H157.5V332.02H154.04V332.9H172.04V332.02H163.46V330ZM188.16 326.5V331.24H178.04V326.5H188.16ZM177.06 333.42H178.04V332.16H188.16V333.34H189.14V325.62H177.06V333.42ZM177.96 321.92V322.82H188.06V321.92H177.96ZM183.44 315.34C181.46 318.42 177.82 321.2 173.96 322.72C174.22 322.92 174.5 323.28 174.64 323.5C177.88 322.16 180.94 319.9 183.08 317.32C185.36 319.88 188.14 321.74 191.54 323.38C191.66 323.1 191.96 322.74 192.22 322.54C188.72 320.98 185.82 319.14 183.62 316.62C183.84 316.34 184.06 316.02 184.26 315.72L183.44 315.34ZM199.68 327.54V320.74C200.2 320 200.64 319.22 201.04 318.42L200.18 318.2C199.24 320.14 197.76 322.08 196.24 323.38C196.46 323.52 196.8 323.84 196.96 323.98C197.58 323.42 198.22 322.74 198.8 321.98V327.54H199.68ZM197.22 332.9C198.44 331.98 199.22 330.44 199.72 329.1L198.94 328.8C198.46 330.08 197.64 331.58 196.48 332.44L197.22 332.9ZM206.62 322.08H203.1V320.78H206.62V322.08ZM206.62 324.08H203.1V322.78H206.62V324.08ZM206.62 326.16H203.1V324.78H206.62V326.16ZM202.24 327.52H203.1V326.92H211.6V326.16H207.48V324.78H210.74V324.08H207.48V322.78H210.66V322.08H207.48V320.78H211.2V320.02H207.28L207.68 319.78C207.4 319.28 206.84 318.54 206.28 318.02L205.62 318.4C206.1 318.86 206.56 319.5 206.86 320.02H203.36C203.64 319.48 203.94 318.96 204.18 318.4L203.32 318.18C202.56 319.96 201.3 321.76 199.98 322.98C200.22 323.1 200.56 323.38 200.72 323.54C201.24 323.04 201.74 322.42 202.24 321.74V327.52ZM206.96 329.54C206.2 328.88 204.72 328.06 203.54 327.5L202.94 328.1C204.16 328.66 205.6 329.56 206.34 330.2L206.96 329.54ZM203.22 332.44C202.28 332.44 202.12 332.36 202.12 331.94V328.78H201.22V331.94C201.22 333.04 201.64 333.28 203.2 333.28H206.82C208.1 333.28 208.42 332.86 208.52 330.92C208.26 330.86 207.9 330.74 207.68 330.56C207.62 332.24 207.48 332.44 206.74 332.44H203.22ZM208.04 328.98C209.22 330.14 210.52 331.78 211.04 332.86L211.86 332.4C211.28 331.32 210 329.74 208.78 328.6L208.04 328.98ZM204.6 317C204.3 316.38 203.74 315.54 203.22 314.94L202.46 315.28C202.84 315.78 203.28 316.44 203.58 317H195.32V323.08C195.32 326 195.18 330.02 193.74 332.9C193.96 333 194.34 333.3 194.5 333.48C196.02 330.44 196.22 326.12 196.22 323.08V317.86H211.96V317H204.6ZM223.52 326.26V322.4H229.58V326.26H223.52ZM217.1 326.26C217.16 325.5 217.18 324.74 217.18 324.04V322.4H222.56V326.26H217.1ZM222.56 317.72V321.48H217.18V317.72H222.56ZM229.58 321.48H223.52V317.72H229.58V321.48ZM230.54 316.8H216.22V324.04C216.22 326.86 216 330.4 213.78 332.9C214 333.02 214.38 333.36 214.52 333.58C216.08 331.8 216.74 329.44 217.02 327.18H222.56V333.3H223.52V327.18H229.58V331.9C229.58 332.3 229.44 332.42 229.06 332.42C228.66 332.44 227.28 332.46 225.72 332.42C225.86 332.68 226.04 333.1 226.06 333.36C228.02 333.38 229.12 333.38 229.72 333.2C230.3 333.02 230.54 332.7 230.54 331.9V316.8Z" fill="white"/>
<line x1="90" y1="225.5" x2="294" y2="225.5" stroke="#00E0B8" stroke-dasharray="2 2"/>
<line x1="90" y1="292.5" x2="294" y2="292.5" stroke="#00E0B8" stroke-dasharray="2 2"/>
<path d="M78 193.768C79.3333 194.538 79.3333 196.462 78 197.232L68.25 202.861C66.9167 203.631 65.25 202.669 65.25 201.129L65.25 189.871C65.25 188.331 66.9167 187.369 68.25 188.139L78 193.768Z" fill="#00E0B8"/>
<path d="M78 257.768C79.3333 258.538 79.3333 260.462 78 261.232L68.25 266.861C66.9167 267.631 65.25 266.669 65.25 265.129L65.25 253.871C65.25 252.331 66.9167 251.369 68.25 252.139L78 257.768Z" fill="#00E0B8"/>
<path d="M78 321.768C79.3333 322.538 79.3333 324.462 78 325.232L68.25 330.861C66.9167 331.631 65.25 330.669 65.25 329.129L65.25 317.871C65.25 316.331 66.9167 315.369 68.25 316.139L78 321.768Z" fill="#00E0B8"/>
<line x1="26" y1="150.5" x2="337" y2="150.5" stroke="#00E0B8"/>
<path d="M75.8705 33.3593C66.5264 22.7478 69.0463 11.3978 69.0463 11.3978L63.4736 9.65116L37.9844 90.9769C35.2153 87.4278 31.1629 84.7041 26.5496 83.2915C16.5015 80.1422 6.49108 83.5603 4.18221 90.9269C1.87334 98.2936 8.13959 106.822 18.1876 109.971C28.2357 113.12 38.1864 109.692 40.4903 102.341L55.5858 54.1775C59.8624 57.6904 63.8888 61.4205 67.6382 65.3429C74.2223 72.2885 71.6827 82.5311 67.5359 87.8043C63.389 93.0774 56.7256 94.9778 59.4055 96.6589C62.0854 98.3399 67.2418 95.8979 73.3277 89.4201C79.4136 82.9424 78.1886 70.1325 78.1886 70.1325C91.1495 58.4042 85.205 43.9677 75.8705 33.3593ZM75.8123 64.7745C75.8123 64.7745 71.1081 57.7158 65.4851 49.2418C59.8621 40.7679 62.7402 34.8283 62.7402 34.8283C62.7402 34.8283 71.2926 40.9773 76.1478 47.5544C81.0029 54.1315 75.8123 64.7745 75.8123 64.7745Z" fill="url(#paint1_linear_50_801)"/>
<defs>
<linearGradient id="paint0_linear_50_801" x1="200.341" y1="77.2114" x2="233.205" y2="146.223" gradientUnits="userSpaceOnUse">
<stop stop-color="#FFF176"/>
<stop offset="1" stop-color="#00E0B8"/>
</linearGradient>
<linearGradient id="paint1_linear_50_801" x1="38.6915" y1="17.0503" x2="90.6829" y2="81.5404" gradientUnits="userSpaceOnUse">
<stop stop-color="#FFF176"/>
<stop offset="1" stop-color="#00E0B8"/>
</linearGradient>
</defs>
</svg>
