<svg width="198" height="45" viewBox="0 0 198 45" fill="none" xmlns="http://www.w3.org/2000/svg">
<path d="M15.08 26.5293C14.4841 24.5848 13.3463 22.8504 11.8 21.5293L10.33 20.4595L9.66 19.9895L9.12 19.6194L8.95 19.4895L8.32 19.0393L7.99 18.7993L7.55 18.4695C5.58872 17.1873 3.8294 15.62 2.33 13.8193L0.529999 19.1995L0.300003 19.8994L0 20.8394C0.000328316 20.9651 0.020577 21.0901 0.0599976 21.2095C0.429998 22.4195 2.59 24.3294 7.23 27.6094L7.48 27.7893L7.97 28.1394L8.46 28.4795C11.53 30.6795 13.64 32.3894 14.64 33.8594L14.71 33.9495C15.7095 31.5983 15.8406 28.9682 15.08 26.5293Z" fill="#FF8E30"/>
<path d="M14.14 35.27C13.8534 34.1167 11.8534 32.2365 8.14002 29.6299L8.05002 29.8899C6.15002 35.6899 5.60002 38.6998 6.26002 39.5898C6.37089 39.6487 6.49448 39.6797 6.62002 39.6799C8.12002 39.6799 11.15 37.56 14.14 35.27Z" fill="#FF8E30"/>
<path d="M9.30003 18.3396C10.52 17.8496 11.91 13.6997 12.8 10.7197H11.9C5.90003 10.7197 3.04002 11.1496 2.52002 12.1096C2.31002 13.4296 6.82003 16.6296 9.30003 18.3396Z" fill="#FF8E30"/>
<path d="M23.8201 8.3999C24.5299 9.39634 25.4717 10.2048 26.5642 10.7554C27.6567 11.306 28.8669 11.5821 30.0901 11.5598C30.9772 11.5507 31.8588 11.4196 32.7101 11.1699C32.5601 10.7099 32.4101 10.27 32.2401 9.72998L32.0001 9C30.6401 4.73 29.0501 0.35 27.6601 0C26.3601 0.31 24.7501 5.3199 23.8201 8.3999Z" fill="#FF8E30"/>
<path d="M31.9 35.6201H31.82C30.42 35.6201 27.65 37.5003 24.65 39.7603L24.93 39.9602C29.35 43.2002 32.01 44.7102 33.25 44.7102C33.4091 44.714 33.5668 44.6796 33.71 44.6101C34.64 43.6501 32.92 38.4801 31.9 35.6201Z" fill="#FF8E30"/>
<path d="M39.0001 29.3701C37.4301 25.0701 37.0601 23.7902 36.4401 21.7002C36.3201 21.3302 36.2701 21.1302 36.1401 20.7002C34.5603 22.0401 33.3488 23.7611 32.6201 25.7002C32.0791 27.009 31.8103 28.4141 31.8301 29.8301C31.82 29.8897 31.82 29.9507 31.8301 30.0103V30.28C31.8678 31.9832 32.263 33.6596 32.9901 35.2002C33.0601 35.3802 33.1301 35.5702 33.1801 35.7502C33.2301 35.9302 33.4001 36.3601 33.5001 36.6501C34.3776 38.8541 34.9236 41.1759 35.1201 43.54L38.6201 40.9102L39.6201 40.1802L40.2201 39.7402L41.0401 39.1201C41.9701 38.1501 40.5401 33.6301 39.0001 29.3701Z" fill="#FF8E30"/>
<path opacity="0.3" d="M16.51 34.8901C17.02 34.5001 17.51 34.13 17.97 33.79C17.4546 34.117 16.9664 34.4849 16.51 34.8901Z" fill="#FF8E30"/>
<path d="M23.71 32.1494C21.6771 32.1505 19.6863 32.7297 17.97 33.8193C17.5 34.1593 16.97 34.5194 16.51 34.9194L15.86 35.4194L15.33 35.8293L15.17 35.9495L14.55 36.4294L14.22 36.6794L13.78 37.0095C11.9654 38.4918 9.9441 39.7011 7.78003 40.5994L12.42 43.8694L13.02 44.2893L13.83 44.8594C13.9454 44.9004 14.0679 44.9174 14.19 44.9094C15.46 44.9094 17.92 43.4094 22.43 39.9094L22.67 39.7195L23.15 39.3494L23.62 38.9895C26.62 36.6995 28.88 35.1894 30.53 34.6494H30.63C28.6839 33.0249 26.225 32.1427 23.69 32.1594L23.71 32.1494Z" fill="#FF8E30"/>
<path opacity="0.3" d="M15.26 32.1504C15.3569 31.8916 15.4404 31.6278 15.51 31.3604L15.26 32.1504Z" fill="#FF8E30"/>
<path opacity="0.3" d="M22.1 10.2402C22.01 10.5302 21.93 10.8201 21.84 11.1401C21.945 10.8458 22.0318 10.5453 22.1 10.2402Z" fill="#FF8E30"/>
<path d="M20.28 0.149902H18.5C17.5 0.329902 16.19 3.14996 14.44 9.20996C14.4219 9.32402 14.3883 9.4349 14.34 9.53979C14.34 9.65979 14.23 9.91986 14.17 10.1099C14.11 10.2999 14.07 10.4899 14 10.6799C12.92 14.3399 12 16.9098 11 18.2998H12C14.1942 18.2413 16.3184 17.5152 18.0891 16.218C19.8597 14.9208 21.1927 13.1143 21.91 11.0398C22 10.7598 22.08 10.4699 22.17 10.1399L22.47 9.13989L22.68 8.44995L22.76 8.18994C22.82 7.95994 22.9 7.72 22.96 7.5L23.18 6.81982C23.1865 6.73585 23.2103 6.65414 23.25 6.57983C24.25 3.48983 25.04 1.2898 25.99 0.0498047L20.28 0.149902Z" fill="#FF8E30"/>
<path opacity="0.5" d="M36.5501 18.1494C36.2101 18.2194 35.8401 18.3094 35.4501 18.4094C35.8201 18.3394 36.1901 18.2494 36.5501 18.1494Z" fill="#FF8E30"/>
<path d="M42.96 10.8604C42.36 10.8104 41.76 10.7803 41.16 10.7803C39.0325 10.8068 36.9203 11.1437 34.89 11.7803L34.16 12.0005L33.65 12.1704H33.53L33.11 12.2903C32.1364 12.5815 31.1263 12.7332 30.11 12.7405C28.2497 12.7592 26.4306 12.1923 24.91 11.1204L24.54 10.8503V10.9204C24.8989 12.9171 25.8981 14.7425 27.3866 16.1208C28.875 17.4992 30.7718 18.3556 32.79 18.5603C33.09 18.5603 33.41 18.6104 33.74 18.6104C34.307 18.6071 34.8726 18.5537 35.43 18.4504C35.82 18.3504 36.18 18.2604 36.53 18.1904C37.5529 17.9376 38.6085 17.8431 39.66 17.9104C41.2486 18.0499 42.8215 18.3311 44.36 18.7505L49.43 12.2405C47.3233 11.5409 45.1417 11.091 42.93 10.9004L42.96 10.8604Z" fill="#FF8E30"/>
<path d="M55.25 20.5L53.99 27.8298L52.36 26.77C52.36 26.77 53.51 20.7698 53.57 20.3398L55.25 20.5ZM61.16 18.71C61.0897 18.7001 61.0182 18.7041 60.9495 18.7219C60.8808 18.7397 60.8163 18.7708 60.7597 18.8135C60.703 18.8562 60.6553 18.9098 60.6194 18.9709C60.5834 19.0321 60.5598 19.0997 60.55 19.1699V29.95C60.5995 30.5357 60.4322 31.1192 60.08 31.5898C59.835 31.8022 59.5483 31.9609 59.2383 32.0557C58.9282 32.1504 58.6018 32.1791 58.28 32.1399H57.03L56.63 30.01L57.93 30.1099C58.44 30.1099 58.7 29.8699 58.7 29.3799V19.1499C58.7 19.1499 58.75 18.73 58.26 18.73C58.2101 18.7273 58.1601 18.7343 58.113 18.751C58.0658 18.7676 58.0224 18.7935 57.9853 18.8269C57.9481 18.8603 57.9179 18.9007 57.8964 18.9458C57.8749 18.9909 57.8625 19.0399 57.86 19.0898V20.3999C57.9276 22.7916 57.6821 25.182 57.13 27.51C56.5285 29.3844 55.5672 31.1234 54.3 32.6299L52.66 31.3599C53.8801 30.0824 54.7992 28.5483 55.35 26.8699C55.9093 24.4583 56.1513 21.9842 56.07 19.51C56.07 18.61 55.41 18.73 55.41 18.73H52.73V16.73H56.55C56.6322 16.7386 56.7154 16.7283 56.793 16.6997C56.8706 16.6711 56.9406 16.6251 56.9976 16.5652C57.0546 16.5053 57.0971 16.4329 57.1218 16.354C57.1465 16.2751 57.1527 16.1916 57.14 16.1099V15.47C57.1427 15.3872 57.129 15.3048 57.0998 15.2273C57.0706 15.1498 57.0264 15.0789 56.9697 15.0186C56.9131 14.9582 56.8451 14.9096 56.7696 14.8755C56.6942 14.8414 56.6127 14.8224 56.53 14.8198H53.42V12.8799H56.68C56.7552 12.8799 56.8297 12.8648 56.899 12.8354C56.9683 12.8061 57.031 12.7631 57.0832 12.709C57.1355 12.6548 57.1763 12.5905 57.2032 12.5203C57.2302 12.45 57.2427 12.375 57.24 12.2998V10.76H59.31V12.4099C59.2958 12.5226 59.3267 12.6361 59.3961 12.7261C59.4654 12.816 59.5674 12.8749 59.68 12.8899C59.7228 12.8997 59.7672 12.8997 59.81 12.8899H61.64C61.64 12.8899 62.78 12.8099 62.78 13.8899C62.78 14.9699 61.64 14.7898 61.64 14.7898H60.04C59.9617 14.7858 59.8834 14.7974 59.8096 14.824C59.7358 14.8506 59.6681 14.8918 59.6104 14.9448C59.5526 14.9979 59.5061 15.0618 59.4734 15.1331C59.4407 15.2043 59.4226 15.2815 59.42 15.3599V16.24C59.4225 16.3079 59.4386 16.3745 59.4673 16.436C59.4959 16.4976 59.5366 16.5527 59.5869 16.5984C59.6372 16.644 59.6961 16.6793 59.7602 16.7019C59.8243 16.7245 59.8922 16.734 59.96 16.73H61.96C62.2159 16.7099 62.4698 16.789 62.6689 16.9509C62.8681 17.1129 62.9974 17.3452 63.03 17.5999V17.71C63.03 18.71 61.96 18.71 61.96 18.71H61.16ZM63.11 24.3999L61.41 24.9199L60.61 20.8398L62.19 20.46L63.11 24.3999ZM65.51 20.9399L64.51 28.51L62.82 27.1499L63.82 20.73L65.51 20.9399ZM71.57 18.71C71.5069 18.7059 71.4437 18.7142 71.3839 18.7346C71.3241 18.7551 71.2689 18.7873 71.2215 18.8291C71.1742 18.8709 71.1355 18.9215 71.1078 18.9783C71.0801 19.0351 71.0638 19.0968 71.06 19.1599V30.27C71.0985 30.8562 70.9284 31.437 70.58 31.9099C70.3348 32.1181 70.0493 32.2735 69.7413 32.3665C69.4333 32.4594 69.1095 32.4878 68.79 32.45H67.52L67.09 30.3398L68.41 30.4299C68.92 30.4299 69.18 30.1899 69.18 29.6899V19.1499C69.18 19.1499 69.18 18.75 68.66 18.75C68.14 18.75 68.18 19.1499 68.18 19.1499V20.4199C68.2546 22.8124 68.0057 25.2039 67.44 27.5298C66.808 29.452 65.8172 31.2369 64.52 32.7898L62.84 31.49C64.0622 30.2072 64.9993 28.6805 65.59 27.01C66.0681 24.5076 66.3224 21.9675 66.35 19.4199C66.35 18.6699 65.72 18.7798 65.72 18.7798H63.66V16.7798H66.72C66.8616 16.8069 67.0081 16.7784 67.1292 16.7002C67.2503 16.622 67.3365 16.5001 67.37 16.3599C67.3743 16.3334 67.3743 16.3063 67.37 16.2798V15.5598C67.3768 15.4762 67.3669 15.3922 67.3407 15.3125C67.3146 15.2328 67.2729 15.1593 67.2179 15.0959C67.163 15.0326 67.0959 14.9809 67.0207 14.9438C66.9455 14.9068 66.8637 14.8849 66.78 14.8799C66.7474 14.8699 66.7126 14.8699 66.68 14.8799H64V12.8799H66.9C66.9652 12.8897 67.0317 12.8863 67.0955 12.8699C67.1593 12.8534 67.2192 12.8241 67.2715 12.7839C67.3237 12.7438 67.3674 12.6936 67.3998 12.6362C67.4322 12.5788 67.4527 12.5155 67.46 12.45C67.4645 12.4134 67.4645 12.3764 67.46 12.3398V10.75H69.52V12.3699C69.52 12.3699 69.52 12.8799 69.96 12.8799H72.74C72.9919 12.8799 73.2336 12.98 73.4117 13.1582C73.5899 13.3364 73.69 13.5779 73.69 13.8298C73.69 14.0818 73.5899 14.3235 73.4117 14.5017C73.2336 14.6799 72.9919 14.7798 72.74 14.7798H70.14C70.0288 14.7624 69.9151 14.7893 69.8235 14.8547C69.7319 14.9202 69.6696 15.019 69.65 15.1299V16.1299C69.65 16.6999 70.29 16.6499 70.29 16.6499H73.29C73.4093 16.6346 73.5305 16.6436 73.6462 16.6765C73.7619 16.7094 73.8697 16.7654 73.9632 16.8411C74.0566 16.9168 74.1338 17.0106 74.1899 17.1169C74.2461 17.2233 74.2802 17.3401 74.29 17.46C74.3 17.5128 74.3 17.567 74.29 17.6199C74.2906 17.8734 74.1949 18.1178 74.0223 18.3035C73.8496 18.4891 73.6129 18.6021 73.36 18.6199L71.57 18.71ZM72.31 29.3499L71.63 21.0898L73.43 20.7898L74.27 28.8499L72.31 29.3499Z" fill="#FF8E30"/>
<path d="M79.91 26.7996L78.91 32.6296H76.91L77.91 26.5596L79.91 26.7996Z" fill="#FF8E30"/>
<path d="M84.1701 14.1504L85.9601 14.9304L81.1301 22.7305C81.1301 22.7305 80.6401 23.3603 81.1301 23.3303C82.0988 23.259 83.0634 23.139 84.0201 22.9705L83.3501 21.1804L84.9201 20.7104L86.7201 25.0105L84.9201 25.6204L84.5501 24.7205L78.6101 25.3503C78.6101 25.3503 77.1101 25.5003 77.8001 24.3503L81.3801 18.9805L78.5801 19.2803C78.5801 19.2803 77.0801 19.4403 77.4501 18.2803C77.4501 18.2103 80.9001 10.7803 80.9001 10.7803L82.9001 11.3203L80.2101 16.7004C80.2101 16.7004 79.9401 17.2304 80.5601 17.1904C81.1801 17.1504 82.4601 16.9304 82.4601 16.9304" fill="#FF8E30"/>
<path d="M80.9801 32.1501L80.7101 26.6501L82.5101 26.4102L82.9701 31.9102L80.9801 32.1501Z" fill="#FF8E30"/>
<path d="M84.1001 30.4802L83.5701 26.1501L85.2001 25.79L85.8701 29.9802L84.1001 30.4802Z" fill="#FF8E30"/>
<path d="M85.99 13.1494V11.2295H97.82C97.82 11.2295 99.01 11.2294 99.01 12.1294C99.01 13.2494 97.82 13.1294 97.82 13.1294L85.99 13.1494Z" fill="#FF8E30"/>
<path d="M90.5901 24.02H86.5V22.02H90.8201C90.8826 22.02 90.9446 22.0074 91.0023 21.9832C91.0599 21.9589 91.1122 21.9234 91.156 21.8787C91.1998 21.834 91.2342 21.7811 91.2572 21.7229C91.2802 21.6647 91.2914 21.6024 91.2901 21.5398V19.96H93.41V21.6599C93.41 21.6599 93.4101 22.0498 93.7601 22.0498H97.8201C98.0806 22.0331 98.3372 22.119 98.5353 22.2891C98.7334 22.4591 98.8571 22.6999 98.8801 22.96C98.8851 22.9897 98.8851 23.02 98.8801 23.0498C98.8801 23.315 98.7747 23.5695 98.5872 23.7571C98.3996 23.9446 98.1453 24.0498 97.8801 24.0498H94.0701C93.4701 24.0498 93.8 24.52 93.8 24.52L98.8501 32.74H96.0101L93.33 27.74V32.8999H91.2101V27.75L87.4201 32.8499H84.9301L90.69 24.72C90.91 24.35 91.1601 24.02 90.5901 24.02Z" fill="#FF8E30"/>
<path d="M87.75 20.2197L86.37 15.9397L88.37 15.3896L89.94 19.6697L87.75 20.2197Z" fill="#FF8E30"/>
<path d="M91.47 19.0793L90.97 15.0793L93.04 14.8193L93.65 18.8994L91.47 19.0793Z" fill="#FF8E30"/>
<path d="M98.6301 15.2502L96.5401 20.3601L94.4301 19.3601L96.6301 14.4902L98.6301 15.2502Z" fill="#FF8E30"/>
<path d="M104.56 13.4897C104.56 13.4897 105.64 13.5597 105.05 12.4897L104.34 10.9897L106.5 10.7197L107.14 12.1797C107.14 12.1797 107.72 13.4998 108.61 13.4998H109.61C109.61 13.4998 110.79 13.4998 110.79 14.4998C110.79 14.7818 110.679 15.0523 110.48 15.2527C110.282 15.4531 110.012 15.5669 109.73 15.5696H101.64V13.5696L104.56 13.4897ZM102.34 17.0295H108.82C108.82 17.0295 109.99 17.0295 109.99 18.0295C109.99 19.0295 108.82 19.0295 108.82 19.0295H102.36L102.34 17.0295ZM102.34 20.5295H108.82C108.82 20.5295 110.02 20.4695 110.02 21.5295C110.02 22.5895 108.77 22.5295 108.77 22.5295H102.34V20.5295ZM102.34 24.2996H108.68C108.68 24.2996 109.95 24.1697 109.95 25.6497V32.6497H107.82V31.5696H104.53V32.8896H102.37L102.34 24.2996ZM107.79 26.2397H104.5V29.5896H107.82L107.79 26.2397ZM120.82 12.8496V16.5796C120.77 16.9445 120.848 17.3154 121.04 17.6296C121.299 17.8191 121.622 17.9014 121.94 17.8596H122.36C122.36 17.8596 123.45 17.8596 123.45 18.8596C123.45 19.8596 122.37 19.8596 122.37 19.8596H121.14C120.447 19.9125 119.759 19.7057 119.21 19.2795C118.958 18.9665 118.772 18.6062 118.662 18.2197C118.552 17.8332 118.521 17.4283 118.57 17.0295V13.4397H115.25V14.2197C115.288 15.3348 115.08 16.4445 114.64 17.4697C113.954 18.6914 113.041 19.7706 111.95 20.6497L110.16 19.0896C111.142 18.4333 111.957 17.5566 112.54 16.5295C112.969 15.2973 113.149 13.9922 113.07 12.6897V11.4397H119.49C119.49 11.4397 120.84 11.2996 120.84 12.8796L120.82 12.8496ZM122.08 22.8496C122.201 24.5426 121.891 26.2384 121.18 27.7795C120.663 28.7368 119.947 29.5723 119.08 30.2297C120.053 30.5266 121.063 30.6848 122.08 30.6997C122.08 30.6997 123.18 30.6997 123.18 31.6997C123.18 32.6997 122.01 32.6997 122.01 32.6997C120.23 32.7307 118.466 32.3579 116.85 31.6096C115.17 32.6696 110.67 32.6096 110.67 32.6096V30.4397C111.996 30.57 113.335 30.4202 114.6 29.9998C113.991 29.2683 113.468 28.4697 113.04 27.6196C112.514 26.4854 112.176 25.2727 112.04 24.0295H114.15C114.181 24.7904 114.298 25.5453 114.5 26.2795C114.933 27.5246 115.809 28.5674 116.96 29.2097C117.852 28.655 118.583 27.8757 119.08 26.9497C119.512 25.7012 119.679 24.3762 119.57 23.0596H111.22V21.0596H120.04C120.04 21.0596 122.13 20.7998 122.13 22.7698L122.08 22.8496Z" fill="#FF8E30"/>
<path d="M136.69 14.5605C136.69 15.5605 135.64 15.5605 135.64 15.5605H126.06V13.5605H129.42C129.42 13.5605 130.42 13.6307 130.11 12.9607L129.16 11.0505L131.49 10.7708L132.49 12.9207C132.566 13.1202 132.705 13.2899 132.885 13.405C133.065 13.5202 133.277 13.5747 133.49 13.5605H135.62C135.751 13.5524 135.883 13.5704 136.008 13.6133C136.132 13.6562 136.247 13.7232 136.345 13.8105C136.444 13.8979 136.524 14.0039 136.581 14.1223C136.639 14.2407 136.672 14.3693 136.68 14.5007V14.5706L136.69 14.5605ZM126.82 17.1506H134.9C135.02 17.1368 135.141 17.1474 135.257 17.1814C135.373 17.2154 135.48 17.2724 135.574 17.3489C135.667 17.4254 135.744 17.5196 135.8 17.6265C135.856 17.7333 135.89 17.8505 135.9 17.9707C135.91 18.0303 135.91 18.0911 135.9 18.1506C135.91 18.2758 135.892 18.4016 135.847 18.5188C135.802 18.636 135.732 18.7418 135.64 18.8281C135.549 18.9145 135.44 18.9793 135.321 19.0178C135.201 19.0563 135.074 19.0674 134.95 19.0505H126.82V17.1506ZM126.82 20.6907H134.9C134.9 20.6907 135.97 20.6906 135.97 21.5906C135.97 22.4906 134.9 22.5906 134.9 22.5906H126.82V20.6907ZM126.9 24.4307H134.4C134.566 24.4112 134.734 24.4248 134.894 24.4707C135.054 24.5166 135.204 24.5941 135.334 24.6982C135.464 24.8024 135.573 24.9313 135.653 25.0776C135.733 25.224 135.783 25.3847 135.8 25.5505C135.82 25.6495 135.82 25.7516 135.8 25.8506V32.6406H133.5V31.6406H129.22V32.9106H126.89L126.9 24.4307ZM133.5 26.3105H129.22V29.7107H133.54L133.5 26.3105ZM143.82 10.7607V16.7607C143.815 16.8632 143.83 16.9656 143.864 17.0623C143.898 17.159 143.951 17.248 144.02 17.3242C144.089 17.4004 144.172 17.4621 144.264 17.5061C144.357 17.5501 144.458 17.5754 144.56 17.5806H147.2C147.456 17.5547 147.713 17.6288 147.916 17.7871C148.119 17.9454 148.253 18.1759 148.29 18.4307C148.295 18.5006 148.295 18.5707 148.29 18.6406C148.304 18.7779 148.291 18.9165 148.251 19.0486C148.211 19.1807 148.146 19.3036 148.058 19.4104C147.971 19.5172 147.864 19.6057 147.742 19.6709C147.62 19.7361 147.487 19.7768 147.35 19.7905H144.51C143.65 19.7905 143.78 20.6907 143.78 20.6907V32.8206H141.4V20.4707C141.414 20.2918 141.357 20.1148 141.24 19.978C141.124 19.8413 140.959 19.756 140.78 19.7407C140.717 19.7303 140.653 19.7303 140.59 19.7407H137V17.5605H140.72C140.81 17.5659 140.9 17.5533 140.986 17.5234C141.071 17.4936 141.149 17.447 141.216 17.3865C141.283 17.326 141.338 17.2529 141.376 17.1711C141.414 17.0894 141.436 17.0009 141.44 16.9106C141.445 16.8608 141.445 16.8106 141.44 16.7607V10.7607H143.82Z" fill="#FF8E30"/>
<path d="M166.96 23.5095C166.96 23.5095 168.32 23.4295 168.38 24.4595C168.44 25.6595 166.96 25.9795 166.96 25.9795L163.06 27.2793H171.44C171.44 27.2793 172.78 27.1494 172.82 28.1794C172.86 29.2094 171.44 29.1794 171.44 29.1794H163.06V30.6494C163.06 31.9794 162.36 32.6494 160.93 32.6494H157.2V30.7595L160.2 30.8694C160.362 30.8893 160.525 30.845 160.654 30.7458C160.783 30.6467 160.868 30.5006 160.89 30.3394C160.9 30.2798 160.9 30.219 160.89 30.1594V29.1594H150.68V27.2595H160.82C160.881 26.9616 161.015 26.6833 161.21 26.4495C161.49 26.1695 161.7 26.0894 162.62 25.8494L164.92 25.2495H155.06V23.4495L166.96 23.5095ZM170.24 22.5095H153.3V25.9695H151.21V21.6094C151.196 21.4895 151.207 21.3682 151.241 21.2524C151.275 21.1367 151.332 21.0291 151.408 20.9358C151.485 20.8425 151.579 20.7655 151.686 20.7095C151.793 20.6534 151.91 20.6193 152.03 20.6094H152.26V11.6094L157.26 10.9294L158.26 12.6594L154.26 13.2993V14.4495H157.85V16.0493H154.26V17.3694H157.85V18.9995H154.26V20.5693H169.19V19.0095H165.82V17.3694H169.19V16.1494H165.82V14.5493H169.19V13.2595H165.55V11.3894H169.87C169.87 11.3894 171.2 11.3294 171.2 12.9194V20.6594C171.2 20.6594 172.32 20.5193 172.32 21.8293V25.9695H170.22L170.24 22.5095ZM162.12 14.0793L159.53 15.6794L158.35 14.1094L160.7 12.8894L159.43 11.6594L160.68 10.5693L162.25 12.0593L163.83 10.9495L164.93 12.1094L163.49 13.1094L164.86 14.3794L163.42 15.3794L162.12 14.0793ZM162.12 18.9094L159.7 20.3394L158.7 18.8594L160.83 17.6594L159.6 16.4495L161.05 15.4495L162.31 16.7993L164.18 15.5493L165.18 16.8594L163.64 17.8594L164.84 19.1394L163.45 20.2295L162.12 18.9094Z" fill="#FF8E30"/>
<path d="M182.17 13.1494C182.17 13.1494 181.07 17.6295 180.9 18.2495C180.804 18.7981 180.863 19.3624 181.07 19.8794L182.5 24.3594C182.619 24.6386 182.68 24.9389 182.681 25.2422C182.681 25.5455 182.621 25.8458 182.503 26.1255C182.386 26.4051 182.214 26.6584 181.997 26.8704C181.78 27.0823 181.522 27.2485 181.24 27.3594L180.94 27.4595L178.08 27.6494V25.4194H179.73C180.73 25.3694 180.4 24.3594 180.4 24.3594L178.88 20.2195C178.589 19.6183 178.532 18.9302 178.72 18.2893C178.91 17.6493 179.94 13.6895 179.94 13.6895H177.43V32.8594H175.2V11.6294H180.82C182.56 11.6194 182.17 13.1494 182.17 13.1494ZM185.17 23.6194H182.82V21.6194H195.37C195.37 21.6194 196.57 21.5595 196.54 22.6995C196.532 22.8396 196.497 22.9769 196.436 23.1033C196.375 23.2297 196.289 23.3425 196.184 23.4355C196.079 23.5286 195.956 23.6 195.824 23.6453C195.691 23.6905 195.55 23.7089 195.41 23.6995H192.85C192.85 23.6995 191.95 23.6495 191.95 24.6995V29.6995C191.927 29.8898 191.979 30.0817 192.094 30.2346C192.21 30.3876 192.381 30.4898 192.57 30.5195C192.643 30.5343 192.717 30.5343 192.79 30.5195H196.47C196.725 30.5348 196.964 30.6469 197.139 30.8328C197.313 31.0187 197.411 31.2644 197.41 31.5195C197.411 31.7747 197.313 32.0202 197.139 32.2061C196.964 32.392 196.725 32.5042 196.47 32.5195H192.17C191.523 32.5622 190.883 32.3585 190.38 31.9495C189.898 31.3237 189.683 30.5332 189.78 29.7495V24.6494C189.794 24.4271 189.72 24.2083 189.574 24.04C189.428 23.8717 189.222 23.7674 189 23.7495H188.88C188.09 23.7495 188.1 24.6495 188.09 24.7495C188.089 26.4494 187.622 28.1162 186.74 29.5693C185.572 31.1156 183.992 32.3012 182.18 32.9895L180.76 30.9895C182.343 30.5644 183.759 29.668 184.82 28.4194C185.532 27.3335 185.92 26.0678 185.94 24.7695C185.94 24.7695 186.15 23.7095 185.16 23.7095L185.17 23.6194ZM194.35 19.3494H184.64V18.1995H182.82V12.9294H187.82C188.41 12.9294 188.14 12.4495 188.14 12.4495L187.39 11.0095L189.68 10.7295L190.51 12.3894C190.595 12.554 190.725 12.6915 190.884 12.7869C191.042 12.8822 191.225 12.9317 191.41 12.9294H195.25C195.515 12.9294 195.77 13.0349 195.957 13.2224C196.145 13.4099 196.25 13.6642 196.25 13.9294C196.255 13.976 196.255 14.0228 196.25 14.0693V18.2095H194.46L194.35 19.3494ZM193.97 15.0195H184.97V17.3293H193.97V15.0195Z" fill="#FF8E30"/>
<path d="M57.1201 40.0603H54.3201L53.5901 41.7305H52.6901L55.2701 36.0205H56.2701L58.8401 41.7305H57.8401L57.1201 40.0603ZM55.7301 36.8503L54.6501 39.3704H56.8201L55.7301 36.8503Z" fill="#FF8E30"/>
<path d="M59.25 37.5399H60.05V38.13C60.2473 37.9049 60.4925 37.727 60.7677 37.6093C61.0429 37.4916 61.341 37.4372 61.64 37.4501C62.2017 37.4879 62.7282 37.7376 63.1127 38.1488C63.4972 38.5601 63.7111 39.1019 63.7111 39.6649C63.7111 40.2279 63.4972 40.7701 63.1127 41.1813C62.7282 41.5925 62.2017 41.8423 61.64 41.88C61.3402 41.8916 61.0416 41.8356 60.7664 41.7162C60.4911 41.5968 60.2463 41.417 60.05 41.1901V43.35H59.25V37.5399ZM61.55 38.12C61.2454 38.12 60.9477 38.2103 60.6944 38.3795C60.4412 38.5487 60.2438 38.7893 60.1272 39.0707C60.0107 39.3521 59.9802 39.6619 60.0396 39.9606C60.099 40.2593 60.2457 40.5335 60.4611 40.7489C60.6764 40.9643 60.9508 41.1111 61.2496 41.1705C61.5483 41.23 61.8579 41.1995 62.1393 41.0829C62.4207 40.9663 62.6613 40.7688 62.8305 40.5155C62.9997 40.2623 63.09 39.9646 63.09 39.66C63.09 39.2516 62.9278 38.86 62.6389 38.5712C62.3501 38.2824 61.9584 38.12 61.55 38.12Z" fill="#FF8E30"/>
<path d="M64.6901 37.5399H65.4901V38.13C65.6873 37.9049 65.9326 37.727 66.2078 37.6093C66.483 37.4916 66.781 37.4372 67.0801 37.4501C67.6418 37.4879 68.1682 37.7376 68.5527 38.1488C68.9373 38.5601 69.1512 39.1019 69.1512 39.6649C69.1512 40.2279 68.9373 40.7701 68.5527 41.1813C68.1682 41.5925 67.6418 41.8423 67.0801 41.88C66.7803 41.8916 66.4817 41.8356 66.2064 41.7162C65.9312 41.5968 65.6864 41.417 65.4901 41.1901V43.35H64.6901V37.5399ZM66.9901 38.12C66.6855 38.12 66.3877 38.2103 66.1345 38.3795C65.8812 38.5487 65.6839 38.7893 65.5673 39.0707C65.4507 39.3521 65.4202 39.6619 65.4797 39.9606C65.5391 40.2593 65.6858 40.5335 65.9011 40.7489C66.1165 40.9643 66.3909 41.1111 66.6896 41.1705C66.9884 41.23 67.298 41.1995 67.5794 41.0829C67.8608 40.9663 68.1013 40.7688 68.2705 40.5155C68.4398 40.2623 68.5301 39.9646 68.5301 39.66C68.5222 39.2568 68.3565 38.8728 68.0685 38.5905C67.7806 38.3081 67.3934 38.15 66.9901 38.15V38.12Z" fill="#FF8E30"/>
<path d="M70.82 39.8693C70.8556 40.245 71.0342 40.5927 71.3191 40.8403C71.6039 41.0879 71.973 41.2165 72.35 41.1994C72.6261 41.2191 72.9019 41.1574 73.1435 41.0224C73.3852 40.8874 73.5821 40.6848 73.71 40.4394H74.53C74.3574 40.8651 74.0592 41.228 73.675 41.4799C73.2909 41.7318 72.8392 41.8606 72.38 41.8493C71.7859 41.8493 71.2162 41.6134 70.7961 41.1933C70.376 40.7732 70.14 40.2034 70.14 39.6093C70.14 39.0152 70.376 38.4454 70.7961 38.0253C71.2162 37.6053 71.7859 37.3693 72.38 37.3693C72.946 37.3389 73.5013 37.5312 73.9274 37.905C74.3535 38.2787 74.6164 38.8043 74.66 39.3693C74.66 39.4793 74.66 39.5894 74.66 39.6994V39.7993L70.82 39.8693ZM73.82 39.2395C73.7638 38.896 73.5825 38.5855 73.3112 38.3676C73.0398 38.1498 72.6975 38.0399 72.35 38.0593C71.9993 38.0449 71.6548 38.1559 71.3782 38.372C71.1016 38.5882 70.9109 38.8956 70.84 39.2395H73.82Z" fill="#FF8E30"/>
<path d="M79.19 41.1499C78.9928 41.375 78.7475 41.553 78.4723 41.6707C78.1971 41.7883 77.899 41.8427 77.6 41.8298C77.0383 41.7921 76.5119 41.5423 76.1274 41.1311C75.7428 40.7199 75.5289 40.178 75.5289 39.615C75.5289 39.052 75.7428 38.5099 76.1274 38.0986C76.5119 37.6874 77.0383 37.4377 77.6 37.3999C77.899 37.3871 78.1971 37.4414 78.4723 37.5591C78.7475 37.6768 78.9928 37.8547 79.19 38.0798V35.9199H79.99V41.6699H79.19V41.1499ZM77.69 41.1499C77.9942 41.1479 78.2909 41.0559 78.5429 40.8855C78.7948 40.7151 78.9906 40.4739 79.1057 40.1924C79.2207 39.9108 79.2498 39.6015 79.1892 39.3035C79.1287 39.0054 78.9812 38.732 78.7654 38.5176C78.5497 38.3032 78.2753 38.1575 77.9768 38.0989C77.6784 38.0403 77.3692 38.0711 77.0884 38.188C76.8076 38.3048 76.5677 38.5023 76.3989 38.7554C76.2301 39.0084 76.14 39.3057 76.14 39.6099C76.14 39.8129 76.1802 40.0142 76.2582 40.2017C76.3362 40.3892 76.4505 40.5593 76.5946 40.7024C76.7387 40.8455 76.9096 40.9588 77.0976 41.0356C77.2856 41.1124 77.4869 41.1512 77.69 41.1499Z" fill="#FF8E30"/>
<path d="M85.16 41.7302H84.36V41.0901C84.1735 41.3467 83.9257 41.5525 83.6393 41.6887C83.3528 41.825 83.0368 41.8873 82.72 41.8701C81.72 41.8701 80.92 41.4401 80.92 40.3901V37.54H81.72V40.2302C81.72 40.8502 82.1 41.2302 82.96 41.2302C83.123 41.2468 83.2877 41.2308 83.4445 41.1833C83.6013 41.1359 83.7471 41.0578 83.8735 40.9536C84 40.8495 84.1046 40.7214 84.1812 40.5767C84.2578 40.4319 84.305 40.2732 84.32 40.1101C84.3254 40.0669 84.3254 40.0234 84.32 39.9802V37.5701H85.12L85.16 41.7302Z" fill="#FF8E30"/>
<path d="M93.6001 38.0798C93.5193 37.6353 93.2734 37.2378 92.9117 36.967C92.5501 36.6963 92.0994 36.5722 91.6501 36.6199C91.3815 36.598 91.1112 36.6292 90.8547 36.7119C90.5982 36.7946 90.3605 36.927 90.1553 37.1016C89.95 37.2762 89.7812 37.4896 89.6585 37.7295C89.5357 37.9694 89.4615 38.2314 89.4401 38.5C89.4251 38.6496 89.4251 38.8003 89.4401 38.95C89.4154 39.2159 89.4444 39.4842 89.5251 39.7388C89.6058 39.9934 89.7367 40.2292 89.9101 40.4324C90.0835 40.6356 90.2958 40.8021 90.5345 40.9219C90.7732 41.0417 91.0335 41.1123 91.3001 41.1299H91.5801C92.0549 41.1702 92.5272 41.0267 92.8993 40.729C93.2715 40.4313 93.5152 40.0019 93.5801 39.5298H94.4801C94.3899 40.2188 94.0366 40.8464 93.4941 41.2808C92.9516 41.7151 92.2622 41.9226 91.5701 41.8599C90.7744 41.8599 90.0114 41.5438 89.4487 40.9812C88.8861 40.4186 88.5701 39.6555 88.5701 38.8599C88.5701 38.0642 88.8861 37.3011 89.4487 36.7385C90.0114 36.1759 90.7744 35.8599 91.5701 35.8599C92.2393 35.7826 92.9123 35.9692 93.4462 36.3799C93.9802 36.7906 94.3331 37.3932 94.4301 38.0598L93.6001 38.0798Z" fill="#FF8E30"/>
<path d="M97.53 37.4C97.9641 37.435 98.3786 37.5958 98.7227 37.8627C99.0668 38.1295 99.3257 38.4908 99.4677 38.9025C99.6096 39.3142 99.6285 39.7583 99.522 40.1806C99.4155 40.6028 99.1882 40.9851 98.868 41.2802C98.5477 41.5753 98.1484 41.7705 97.7189 41.8422C97.2893 41.9139 96.8482 41.8588 96.4495 41.6837C96.0508 41.5087 95.7117 41.2213 95.4738 40.8566C95.2359 40.4918 95.1095 40.0655 95.11 39.63C95.1007 39.3434 95.1483 39.0578 95.25 38.7897C95.3518 38.5215 95.5057 38.2761 95.7028 38.0678C95.9 37.8595 96.1364 37.6924 96.3986 37.5761C96.6607 37.4597 96.9433 37.3965 97.23 37.39C97.3301 37.3834 97.4306 37.3867 97.53 37.4ZM97.53 38.0599C97.2204 38.0639 96.9189 38.1595 96.6633 38.3344C96.4078 38.5093 96.2097 38.7557 96.0939 39.0429C95.9781 39.3301 95.9499 39.6452 96.0127 39.9484C96.0755 40.2516 96.2266 40.5294 96.4469 40.747C96.6673 40.9645 96.947 41.1123 97.251 41.1713C97.555 41.2303 97.8697 41.1979 98.1554 41.0785C98.4411 40.9591 98.6851 40.7579 98.8568 40.5001C99.0284 40.2424 99.12 39.9397 99.12 39.63C99.1448 39.2406 99.0147 38.8572 98.7582 38.5631C98.5016 38.2691 98.1392 38.0882 97.75 38.0599H97.53Z" fill="#FF8E30"/>
<path d="M107.1 39.0698C107.12 38.9338 107.108 38.795 107.065 38.6645C107.022 38.5339 106.949 38.4153 106.852 38.318C106.755 38.2208 106.636 38.1478 106.505 38.1047C106.375 38.0616 106.236 38.0495 106.1 38.0698C105.38 38.0698 104.73 38.4199 104.73 39.1899V41.7299H103.93V39.0397C103.945 38.9227 103.937 38.804 103.906 38.6901C103.875 38.5762 103.822 38.4697 103.749 38.3766C103.677 38.2836 103.586 38.2057 103.484 38.1479C103.381 38.0901 103.267 38.0533 103.15 38.0397H102.93C102.766 38.0232 102.601 38.0395 102.443 38.0876C102.286 38.1356 102.14 38.2146 102.013 38.3198C101.887 38.4249 101.782 38.5544 101.706 38.7004C101.63 38.8463 101.584 39.0058 101.57 39.1699C101.565 39.2097 101.565 39.2499 101.57 39.2897V41.6999H100.77V37.5397H101.57V38.1699C101.757 37.9144 102.005 37.7102 102.292 37.5756C102.578 37.4411 102.894 37.3806 103.21 37.3998C103.495 37.392 103.777 37.4588 104.028 37.5939C104.279 37.729 104.49 37.9277 104.64 38.1699C104.837 37.9158 105.093 37.7131 105.386 37.579C105.678 37.445 105.999 37.3836 106.32 37.3998C106.514 37.3834 106.709 37.4053 106.894 37.4643C107.079 37.5232 107.251 37.618 107.4 37.7433C107.548 37.8687 107.671 38.0221 107.76 38.1948C107.849 38.3674 107.904 38.5562 107.92 38.7499V41.7499H107.12L107.1 39.0698Z" fill="#FF8E30"/>
<path d="M108.82 37.5402H109.62V38.1302C109.817 37.9052 110.063 37.7272 110.338 37.6095C110.613 37.4918 110.911 37.4375 111.21 37.4503C111.513 37.4299 111.818 37.472 112.104 37.5741C112.391 37.6762 112.653 37.8359 112.875 38.0436C113.097 38.2513 113.274 38.5024 113.395 38.7814C113.517 39.0603 113.579 39.3611 113.579 39.6652C113.579 39.9692 113.517 40.2703 113.395 40.5492C113.274 40.8281 113.097 41.0791 112.875 41.2867C112.653 41.4944 112.391 41.6544 112.104 41.7565C111.818 41.8585 111.513 41.9006 111.21 41.8802C110.91 41.8919 110.612 41.8359 110.336 41.7164C110.061 41.597 109.816 41.4172 109.62 41.1903V43.3502H108.82V37.5402ZM111.12 38.1202C110.815 38.1202 110.518 38.2105 110.264 38.3798C110.011 38.549 109.814 38.7895 109.697 39.0709C109.581 39.3523 109.55 39.6621 109.61 39.9608C109.669 40.2595 109.816 40.5338 110.031 40.7491C110.247 40.9645 110.521 41.1114 110.82 41.1708C111.118 41.2302 111.428 41.1997 111.709 41.0831C111.991 40.9666 112.231 40.769 112.401 40.5157C112.57 40.2625 112.66 39.9649 112.66 39.6603C112.675 39.4724 112.653 39.2834 112.594 39.1041C112.536 38.9249 112.443 38.759 112.32 38.6158C112.198 38.4727 112.048 38.3552 111.88 38.2701C111.711 38.1851 111.528 38.1341 111.34 38.1202H111.12Z" fill="#FF8E30"/>
<path d="M118.53 41.7302H117.72V41.0901C117.534 41.3467 117.286 41.5525 116.999 41.6887C116.713 41.825 116.397 41.8873 116.08 41.8701C115.08 41.8701 114.29 41.4401 114.29 40.3901V37.54H115.09V40.2302C115.09 40.8502 115.46 41.2302 116.32 41.2302C116.483 41.2468 116.648 41.2308 116.804 41.1833C116.961 41.1359 117.107 41.0578 117.234 40.9536C117.36 40.8495 117.465 40.7214 117.541 40.5767C117.618 40.4319 117.665 40.2732 117.68 40.1101C117.685 40.0669 117.685 40.0234 117.68 39.9802V37.5701H118.49L118.53 41.7302Z" fill="#FF8E30"/>
<path d="M119.82 36.25H120.62V37.5398H121.82V38.1599H120.62V40.74C120.62 41.08 120.86 41.2 121.27 41.2C121.451 41.1948 121.632 41.1747 121.81 41.1399V41.8098C121.513 41.8603 121.211 41.8805 120.91 41.8699C120.13 41.8699 119.82 41.4899 119.82 40.8699V38.1499H118.92V37.5298H119.82V36.25Z" fill="#FF8E30"/>
<path d="M123.09 39.8698C123.13 40.2472 123.313 40.5951 123.601 40.8422C123.889 41.0894 124.261 41.2173 124.64 41.1999C124.914 41.2198 125.187 41.1593 125.427 41.0261C125.667 40.8929 125.862 40.6927 125.99 40.4499H126.82C126.676 40.8378 126.429 41.1789 126.105 41.4365C125.781 41.694 125.393 41.8581 124.983 41.9111C124.573 41.9641 124.156 41.904 123.777 41.7373C123.398 41.5705 123.072 41.3033 122.835 40.9648C122.597 40.6263 122.456 40.2291 122.427 39.8164C122.399 39.4036 122.484 38.991 122.673 38.623C122.862 38.255 123.148 37.9456 123.5 37.7282C123.852 37.5109 124.256 37.3938 124.67 37.3898C125.236 37.3594 125.791 37.5517 126.217 37.9255C126.644 38.2992 126.906 38.8248 126.95 39.3898C126.95 39.4998 126.95 39.6099 126.95 39.7099V39.8198L123.09 39.8698ZM126.09 39.2399C126.038 38.8964 125.86 38.5846 125.589 38.3662C125.319 38.1478 124.977 38.0384 124.63 38.0598C124.279 38.0434 123.933 38.1536 123.656 38.3701C123.379 38.5866 123.189 38.8952 123.12 39.2399H126.09Z" fill="#FF8E30"/>
<path d="M127.76 37.5406H128.56V38.3007C128.689 38.0307 128.891 37.8027 129.145 37.6434C129.398 37.4841 129.691 37.4 129.99 37.4007C130.143 37.3807 130.297 37.3807 130.45 37.4007V38.3007C130.264 38.2496 130.073 38.2229 129.88 38.2208C129.547 38.196 129.218 38.3041 128.965 38.5216C128.712 38.7391 128.556 39.048 128.53 39.3807C128.525 39.454 128.525 39.5275 128.53 39.6007V41.7308H127.73L127.76 37.5406Z" fill="#FF8E30"/>
<path d="M133.82 36.0205H136.71C138.42 36.0205 139.2 37.1403 139.2 38.7903C139.2 40.4403 138.51 41.7305 136.76 41.7305H133.82V36.0205ZM136.72 41.0205C138.11 41.0205 138.36 39.8603 138.36 38.8303C138.36 37.8003 138.03 36.8303 136.57 36.8303H134.64V41.0603L136.72 41.0205Z" fill="#FF8E30"/>
<path d="M140.67 39.8693C140.708 40.2459 140.889 40.5936 141.175 40.841C141.462 41.0884 141.832 41.2167 142.21 41.1994C142.486 41.2178 142.761 41.1558 143.003 41.0209C143.244 40.8861 143.441 40.684 143.57 40.4394H144.42C144.243 40.8642 143.943 41.226 143.557 41.4775C143.172 41.729 142.72 41.8585 142.26 41.8493C141.666 41.8493 141.096 41.6134 140.676 41.1933C140.256 40.7732 140.02 40.2034 140.02 39.6093C140.02 39.0152 140.256 38.4454 140.676 38.0253C141.096 37.6053 141.666 37.3693 142.26 37.3693C142.826 37.3389 143.381 37.5312 143.807 37.905C144.234 38.2787 144.496 38.8043 144.54 39.3693C144.54 39.4793 144.54 39.5894 144.54 39.6994V39.7993L140.67 39.8693ZM143.67 39.2395C143.616 38.895 143.435 38.5832 143.163 38.3649C142.892 38.1467 142.548 38.0376 142.2 38.0593C141.849 38.0449 141.505 38.1559 141.228 38.372C140.952 38.5882 140.761 38.8956 140.69 39.2395H143.67Z" fill="#FF8E30"/>
<path d="M145.88 40.4407C145.88 40.8107 146.18 41.2708 147.2 41.2708C148.22 41.2708 148.48 40.9106 148.48 40.6206C148.48 40.3306 148.33 40.1505 147.69 40.0605L146.38 39.8806C146.085 39.8734 145.804 39.7552 145.592 39.5493C145.381 39.3435 145.255 39.0654 145.24 38.7708C145.24 37.8708 145.96 37.4307 147.15 37.4307C148.51 37.4307 149.15 38.0206 149.15 38.8306H148.35C148.35 38.4006 147.93 38.0405 147.1 38.0405C146.58 38.0405 146 38.2007 146 38.6907C146 38.9707 146.12 39.1307 146.7 39.2007L147.82 39.3506C148.88 39.5006 149.29 39.8807 149.29 40.4607C149.29 41.4607 148.46 41.9006 147.19 41.9006C146.19 41.9006 145.13 41.6507 145.04 40.4407H145.88Z" fill="#FF8E30"/>
<path d="M150.05 35.96H150.85V36.8599H150.05V35.96ZM150.05 37.52H150.85V41.71H150.05V37.52Z" fill="#FF8E30"/>
<path d="M155.57 37.5395H156.36V41.3295C156.36 42.8395 155.64 43.4496 153.93 43.4496C153.03 43.4496 151.93 43.3096 151.82 42.1396H152.62C152.77 42.6896 153.24 42.8195 154.01 42.8195C155.13 42.8195 155.57 42.2495 155.57 41.5595V40.9596C155.387 41.2148 155.143 41.4194 154.86 41.5541C154.576 41.6888 154.263 41.7492 153.95 41.7297C153.377 41.7297 152.828 41.5019 152.423 41.0969C152.018 40.6918 151.79 40.1424 151.79 39.5695C151.79 38.9966 152.018 38.4472 152.423 38.0422C152.828 37.6371 153.377 37.4096 153.95 37.4096C154.259 37.3843 154.57 37.4359 154.854 37.5597C155.139 37.6836 155.388 37.8759 155.58 38.1196L155.57 37.5395ZM154.02 38.1196C153.833 38.1088 153.646 38.1354 153.47 38.1977C153.293 38.26 153.131 38.3567 152.992 38.4823C152.853 38.608 152.741 38.7601 152.662 38.9296C152.582 39.0991 152.538 39.2827 152.53 39.4697C152.52 39.5192 152.52 39.5701 152.53 39.6196C152.512 39.8051 152.532 39.9924 152.587 40.1703C152.643 40.3483 152.733 40.5134 152.853 40.6559C152.973 40.7984 153.121 40.9154 153.287 41.0002C153.453 41.085 153.634 41.1358 153.82 41.1496H154.03C154.217 41.1661 154.406 41.1455 154.585 41.089C154.764 41.0326 154.93 40.9415 155.074 40.8207C155.218 40.7 155.337 40.5521 155.424 40.3854C155.511 40.2188 155.564 40.0367 155.58 39.8495V39.6696C155.589 39.4804 155.561 39.2913 155.498 39.113C155.434 38.9346 155.336 38.7706 155.208 38.6303C155.081 38.49 154.927 38.3764 154.756 38.2956C154.585 38.2148 154.399 38.1686 154.21 38.1596H153.99L154.02 38.1196Z" fill="#FF8E30"/>
<path d="M157.28 37.5399H158.08V38.17C158.267 37.9146 158.515 37.7103 158.802 37.5758C159.088 37.4412 159.404 37.3807 159.72 37.4C160.72 37.4 161.52 37.83 161.52 38.88V41.7301H160.72V39.0399C160.72 38.4299 160.34 38.0399 159.48 38.0399C159.149 38.0092 158.819 38.1109 158.562 38.3226C158.305 38.5343 158.143 38.8389 158.11 39.17V41.71H157.31L157.28 37.5399Z" fill="#FF8E30"/>
<path d="M165.32 36.0205H166.17V41.7305H165.32V36.0205Z" fill="#FF8E30"/>
<path d="M167.33 37.5399H168.13V38.17C168.317 37.9146 168.565 37.7103 168.852 37.5758C169.138 37.4412 169.454 37.3807 169.77 37.4C170.77 37.4 171.56 37.83 171.56 38.88V41.7301H170.76V39.0399C170.76 38.4299 170.39 38.0399 169.53 38.0399C169.196 38.0092 168.864 38.112 168.605 38.3255C168.347 38.5391 168.183 38.8463 168.15 39.18V41.71H167.35L167.33 37.5399Z" fill="#FF8E30"/>
<path d="M173.07 40.4407C173.07 40.8107 173.37 41.2708 174.39 41.2708C175.41 41.2708 175.67 40.9106 175.67 40.6206C175.67 40.3306 175.52 40.1505 174.87 40.0605L173.55 39.8806C173.257 39.871 172.978 39.7515 172.769 39.5459C172.559 39.3403 172.435 39.0638 172.42 38.7708C172.42 37.8708 173.15 37.4307 174.33 37.4307C175.69 37.4307 176.33 38.0206 176.33 38.8306H175.53C175.53 38.4006 175.1 38.0405 174.28 38.0405C173.77 38.0405 173.18 38.2007 173.18 38.6907C173.18 38.9707 173.3 39.1307 173.87 39.2007L175.01 39.3506C176.07 39.5006 176.47 39.8807 176.47 40.4607C176.47 41.4607 175.64 41.9006 174.37 41.9006C173.37 41.9006 172.37 41.6507 172.23 40.4407H173.07Z" fill="#FF8E30"/>
<path d="M177.63 36.25H178.43V37.5398H179.63V38.1599H178.43V40.74C178.43 41.08 178.67 41.2 179.08 41.2C179.265 41.1948 179.449 41.1747 179.63 41.1399V41.8098C179.333 41.8596 179.031 41.8798 178.73 41.8699C177.94 41.8699 177.63 41.4899 177.63 40.8699V38.1499H176.73V37.5298H177.63V36.25Z" fill="#FF8E30"/>
<path d="M180.19 35.96H180.99V36.8599H180.19V35.96ZM180.19 37.52H180.99V41.71H180.19V37.52Z" fill="#FF8E30"/>
<path d="M182.31 36.25H183.11V37.5398H184.31V38.1599H183.11V40.74C183.11 41.08 183.35 41.2 183.75 41.2C183.938 41.1953 184.125 41.1752 184.31 41.1399V41.8098C184.013 41.8596 183.711 41.8798 183.41 41.8699C182.61 41.8699 182.31 41.4899 182.31 40.8699V38.1499H181.41V37.5298H182.31V36.25Z" fill="#FF8E30"/>
<path d="M189.11 41.7302H188.31V41.0901C188.126 41.3472 187.881 41.5538 187.595 41.6902C187.31 41.8266 186.995 41.8884 186.68 41.8701C185.68 41.8701 184.89 41.4401 184.89 40.3901V37.54H185.7V40.2302C185.7 40.8502 186.07 41.2302 186.93 41.2302C187.094 41.2468 187.259 41.2309 187.416 41.1836C187.574 41.1363 187.72 41.0584 187.847 40.9543C187.975 40.8503 188.08 40.7222 188.158 40.5774C188.235 40.4325 188.284 40.2737 188.3 40.1101V37.5701H189.1L189.11 41.7302Z" fill="#FF8E30"/>
<path d="M190.43 36.25H191.23V37.5398H192.43V38.1599H191.23V40.74C191.23 41.08 191.47 41.2 191.88 41.2C192.065 41.1948 192.249 41.1747 192.43 41.1399V41.8098C192.133 41.8596 191.831 41.8798 191.53 41.8699C190.74 41.8699 190.43 41.4899 190.43 40.8699V38.1499H189.53V37.5298H190.43V36.25Z" fill="#FF8E30"/>
<path d="M193.69 39.8694C193.723 40.2479 193.903 40.5986 194.19 40.8469C194.478 41.0953 194.851 41.2217 195.23 41.1995C195.502 41.2199 195.775 41.1598 196.013 41.0264C196.251 40.893 196.445 40.6923 196.57 40.4495H197.47C197.326 40.8369 197.079 41.1776 196.756 41.4351C196.433 41.6925 196.045 41.8568 195.635 41.9102C195.225 41.9635 194.809 41.904 194.43 41.738C194.052 41.572 193.726 41.3059 193.488 40.9683C193.249 40.6306 193.108 40.2342 193.078 39.822C193.048 39.4098 193.132 38.9974 193.319 38.6292C193.507 38.2609 193.791 37.9506 194.142 37.7322C194.493 37.5137 194.897 37.3952 195.31 37.3894C195.877 37.3564 196.433 37.5476 196.86 37.9219C197.287 38.2961 197.549 38.8234 197.59 39.3894C197.6 39.4958 197.6 39.603 197.59 39.7095V39.8193L193.69 39.8694ZM196.69 39.2395C196.636 38.8969 196.457 38.5864 196.187 38.3684C195.917 38.1504 195.576 38.0402 195.23 38.0593C194.886 38.0545 194.551 38.1697 194.283 38.385C194.015 38.6004 193.83 38.9026 193.76 39.2395H196.69Z" fill="#FF8E30"/>
</svg>
