<svg width="89" height="38" viewBox="0 0 89 38" fill="none" xmlns="http://www.w3.org/2000/svg">
<path d="M3.00781 0.78125V15H1.80664V0.78125H3.00781ZM9.62891 7.32422V8.35938H2.60742V7.32422H9.62891ZM10.6152 0.78125V1.81641H2.60742V0.78125H10.6152ZM21.8945 13.9746V15H13.8965V13.9746H21.8945ZM14.2578 0.78125V15H13.0566V0.78125H14.2578ZM20.8984 7.1582V8.18359H13.8965V7.1582H20.8984ZM21.8457 0.78125V1.81641H13.8965V0.78125H21.8457ZM33.2812 13.9746V15H25.2832V13.9746H33.2812ZM25.6445 0.78125V15H24.4434V0.78125H25.6445ZM32.2852 7.1582V8.18359H25.2832V7.1582H32.2852ZM33.2324 0.78125V1.81641H25.2832V0.78125H33.2324ZM44.0527 13.9746V15H36.6797V13.9746H44.0527ZM37.0312 0.78125V15H35.8301V0.78125H37.0312Z" fill="#FF8E30"/>
<path d="M6.57227 23.7812V38H5.38086V23.7812H6.57227ZM11.4453 23.7812V24.8164H0.517578V23.7812H11.4453ZM23.3203 30.1582V31.1836H14.6777V30.1582H23.3203ZM14.9609 23.7812V38H13.7598V23.7812H14.9609ZM24.2871 23.7812V38H23.0859V23.7812H24.2871ZM36.7578 36.9746V38H28.7598V36.9746H36.7578ZM29.1211 23.7812V38H27.9199V23.7812H29.1211ZM35.7617 30.1582V31.1836H28.7598V30.1582H35.7617ZM36.709 23.7812V24.8164H28.7598V23.7812H36.709ZM49.082 31.1641H45.0781L45.0586 30.1484H48.5059C49.209 30.1484 49.8079 30.0475 50.3027 29.8457C50.7975 29.6439 51.1719 29.3444 51.4258 28.9473C51.6862 28.5436 51.8164 28.0488 51.8164 27.4629C51.8164 26.8639 51.6895 26.3691 51.4355 25.9785C51.1816 25.5814 50.8008 25.2884 50.293 25.0996C49.7852 24.9108 49.1471 24.8164 48.3789 24.8164H45.3906V38H44.1895V23.7812H48.3789C49.1016 23.7812 49.7493 23.8529 50.3223 23.9961C50.8952 24.1393 51.3835 24.3639 51.7871 24.6699C52.1908 24.9759 52.4967 25.3633 52.7051 25.832C52.9199 26.2943 53.0273 26.8477 53.0273 27.4922C53.0273 28.0781 52.8971 28.6087 52.6367 29.084C52.3763 29.5527 52.0085 29.9368 51.5332 30.2363C51.0645 30.5293 50.5013 30.7116 49.8438 30.7832L49.082 31.1641ZM48.9941 38H44.6973L45.3125 36.9746H48.9941C49.6973 36.9746 50.2962 36.8574 50.791 36.623C51.2923 36.3822 51.6764 36.0404 51.9434 35.5977C52.2103 35.1549 52.3438 34.6276 52.3438 34.0156C52.3438 33.4753 52.2266 32.9902 51.9922 32.5605C51.7578 32.1309 51.3997 31.7923 50.918 31.5449C50.4362 31.291 49.8242 31.1641 49.082 31.1641H46.5918L46.6113 30.1484H50.1367L50.3516 30.5098C50.9896 30.5749 51.5462 30.7734 52.0215 31.1055C52.5033 31.431 52.8743 31.8444 53.1348 32.3457C53.4017 32.847 53.5352 33.3971 53.5352 33.9961C53.5352 34.8555 53.3431 35.5846 52.959 36.1836C52.5814 36.776 52.0508 37.2285 51.3672 37.541C50.6901 37.847 49.8991 38 48.9941 38ZM65.293 36.9746V38H57.2949V36.9746H65.293ZM57.6562 23.7812V38H56.4551V23.7812H57.6562ZM64.2969 30.1582V31.1836H57.2949V30.1582H64.2969ZM65.2441 23.7812V24.8164H57.2949V23.7812H65.2441ZM72.5098 24.6309L67.5879 38H66.3379L71.709 23.7812H72.5781L72.5098 24.6309ZM76.9824 38L72.0508 24.6309L71.9824 23.7812H72.8516L78.2324 38H76.9824ZM76.1035 32.9805V34.0156H68.5547V32.9805H76.1035ZM83.8379 23.7812V38H82.6465V23.7812H83.8379ZM88.7109 23.7812V24.8164H77.7832V23.7812H88.7109Z" fill="white"/>
</svg>
