<svg width="12" height="105" viewBox="0 0 12 105" fill="none" xmlns="http://www.w3.org/2000/svg">
<path d="M11 0C11 3.28125 1 3.28125 1 6.5625C1 9.84375 11 9.84375 11 13.125C11 16.4062 0.999999 16.4063 0.999999 19.6875C0.999999 22.9688 11 22.9687 11 26.25C11 29.5312 0.999999 29.5313 0.999999 32.8125C0.999998 36.0938 11 36.0938 11 39.375C11 42.6563 0.999998 42.6563 0.999998 45.9375C0.999998 49.2188 11 49.2187 11 52.5C11 55.7812 0.999998 55.7813 0.999997 59.0625C0.999997 62.3438 11 62.3438 11 65.625C11 68.9063 0.999997 68.9063 0.999997 72.1875C0.999997 75.4688 11 75.4688 11 78.75C11 82.0313 0.999996 82.0313 0.999996 85.3125C0.999996 88.5938 11 88.5938 11 91.875C11 95.1563 0.999996 95.1563 0.999996 98.4375C0.999996 101.719 11 101.719 11 105" stroke="#FF8E30" stroke-width="0.75" stroke-miterlimit="10"/>
</svg>
