<svg width="26" height="26" viewBox="0 0 26 26" fill="none" xmlns="http://www.w3.org/2000/svg">
<path d="M13 26C20.1797 26 26 20.1797 26 13C26 5.8203 20.1797 0 13 0C5.8203 0 0 5.8203 0 13C0 20.1797 5.8203 26 13 26Z" fill="#FF8E30"/>
<path d="M18.9 6.9707C17.2573 5.69355 15.2358 5 13.155 5C11.0742 5 9.05277 5.69355 7.41003 6.9707C6.67214 7.54449 6.07185 8.27587 5.65314 9.11157C5.23442 9.94727 5.00783 10.866 4.98999 11.8005C4.99787 12.6644 5.18918 13.5169 5.55121 14.3013C5.91324 15.0857 6.43776 15.7841 7.09003 16.3506C8.46324 17.5259 10.1694 18.2427 11.97 18.4006V21.1106C11.97 21.2008 12.0058 21.2873 12.0696 21.3511C12.1333 21.4148 12.2198 21.4507 12.31 21.4507C12.3828 21.4516 12.4536 21.4267 12.51 21.3806L17.61 17.4807C18.6089 16.7783 19.4956 15.9287 20.24 14.9607C20.9322 14.0366 21.3107 12.9151 21.32 11.7605C21.2984 10.8323 21.0699 9.9207 20.6512 9.09204C20.2326 8.26338 19.6343 7.5388 18.9 6.9707Z" fill="white"/>
<path d="M15.44 9.80975C15.44 9.50975 15.2899 9.34979 15.0399 9.34979C14.7899 9.34979 14.64 9.51976 14.64 9.81976V11.4799C14.64 11.5599 14.64 11.6397 14.64 11.7897L14.44 11.5598L12.91 9.55975C12.8637 9.47526 12.7897 9.4094 12.7005 9.37298C12.6113 9.33657 12.5122 9.33187 12.4199 9.3598C12.3257 9.38542 12.2438 9.44369 12.1888 9.52435C12.1338 9.60501 12.1094 9.7027 12.12 9.79974C12.12 10.8597 12.12 11.9297 12.12 12.9997C12.1131 13.0831 12.1326 13.1667 12.1756 13.2385C12.2187 13.3102 12.2831 13.3666 12.36 13.3998C12.66 13.5398 12.94 13.3299 12.95 12.9499V11.1098C13.0241 11.1488 13.0889 11.2033 13.14 11.2697L14.6699 13.2697C14.7999 13.4297 14.9399 13.5599 15.1699 13.4799C15.2639 13.4484 15.3441 13.3853 15.3969 13.3015C15.4498 13.2176 15.472 13.1181 15.46 13.0197V9.86981L15.44 9.80975Z" fill="#FF8E30"/>
<path d="M17.01 10.1805H18.17C18.2826 10.1792 18.3942 10.1589 18.5 10.1204C18.585 10.0829 18.6528 10.0148 18.6899 9.92952C18.7269 9.84429 18.7305 9.74826 18.7 9.66048C18.6809 9.57055 18.6298 9.49054 18.5563 9.43538C18.4827 9.38022 18.3917 9.35359 18.3 9.36043H16.69C16.3 9.36043 16.15 9.51046 16.15 9.89046V12.8905C16.15 13.2705 16.31 13.4305 16.69 13.4305H18.19C18.273 13.4403 18.357 13.4403 18.44 13.4305C18.49 13.4136 18.5362 13.387 18.5759 13.3521C18.6156 13.3173 18.648 13.275 18.6713 13.2276C18.6945 13.1802 18.7081 13.1285 18.7113 13.0758C18.7145 13.0231 18.7073 12.9704 18.69 12.9205C18.6727 12.8628 18.6419 12.8099 18.6002 12.7664C18.5584 12.723 18.507 12.6901 18.45 12.6705C18.3438 12.6558 18.2362 12.6558 18.13 12.6705H17V11.8804H17.19H18.26C18.57 11.8804 18.73 11.7005 18.72 11.4405C18.7178 11.3829 18.7035 11.3264 18.678 11.2747C18.6526 11.223 18.6165 11.1773 18.5721 11.1405C18.5278 11.1037 18.4762 11.0766 18.4207 11.0611C18.3652 11.0456 18.307 11.0419 18.25 11.0504H17.66C16.93 11.0504 16.93 11.0504 16.99 10.3104V10.2503L17.01 10.1805Z" fill="#FF8E30"/>
<path d="M9.71011 12.6296H8.3901V9.88965C8.3901 9.53965 8.24007 9.34961 7.98007 9.34961C7.72007 9.34961 7.56009 9.52964 7.56009 9.87964V12.9597C7.54553 13.0747 7.57588 13.1908 7.6448 13.2839C7.71372 13.3771 7.8159 13.44 7.93008 13.4597H8.05008C8.34008 13.4597 9.4501 13.4597 9.7001 13.4597C9.81149 13.4597 9.91833 13.4154 9.9971 13.3367C10.0759 13.2579 10.1201 13.1509 10.1201 13.0396C10.1152 12.9324 10.0705 12.831 9.99459 12.7551C9.91874 12.6793 9.81728 12.6345 9.71011 12.6296Z" fill="#FF8E30"/>
<path d="M11.4 9.75952C11.4 9.44952 11.2999 9.34961 10.9999 9.34961C10.6999 9.34961 10.59 9.43951 10.59 9.74951V13.0396C10.59 13.3396 10.6999 13.4497 10.9899 13.4497C11.2799 13.4497 11.4 13.3395 11.4 13.0195V9.75952Z" fill="#FF8E30"/>
</svg>
