<svg width="26" height="26" viewBox="0 0 26 26" fill="none" xmlns="http://www.w3.org/2000/svg">
<path d="M13 26C20.1797 26 26 20.1797 26 13C26 5.8203 20.1797 0 13 0C5.8203 0 0 5.8203 0 13C0 20.1797 5.8203 26 13 26Z" fill="#FF8E30"/>
<path d="M15.73 6.26953H10.27C8.06088 6.26953 6.27002 8.06039 6.27002 10.2695V15.7295C6.27002 17.9387 8.06088 19.7295 10.27 19.7295H15.73C17.9392 19.7295 19.73 17.9387 19.73 15.7295V10.2695C19.73 8.06039 17.9392 6.26953 15.73 6.26953Z" fill="white"/>
<path d="M13.0201 16.3602C12.1685 16.3531 11.3508 16.0256 10.7296 15.443C10.1084 14.8604 9.72925 14.0656 9.6675 13.2162C9.60575 12.3668 9.86591 11.5253 10.3963 10.859C10.9267 10.1927 11.6885 9.75049 12.5301 9.62025C12.8615 9.56929 13.1987 9.56929 13.5301 9.62025C14.2513 9.72122 14.9201 10.0537 15.4359 10.5678C15.9517 11.0818 16.2866 11.7495 16.3901 12.4703C16.5221 13.3599 16.2962 14.2652 15.7621 14.9887C15.228 15.7121 14.429 16.1945 13.5401 16.3302C13.3675 16.3506 13.1939 16.3606 13.0201 16.3602ZM13.0201 10.6202C12.9037 10.61 12.7865 10.61 12.6701 10.6202C12.0509 10.7094 11.4925 11.0407 11.1175 11.5414C10.7424 12.042 10.5815 12.6709 10.6701 13.2902C10.7592 13.9093 11.0905 14.4679 11.5911 14.8429C12.0918 15.2179 12.7209 15.3787 13.3401 15.2902C13.959 15.1961 14.5158 14.862 14.8901 14.3602C15.2593 13.8567 15.4139 13.2275 15.3201 12.6102C15.2538 12.103 15.0218 11.6319 14.6601 11.2701C14.2984 10.9084 13.8273 10.6765 13.3201 10.6102C13.2233 10.6065 13.1264 10.6099 13.0301 10.6202H13.0201Z" fill="#FF8E30"/>
<path d="M16.9501 9.8501C16.7379 9.8501 16.5344 9.76575 16.3844 9.61572C16.2344 9.46569 16.1501 9.26222 16.1501 9.05005C16.1488 8.94547 16.1682 8.84163 16.2073 8.74463C16.2464 8.64762 16.3044 8.55953 16.3779 8.48511C16.4514 8.41069 16.5389 8.3516 16.6354 8.31128C16.7319 8.27095 16.8355 8.24999 16.9401 8.25C17.1522 8.25 17.3557 8.33435 17.5057 8.48438C17.6558 8.6344 17.7401 8.83788 17.7401 9.05005C17.7401 9.26222 17.6558 9.46569 17.5057 9.61572C17.3557 9.76575 17.1522 9.8501 16.9401 9.8501H16.9501Z" fill="#FF8E30"/>
</svg>
