<svg width="26" height="26" viewBox="0 0 26 26" fill="none" xmlns="http://www.w3.org/2000/svg">
<path fill-rule="evenodd" clip-rule="evenodd" d="M16.97 4.85938H14.53C13.9955 4.85938 13.4663 4.96465 12.9725 5.16919C12.4787 5.37373 12.03 5.67358 11.6521 6.05151C11.2742 6.42945 10.9744 6.87803 10.7698 7.37183C10.5653 7.86562 10.46 8.39496 10.46 8.92944V11.3694H8.02002V14.6194H10.46V21.1094H13.71V14.5994H16.15L16.97 11.3494H13.71V8.90942C13.7127 8.69368 13.8002 8.48756 13.9537 8.33594C14.1072 8.18431 14.3143 8.09935 14.53 8.09937H16.97V4.85938Z" fill="#FF8E30"/>
<path d="M25.5 13C25.5 19.9036 19.9036 25.5 13 25.5C6.09644 25.5 0.5 19.9036 0.5 13C0.5 6.09644 6.09644 0.5 13 0.5C19.9036 0.5 25.5 6.09644 25.5 13Z" stroke="#FF8E30"/>
</svg>
