<svg width="26" height="26" viewBox="0 0 26 26" fill="none" xmlns="http://www.w3.org/2000/svg">
<path d="M13 26C20.1797 26 26 20.1797 26 13C26 5.8203 20.1797 0 13 0C5.8203 0 0 5.8203 0 13C0 20.1797 5.8203 26 13 26Z" fill="#FF8E30"/>
<path fill-rule="evenodd" clip-rule="evenodd" d="M13.24 7.94C15.1673 7.91327 17.0944 8.00682 19.01 8.22003C19.2645 8.29707 19.4953 8.43734 19.6807 8.62799C19.8661 8.81865 20.0001 9.05329 20.07 9.30988C20.2878 10.5309 20.3916 11.7695 20.38 13.0098C20.3869 14.23 20.2832 15.4485 20.07 16.65C20.0009 16.9086 19.8661 17.1447 19.6786 17.3358C19.4911 17.5268 19.2573 17.666 19 17.7398C17.0896 17.9782 15.1649 18.0819 13.24 18.0499C11.1519 18.0968 9.06316 17.9931 6.98998 17.7398C6.74302 17.6742 6.51613 17.5488 6.32945 17.3743C6.14277 17.1999 6.00208 16.9818 5.91997 16.7398C5.70677 15.5215 5.60302 14.2867 5.60997 13.0499C5.60142 11.8192 5.70856 10.5905 5.92998 9.37994C5.99634 9.12163 6.12905 8.88511 6.31499 8.69391C6.50092 8.50271 6.73362 8.3634 6.98998 8.28986C7.84906 8.14082 8.71827 8.05725 9.59001 8.03986H10.18C11.26 8.03986 12.29 8.03986 12.75 8.03986L13.24 7.94Z" fill="white"/>
<path d="M11.39 15.3396L15.49 13.0095L11.39 10.6797V15.3396Z" fill="#FF8E30"/>
</svg>
