<svg width="160" height="38" viewBox="0 0 160 38" fill="none" xmlns="http://www.w3.org/2000/svg">
<rect x="0.5" y="0.5" width="159" height="37" rx="9.5" fill="url(#paint0_linear_34_1669)" stroke="#FF8E30"/>
<path d="M50.768 12.374V13.742H60.902V12.374H50.768ZM56.492 25.1C57.716 25.784 59.318 26.846 60.092 27.53L61.208 26.36C60.398 25.676 58.76 24.686 57.536 24.038L56.492 25.1ZM53.702 24.038C52.802 24.812 51.056 25.784 49.688 26.342C50.03 26.666 50.498 27.17 50.75 27.512C52.136 26.9 53.918 25.928 55.088 25.028L53.702 24.038ZM50.138 22.724V24.182H61.37V22.724H50.138ZM52.352 16.928V17.882H59.228V16.928H52.352ZM52.334 18.8V19.772H59.336V18.8H52.334ZM52.37 20.726V21.716H59.102V20.726H52.37ZM51.65 14.804V23.138H53.144V15.956H58.274V23.138H59.822V14.804H51.65ZM54.926 10.844C54.782 12.266 54.44 14.318 54.134 15.596L55.538 15.758C55.934 14.534 56.402 12.59 56.726 10.916L54.926 10.844ZM44.684 15.074V16.694H50.192V15.074H44.684ZM46.61 11.042V23.012H48.23V11.042H46.61ZM44.504 23.426L45.134 25.136C46.646 24.542 48.518 23.768 50.3 23.03L50.03 21.518C47.996 22.256 45.89 23.012 44.504 23.426ZM63.278 12.176V15.596H64.826V13.652H77.102V15.596H78.722V12.176H63.278ZM69.632 14.048C68.606 14.48 66.914 14.912 65.438 15.218C65.582 15.506 65.78 15.974 65.852 16.28C67.418 16.028 69.29 15.614 70.658 15.11L69.632 14.048ZM65.438 15.218V19.844H66.95V15.524L65.438 15.218ZM65.438 19.268V20.474H76.526V14.912H71.432V16.1H74.978V19.268H65.438ZM65.96 17.09V18.26H70.244V17.09H65.96ZM71.738 17.09V18.26H75.77V17.09H71.738ZM67.904 19.79C66.86 21.446 64.808 22.778 62.702 23.552C63.008 23.876 63.512 24.56 63.71 24.902C65.942 23.912 68.174 22.274 69.416 20.24L67.904 19.79ZM67.346 21.482L65.978 22.85H77.084V21.482H67.346ZM76.544 21.482V21.698C76.382 24.506 76.22 25.586 75.932 25.892C75.788 26.054 75.626 26.072 75.32 26.054C75.014 26.072 74.24 26.054 73.412 25.982C73.682 26.378 73.844 27.008 73.88 27.458C74.78 27.494 75.644 27.512 76.112 27.458C76.634 27.404 77.012 27.296 77.354 26.918C77.804 26.432 78.002 25.172 78.182 22.112C78.2 21.914 78.218 21.482 78.218 21.482H76.544ZM66.554 23.282C66.23 24.326 65.654 25.64 64.97 26.45L66.338 27.08C67.022 26.234 67.544 24.902 67.904 23.822L66.554 23.282ZM68.48 23.624C68.822 24.668 69.038 26 69.02 26.828L70.388 26.648C70.388 25.802 70.136 24.488 69.776 23.48L68.48 23.624ZM70.748 23.66C71.216 24.524 71.63 25.658 71.756 26.396L73.052 26.036C72.926 25.298 72.458 24.182 71.936 23.336L70.748 23.66ZM72.962 23.606C73.502 24.182 74.096 24.992 74.33 25.55L75.482 24.992C75.248 24.452 74.636 23.66 74.078 23.102L72.962 23.606ZM69.506 11.168C69.902 11.888 70.28 12.824 70.424 13.418L72.242 12.86C72.098 12.248 71.648 11.348 71.252 10.682L69.506 11.168ZM84.158 16.082V17.648H93.752V16.082H84.158ZM80.972 19.412V21.014H97.01V19.412H80.972ZM85.688 20.51C85.508 23.804 85.022 25.334 80.702 26.108C81.026 26.45 81.476 27.116 81.602 27.53C86.444 26.54 87.218 24.47 87.416 20.51H85.688ZM90.242 20.348V25.064C90.242 26.738 90.692 27.26 92.546 27.26C92.924 27.26 94.706 27.26 95.102 27.26C96.65 27.26 97.1 26.594 97.298 24.056C96.83 23.93 96.11 23.66 95.75 23.39C95.678 25.388 95.57 25.694 94.94 25.694C94.526 25.694 93.086 25.694 92.762 25.694C92.06 25.694 91.952 25.604 91.952 25.064V20.348H90.242ZM81.368 12.788V17H83.078V14.426H94.796V17H96.56V12.788H81.368ZM87.434 11.132C87.884 11.96 88.352 13.076 88.532 13.76L90.368 13.202C90.152 12.5 89.648 11.42 89.162 10.628L87.434 11.132ZM101.15 17.576V19.142H105.488V17.576H101.15ZM104.822 17.576V17.846C104.768 21.554 104.696 22.868 104.444 23.174C104.318 23.336 104.138 23.372 103.886 23.372C103.58 23.372 102.878 23.372 102.14 23.3C102.392 23.732 102.572 24.398 102.608 24.884C103.472 24.92 104.282 24.92 104.75 24.866C105.254 24.794 105.578 24.65 105.902 24.272C106.298 23.75 106.388 22.184 106.478 18.242C106.478 18.026 106.478 17.576 106.478 17.576H104.822ZM110.042 11.816C111.122 12.41 112.472 13.31 113.12 13.94L114.2 12.788C113.516 12.176 112.13 11.33 111.068 10.772L110.042 11.816ZM112.436 16.586C111.122 20.852 108.638 24.146 105.074 26.036C105.434 26.378 106.064 27.08 106.316 27.44C109.952 25.244 112.616 21.698 114.146 17L112.436 16.586ZM101.258 13.706V15.38H115.172V13.706H101.258ZM100.142 13.706V18.872C100.142 21.212 99.998 24.344 98.558 26.54C98.954 26.738 99.71 27.35 99.998 27.692C101.636 25.298 101.924 21.5 101.924 18.89V13.706H100.142ZM107.558 10.826C107.612 19.268 109.178 27.386 112.94 27.386C114.452 27.386 115.046 26.54 115.334 23.336C114.884 23.174 114.254 22.778 113.876 22.4C113.768 24.74 113.552 25.658 113.084 25.658C110.978 25.658 109.25 18.71 109.322 10.826H107.558Z" fill="white"/>
<defs>
<linearGradient id="paint0_linear_34_1669" x1="80" y1="0" x2="80" y2="38" gradientUnits="userSpaceOnUse">
<stop stop-color="#FF8E30"/>
<stop offset="1" stop-color="#6C2700"/>
</linearGradient>
</defs>
</svg>
